<?xml version="1.0" encoding="UTF-8"?>
<svg version="1.1" xmlns="http://www.w3.org/2000/svg" width="1024" height="1024">
<path d="M0 0 C337.92 0 675.84 0 1024 0 C1024 337.92 1024 675.84 1024 1024 C686.08 1024 348.16 1024 0 1024 C0 686.08 0 348.16 0 0 Z " fill="#090909" transform="translate(0,0)"/>
<path d="M0 0 C4.55591878 3.30718933 9.00201592 6.73749472 13.36962891 10.2890625 C16.80240345 13.07312375 20.32335515 15.72614313 23.86962891 18.36328125 C24.35689453 18.80542969 24.84416016 19.24757812 25.34619141 19.703125 C25.34619141 20.363125 25.34619141 21.023125 25.34619141 21.703125 C26.19890625 22.07824219 26.19890625 22.07824219 27.06884766 22.4609375 C29.68351854 23.88712162 31.59197923 25.56012357 33.78369141 27.578125 C35.10433594 28.79242188 35.10433594 28.79242188 36.45166016 30.03125 C37.88445312 31.35382813 37.88445312 31.35382813 39.34619141 32.703125 C40.36197947 33.61585256 41.37893371 34.52728371 42.39697266 35.4375 C49.68386752 41.99615491 56.41654248 48.936653 63.04931641 56.15234375 C65.88638625 59.23130249 68.80299778 62.2005772 71.78369141 65.140625 C75.85262704 69.16999238 79.63822231 73.34255334 83.34619141 77.703125 C84.2256705 78.71938155 85.10594606 79.73494912 85.98681641 80.75 C96.02509323 92.34449482 105.75938969 104.17438391 115.03369141 116.390625 C115.53900391 117.04981934 116.04431641 117.70901367 116.56494141 118.38818359 C121.59067851 125.08397452 121.59067851 125.08397452 122.34619141 128.703125 C121.19384766 130.94921875 121.19384766 130.94921875 119.40869141 133.140625 C116.73113548 136.71422115 116.73113548 136.71422115 116.34619141 141.140625 C117.19339268 143.8181006 117.19339268 143.8181006 119.34619141 145.703125 C123.58759618 146.98541016 126.35717026 146.73778816 130.35791016 144.8359375 C132.62351492 143.54512143 134.70454073 142.06586295 136.84619141 140.578125 C160.49092011 125.30891328 192.45371084 119.24269795 219.90869141 115.578125 C221.11976563 115.40925781 222.33083984 115.24039063 223.57861328 115.06640625 C237.98413302 113.10657657 252.20303634 112.46301144 266.72119141 112.453125 C267.61814728 112.45245026 268.51510315 112.45177551 269.4392395 112.45108032 C311.03863934 112.50038891 368.29316501 116.60636274 403.21337891 142.4375 C407.27040966 145.37151226 409.36670942 145.703125 414.34619141 145.703125 C417.36569294 144.90884541 417.36569294 144.90884541 419.34619141 142.703125 C420.60625456 139.38503036 420.60625456 139.38503036 420.34619141 135.703125 C418.5641058 132.44623506 418.5641058 132.44623506 416.34619141 129.703125 C416.01619141 128.713125 415.68619141 127.723125 415.34619141 126.703125 C416.61529185 124.54037926 417.90741703 122.63484677 419.40869141 120.640625 C419.8555127 120.03283203 420.30233398 119.42503906 420.76269531 118.79882812 C422.27575529 116.75540135 423.80816847 114.72782267 425.34619141 112.703125 C425.89355957 111.98012207 426.44092773 111.25711914 427.00488281 110.51220703 C436.8336126 97.58085329 447.17861365 85.1864938 458.11572266 73.1796875 C459.35567042 71.80293289 460.58928703 70.42011956 461.79656982 69.01463318 C466.2708316 63.81454945 470.98623982 58.91712454 475.84228516 54.07421875 C476.6346608 53.28088638 477.42703644 52.48755402 478.24342346 51.67018127 C479.90869423 50.00423419 481.57521169 48.33953244 483.24291992 46.67602539 C485.77653763 44.14776366 488.30477308 41.61420839 490.83251953 39.08007812 C492.46045423 37.4528043 494.08869915 35.82584075 495.71728516 34.19921875 C496.46336533 33.45111435 497.2094455 32.70300995 497.97813416 31.93223572 C502.60769183 27.32301489 507.37374248 22.9395575 512.34619141 18.703125 C513.36535393 17.83343834 513.36535393 17.83343834 514.40510559 16.94618225 C538.18555098 -3.27185159 568.26429811 -27.70376197 601.34619141 -25.296875 C610.64287928 -24.09675711 618.24877911 -19.40639983 624.17822266 -12.24609375 C670.55353884 50.84104809 664.15750941 151.93204466 653.13964844 225.62207031 C638.16739859 322.88191781 638.16739859 322.88191781 622.34619141 338.703125 C622.06646484 338.20312988 621.78673828 337.70313477 621.49853516 337.18798828 C602.62800768 303.56538044 582.551532 269.04699768 557.50634766 239.53515625 C557.12349609 238.93058594 556.74064453 238.32601563 556.34619141 237.703125 C556.67619141 236.713125 557.00619141 235.723125 557.34619141 234.703125 C558.10851751 229.47154146 558.10851751 229.47154146 556.06713867 224.81982422 C551.4991231 219.83287362 546.73840303 215.11800158 541.78369141 210.515625 C541.05472656 209.83048828 540.32576172 209.14535156 539.57470703 208.43945312 C536.39649928 205.46721383 533.21559369 202.56102692 529.81884766 199.83984375 C529.00287109 199.13472656 528.18689453 198.42960938 527.34619141 197.703125 C527.34619141 197.043125 527.34619141 196.383125 527.34619141 195.703125 C528.48958984 195.14882813 529.63298828 194.59453125 530.81103516 194.0234375 C532.30207603 193.29198348 533.79295303 192.56019533 535.28369141 191.828125 C536.0384375 191.46332031 536.79318359 191.09851563 537.57080078 190.72265625 C538.6487793 190.19091797 538.6487793 190.19091797 539.74853516 189.6484375 C540.41361084 189.32375488 541.07868652 188.99907227 541.76391602 188.66455078 C543.52668385 187.78560232 543.52668385 187.78560232 544.34619141 185.703125 C544.88929267 179.40315039 544.10745154 174.88876766 540.34619141 169.703125 C531.96549268 161.32242627 519.57493577 160.7242933 508.40869141 160.140625 C507.62945313 160.09744141 506.85021484 160.05425781 506.04736328 160.00976562 C504.14712023 159.90484423 502.24667472 159.8036005 500.34619141 159.703125 C500.01619141 159.043125 499.68619141 158.383125 499.34619141 157.703125 C500.17553711 155.65039062 500.17553711 155.65039062 501.52197266 153.109375 C502.01511963 152.17053467 502.5082666 151.23169434 503.01635742 150.2644043 C503.55832764 149.25418213 504.10029785 148.24395996 504.65869141 147.203125 C505.20904053 146.16518799 505.75938965 145.12725098 506.32641602 144.05786133 C507.98890806 140.93370071 509.66471449 137.81710261 511.34619141 134.703125 C511.80058594 133.85927246 512.25498047 133.01541992 512.72314453 132.14599609 C527.00696307 105.7253472 542.83446163 79.01465672 563.33837891 56.921875 C564.74339133 55.36925427 566.08870684 53.7614675 567.38525391 52.1171875 C569.10698488 49.99760634 570.76246068 48.32370644 572.84619141 46.578125 C576.9779492 43.04988239 580.97573267 39.39404843 584.95751953 35.69873047 C586.41102278 34.35662356 587.87860783 33.02982055 589.34619141 31.703125 C589.84771729 31.22085449 590.34924316 30.73858398 590.8659668 30.24169922 C593.25741548 28.04688672 594.71312905 26.74205416 598.01416016 26.5390625 C599.26132813 26.80589844 599.26132813 26.80589844 600.53369141 27.078125 C603.01523804 27.65855427 603.01523804 27.65855427 605.34619141 27.703125 C608.163308 25.69728688 608.45587601 24.3740712 609.59619141 20.953125 C609.93875966 18.8227899 609.93875966 18.8227899 609.34619141 16.703125 C606.6728409 13.84973252 603.62529955 11.80589881 600.34619141 9.703125 C600.01619141 9.373125 599.68619141 9.043125 599.34619141 8.703125 C585.17874136 8.03264897 572.83574868 18.68671972 562.86328125 27.62744141 C560.32387651 29.95107438 557.83257853 32.32305009 555.34619141 34.703125 C554.41677734 35.5796875 553.48736328 36.45625 552.52978516 37.359375 C545.37126827 44.28368721 539.28241013 51.73937405 533.34619141 59.703125 C532.57637939 60.73034668 532.57637939 60.73034668 531.79101562 61.77832031 C511.2844735 89.26594569 495.100412 119.2531123 479.72119141 149.828125 C479.4024707 150.46081299 479.08375 151.09350098 478.75537109 151.74536133 C475.25068459 158.78081663 472.87561959 164.01567734 475.34619141 171.890625 C478.04046011 175.67944036 481.00639363 177.31136608 485.34619141 178.703125 C490.17812753 179.31179633 494.98006087 179.3987272 499.84619141 179.453125 C501.14556641 179.48277344 502.44494141 179.51242187 503.78369141 179.54296875 C506.97125246 179.6132826 510.15809822 179.66617268 513.34619141 179.703125 C511.34536222 181.20785497 509.34299462 182.70542595 507.31103516 184.16796875 C506.64201172 184.65394531 505.97298828 185.13992188 505.28369141 185.640625 C504.61208984 186.12402344 503.94048828 186.60742188 503.24853516 187.10546875 C500.22134426 189.64781183 498.50927815 191.63141211 497.90869141 195.578125 C498.82465515 202.12072317 503.55725139 206.10096584 508.47119141 210.078125 C509.04232666 210.55072754 509.61346191 211.02333008 510.2019043 211.51025391 C513.70350681 214.39772019 517.2417933 217.24030679 520.78369141 220.078125 C521.57388672 220.71621094 522.36408203 221.35429687 523.17822266 222.01171875 C525.27038144 223.69022237 525.27038144 223.69022237 527.29541016 224.98828125 C528.97119141 226.140625 528.97119141 226.140625 531.34619141 228.703125 C531.37158203 230.59692383 531.37158203 230.59692383 531.12744141 232.78515625 C530.97914254 238.78040905 533.74518668 242.28467918 537.22119141 246.953125 C537.75744141 247.70980469 538.29369141 248.46648437 538.84619141 249.24609375 C541.77619324 253.34128236 544.82948719 257.33223813 547.92521667 261.30317688 C553.58744939 268.58015488 558.82125629 276.07797326 563.90869141 283.765625 C564.33417267 284.4063092 564.75965393 285.04699341 565.19802856 285.70709229 C579.36920722 307.07408238 592.47144269 328.9688263 604.34619141 351.703125 C604.70938477 352.39100098 605.07257812 353.07887695 605.44677734 353.78759766 C614.24377417 370.50537904 621.84642829 388.00818375 629.20556641 405.40112305 C637.26372809 424.36709606 647.46021969 441.89920646 659.34619141 458.703125 C659.77528809 459.31220703 660.20438477 459.92128906 660.64648438 460.54882812 C663.11214032 464.01832135 665.68527141 467.3815628 668.34619141 470.703125 C668.79671875 471.26580078 669.24724609 471.82847656 669.71142578 472.40820312 C675.59709095 479.6925978 681.50940121 486.12855631 688.97119141 491.8359375 C691.2817034 493.65242554 693.31272946 495.58493547 695.34619141 497.703125 C686.3384408 506.71087561 673.75959293 508.84249237 661.54541016 509.1328125 C658.29410313 509.26946989 655.75590288 509.489947 652.84619141 511.00390625 C650.80417649 513.31712628 650.86293599 515.46699534 650.81494141 518.47265625 C651.59397758 521.74346255 653.40593474 523.97850925 655.34619141 526.703125 C668.39223849 546.08034199 680.98781976 573.45501524 676.89697266 597.32421875 C676.44212481 599.13393253 675.90475955 600.92268905 675.34619141 602.703125 C669.95694118 599.89134227 665.44635609 596.49255918 660.77587891 592.60546875 C655.61163204 588.53666026 655.61163204 588.53666026 649.34619141 587.203125 C648.70681641 587.1721875 648.06744141 587.14125 647.40869141 587.109375 C643.91079487 588.11634522 642.56912293 589.8369014 640.34619141 592.703125 C639.04785336 596.16985231 638.27098535 599.71838045 637.47119141 603.328125 C633.58650315 619.37495367 628.09495288 634.19777932 620.36230469 648.78125 C619.33940056 650.71596919 618.33926837 652.6611909 617.34228516 654.609375 C610.94722535 666.9990212 603.39175501 678.07458776 594.34619141 688.703125 C593.44993163 689.78610556 592.55411793 690.8694554 591.65869141 691.953125 C584.72496943 700.24072793 577.27617261 707.98585985 569.65869141 715.640625 C569.16325836 716.14123444 568.66782532 716.64184387 568.15737915 717.15762329 C566.74310037 718.58357119 565.32020996 720.00096224 563.89697266 721.41796875 C563.0685083 722.24417725 562.24004395 723.07038574 561.38647461 723.92163086 C559.34619141 725.703125 559.34619141 725.703125 557.34619141 725.703125 C557.01619141 726.693125 556.68619141 727.683125 556.34619141 728.703125 C554.73459512 730.16219521 553.05644473 731.54855121 551.34619141 732.890625 C547.83095863 735.68570765 544.43334374 738.50615908 541.15869141 741.578125 C535.4096869 746.72785165 529.02410095 750.93369528 522.60888672 755.19824219 C521.09200119 756.20709872 519.5783498 757.22083389 518.06787109 758.23925781 C504.26508136 767.53975044 489.99488496 775.81105572 475.34619141 783.703125 C474.46867218 784.17812439 474.46867218 784.17812439 473.57342529 784.66271973 C436.05924484 804.96050513 396.8687502 820.83182774 355.88671875 832.67578125 C352.57255226 833.63744258 349.2651164 834.61887338 345.95947266 835.609375 C335.97139501 838.59059047 325.95185295 841.39662846 315.84619141 843.953125 C314.46874756 844.30443481 314.46874756 844.30443481 313.06347656 844.6628418 C310.1651672 845.3808543 307.25991693 846.05046331 304.34619141 846.703125 C303.16742432 846.97455322 301.98865723 847.24598145 300.77416992 847.52563477 C289.90587983 849.82061957 279.36932195 850.22010929 268.28369141 850.140625 C266.93165619 850.13606293 266.93165619 850.13606293 265.55230713 850.13140869 C251.45554837 850.06117617 238.06882164 849.12068845 224.34619141 845.703125 C223.01007813 845.38964111 223.01007813 845.38964111 221.64697266 845.06982422 C204.97252799 841.14521497 188.64955355 835.92938055 172.34619141 830.703125 C171.37375488 830.3922998 170.40131836 830.08147461 169.39941406 829.76123047 C138.11076496 819.70596929 107.75401425 807.36697127 78.34619141 792.703125 C76.8943042 791.98020264 76.8943042 791.98020264 75.41308594 791.24267578 C41.45989271 774.21707218 7.50750096 753.64477873 -20.02490234 727.21875 C-22.14280937 725.19210494 -24.28707662 723.27539328 -26.52880859 721.390625 C-35.88585041 713.29049925 -44.75169296 704.22285019 -52.65380859 694.703125 C-53.41822266 693.81625 -54.18263672 692.929375 -54.97021484 692.015625 C-70.32037073 674.01727428 -82.36004083 653.43665432 -91.65380859 631.703125 C-91.92386719 631.07196777 -92.19392578 630.44081055 -92.47216797 629.79052734 C-96.45809468 620.27597265 -99.14337465 610.57377942 -101.38671875 600.50732422 C-102.71225613 594.93471537 -103.82090913 591.24083701 -108.65380859 587.703125 C-113.79659492 586.76028084 -116.54010516 587.31054197 -120.90380859 590.140625 C-122.50212912 591.30787484 -124.08371722 592.49817115 -125.65380859 593.703125 C-126.73204437 594.5055096 -127.81154301 595.3061991 -128.89208984 596.10546875 C-131.82822036 598.28437309 -134.74477882 600.48812771 -137.65380859 602.703125 C-142.31871333 595.7057679 -141.6586628 585.49211966 -140.25537109 577.40771484 C-139.03200495 571.74847013 -137.4089118 566.21783176 -135.65380859 560.703125 C-135.42918945 559.99478516 -135.20457031 559.28644531 -134.97314453 558.55664062 C-130.85854779 545.94333533 -124.96953556 534.07054879 -116.65380859 523.703125 C-115.4692955 520.14958571 -115.38738965 517.43299022 -115.65380859 513.703125 C-117.19643672 511.59954119 -118.33489177 510.86258341 -120.65380859 509.703125 C-122.43852076 509.59053802 -124.22386112 509.48329567 -126.01074219 509.41308594 C-137.10682818 508.97318642 -147.16269741 506.85057867 -156.65380859 500.703125 C-158.43896484 498.54296875 -158.43896484 498.54296875 -159.65380859 496.703125 C-158.79400391 496.15011719 -157.93419922 495.59710937 -157.04833984 495.02734375 C-123.53443894 472.65526742 -104.35731716 435.93529604 -89.65380859 399.703125 C-78.33228533 371.83877069 -65.7412101 345.19245415 -50.23193359 319.34667969 C-48.76888946 316.89589969 -47.33027969 314.43313778 -45.90380859 311.9609375 C-35.60558477 294.12979026 -23.70719731 277.42467106 -11.63623047 260.76049805 C-9.99440552 258.49194723 -8.35910029 256.21879986 -6.72412109 253.9453125 C-4.7906767 251.25977154 -2.82913454 248.6005133 -0.83349609 245.9609375 C4.1545484 239.83969553 4.1545484 239.83969553 5.40869141 232.390625 C5.33699365 228.16045745 5.66743732 227.79388602 8.47119141 224.890625 C13.40810733 220.42807466 18.72309875 216.39137779 23.98681641 212.32421875 C31.38632346 206.70907597 31.38632346 206.70907597 37.34619141 199.703125 C37.91046371 194.78589496 37.99912635 192.74374007 35.34619141 188.515625 C32.6036825 185.6229499 29.36412867 183.65052355 25.92041016 181.68359375 C25.40091797 181.36003906 24.88142578 181.03648437 24.34619141 180.703125 C24.34619141 180.373125 24.34619141 180.043125 24.34619141 179.703125 C25.41933594 179.68125122 25.41933594 179.68125122 26.51416016 179.65893555 C29.79201576 179.58393287 33.06891058 179.48744545 36.34619141 179.390625 C37.47154297 179.36806641 38.59689453 179.34550781 39.75634766 179.32226562 C50.42936757 179.0748449 50.42936757 179.0748449 59.28369141 173.703125 C61.69598861 169.16233026 62.14093211 164.72570144 61.34619141 159.703125 C59.6383584 155.42388952 57.39208953 151.50397396 55.09619141 147.515625 C54.12672115 145.77918896 53.15726306 144.0427457 52.18908691 142.30558777 C51.20764453 140.55059106 50.21803133 138.80040638 49.22705078 137.05078125 C47.52733057 134.02552638 45.87005286 130.98339274 44.23681641 127.921875 C26.48895186 94.66359673 6.39401678 62.12277993 -19.65380859 34.703125 C-20.17523438 34.15301758 -20.69666016 33.60291016 -21.23388672 33.03613281 C-28.17112485 25.76914629 -35.14655853 19.15098545 -43.65380859 13.703125 C-44.32669922 13.26226562 -44.99958984 12.82140625 -45.69287109 12.3671875 C-51.3362954 9.09260796 -57.23700101 8.91701859 -63.65380859 8.703125 C-63.98380859 9.693125 -64.31380859 10.683125 -64.65380859 11.703125 C-66.50146484 13.08984375 -66.50146484 13.08984375 -68.71630859 14.390625 C-69.44978516 14.82761719 -70.18326172 15.26460937 -70.93896484 15.71484375 C-71.50486328 16.04097656 -72.07076172 16.36710937 -72.65380859 16.703125 C-72.53005859 17.96125 -72.40630859 19.219375 -72.27880859 20.515625 C-72.17439453 21.57716797 -72.17439453 21.57716797 -72.06787109 22.66015625 C-71.72715468 25.00300642 -71.72715468 25.00300642 -69.65380859 27.703125 C-65.10448835 28.05237857 -65.10448835 28.05237857 -60.75537109 26.90625 C-58.65380859 26.703125 -58.65380859 26.703125 -56.13818359 28.546875 C-55.23583984 29.4234375 -54.33349609 30.3 -53.40380859 31.203125 C-52.42659813 32.13610228 -51.44872938 33.06839054 -50.47021484 34 C-49.54080078 34.89203125 -48.61138672 35.7840625 -47.65380859 36.703125 C-46.22517707 37.96325127 -44.78884936 39.21476642 -43.34130859 40.453125 C-39.95376555 43.40762131 -36.71709221 46.41009512 -33.65380859 49.703125 C-33.65380859 50.363125 -33.65380859 51.023125 -33.65380859 51.703125 C-32.99380859 51.703125 -32.33380859 51.703125 -31.65380859 51.703125 C-28.92255023 54.59688386 -26.5232939 57.77244782 -24.06787109 60.90185547 C-23.10095292 62.13354094 -22.12937027 63.36157507 -21.15380859 64.58642578 C-13.13564041 74.66676659 -5.94816354 85.06528774 0.7421875 96.06884766 C2.42609738 98.83435566 4.13025777 101.58680927 5.83447266 104.33984375 C16.85784159 122.29487398 27.00024424 140.81730732 36.34619141 159.703125 C34.85732422 159.74179687 34.85732422 159.74179687 33.33837891 159.78125 C21.34398703 160.22851362 5.84653667 161.39123062 -3.20849609 170.21875 C-6.56449132 174.12459755 -7.81445329 176.56971174 -7.90380859 181.640625 C-7.92958984 182.51589844 -7.95537109 183.39117187 -7.98193359 184.29296875 C-7.83668075 186.70044904 -7.83668075 186.70044904 -6.52099609 188.3671875 C-3.13496691 190.78982762 0.84166816 191.91191332 4.72900391 193.32421875 C7.34619141 194.703125 7.34619141 194.703125 8.21337891 196.86328125 C8.25720703 197.47042969 8.30103516 198.07757813 8.34619141 198.703125 C7.88470703 199.10402344 7.42322266 199.50492188 6.94775391 199.91796875 C4.74195878 201.84041075 2.54311322 203.77054825 0.34619141 205.703125 C-0.43626953 206.39019531 -1.21873047 207.07726562 -2.02490234 207.78515625 C-4.59266785 210.06533202 -7.12791858 212.37664736 -9.65380859 214.703125 C-10.14945313 215.15268555 -10.64509766 215.60224609 -11.15576172 216.06542969 C-12.6927949 217.46935696 -14.20616951 218.89535922 -15.71630859 220.328125 C-17.09496094 221.61589844 -17.09496094 221.61589844 -18.50146484 222.9296875 C-21.12504126 226.31033951 -21.49651163 228.46087346 -21.65380859 232.703125 C-21.40373047 233.53585937 -21.15365234 234.36859375 -20.89599609 235.2265625 C-20.65380859 237.703125 -20.65380859 237.703125 -22.72412109 240.8046875 C-23.73033979 241.98947267 -24.74961204 243.16324458 -25.77880859 244.328125 C-37.86757347 258.71848746 -47.8070849 274.7293039 -57.65380859 290.703125 C-58.65299316 292.32395996 -58.65299316 292.32395996 -59.67236328 293.97753906 C-67.29265542 306.35990166 -74.89668039 318.74225529 -81.78710938 331.55102539 C-83.23800444 334.2389477 -84.48050584 336.52982224 -86.65380859 338.703125 C-90.1969084 330.53352094 -93.26561664 322.31208605 -95.96630859 313.828125 C-96.34948242 312.62631592 -96.73265625 311.42450684 -97.12744141 310.1862793 C-106.2858294 281.0396153 -112.66971152 251.80417603 -116.84130859 221.578125 C-116.96814026 220.66552917 -117.09497192 219.75293335 -117.22564697 218.81268311 C-118.10244355 212.4504342 -118.90985268 206.08226833 -119.65380859 199.703125 C-119.80698547 198.40267746 -119.80698547 198.40267746 -119.96325684 197.07595825 C-121.88811373 180.10410817 -122.02896473 163.13155174 -122.02441406 146.07397461 C-122.02425253 142.97119581 -122.03801541 139.86901394 -122.06542969 136.76635742 C-122.44508913 93.0663121 -117.73265596 47.99711129 -99.65380859 7.703125 C-99.39132324 7.10322754 -99.12883789 6.50333008 -98.85839844 5.88525391 C-93.54101479 -6.1431441 -85.74064435 -17.65092438 -73.42333984 -23.32421875 C-47.3751921 -32.54517807 -20.32923613 -14.43930816 0 0 Z " fill="#FBA23A" transform="translate(243.65380859375,98.296875)"/>
<path d="M0 0 C5.83956013 3.14437853 9.43072363 7.01294552 12.3125 12.9375 C12.6427417 13.60700684 12.9729834 14.27651367 13.31323242 14.96630859 C18.39825864 25.88525325 21.34994398 37.70886491 24.4375 49.3125 C24.73744873 50.43132568 24.73744873 50.43132568 25.04345703 51.57275391 C29.18491557 67.44354685 29.72405973 84.17993096 29.74246025 100.49992752 C29.74624212 103.20779883 29.76327902 105.91534004 29.78321838 108.62313843 C29.83749567 116.30728854 29.86888972 123.99148551 29.89379883 131.67578125 C29.98057463 156.05721605 30.79344788 180.06580893 33.4375 204.3125 C33.55717133 205.45349655 33.67684265 206.5944931 33.80014038 207.77006531 C38.51449594 252.64664392 58.53112426 296.12562864 90.4375 328.3125 C91.0975 328.6425 91.7575 328.9725 92.4375 329.3125 C92.4375 329.9725 92.4375 330.6325 92.4375 331.3125 C93.25541016 331.65474609 93.25541016 331.65474609 94.08984375 332.00390625 C96.5126577 333.35439323 98.40215251 334.97897961 100.44580078 336.84130859 C120.0107171 354.5745111 143.68026431 364.39610231 170.02734375 363.7890625 C179.38170248 363.28945629 187.76323532 360.70097402 196.4375 357.3125 C197.11506348 357.05581543 197.79262695 356.79913086 198.49072266 356.53466797 C208.12609932 352.82360037 217.062154 347.86451616 226.08007812 342.87011719 C252.6535145 328.2041549 278.59800107 317.60925305 309.4375 319.3125 C310.67371094 319.37179687 311.90992188 319.43109375 313.18359375 319.4921875 C339.40272996 321.88903161 367.10683188 335.93501735 387.4375 352.3125 C387.7675 352.9725 388.0975 353.6325 388.4375 354.3125 C386.41927083 354.76822917 384.40104167 355.22395833 382.3828125 355.6796875 C380.23030036 356.21724428 380.23030036 356.21724428 378.4375 358.3125 C377.79997787 364.68772126 378.64316113 367.00981087 382.4375 372.3125 C395.48354708 391.68971699 408.07912835 419.06439024 403.98828125 442.93359375 C403.5334334 444.74330753 402.99606814 446.53206405 402.4375 448.3125 C397.04824977 445.50071727 392.53766468 442.10193418 387.8671875 438.21484375 C382.70294063 434.14603526 382.70294063 434.14603526 376.4375 432.8125 C375.798125 432.7815625 375.15875 432.750625 374.5 432.71875 C371.00210346 433.72572022 369.66043152 435.4462764 367.4375 438.3125 C366.13916196 441.77922731 365.36229394 445.32775545 364.5625 448.9375 C360.67781175 464.98432867 355.18626148 479.80715432 347.45361328 494.390625 C346.43070916 496.32534419 345.43057696 498.2705659 344.43359375 500.21875 C338.03853394 512.6083962 330.48306361 523.68396276 321.4375 534.3125 C320.54124023 535.39548056 319.64542653 536.4788304 318.75 537.5625 C311.81627803 545.85010293 304.3674812 553.59523485 296.75 561.25 C296.25456696 561.75060944 295.75913391 562.25121887 295.24868774 562.76699829 C293.83440896 564.19294619 292.41151855 565.61033724 290.98828125 567.02734375 C290.15981689 567.85355225 289.33135254 568.67976074 288.4777832 569.53100586 C286.4375 571.3125 286.4375 571.3125 284.4375 571.3125 C284.1075 572.3025 283.7775 573.2925 283.4375 574.3125 C281.82590371 575.77157021 280.14775332 577.15792621 278.4375 578.5 C274.92226723 581.29508265 271.52465233 584.11553408 268.25 587.1875 C262.5009955 592.33722665 256.11540954 596.54307028 249.70019531 600.80761719 C248.18330979 601.81647372 246.6696584 602.83020889 245.15917969 603.84863281 C231.35638995 613.14912544 217.08619356 621.42043072 202.4375 629.3125 C201.55998077 629.78749939 201.55998077 629.78749939 200.66473389 630.27209473 C163.15055343 650.56988013 123.9600588 666.44120274 82.97802734 678.28515625 C79.66386085 679.24681758 76.35642499 680.22824838 73.05078125 681.21875 C63.0627036 684.19996547 53.04316155 687.00600346 42.9375 689.5625 C41.56005615 689.91380981 41.56005615 689.91380981 40.15478516 690.2722168 C37.25647579 690.9902293 34.35122552 691.65983831 31.4375 692.3125 C30.25873291 692.58392822 29.07996582 692.85535645 27.86547852 693.13500977 C16.99718842 695.42999457 6.46063055 695.82948429 -4.625 695.75 C-5.97703522 695.74543793 -5.97703522 695.74543793 -7.35638428 695.74078369 C-21.45314303 695.67055117 -34.83986977 694.73006345 -48.5625 691.3125 C-49.89861328 690.99901611 -49.89861328 690.99901611 -51.26171875 690.67919922 C-67.93616342 686.75458997 -84.25913785 681.53875555 -100.5625 676.3125 C-101.53493652 676.0016748 -102.50737305 675.69084961 -103.50927734 675.37060547 C-134.79792645 665.31534429 -165.15467716 652.97634627 -194.5625 638.3125 C-196.01438721 637.58957764 -196.01438721 637.58957764 -197.49560547 636.85205078 C-231.4487987 619.82644718 -265.40119045 599.25415373 -292.93359375 572.828125 C-295.05150078 570.80147994 -297.19576803 568.88476828 -299.4375 567 C-308.79454181 558.89987425 -317.66038437 549.83222519 -325.5625 540.3125 C-326.32691406 539.425625 -327.09132813 538.53875 -327.87890625 537.625 C-343.22906214 519.62664928 -355.26873224 499.04602932 -364.5625 477.3125 C-364.83255859 476.68134277 -365.10261719 476.05018555 -365.38085938 475.39990234 C-369.36678609 465.88534765 -372.05206606 456.18315442 -374.29541016 446.11669922 C-375.62094754 440.54409037 -376.72960054 436.85021201 -381.5625 433.3125 C-386.70528632 432.36965584 -389.44879656 432.91991697 -393.8125 435.75 C-395.41082053 436.91724984 -396.99240863 438.10754615 -398.5625 439.3125 C-399.64073577 440.1148846 -400.72023442 440.9155741 -401.80078125 441.71484375 C-404.73691176 443.89374809 -407.65347023 446.09750271 -410.5625 448.3125 C-415.22740473 441.3151429 -414.56735421 431.10149466 -413.1640625 423.01708984 C-411.94069636 417.35784513 -410.31760321 411.82720676 -408.5625 406.3125 C-408.33788086 405.60416016 -408.11326172 404.89582031 -407.88183594 404.16601562 C-403.7672392 391.55271033 -397.87822696 379.67992379 -389.5625 369.3125 C-388.3779869 365.75896071 -388.29608106 363.04236522 -388.5625 359.3125 C-390.63632901 355.97133104 -393.91644121 355.36580587 -397.5625 354.3125 C-393.00382606 349.12504345 -387.44561791 345.8482392 -381.5625 342.3125 C-380.50804687 341.67054688 -379.45359375 341.02859375 -378.3671875 340.3671875 C-349.61117352 323.35376856 -317.7910806 314.21273332 -284.52734375 322.2421875 C-263.23767764 327.82984073 -243.91602765 339.16228882 -224.5625 349.3125 C-209.69631127 357.09914228 -194.55227489 364.18486007 -177.5625 365.3125 C-176.48226562 365.40144531 -175.40203125 365.49039062 -174.2890625 365.58203125 C-150.37978213 366.67808568 -129.05353392 352.29495142 -111.5625 337.3125 C-110.69625 336.57515625 -109.83 335.8378125 -108.9375 335.078125 C-106.42675265 332.8731738 -103.98767432 330.61120818 -101.5625 328.3125 C-101.07458984 327.85713867 -100.58667969 327.40177734 -100.08398438 326.93261719 C-86.52482998 314.20930107 -75.4656189 299.62566817 -66.5625 283.3125 C-66.21880371 282.68553223 -65.87510742 282.05856445 -65.52099609 281.41259766 C-51.36724601 255.23712648 -45.54963272 227.15891401 -42.75756836 197.76904297 C-42.50177722 195.08117508 -42.23869731 192.39409526 -41.97460938 189.70703125 C-40.42046204 173.72254086 -39.4733664 157.81138077 -39.17462158 141.75570679 C-36.92128109 25.13217099 -36.92128109 25.13217099 -16.6953125 4.3984375 C-11.33973745 -0.29046846 -7.28994332 -1.95583845 0 0 Z " fill="#FEF1D8" transform="translate(516.5625,252.6875)"/>
<path d="M0 0 C1.11246094 0.31839844 2.22492188 0.63679688 3.37109375 0.96484375 C36.12940234 11.08889958 64.69907591 33.29914501 89.35913086 56.48657227 C90.59727627 57.62855462 91.85084493 58.75384723 93.11157227 59.87084961 C99.80498224 65.80258403 106.168651 72.0147061 112.47827148 78.34790039 C114.19207233 80.0670867 115.91119082 81.78082583 117.63085938 83.49414062 C122.7302905 88.59044157 127.74965645 93.69452287 132.43188477 99.18237305 C135.30484682 102.51246841 138.35304253 105.68062795 141.375 108.875 C146.99843627 114.8471336 152.56306751 120.8568268 158 127 C158.55300781 127.62390625 159.10601562 128.2478125 159.67578125 128.890625 C161.460752 130.91841993 163.23227544 132.95714321 165 135 C165.4424707 135.51079102 165.88494141 136.02158203 166.34082031 136.54785156 C172.71504242 143.9150218 178.99102574 151.32972109 185 159 C186.17046875 158.5153125 187.3409375 158.030625 188.546875 157.53125 C262.02436778 128.35625511 360.29266325 127.57948477 433.01171875 158.6796875 C433.99785156 159.11539063 434.98398437 159.55109375 436 160 C437.11740777 158.57784466 438.23478767 157.15566742 439.35205078 155.73339844 C440.33824597 154.47848072 441.32491127 153.22393234 442.31201172 151.96972656 C444.84000218 148.75635558 447.36124898 145.53832338 449.86328125 142.3046875 C454.65524716 136.12697102 459.54410131 130.15918044 464.84375 124.40234375 C467.03541895 121.96053867 469.08109374 119.4413226 471.125 116.875 C475.65245123 111.27148201 480.54350093 106.05059067 485.50830078 100.83349609 C488.6364272 97.54295569 491.70422248 94.22281906 494.6796875 90.79296875 C497.18295671 87.90785087 499.75671955 85.16139148 502.5 82.5 C505.30682744 79.73116684 507.99334729 76.92801716 510.5625 73.9375 C515.90823201 67.72955315 521.73374854 62.16922061 527.9453125 56.83984375 C530.16525228 54.85202695 532.23351298 52.759476 534.3125 50.625 C538.7208607 46.17928031 543.38946606 42.21708104 548.30517578 38.34423828 C550.20472857 36.83762093 552.08385744 35.30706961 553.96484375 33.77734375 C577.99964469 14.43219384 604.59103366 -2.0678236 636.3125 -2.25 C637.19873047 -2.270625 638.08496094 -2.29125 638.99804688 -2.3125 C653.23320662 -2.39556439 665.51160676 3.99576947 675.78515625 13.65625 C703.14733807 42.61093976 712.0316693 83.7901391 717.25 122 C717.40090088 123.08692139 717.55180176 124.17384277 717.70727539 125.29370117 C720.52725353 147.37849896 721.3335788 169.55644288 721.26074219 191.80102539 C721.24997572 195.69628341 721.26074543 199.59108344 721.2734375 203.48632812 C721.28691501 225.41301965 719.85848854 247.04665324 716.75 268.75 C716.64395447 269.50282257 716.53790894 270.25564514 716.4286499 271.03128052 C714.28221961 286.17110346 711.40188185 301.08900596 708 316 C707.60192139 317.77117187 707.60192139 317.77117187 707.19580078 319.578125 C700.39333858 349.6341923 691.36234016 378.83035695 679.91015625 407.44140625 C678.11078329 412.38755132 678.11078329 412.38755132 678.76928711 417.48510742 C679.1844458 418.34982666 679.59960449 419.2145459 680.02734375 420.10546875 C680.48560547 421.0797583 680.94386719 422.05404785 681.41601562 423.05786133 C681.91810547 424.09064209 682.42019531 425.12342285 682.9375 426.1875 C683.96866245 428.36140348 684.99860173 430.53588757 686.02734375 432.7109375 C686.53765137 433.78182617 687.04795898 434.85271484 687.57373047 435.95605469 C689.1518859 439.32415498 690.6250299 442.72628912 692.07739258 446.14990234 C704.62326742 475.55751266 724.67725943 504.32608627 750.48876953 523.49487305 C755.15024677 526.99557879 759.35275682 530.70551364 762 536 C762.70689325 545.84212903 761.82160326 551.66192843 755.625 559.375 C746.47739415 569.2557473 735.80568962 573.30779416 723 576 C723.62961688 579.84096841 724.77553551 583.06516466 726.36328125 586.61328125 C726.83652832 587.6894873 727.30977539 588.76569336 727.79736328 589.87451172 C728.54735596 591.57631592 728.54735596 591.57631592 729.3125 593.3125 C733.56279274 603.12537529 736.93498282 612.50971274 739 623 C739.17289551 623.63325195 739.34579102 624.26650391 739.52392578 624.91894531 C742.96597053 639.96509376 739.37584713 657.0853797 732.6953125 670.57421875 C730.36019128 673.91548667 727.90341845 675.60801587 723.89453125 676.43359375 C713.6151703 676.45287961 706.23443333 671.64435422 698 666 C697.76047607 666.7892688 697.76047607 666.7892688 697.51611328 667.59448242 C686.88995729 702.12389667 668.30952128 734.99617986 643.44921875 761.375 C641.53876082 763.42257213 639.71109125 765.49582033 637.890625 767.62109375 C633.6434389 772.4954387 629.0912713 777.05924225 624.51196289 781.6184082 C623.06475615 783.06025221 621.62297974 784.50737116 620.18164062 785.95507812 C614.95813974 791.18266367 609.63482653 796.21806256 604 801 C602.96678672 801.9002834 601.93419523 802.80128111 600.90234375 803.703125 C557.63816493 840.86813764 503.48417071 867.21994898 450.125 886.5625 C449.20959442 886.89434296 448.29418884 887.22618591 447.3510437 887.56808472 C435.67337704 891.78067353 423.92306298 895.69153843 412.0635376 899.35910034 C409.14897213 900.26431477 406.24275781 901.19525991 403.3359375 902.125 C389.5309042 906.48930308 375.6753599 910.20564389 361.55810547 913.41552734 C359.46375943 913.89404084 357.37377182 914.39159438 355.28515625 914.89453125 C353.28476942 915.37596283 351.27945564 915.83742583 349.26953125 916.27734375 C347.51241982 916.66571366 345.75655374 917.06228252 344.01318359 917.50830078 C317.35495582 924.30516769 288.48008731 922.61212937 262 916 C261.3161322 915.83030701 260.6322644 915.66061401 259.92767334 915.48577881 C194.62624615 899.22395191 130.84981856 875.98916237 73.06542969 841.23876953 C70.96867683 839.9812135 68.86357847 838.73848606 66.7578125 837.49609375 C57.94715029 832.25278131 49.42507167 826.655673 41 820.8125 C40.05688965 820.15942871 39.1137793 819.50635742 38.14208984 818.83349609 C29.33588275 812.66277995 21.00415536 805.97010944 12.875 798.9375 C12.28315918 798.42654785 11.69131836 797.9155957 11.08154297 797.38916016 C9.91774732 796.38393366 8.75447328 795.37810287 7.59179688 794.37158203 C6.17850954 793.15381389 4.75409042 791.94899148 3.328125 790.74609375 C2.23757812 789.81990234 2.23757812 789.81990234 1.125 788.875 C0.50882813 788.35679687 -0.10734375 787.83859375 -0.7421875 787.3046875 C-2 786 -2 786 -2 784 C-2.66 784 -3.32 784 -4 784 C-5.3046875 782.671875 -5.3046875 782.671875 -6.875 780.75 C-10.07897681 776.96957548 -13.47389589 773.47419339 -17 770 C-21.54559137 765.49272395 -25.93115 760.94955347 -30 756 C-30.76054687 755.08992187 -31.52109375 754.17984375 -32.3046875 753.2421875 C-52.25552558 728.90170937 -67.46618 702.0632397 -78.04541016 672.49169922 C-78.90781838 670.24061526 -79.87887622 668.13181968 -81 666 C-81.64066406 666.47050781 -82.28132813 666.94101562 -82.94140625 667.42578125 C-90.73512404 673.03586425 -96.65141713 676.26022065 -106.3515625 676.59375 C-110.1899596 675.7332244 -111.55900511 674.04922959 -114 671 C-115.33090521 668.47190364 -116.30733039 665.88120375 -117.25 663.1875 C-117.50523438 662.51396484 -117.76046875 661.84042969 -118.0234375 661.14648438 C-126.67924577 637.34301163 -120.39747193 609.36610721 -110.09814453 587.21777344 C-108.20755383 583.39960405 -106.12046295 579.69434187 -104 576 C-105.081604 575.84724609 -105.081604 575.84724609 -106.18505859 575.69140625 C-119.02522433 573.79459136 -130.12230129 568.7396499 -138.875 559 C-143.51574815 552.44835555 -145.24915007 546.0439881 -145 538 C-142.1653646 529.12693197 -135.63318234 524.94430617 -128.0859375 520.08984375 C-99.06678952 500.43763594 -82.54410918 465.59489882 -69.03955078 434.38671875 C-67.93672832 431.85473369 -66.81041979 429.33388481 -65.68359375 426.8125 C-64.93400778 425.10455614 -64.18528678 423.39623236 -63.4375 421.6875 C-63.07849609 420.89303467 -62.71949219 420.09856934 -62.34960938 419.2800293 C-61.86524414 418.15721558 -61.86524414 418.15721558 -61.37109375 417.01171875 C-61.08161865 416.35647217 -60.79214355 415.70122559 -60.49389648 415.02612305 C-59.26513466 409.98534481 -61.94041897 405.9087283 -64.25390625 401.5625 C-67.85593228 394.58595885 -70.5208989 387.47516493 -72.9375 380 C-73.14588501 379.36437134 -73.35427002 378.72874268 -73.56896973 378.07385254 C-78.32605042 363.54765462 -82.3168085 348.83423134 -86 334 C-86.27827637 332.88141602 -86.55655273 331.76283203 -86.84326172 330.61035156 C-93.63144397 303.00698884 -97.88696589 275.21753855 -101 247 C-101.11472656 245.98341309 -101.22945312 244.96682617 -101.34765625 243.91943359 C-103.69951905 222.94989742 -104.25608425 202.09230386 -104 181 C-103.99274902 179.90671387 -103.98549805 178.81342773 -103.97802734 177.68701172 C-103.5754607 131.3509091 -97.53559413 80.62000267 -76 39 C-75.47019531 37.92105469 -74.94039063 36.84210938 -74.39453125 35.73046875 C-65.92597371 19.08403642 -53.42747025 5.59867872 -35.578125 -0.87890625 C-24.61163943 -3.58271218 -10.79332447 -3.1862828 0 0 Z M-43 31 C-43.59554687 31.50273438 -44.19109375 32.00546875 -44.8046875 32.5234375 C-66.29423192 52.10280019 -73.17238147 92.92465288 -77.0625 120.1875 C-77.22298828 121.26580078 -77.38347656 122.34410156 -77.54882812 123.45507812 C-78.06046277 126.96665891 -78.52991033 130.48263419 -79 134 C-79.18312744 135.20076172 -79.36625488 136.40152344 -79.55493164 137.63867188 C-81.65380188 152.44959156 -81.33922634 167.43720428 -81.31567383 182.36181641 C-81.31107886 185.5123537 -81.31783712 188.66250158 -81.33618164 191.81298828 C-81.50004967 220.26406134 -79.58773146 248.10969195 -75.1875 276.25 C-74.99516785 277.50047623 -74.99516785 277.50047623 -74.7989502 278.7762146 C-69.77127655 311.34050133 -61.6598684 342.96201648 -51 374.125 C-50.62641357 375.22150879 -50.25282715 376.31801758 -49.86791992 377.44775391 C-49.51963135 378.43694824 -49.17134277 379.42614258 -48.8125 380.4453125 C-48.50957031 381.30656738 -48.20664063 382.16782227 -47.89453125 383.05517578 C-47.16338271 385.17902306 -47.16338271 385.17902306 -45 386 C-44.54753906 385.09765625 -44.09507812 384.1953125 -43.62890625 383.265625 C-28.77079761 354.19312106 -11.03243218 323.48104947 9.828125 298.33203125 C10.47845703 297.53764648 11.12878906 296.74326172 11.79882812 295.92480469 C13.06675273 294.38971479 14.35623059 292.87208785 15.66992188 291.37597656 C18.99759061 287.48308485 18.99759061 287.48308485 20.05664062 282.64013672 C19.82473515 281.09014971 19.56444383 279.54408969 19.27319336 278.00415039 C19 276 19 276 19.95703125 273.4296875 C23.01243888 269.795914 26.30238051 266.45105863 29.6875 263.125 C30.71133789 262.10212891 30.71133789 262.10212891 31.75585938 261.05859375 C42.7229742 250.18468387 42.7229742 250.18468387 49 246 C49.04192767 244.07447883 49.04192767 244.07447883 48 242 C45.6438741 240.76892422 43.47206128 239.79472359 41 238.875 C34.11632156 236.23264312 34.11632156 236.23264312 33 234 C32.45639554 229.04517906 32.43562926 225.12874148 34.6875 220.625 C38.93442669 215.80416429 42.922341 213.38859688 49 211.3125 C50.19625 210.89613281 51.3925 210.47976563 52.625 210.05078125 C58.22410333 208.3075419 63.49157096 207.75481606 69.3125 207.4375 C70.05306641 207.39431641 70.79363281 207.35113281 71.55664062 207.30664062 C73.37091464 207.20129568 75.1854355 207.10021684 77 207 C71.06045033 194.63640567 64.44119023 182.70980912 57.61523438 170.81591797 C56.11755514 168.20493969 54.62816806 165.58941765 53.140625 162.97265625 C41.08743186 141.8514672 28.41471935 120.42694142 11.57421875 102.71484375 C10 101 10 101 9 99 C8.34 99 7.68 99 7 99 C6.64228516 98.15501953 6.64228516 98.15501953 6.27734375 97.29296875 C1.46776002 88.65925116 -10.68837181 77.54728693 -20 74 C-20.99 74.495 -20.99 74.495 -22 75 C-24.3329866 75.04022391 -26.66706666 75.04320247 -29 75 C-31.13295548 71.17845476 -32.66309005 68.40678597 -32 64 C-30.03125 62.26953125 -30.03125 62.26953125 -27.5 60.8125 C-25.97311271 59.91945944 -24.46504753 58.99123256 -23 58 C-23 57.34 -23 56.68 -23 56 C-1.00957612 56.41562657 12.8176294 73.16045653 27.16308594 88.05371094 C31.047568 92.16948592 34.59487031 96.47676802 38 101 C38.41378906 101.54269531 38.82757813 102.08539063 39.25390625 102.64453125 C57.9163585 127.18320753 73.29111001 154.14802789 87.76538086 181.30444336 C90.39569785 186.2281315 93.03377447 191.12829376 95.90234375 195.91796875 C96.32588135 196.63162598 96.74941895 197.3452832 97.18579102 198.08056641 C97.94413997 199.34442943 98.71792466 200.59924524 99.51147461 201.84130859 C102.31038588 206.52619314 102.62798235 210.6996274 102 216 C100.69157484 219.71868203 99.72212345 221.46303641 96.5625 223.8125 C92.38327297 225.74921496 88.73394057 226.15235927 84.140625 226.31640625 C82.46806641 226.37924805 82.46806641 226.37924805 80.76171875 226.44335938 C79.60285156 226.48267578 78.44398438 226.52199219 77.25 226.5625 C76.07566406 226.60568359 74.90132812 226.64886719 73.69140625 226.69335938 C70.79438549 226.79934794 67.89728065 226.90141638 65 227 C67.82539827 229.88602484 70.87897211 232.15367838 74.16015625 234.5 C77.25900509 237.02645001 77.97243365 238.79325237 78.5 242.75 C78.33984043 246.76126911 77.03904809 249.10178017 74.21875 252.03515625 C70.788615 255.0727582 67.16937486 257.85933548 63.54980469 260.66455078 C59.34198034 263.93000939 55.16437777 267.21468749 51.125 270.6875 C50.13757813 271.51636719 49.15015625 272.34523438 48.1328125 273.19921875 C45.67225833 276.43038604 45.78906573 278.08374236 46.04394531 282.04321289 C45.96952164 285.35713348 44.2634988 287.29001415 42.3125 289.875 C41.91603271 290.41326416 41.51956543 290.95152832 41.11108398 291.50610352 C40.2330961 292.69685892 39.34735916 293.8819288 38.45507812 295.06201172 C36.33509305 297.88557573 34.28345794 300.75705522 32.22412109 303.625 C30.55863243 305.94288255 28.88593578 308.25538846 27.2109375 310.56640625 C7.24812747 338.12363449 -10.49523529 366.72879698 -26.3125 396.875 C-26.76761963 397.74044434 -27.22273926 398.60588867 -27.69165039 399.49755859 C-35.68773394 414.90944587 -42.46970992 430.73189678 -48.92456055 446.83789062 C-52.63300732 456.07187724 -56.46236718 465.21637255 -60.70703125 474.21875 C-61.06522446 474.98101898 -61.42341766 475.74328796 -61.79246521 476.52865601 C-74.0853573 502.21610563 -94.50538786 529.12179114 -119 544 C-112.11279889 551.74810124 -102.21988147 555.62751049 -91.9453125 556.3359375 C-89.80749534 556.46096595 -87.67382789 556.56111518 -85.53320312 556.62182617 C-81.90269877 556.74850268 -79.03773665 556.89752709 -76 559 C-74.46402546 562.07194908 -74.7734962 564.60244293 -75 568 C-76.43091484 571.65678238 -78.46188222 574.67302128 -80.6875 577.875 C-93.16830579 596.45684484 -103.28969254 622.09168826 -99.546875 644.7421875 C-99.10527604 646.51489189 -98.5670668 648.26335791 -98 650 C-91.95566077 646.05998628 -86.08942101 641.92256826 -80.28515625 637.63671875 C-76.82086942 635.15546032 -74.43155194 634.78993999 -70.16796875 634.4765625 C-66.55331795 635.349289 -65.25572845 637.07266308 -63 640 C-61.72449649 643.42610974 -60.97065709 646.93375925 -60.1875 650.5 C-53.39103724 678.49374496 -40.61644169 704.9209461 -23.25 727.9375 C-22.74122314 728.61425781 -22.23244629 729.29101562 -21.70825195 729.98828125 C-17.56902622 735.41425655 -13.12324032 740.46571552 -8.43359375 745.41796875 C-6.46685393 747.50467023 -4.59503093 749.62005866 -2.75 751.8125 C5.38909594 761.19315295 14.47363657 770.04011316 24 778 C24.89074219 778.77988281 25.78148437 779.55976562 26.69921875 780.36328125 C65.34590856 814.03274586 112.72665835 839.96758507 160.13232422 858.85449219 C162.87797935 859.95125823 165.61323549 861.07088722 168.34765625 862.1953125 C202.27227016 875.98598197 238.87734353 888.56959278 275 895 C275.87906006 895.17152588 276.75812012 895.34305176 277.66381836 895.51977539 C287.69759613 897.30375287 297.65198987 897.44419815 307.8125 897.4375 C308.72472321 897.43723816 309.63694641 897.43697632 310.57681274 897.43670654 C324.04494158 897.39103239 336.59241017 896.54315605 349.62841797 892.92480469 C353.70733839 891.80598133 357.80707809 890.78367424 361.91015625 889.7578125 C380.12230631 885.16610739 398.10649612 880.07308838 415.90234375 874.04833984 C418.86770262 873.04477341 421.83931174 872.06210849 424.8125 871.08203125 C471.69006646 855.42242953 518.58305895 833.54623241 559.17529297 805.26708984 C561.16045009 803.88858229 563.16009237 802.53255778 565.16015625 801.17578125 C574.47071111 794.79782526 583.07020918 787.89705806 591.45507812 780.34765625 C592.8957836 779.09090937 594.40712528 777.91643829 595.921875 776.75 C596.95054687 775.88375 596.95054687 775.88375 598 775 C598 774.34 598 773.68 598 773 C598.55018799 772.7743335 599.10037598 772.54866699 599.66723633 772.31616211 C602.71401627 770.59714686 604.84718246 768.41241621 607.32421875 765.94140625 C607.82991898 765.43761948 608.3356192 764.9338327 608.85664368 764.41477966 C609.92731656 763.34546588 610.99547544 762.27362978 612.0612793 761.19946289 C613.65791263 759.59228282 615.26471347 757.99585142 616.87304688 756.40039062 C622.64940177 750.63136215 628.03343058 744.740597 633.12524414 738.35180664 C634.60269543 736.49840278 636.10259384 734.70118347 637.6796875 732.93359375 C644.96733338 724.64746258 650.52328306 715.54664856 656 706 C656.37398926 705.3512793 656.74797852 704.70255859 657.13330078 704.03417969 C668.0835452 684.84219616 676.3509723 663.62561121 680.46484375 641.88549805 C681.43744487 638.45876516 683.10741522 636.94935061 686 635 C690.33625268 634.1180503 692.48372622 634.16378257 696.3515625 636.296875 C698.97585967 638.11305526 701.48484136 640.03560602 704 642 C706.03751465 643.48488076 708.0791272 644.96415643 710.125 646.4375 C711.75065981 647.62409657 713.37590562 648.81126172 715 650 C719.74147742 642.88778387 718.66490618 633.21813092 717.38671875 625.109375 C713.43827118 605.69227589 705.65825361 585.41004787 693 570 C691.44539695 566.89079391 691.27279307 563.36916972 692 560 C694.43760816 557.23027556 695.98884982 557.00112211 699.6875 556.62890625 C701.12485218 556.59865852 702.56240205 556.57693467 704 556.5625 C711.5779356 556.30141486 717.97435721 554.99436282 725 552 C725.7940625 551.66613281 726.588125 551.33226562 727.40625 550.98828125 C731.31532251 549.19662301 733.59275982 547.51208294 736 544 C735.29875 543.43152344 734.5975 542.86304688 733.875 542.27734375 C730.90767078 539.86235706 727.95317944 537.43226052 725 535 C723.91332031 534.12408203 723.91332031 534.12408203 722.8046875 533.23046875 C692.74488546 508.22120025 674.84572596 466.10836513 660.25976562 431.015625 C654.14321992 416.37384736 647.19376555 402.4170783 639.43603516 388.57519531 C638.13045974 386.23394922 636.8470277 383.8826098 635.57421875 381.5234375 C622.08629916 356.62920743 606.60080085 332.86340219 589.75 310.125 C589.17862305 309.3518042 588.60724609 308.5786084 588.01855469 307.78198242 C587.45813477 307.02377197 586.89771484 306.26556152 586.3203125 305.484375 C585.77020508 304.73994141 585.22009766 303.99550781 584.65332031 303.22851562 C583.54832695 301.73909161 582.43826299 300.2534165 581.32324219 298.77148438 C579.73635807 296.6537531 578.17825081 294.51746759 576.625 292.375 C576.15416992 291.76027832 575.68333984 291.14555664 575.19824219 290.51220703 C572.10088106 286.16765752 571.75062763 283.23604396 572.02587891 277.95458984 C572.16674053 275.87964014 572.16674053 275.87964014 570.7421875 273.9765625 C570.12601563 273.53054688 569.50984375 273.08453125 568.875 272.625 C568.14925781 272.06941406 567.42351563 271.51382813 566.67578125 270.94140625 C565.79277344 270.30074219 564.90976562 269.66007813 564 269 C561.67513485 267.20322448 559.37049268 265.38087162 557.0625 263.5625 C556.15685303 262.85492554 556.15685303 262.85492554 555.23291016 262.13305664 C539.70807298 249.98291049 539.70807298 249.98291049 538.5 243.1875 C539.23160207 238.52353683 541.48554318 236.05296249 545 233 C547.9055788 231.11964169 550.88393562 229.50263549 554 228 C554 227.67 554 227.34 554 227 C552.79053711 226.98598145 552.79053711 226.98598145 551.55664062 226.97167969 C547.87049415 226.9176896 544.18557759 226.83409552 540.5 226.75 C539.2315625 226.73582031 537.963125 226.72164062 536.65625 226.70703125 C529.36981553 226.51728035 524.13964594 226.06080951 518 222 C514.8941845 217.63244695 514.63713639 214.26423031 515 209 C515.95310906 206.21553938 516.94654623 203.709667 518.1875 201.0625 C518.53772217 200.29599121 518.88794434 199.52948242 519.2487793 198.73974609 C523.84138321 188.90304975 529.12669573 179.42090088 534.38476562 169.92919922 C535.89393243 167.19235169 537.38120694 164.4450903 538.859375 161.69140625 C553.730825 134.07871216 571.29385325 107.72652117 593 85 C594.32644531 83.59427734 594.32644531 83.59427734 595.6796875 82.16015625 C606.93362473 70.53108778 620.61336362 58.23110606 637 55.5 C640.86516318 56.14419386 642.59894187 57.83899295 645.38671875 60.4921875 C647.13280353 62.2061764 647.13280353 62.2061764 650 64 C649.3993994 71.32732733 649.3993994 71.32732733 647.8125 74 C645.13193262 75.47893373 643.01335625 75.24598827 640 75 C639.38511719 74.73703125 638.77023437 74.4740625 638.13671875 74.203125 C635.77103828 73.73933726 635.77103828 73.73933726 633.484375 75.84375 C632.13085938 77.15859375 632.13085938 77.15859375 630.75 78.5 C629.76751295 79.43681274 628.78443706 80.37300829 627.80078125 81.30859375 C626.87652344 82.19675781 625.95226562 83.08492187 625 84 C623.65506602 85.19794666 622.30204225 86.38693713 620.9375 87.5625 C619.6249577 88.70828488 618.3124603 89.8541212 617 91 C616.1853125 91.70898438 615.370625 92.41796875 614.53125 93.1484375 C609.25253165 97.80706544 604.44386137 102.54197939 600 108 C599.21367188 108.94875 598.42734375 109.8975 597.6171875 110.875 C589.31185203 121.060526 582.11901742 131.96621958 575 143 C574.45585449 143.83917969 573.91170898 144.67835938 573.35107422 145.54296875 C560.84968168 164.92450097 550.22929728 185.34836303 540 206 C542.0269596 208.0269596 546.13843806 207.32077392 548.9375 207.4375 C560.53620494 208.03938787 573.42523536 209.1730364 582 218 C584.9081803 223.21466812 585.66877529 227.17210101 585 233 C582.04112101 236.75079307 578.56884995 238.34970602 574.25 240.25 C573.07953125 240.77078125 571.9090625 241.2915625 570.703125 241.828125 C569.81109375 242.21484375 568.9190625 242.6015625 568 243 C569.5634132 246.99228728 572.3607675 249.41557239 575.5 252.1875 C576.29978271 252.90824707 576.29978271 252.90824707 577.11572266 253.64355469 C579.66413811 255.93659815 582.23316104 258.20555841 584.8046875 260.47265625 C597.62336159 271.83023527 597.62336159 271.83023527 598.359375 276.0703125 C598.375 278.1875 598.375 278.1875 598 282 C598 286.4034261 598.39119623 287.00013701 600.96484375 290.30859375 C601.59511475 291.13061279 602.22538574 291.95263184 602.87475586 292.79956055 C603.89581421 294.10534058 603.89581421 294.10534058 604.9375 295.4375 C606.33487994 297.26444308 607.73071987 299.09256512 609.125 300.921875 C609.80046875 301.80423828 610.4759375 302.68660156 611.171875 303.59570312 C624.4077133 321.00309302 635.65291014 340.01340489 647 358.6875 C647.68126953 359.80777588 648.36253906 360.92805176 649.06445312 362.08227539 C653.84106757 369.98201591 658.45252691 377.96708834 663 386 C665.58101454 383.41898546 666.37855396 380.58044294 667.5390625 377.203125 C667.78098328 376.51093872 668.02290405 375.81875244 668.27215576 375.10559082 C669.06510909 372.82327805 669.84659794 370.53731452 670.625 368.25 C670.89322571 367.46435669 671.16145142 366.67871338 671.43780518 365.8692627 C680.11212111 340.35793848 686.35494251 314.52637975 691 288 C691.29366455 286.32333252 691.29366455 286.32333252 691.59326172 284.61279297 C692.83325551 277.42299492 693.95540987 270.22062529 695 263 C695.14034668 262.05189453 695.28069336 261.10378906 695.42529297 260.12695312 C704.42242123 198.02663318 703.82289844 128.8160968 683 69 C682.57460938 67.75476563 682.14921875 66.50953125 681.7109375 65.2265625 C676.33210235 50.29430248 666.94803554 32.22279063 652.2109375 24.9296875 C640.51389054 20.01114125 627.00096295 21.06936633 615.24609375 25.375 C590.43643535 35.56243725 569.01668564 51.73089048 549.40625 69.8046875 C547.42735053 71.61011202 545.41944111 73.36003213 543.38891602 75.10620117 C538.86735376 79.05990661 534.61119737 83.24448608 530.37109375 87.49609375 C529.57776138 88.28846939 528.78442902 89.08084503 527.96705627 89.89723206 C526.30110919 91.56250283 524.63640744 93.22902029 522.97290039 94.89672852 C520.44463866 97.43034622 517.91108339 99.95858167 515.37695312 102.48632812 C513.7496793 104.11426283 512.12271575 105.74250775 510.49609375 107.37109375 C509.74798935 108.11717392 508.99988495 108.86325409 508.22911072 109.63194275 C503.61934262 114.26205012 499.24722257 119.03634654 495 124 C494.02689971 125.11793496 493.05308154 126.23524602 492.078125 127.3515625 C482.7941864 138.06952648 474.09010526 149.17427426 465.5625 160.5 C465.06621094 161.1585498 464.56992187 161.81709961 464.05859375 162.49560547 C461.24514158 166.25552293 458.56703097 170.06752703 456 174 C457.09686918 176.27811291 458.19069512 178.26132294 459.6875 180.3125 C461.49140945 184.00621934 461.15584272 186.09903082 460 190 C457.12242341 192.7903773 455.37041119 192.9872272 451.375 193.125 C447.59879516 192.4932896 445.09259983 190.88837225 441.953125 188.7421875 C436.32101119 185.07948826 430.62326907 182.43319846 424.375 180 C423.29597412 179.57630127 422.21694824 179.15260254 421.10522461 178.71606445 C369.87868429 159.08498146 313.03814687 155.6567438 259 163 C257.35303846 163.19677333 255.7059169 163.39221475 254.05859375 163.5859375 C233.77161292 166.17474824 212.79372129 171.99144233 194 180 C192.99582031 180.41894531 191.99164063 180.83789062 190.95703125 181.26953125 C185.45173807 183.66148622 180.39680734 186.5109911 175.27734375 189.6328125 C167.57325239 194.25791023 167.57325239 194.25791023 162.1875 193.375 C159 192 159 192 157 189 C157.11345287 184.00807382 158.9435824 181.39764458 162.13671875 177.80859375 C163.25330297 175.96119925 163.25330297 175.96119925 162.421875 173.65625 C160.73927416 170.51292975 158.77047548 167.86397928 156.5625 165.0625 C156.12075439 164.49966309 155.67900879 163.93682617 155.22387695 163.35693359 C154.28924024 162.16697747 153.3522611 160.97885788 152.41308594 159.79248047 C151.04697152 158.05958275 149.69695719 156.31541934 148.3515625 154.56640625 C141.97918956 146.31366097 135.2683399 138.39990652 128.38183594 130.57275391 C126.70261303 128.66152529 125.03985535 126.73624434 123.375 124.8125 C116.08677376 116.51900117 108.60629508 108.47485226 100.703125 100.765625 C98.60594035 98.61995053 96.65470819 96.45899007 94.70703125 94.18359375 C90.87921005 89.76719695 86.71636778 85.78709274 82.4375 81.8125 C81.70853516 81.12736328 80.97957031 80.44222656 80.22851562 79.73632812 C73.84184386 72.74054365 73.84184386 72.74054365 66 69 C66 68.34 66 67.68 66 67 C63.97412496 65.25051871 61.94098903 63.61669691 59.8125 62 C58.85573364 61.26414673 58.85573364 61.26414673 57.87963867 60.51342773 C56.55677896 59.49628396 55.2322953 58.48124896 53.90625 57.46826172 C52.20203051 56.1556111 50.51897525 54.82196428 48.84375 53.47265625 C25.60671923 34.99682122 -15.149034 6.41190867 -43 31 Z " fill="#1D1812" transform="translate(203,51)"/>
<path d="M0 0 C0.87305786 -0.00705963 1.74611572 -0.01411926 2.64562988 -0.02139282 C65.07265298 -0.41126741 65.07265298 -0.41126741 86.49609375 15.203125 C87.12515625 15.64011719 87.75421875 16.07710937 88.40234375 16.52734375 C96.37654335 22.63040441 101.90415107 32.33308039 103.49609375 42.203125 C105.03886297 62.35865832 97.71610114 78.72961327 85.49609375 94.203125 C84.69945312 95.21503906 83.9028125 96.22695313 83.08203125 97.26953125 C70.01107313 112.0977632 49.01962032 122.60454703 29.49609375 125.203125 C27.18609375 125.203125 24.87609375 125.203125 22.49609375 125.203125 C22.49609375 135.433125 22.49609375 145.663125 22.49609375 156.203125 C24.14609375 156.863125 25.79609375 157.523125 27.49609375 158.203125 C29.13090021 159.36967031 30.7331101 160.58262454 32.30859375 161.828125 C54.10468624 177.96251379 80.1096306 182.84437083 106.6875 178.8828125 C127.15493217 175.23016307 144.23699164 163.44429396 156.65625 147.0078125 C169.33652084 127.67780303 173.51111507 106.84227691 169.04760742 84.11254883 C166.17206263 71.47557613 159.91374043 59.11967782 151.7734375 49.078125 C150.49609375 47.203125 150.49609375 47.203125 150.80859375 44.453125 C151.14890625 43.339375 151.14890625 43.339375 151.49609375 42.203125 C160.04179596 43.20631613 166.07862897 48.19556221 171.62109375 54.578125 C186.04688443 73.82224657 191.87183166 100.55916696 188.6484375 124.23510742 C185.92996272 140.79291056 177.60742107 155.79281157 166.49609375 168.203125 C165.696875 169.09644531 164.89765625 169.98976563 164.07421875 170.91015625 C145.47996925 190.57715091 118.47166892 201.44964254 91.609375 202.45703125 C62.16150146 203.1830831 38.86535351 195.44929817 14.49609375 179.203125 C10.5018868 179.4705557 7.62840751 182.04562927 4.43359375 184.265625 C-21.02462758 201.17766806 -53.38298922 206.12927621 -83.24072266 200.68139648 C-100.01113995 197.19316506 -116.50582588 189.33672663 -129.50390625 178.203125 C-130.385625 177.51863281 -130.385625 177.51863281 -131.28515625 176.8203125 C-146.18506898 164.96810919 -158.35236039 145.06737809 -161.50390625 126.203125 C-162.95738751 100.18801266 -160.94982768 73.38343282 -143.06640625 52.828125 C-137.99158606 47.47231644 -133.28603127 42.57370238 -125.50390625 42.203125 C-124.50390625 43.203125 -124.50390625 43.203125 -124.25390625 45.49609375 C-124.55684119 48.77631115 -125.46755726 49.9565525 -127.50390625 52.515625 C-135.1348889 62.91728898 -140.38303662 74.70201444 -143.50390625 87.203125 C-143.69597656 87.95335937 -143.88804687 88.70359375 -144.0859375 89.4765625 C-146.90514007 107.86724845 -143.75370712 127.6161036 -133.37890625 143.203125 C-119.13096943 162.4270224 -101.51373138 175.26676596 -77.69140625 179.953125 C-76.29793778 180.0694898 -74.90108112 180.14657829 -73.50390625 180.203125 C-72.37855469 180.2546875 -71.25320313 180.30625 -70.09375 180.359375 C-43.81863763 180.98065845 -18.17512072 173.04445905 1.49609375 155.203125 C2.15609375 155.203125 2.81609375 155.203125 3.49609375 155.203125 C3.49609375 145.633125 3.49609375 136.063125 3.49609375 126.203125 C-1.12390625 125.543125 -5.74390625 124.883125 -10.50390625 124.203125 C-13.47955 123.39204236 -16.20978135 122.59375204 -19.06640625 121.515625 C-19.77619629 121.25434814 -20.48598633 120.99307129 -21.21728516 120.72387695 C-32.71470619 116.3571301 -42.36528269 110.43347558 -51.50390625 102.203125 C-52.28507812 101.51605469 -53.06625 100.82898438 -53.87109375 100.12109375 C-65.58443771 89.19809653 -76.02878728 71.99361075 -76.83984375 55.75 C-77.08883904 42.52451923 -75.52110687 32.4153763 -66.50390625 22.203125 C-65.97925781 21.59726562 -65.45460938 20.99140625 -64.9140625 20.3671875 C-49.01795084 3.23678952 -22.20113975 0.12067638 0 0 Z " fill="#1D1914" transform="translate(498.50390625,586.796875)"/>
<path d="M0 0 C3.60449658 1.081953 5.26393428 2.34937169 7.265625 5.5234375 C8.06990565 7.09008299 8.83643821 8.67650835 9.5703125 10.27734375 C9.98498779 11.12554687 10.39966309 11.97375 10.8269043 12.84765625 C19.43533674 30.8732778 24.77018978 49.79566419 28.6328125 69.33984375 C28.7877417 70.1086084 28.9426709 70.87737305 29.10229492 71.66943359 C32.32565086 88.84077883 32.81553191 106.03925617 32.7578125 123.46484375 C32.75632202 124.57969147 32.75483154 125.69453918 32.7532959 126.84317017 C32.69097158 152.87310674 30.8467823 178.33381298 25.99121094 203.95068359 C25.42682907 206.93766706 24.89310498 209.92927671 24.359375 212.921875 C21.48230997 228.58015064 17.23415169 243.66799588 12.4453125 258.83984375 C12.14915039 259.79793945 11.85298828 260.75603516 11.54785156 261.74316406 C10.7563272 264.30074858 9.94906797 266.85255952 9.1328125 269.40234375 C8.90279541 270.14025146 8.67277832 270.87815918 8.43579102 271.63842773 C7.2267844 275.30000328 6.75643594 276.63242813 3.4453125 278.83984375 C2.09070352 276.75745299 0.7362803 274.67494177 -0.61791992 272.59228516 C-1.79610592 270.78052614 -2.97466145 268.96900739 -4.15356445 267.15771484 C-6.95379135 262.85286031 -9.7487752 258.54514861 -12.515625 254.21875 C-20.61048543 241.57375305 -29.21572851 229.43831102 -38.42578125 217.58203125 C-39.12832031 216.67710937 -39.83085938 215.7721875 -40.5546875 214.83984375 C-41.16441406 214.12054688 -41.77414062 213.40125 -42.40234375 212.66015625 C-42.78261719 212.05945313 -43.16289063 211.45875 -43.5546875 210.83984375 C-43.2246875 209.84984375 -42.8946875 208.85984375 -42.5546875 207.83984375 C-41.7923614 202.60826021 -41.7923614 202.60826021 -43.83374023 197.95654297 C-48.4017558 192.96959237 -53.16247588 188.25472033 -58.1171875 183.65234375 C-58.84615234 182.96720703 -59.57511719 182.28207031 -60.32617188 181.57617188 C-63.50437963 178.60393258 -66.68528522 175.69774567 -70.08203125 172.9765625 C-70.89800781 172.27144531 -71.71398437 171.56632813 -72.5546875 170.83984375 C-72.5546875 170.17984375 -72.5546875 169.51984375 -72.5546875 168.83984375 C-71.41128906 168.28554688 -70.26789062 167.73125 -69.08984375 167.16015625 C-67.59880287 166.42870223 -66.10792588 165.69691408 -64.6171875 164.96484375 C-63.48506836 164.41763672 -63.48506836 164.41763672 -62.33007812 163.859375 C-61.25209961 163.32763672 -61.25209961 163.32763672 -60.15234375 162.78515625 C-59.48726807 162.46047363 -58.82219238 162.13579102 -58.13696289 161.80126953 C-56.37419506 160.92232107 -56.37419506 160.92232107 -55.5546875 158.83984375 C-55.01158624 152.53986914 -55.79342737 148.02548641 -59.5546875 142.83984375 C-67.93538623 134.45914502 -80.32594313 133.86101205 -91.4921875 133.27734375 C-92.66104492 133.21256836 -92.66104492 133.21256836 -93.85351562 133.14648438 C-95.75375867 133.04156298 -97.65420419 132.94031925 -99.5546875 132.83984375 C-99.8846875 132.17984375 -100.2146875 131.51984375 -100.5546875 130.83984375 C-99.7253418 128.78710937 -99.7253418 128.78710937 -98.37890625 126.24609375 C-97.63918579 124.83783325 -97.63918579 124.83783325 -96.88452148 123.40112305 C-96.07156616 121.88578979 -96.07156616 121.88578979 -95.2421875 120.33984375 C-94.69183838 119.30190674 -94.14148926 118.26396973 -93.57446289 117.19458008 C-91.91197085 114.07041946 -90.23616442 110.95382136 -88.5546875 107.83984375 C-88.10029297 106.99599121 -87.64589844 106.15213867 -87.17773438 105.28271484 C-72.89391584 78.86206595 -57.06641728 52.15137547 -36.5625 30.05859375 C-35.15748758 28.50597302 -33.81217207 26.89818625 -32.515625 25.25390625 C-30.79389403 23.13432509 -29.13841823 21.46042519 -27.0546875 19.71484375 C-22.92292971 16.18660114 -18.92514623 12.53076718 -14.94335938 8.83544922 C-13.48985613 7.49334231 -12.02227108 6.1665393 -10.5546875 4.83984375 C-10.09739258 4.3387207 -9.64009766 3.83759766 -9.16894531 3.32128906 C-6.18604509 0.28911864 -4.09936904 -0.56128384 0 0 Z " fill="#F9857E" transform="translate(843.5546875,125.16015625)"/>
<path d="M0 0 C0.62382568 0.53971436 1.24765137 1.07942871 1.89038086 1.63549805 C2.54014893 2.20695557 3.18991699 2.77841309 3.859375 3.3671875 C4.52525635 3.94960205 5.1911377 4.5320166 5.87719727 5.13208008 C16.58278471 14.55806322 16.58278471 14.55806322 19.609375 18.2421875 C19.609375 18.9021875 19.609375 19.5621875 19.609375 20.2421875 C20.269375 20.2421875 20.929375 20.2421875 21.609375 20.2421875 C24.34063336 23.13594636 26.73988969 26.31151032 29.1953125 29.44091797 C30.16223067 30.67260344 31.13381332 31.90063757 32.109375 33.12548828 C40.12754318 43.20582909 47.31502005 53.60435024 54.00537109 64.60791016 C55.68928097 67.37341816 57.39344136 70.12587177 59.09765625 72.87890625 C70.12102519 90.83393648 80.26342783 109.35636982 89.609375 128.2421875 C88.12050781 128.28085937 88.12050781 128.28085937 86.6015625 128.3203125 C74.60717062 128.76757612 59.10972026 129.93029312 50.0546875 138.7578125 C46.69869227 142.66366005 45.4487303 145.10877424 45.359375 150.1796875 C45.33359375 151.05496094 45.3078125 151.93023437 45.28125 152.83203125 C45.42650285 155.23951154 45.42650285 155.23951154 46.7421875 156.90625 C50.12821668 159.32889012 54.10485175 160.45097582 57.9921875 161.86328125 C60.609375 163.2421875 60.609375 163.2421875 61.4765625 165.40234375 C61.52039063 166.00949219 61.56421875 166.61664063 61.609375 167.2421875 C61.14789063 167.64308594 60.68640625 168.04398438 60.2109375 168.45703125 C58.00514237 170.37947325 55.80629682 172.30961075 53.609375 174.2421875 C52.82691406 174.92925781 52.04445313 175.61632812 51.23828125 176.32421875 C48.67051574 178.60439452 46.13526501 180.91570986 43.609375 183.2421875 C43.11373047 183.69174805 42.61808594 184.14130859 42.10742188 184.60449219 C40.57038869 186.00841946 39.05701408 187.43442172 37.546875 188.8671875 C36.16822266 190.15496094 36.16822266 190.15496094 34.76171875 191.46875 C32.13814233 194.84940201 31.76667197 196.99993596 31.609375 201.2421875 C31.85945313 202.07492187 32.10953125 202.90765625 32.3671875 203.765625 C32.609375 206.2421875 32.609375 206.2421875 30.5390625 209.34375 C29.53284381 210.52853517 28.51357155 211.70230708 27.484375 212.8671875 C11.68907841 231.66977365 -0.90803586 253.15417707 -13.390625 274.2421875 C-16.11328638 272.88085681 -16.13142886 271.66454332 -17.08984375 268.80859375 C-17.40832275 267.86419434 -17.72680176 266.91979492 -18.05493164 265.94677734 C-18.39258545 264.9098877 -18.73023926 263.87299805 -19.078125 262.8046875 C-19.43189209 261.7213916 -19.78565918 260.6380957 -20.15014648 259.52197266 C-25.97821345 241.41366174 -30.58973806 223.24713097 -34.078125 204.5546875 C-34.21678986 203.82207703 -34.35545471 203.08946655 -34.49832153 202.33465576 C-35.56374988 196.65231816 -36.49936062 190.95423735 -37.390625 185.2421875 C-37.65110123 183.61067245 -37.65110123 183.61067245 -37.9168396 181.94619751 C-41.12229352 161.4140419 -41.99462448 141.35359374 -41.84014893 120.59960938 C-41.8240404 117.52508889 -41.8342779 114.45086795 -41.84387207 111.37633801 C-41.89778213 89.76303792 -40.96231824 68.44728168 -36.015625 47.3046875 C-35.69754883 45.90041504 -35.69754883 45.90041504 -35.37304688 44.46777344 C-32.4846182 31.98107073 -29.31425027 19.67906642 -23.390625 8.2421875 C-22.96265625 7.32308594 -22.5346875 6.40398437 -22.09375 5.45703125 C-19.56272909 0.51585279 -17.6476095 -2.20591461 -12.265625 -4.0078125 C-6.88408269 -5.3825367 -4.03494139 -3.50341321 0 0 Z " fill="#F9867E" transform="translate(190.390625,129.7578125)"/>
<path d="M0 0 C0.66 0 1.32 0 2 0 C-1.52913342 15.56179785 -8.65476931 29.93234568 -16 44 C-16.51433594 44.99773438 -17.02867187 45.99546875 -17.55859375 47.0234375 C-23.50791098 58.27715952 -30.76378071 68.32244234 -39 78 C-39.89625977 79.08298056 -40.79207347 80.1663304 -41.6875 81.25 C-48.62122197 89.53760293 -56.0700188 97.28273485 -63.6875 104.9375 C-64.18293304 105.43810944 -64.67836609 105.93871887 -65.18881226 106.45449829 C-66.60309104 107.88044619 -68.02598145 109.29783724 -69.44921875 110.71484375 C-70.27768311 111.54105225 -71.10614746 112.36726074 -71.9597168 113.21850586 C-74 115 -74 115 -76 115 C-76.33 115.99 -76.66 116.98 -77 118 C-78.61159629 119.45907021 -80.28974668 120.84542621 -82 122.1875 C-85.51523277 124.98258265 -88.91284767 127.80303408 -92.1875 130.875 C-97.9365045 136.02472665 -104.32209046 140.23057028 -110.73730469 144.49511719 C-112.25419021 145.50397372 -113.7678416 146.51770889 -115.27832031 147.53613281 C-129.08111005 156.83662544 -143.35130644 165.10793072 -158 173 C-158.58501282 173.31666626 -159.17002563 173.63333252 -159.77276611 173.95959473 C-197.28694657 194.25738013 -236.4774412 210.12870274 -277.45947266 221.97265625 C-280.77363915 222.93431758 -284.08107501 223.91574838 -287.38671875 224.90625 C-297.3747964 227.88746547 -307.39433845 230.69350346 -317.5 233.25 C-318.4182959 233.48420654 -319.3365918 233.71841309 -320.28271484 233.9597168 C-323.18102421 234.6777293 -326.08627448 235.34733831 -329 236 C-330.17876709 236.27142822 -331.35753418 236.54285645 -332.57202148 236.82250977 C-343.44031158 239.11749457 -353.97686945 239.51698429 -365.0625 239.4375 C-366.41453522 239.43293793 -366.41453522 239.43293793 -367.79388428 239.42828369 C-381.89064303 239.35805117 -395.27736977 238.41756345 -409 235 C-410.33611328 234.68651611 -410.33611328 234.68651611 -411.69921875 234.36669922 C-428.37366342 230.44208997 -444.69663785 225.22625555 -461 220 C-461.97243652 219.6891748 -462.94487305 219.37834961 -463.94677734 219.05810547 C-495.23542645 209.00284429 -525.59217716 196.66384627 -555 182 C-555.9679248 181.51805176 -556.93584961 181.03610352 -557.93310547 180.53955078 C-591.8862987 163.51394718 -625.83869045 142.94165373 -653.37109375 116.515625 C-655.48900078 114.48897994 -657.63326803 112.57226828 -659.875 110.6875 C-669.23204181 102.58737425 -678.09788437 93.51972519 -686 84 C-686.76441406 83.113125 -687.52882813 82.22625 -688.31640625 81.3125 C-705.74531641 60.87677023 -718.88874872 37.13303877 -728.5625 12.125 C-728.82659668 11.45235107 -729.09069336 10.77970215 -729.36279297 10.08666992 C-731.12055999 5.36167996 -731.12055999 5.36167996 -730 2 C-727.6890744 4.3109256 -726.76454512 6.41736485 -725.375 9.375 C-719.17900195 21.91593835 -710.55085718 32.98736014 -702 44 C-701.2059375 45.02351562 -700.411875 46.04703125 -699.59375 47.1015625 C-693.36616269 54.76473001 -686.45445645 61.75268781 -679.5 68.75 C-679.01526215 69.24009552 -678.53052429 69.73019104 -678.03109741 70.23513794 C-671.36862245 76.95335523 -664.41950688 83.12567655 -657 89 C-655.7574257 90.01355802 -654.51631373 91.02891422 -653.27734375 92.046875 C-614.74313533 123.34990279 -571.65249766 147.71281927 -526 167 C-525.06468445 167.39545013 -525.06468445 167.39545013 -524.11047363 167.79888916 C-489.80793627 182.2451326 -454.31645051 193.83629319 -418 202 C-416.989375 202.22896973 -415.97875 202.45793945 -414.9375 202.69384766 C-403.5291427 205.25406795 -392.53944425 207.14812853 -380.82421875 207.203125 C-379.37726372 207.21167511 -379.37726372 207.21167511 -377.90107727 207.22039795 C-375.86301758 207.22980541 -373.82494297 207.23636491 -371.78686523 207.24023438 C-368.73457652 207.24985167 -365.68298799 207.2808794 -362.63085938 207.3125 C-350.1266023 207.38115132 -338.25907076 206.47329438 -326 204 C-324.77643799 203.75523926 -323.55287598 203.51047852 -322.29223633 203.25830078 C-318.86935104 202.53194749 -315.46592049 201.74999343 -312.0625 200.9375 C-310.8058252 200.63932373 -309.54915039 200.34114746 -308.25439453 200.03393555 C-263.50469259 189.29355176 -219.92380268 175.02247831 -178 156 C-177.14132324 155.61199219 -176.28264648 155.22398437 -175.39794922 154.82421875 C-134.06082481 136.04291238 -96.46666684 110.63136678 -63 80 C-62.07574219 79.16855469 -61.15148437 78.33710937 -60.19921875 77.48046875 C-49.04899936 67.39358154 -37.95149672 57.1342511 -29 45 C-28.53271484 44.37673828 -28.06542969 43.75347656 -27.58398438 43.11132812 C-17.29399855 29.36144669 -8.26152941 15.04872738 0 0 Z " fill="#E4CCB1" transform="translate(877,709)"/>
<path d="M0 0 C16.16294153 13.97010343 24.46829598 33.20705465 26.28515625 54.3125 C26.80252468 72.66783213 20.62030173 90.20419502 10 105 C9.41734375 105.84046875 8.8346875 106.6809375 8.234375 107.546875 C-1.10711688 120.18536401 -14.8346378 129.31190864 -30.24609375 132.49609375 C-49.35065645 135.060598 -67.68508762 132.2175411 -83.45703125 120.51953125 C-98.70778303 108.54590958 -108.53326348 92.06705088 -112 73 C-112.41022952 68.55228351 -112.47799184 64.1521243 -112.4375 59.6875 C-112.42920166 58.50196533 -112.42090332 57.31643066 -112.41235352 56.0949707 C-112.05006111 37.27510485 -105.65795712 21.04755321 -93 7 C-92.44699219 6.36578125 -91.89398438 5.7315625 -91.32421875 5.078125 C-68.4407514 -19.60762021 -25.52249103 -20.90062967 0 0 Z " fill="#1D1913" transform="translate(397,455)"/>
<path d="M0 0 C14.81301106 14.2333715 24.28668283 33.03391343 24.92578125 53.65625 C25.2766755 74.53759093 22.45422187 94.11241549 8.1875 110.375 C6.71051417 111.87714743 5.21177873 113.35836507 3.6875 114.8125 C2.73423828 115.77736328 2.73423828 115.77736328 1.76171875 116.76171875 C-10.30615359 128.27991575 -26.77211933 132.32546063 -43.02734375 131.99609375 C-62.40445804 130.91318724 -78.8027363 123.48500845 -92.1875 109.38671875 C-98.96769655 101.1732086 -104.58616289 91.79323821 -108.3125 81.8125 C-108.63089844 80.96300781 -108.94929687 80.11351562 -109.27734375 79.23828125 C-114.8736177 61.15999536 -112.08786511 40.085626 -103.57055664 23.51049805 C-100.43953639 17.72977128 -96.74736868 12.67275405 -92.3125 7.8125 C-91.78398438 7.19246094 -91.25546875 6.57242187 -90.7109375 5.93359375 C-67.79675224 -19.29458559 -25.88055722 -20.88149587 0 0 Z " fill="#1D1813" transform="translate(713.3125,455.1875)"/>
<path d="M0 0 C0 0.99 0 1.98 0 3 C1.65 3.33 3.3 3.66 5 4 C7.05569507 10.32768638 4.36736223 15.22080589 2 21.0625 C1.15817721 23.21486542 0.31969419 25.36853974 -0.515625 27.5234375 C-0.93650391 28.60592773 -1.35738281 29.68841797 -1.79101562 30.80371094 C-3.88675148 36.34437609 -5.71615954 41.96876243 -7.52734375 47.60766602 C-8.96598713 52.04363524 -10.53821968 56.37780744 -12.2734375 60.70703125 C-16.0554967 70.44725551 -18.91362372 80.4865989 -21.875 90.5 C-22.18569427 91.54688995 -22.49638855 92.59377991 -22.8164978 93.6723938 C-27.55001585 109.65657034 -31.9291568 125.6436284 -35.5390625 141.92352295 C-36.06371383 144.28702438 -36.59217537 146.64965687 -37.12109375 149.01220703 C-37.32039993 149.90259171 -37.51970612 150.79297638 -37.72505188 151.71034241 C-38.1373756 153.55125234 -38.54996291 155.39210324 -38.96281433 157.2328949 C-39.97744994 161.75886048 -40.98656309 166.28586396 -41.98168945 170.81616211 C-42.34843379 172.47119944 -42.71521275 174.1262291 -43.08203125 175.78125 C-43.24630615 176.53821671 -43.41058105 177.29518341 -43.57983398 178.0750885 C-44.42691781 181.87720456 -45.42048634 185.43525018 -47 189 C-48.33333333 188.33333333 -49.66666667 187.66666667 -51 187 C-52.36125 186.443125 -52.36125 186.443125 -53.75 185.875 C-57.50505551 183.70862182 -60.05289462 181.11581794 -63.03125 178 C-64.77778841 176.22573876 -66.5517065 174.6689307 -68.5 173.125 C-69.325 172.42375 -70.15 171.7225 -71 171 C-71 170.34 -71 169.68 -71 169 C-69.85660156 168.44570313 -68.71320312 167.89140625 -67.53515625 167.3203125 C-66.04411537 166.58885848 -64.55323838 165.85707033 -63.0625 165.125 C-61.93038086 164.57779297 -61.93038086 164.57779297 -60.77539062 164.01953125 C-59.69741211 163.48779297 -59.69741211 163.48779297 -58.59765625 162.9453125 C-57.93258057 162.62062988 -57.26750488 162.29594727 -56.58227539 161.96142578 C-54.81950756 161.08247732 -54.81950756 161.08247732 -54 159 C-53.45689874 152.70002539 -54.23873987 148.18564266 -58 143 C-66.38069873 134.61930127 -78.77125563 134.0211683 -89.9375 133.4375 C-91.10635742 133.37272461 -91.10635742 133.37272461 -92.29882812 133.30664062 C-94.19907117 133.20171923 -96.09951669 133.1004755 -98 133 C-98.33 132.34 -98.66 131.68 -99 131 C-98.1706543 128.94726562 -98.1706543 128.94726562 -96.82421875 126.40625 C-96.08449829 124.9979895 -96.08449829 124.9979895 -95.32983398 123.5612793 C-94.51687866 122.04594604 -94.51687866 122.04594604 -93.6875 120.5 C-93.13715088 119.46206299 -92.58680176 118.42412598 -92.01977539 117.35473633 C-90.35728335 114.23057571 -88.68147692 111.11397761 -87 108 C-86.54560547 107.15614746 -86.09121094 106.31229492 -85.62304688 105.44287109 C-71.33922834 79.0222222 -55.51172978 52.31153172 -35.0078125 30.21875 C-33.60280008 28.66612927 -32.25748457 27.0583425 -30.9609375 25.4140625 C-29.23920653 23.29448134 -27.58373073 21.62058144 -25.5 19.875 C-21.36824221 16.34675739 -17.37045873 12.69092343 -13.38867188 8.99560547 C-11.93516863 7.65349856 -10.46758358 6.32669555 -9 5 C-8.20964355 4.28312012 -8.20964355 4.28312012 -7.40332031 3.55175781 C-3.35166696 0 -3.35166696 0 0 0 Z " fill="#F06966" transform="translate(842,125)"/>
<path d="M0 0 C1.16043816 0.88080249 2.2905674 1.80266695 3.390625 2.7578125 C4.01445068 3.29752686 4.63827637 3.83724121 5.28100586 4.39331055 C5.93077393 4.96476807 6.58054199 5.53622559 7.25 6.125 C8.24882202 6.99862183 8.24882202 6.99862183 9.26782227 7.88989258 C19.97340971 17.31587572 19.97340971 17.31587572 23 21 C23 21.66 23 22.32 23 23 C23.66 23 24.32 23 25 23 C27.73125836 25.89375886 30.13051469 29.06932282 32.5859375 32.19873047 C33.55285567 33.43041594 34.52443832 34.65845007 35.5 35.88330078 C43.51816818 45.96364159 50.70564505 56.36216274 57.39599609 67.36572266 C59.07990597 70.13123066 60.78406636 72.88368427 62.48828125 75.63671875 C73.51165019 93.59174898 83.65405283 112.11418232 93 131 C91.51113281 131.03867187 91.51113281 131.03867187 89.9921875 131.078125 C77.99779562 131.52538862 62.50034526 132.68810562 53.4453125 141.515625 C50.08931727 145.42147255 48.8393553 147.86658674 48.75 152.9375 C48.71132812 154.25041016 48.71132812 154.25041016 48.671875 155.58984375 C48.81712785 157.99732404 48.81712785 157.99732404 50.1328125 159.6640625 C53.51884168 162.08670262 57.49547675 163.20878832 61.3828125 164.62109375 C64 166 64 166 64.8671875 168.16015625 C64.91101563 168.76730469 64.95484375 169.37445313 65 170 C64.53851563 170.40089844 64.07703125 170.80179688 63.6015625 171.21484375 C58.81630301 175.38539599 54.09036587 179.61570923 49.39453125 183.88671875 C46.99011391 186.00872492 44.51988903 188.01720988 42 190 C39.93741756 182.87420303 38.1151223 175.69562134 36.3125 168.5 C36.13736877 167.80314087 35.96223755 167.10628174 35.78179932 166.38830566 C33.80618362 158.51312975 31.88628207 150.63011786 30.12890625 142.703125 C29.97966202 142.03120117 29.83041779 141.35927734 29.676651 140.66699219 C28.97570913 137.49989608 28.28580552 134.33089135 27.6105957 131.15820312 C25.92644061 123.44283014 23.85336784 115.93329653 21.54510498 108.38508606 C19.27313571 100.95547105 17.11564123 93.49620726 14.9765625 86.02734375 C13.89331677 82.26946752 12.80855932 78.51202996 11.72363281 74.75463867 C10.99100818 72.2091751 10.26216753 69.66261939 9.53710938 67.11499023 C5.41684109 52.65414773 1.09863888 38.58278196 -5.14598083 24.88586426 C-8.91739045 16.55775303 -11.94501949 9.30319186 -11 0 C-3.93906944 -2.44416827 -3.93906944 -2.44416827 0 0 Z " fill="#F06966" transform="translate(187,127)"/>
<path d="M0 0 C3.39006177 1.15637676 6.08221059 3.00885572 8.9921875 5.0390625 C33.83080505 21.6368458 65.25927276 27.18730664 94.54296875 21.46289062 C111.59771864 17.63393207 126.25537599 10.62356174 140.6796875 0.9140625 C141.3396875 1.5740625 141.9996875 2.2340625 142.6796875 2.9140625 C139.55157252 5.51877242 136.40370059 8.09718438 133.23535156 10.65283203 C131.81976486 11.80049695 130.41695233 12.96387312 129.015625 14.12890625 C106.09375577 32.39373865 79.28777246 40.24618289 50.18945312 37.69580078 C39.01453286 36.38530416 28.09179911 33.72192458 17.19140625 31 C-4.57701254 25.67245422 -25.6459085 30.51827687 -46.98999023 35.54248047 C-72.02606083 41.13732969 -97.28387109 35.18884461 -118.7421875 21.72265625 C-123.379084 18.4698031 -127.80604873 14.95106344 -132.21875 11.40234375 C-134.55756195 9.52599209 -136.9066114 7.69164041 -139.3203125 5.9140625 C-138.9903125 4.9240625 -138.6603125 3.9340625 -138.3203125 2.9140625 C-137.39025391 3.55021484 -137.39025391 3.55021484 -136.44140625 4.19921875 C-124.54309391 12.07946928 -112.25816956 17.68515266 -98.3203125 20.9140625 C-97.36769531 21.13964844 -96.41507812 21.36523438 -95.43359375 21.59765625 C-65.9985694 27.29602545 -36.04683269 20.59620396 -10.3203125 5.9140625 C-8.13911222 4.31520479 -6.07047992 2.697124 -4.06640625 0.8828125 C-2.3203125 -0.0859375 -2.3203125 -0.0859375 0 0 Z " fill="#E5CDB1" transform="translate(512.3203125,765.0859375)"/>
<path d="M0 0 C5.56394945 0.75510743 9.79267316 3.97228401 14.41796875 6.94140625 C22.45774085 12.05933855 30.60417087 15.53086353 39.6875 18.3125 C40.88451538 18.68205811 40.88451538 18.68205811 42.10571289 19.05908203 C54.7660927 22.752916 67.21734223 23.41041975 80.31396484 23.37817383 C82.98186459 23.37502143 85.6486432 23.3985308 88.31640625 23.42382812 C103.0363983 23.47930623 117.00025947 21.73566934 131.0625 17.1875 C131.95203369 16.90575928 132.84156738 16.62401855 133.75805664 16.33374023 C143.28768491 13.1512301 152.31742078 8.80648265 161.29614258 4.33056641 C162.42431396 3.77933105 163.55248535 3.2280957 164.71484375 2.66015625 C165.7112085 2.16008057 166.70757324 1.66000488 167.73413086 1.14477539 C171.2508574 -0.11723778 174.04011798 -0.19938406 177.75 0.0625 C178.75 1.0625 178.75 1.0625 179.1875 4.1875 C178.48603734 10.40045495 175.13150979 13.07994398 170.46484375 16.96484375 C141.36890151 39.12691137 106.08177233 49.57787952 69.75 44.8125 C46.28041486 41.46283718 22.07340125 32.68383286 3.75 17.0625 C3.75 16.4025 3.75 15.7425 3.75 15.0625 C3.1725 14.835625 2.595 14.60875 2 14.375 C-0.97046866 12.64222661 -2.43020872 10.98716456 -4.25 8.0625 C-4.5625 4.3125 -4.5625 4.3125 -4.25 1.0625 C-3.25 0.0625 -3.25 0.0625 0 0 Z " fill="#1E1914" transform="translate(424.25,826.9375)"/>
<path d="M0 0 C0.94859894 -0.00570007 1.89719788 -0.01140015 2.87454224 -0.01727295 C4.87989196 -0.02668803 6.88525691 -0.03324298 8.890625 -0.03710938 C11.9013315 -0.0467344 14.91133066 -0.07775786 17.921875 -0.109375 C56.36229319 -0.31976242 56.36229319 -0.31976242 68.8828125 11.62890625 C70.0703125 13.203125 70.0703125 13.203125 70.7578125 16.265625 C69.92184799 19.83747337 68.65250362 21.62093388 66.0703125 24.203125 C58.54662631 26.7110204 49.90992979 25.25900913 42.1875 24.21875 C33.38861481 23.12060887 24.68220669 22.76514138 15.8203125 22.765625 C15.05315918 22.76389282 14.28600586 22.76216064 13.49560547 22.76037598 C-5.22695509 22.77872385 -23.65491543 25.02121154 -41.36499023 31.37597656 C-44.88468867 32.51112538 -47.27852813 32.82459893 -50.9296875 32.203125 C-52.9296875 30.703125 -52.9296875 30.703125 -53.9296875 28.203125 C-54.24834053 23.58265605 -53.79713901 21.41571147 -51.09375 17.63671875 C-43.79335699 9.27739501 -37.90715217 4.78816387 -26.9296875 2.953125 C-26.06601562 2.79328125 -25.20234375 2.6334375 -24.3125 2.46875 C-21.85457915 2.02049696 -19.3970381 1.59617969 -16.9296875 1.203125 C-15.88022949 1.02587891 -14.83077148 0.84863281 -13.74951172 0.66601562 C-9.14703638 0.10828245 -4.63170829 0.02199693 0 0 Z " fill="#63605D" transform="translate(498.9296875,604.796875)"/>
<path d="M0 0 C0.88816406 0.37382812 1.77632812 0.74765625 2.69140625 1.1328125 C14.44676276 6.55283947 26.30990482 16.15381047 32 28 C32.9375 31.3125 32.9375 31.3125 33 34 C32.34 34.99 31.68 35.98 31 37 C28.1875 37.5 28.1875 37.5 25 37 C22.625 35 22.625 35 20 32 C10.33730887 21.40649918 -1.13530799 13.61749502 -15.75 12.5859375 C-26.38132373 12.14591601 -34.34283071 13.39998741 -44 18 C-49.97499132 20.39423411 -49.97499132 20.39423411 -53.4375 19.0625 C-55 17 -55 17 -55.5625 13.75 C-54.86007751 9.06718337 -53.47871444 6.1344293 -50 3 C-34.85751576 -6.19291335 -16.33330022 -7.00980346 0 0 Z " fill="#1B1612" transform="translate(683,366)"/>
<path d="M0 0 C1.14855469 0.57814453 1.14855469 0.57814453 2.3203125 1.16796875 C5.74401784 3.0638916 7.7777697 4.69933547 10.125 7.875 C11.24945394 11.89090694 10.5031422 14.16698739 9 18 C8 19 8 19 5.1875 19.375 C0.33193432 19.3350365 -3.71359452 17.16036386 -8.08984375 15.24609375 C-20.25568962 10.03682552 -32.38094302 11.20300382 -44.5234375 15.99609375 C-52.96781004 19.84534243 -60.61273358 25.67108419 -66.25 33.0625 C-67.5859375 34.7578125 -67.5859375 34.7578125 -69 36 C-72.875 36.4375 -72.875 36.4375 -76 36 C-77.49590709 33.00818583 -77.42743011 31.3583794 -77 28 C-69.71071105 12.93162798 -55.01945767 3.5126078 -39.84765625 -2.0546875 C-27.75530972 -6.0688821 -11.28817026 -6.16631365 0 0 Z " fill="#1C1713" transform="translate(385,367)"/>
<path d="M0 0 C4.42769195 2.47455838 7.46802749 5.81105499 9.75 10.375 C10.77860172 18.01604132 9.27213771 24.12565692 4.75 30.375 C-0.94576357 36.03935311 -6.59367768 39.33262752 -14.6875 39.6875 C-19.68340765 39.54475978 -23.94246074 38.50503624 -27.72265625 35.015625 C-30.99049222 31.3190642 -33.25450609 28.05612329 -33.24609375 23.05078125 C-32.69468331 15.20198151 -30.20429025 8.78106915 -24.25 3.375 C-16.69012929 -1.28519427 -8.46430542 -3.87077345 0 0 Z " fill="#FDFCFC" transform="translate(349.25,465.625)"/>
<path d="M0 0 C5.04111834 2.84627755 8.09309357 6.73207748 9.6875 12.3125 C10.39842904 18.47388497 8.83062589 23.09546407 5.6875 28.3125 C1.27676352 33.84461016 -3.54058589 37.87972695 -10.78515625 38.7109375 C-12.56212891 38.69933594 -12.56212891 38.69933594 -14.375 38.6875 C-16.15583984 38.69910156 -16.15583984 38.69910156 -17.97265625 38.7109375 C-23.91482283 38.00204745 -27.44303424 34.70486654 -31.3125 30.3125 C-33.53964015 26.28243687 -33.76843649 22.87186491 -33.3125 18.3125 C-30.36161518 9.02917586 -24.7149691 3.88288068 -16.3125 -0.6875 C-10.73836747 -2.54554418 -5.36974432 -2.49381384 0 0 Z " fill="#FBFBFB" transform="translate(665.3125,465.6875)"/>
<path d="M0 0 C0.43570312 0.37511719 0.87140625 0.75023437 1.3203125 1.13671875 C2.56778326 2.20867956 3.8179632 3.27749276 5.0703125 4.34375 C6.24369049 5.35085985 7.40790403 6.36895842 8.5546875 7.40625 C11.5504752 10.06197531 14.39410263 11.64935042 18.06884766 13.16772461 C20.67753808 14.29200093 23.17547409 15.5981211 25.69580078 16.90600586 C34.85875287 21.65146707 43.76731103 25.3016876 54 27 C56.1875 28 56.1875 28 58 29 C58.99 29.33 59.98 29.66 61 30 C61 35.28 61 40.56 61 46 C51.84503942 44.90538515 44.27429208 43.06857456 36 39 C35.16984375 38.60296875 34.3396875 38.2059375 33.484375 37.796875 C20.12386202 30.64253579 4.82595779 14.47787336 0 0 Z " fill="#E7CEB1" transform="translate(440,684)"/>
<path d="M0 0 C0.66 0 1.32 0 2 0 C0.50925403 4.5059271 -1.99892613 7.90746124 -4.9375 11.5625 C-5.42694092 12.17383789 -5.91638184 12.78517578 -6.4206543 13.41503906 C-7.93452226 15.28743556 -9.46340329 17.14622503 -11 19 C-11.45084961 19.5470459 -11.90169922 20.0940918 -12.36621094 20.65771484 C-23.44610309 33.924753 -37.69564496 44.71813956 -55 48 C-56.65 48 -58.3 48 -60 48 C-60 43.05 -60 38.1 -60 33 C-57.03 32.01 -54.06 31.02 -51 30 C-51 29.67 -51 29.34 -51 29 C-50.10539063 28.75765625 -49.21078125 28.5153125 -48.2890625 28.265625 C-31.38804229 23.58090725 -12.19474862 16.40221907 -1.3203125 1.734375 C-0.88460937 1.16203125 -0.44890625 0.5896875 0 0 Z " fill="#E7CFB2" transform="translate(583,681)"/>
<path d="M0 0 C3.37008972 0.70890034 5.09653323 1.89835971 7.33984375 4.4921875 C9.5904391 8.45752216 9.8138924 11.98872532 9.33984375 16.4921875 C7.72663654 19.54575829 6.30923473 21.73052316 3.58984375 23.8671875 C-0.55330909 25.01806329 -4.56717187 25.60293798 -8.44140625 23.546875 C-11.71801698 20.99304605 -13.79058872 18.55016929 -14.66015625 14.4921875 C-14.66015625 9.14688804 -13.19088411 5.66554057 -9.60546875 1.8203125 C-6.47404168 -0.3176096 -3.70170559 -0.27832373 0 0 Z " fill="#C6B8A6" transform="translate(749.66015625,634.5078125)"/>
<path d="M0 0 C3.64115435 2.0688377 6.79935433 4.91780472 8 9 C8.45295055 13.98245604 8.1745053 17.05923481 5 21 C1.43573207 23.95325057 -1.58066978 24.47086025 -6.0703125 24.29296875 C-8.91911321 23.86045852 -10.76203604 22.77720667 -13 21 C-15.97412962 16.53880557 -15.74600921 12.22952455 -15 7 C-11.78109515 0.59933151 -6.80900379 -0.69244106 0 0 Z " fill="#C6B7A6" transform="translate(281,635)"/>
<path d="M0 0 C3.32111098 2.08046607 6.23180362 4.46360725 8 8 C8.37766377 13.00404498 8.11200434 15.99885156 5 20 C1.19287987 23.41071716 -1.63177519 23.50881108 -6.58984375 23.35546875 C-10.02979826 22.84811728 -11.71319039 21.57266081 -14 19 C-16.28853994 15.73065722 -16.47162218 12.9301848 -16 9 C-12.27895965 2.2223908 -8.15992562 -1.92622779 0 0 Z " fill="#C6B8A8" transform="translate(778,679)"/>
<path d="M0 0 C4.21832937 0.06081471 5.34166045 0.17466194 8.8125 2.8125 C12.08570019 7.39498027 12.2149832 10.90372165 11.6875 16.4375 C10.38751914 19.58482208 9.06152477 21.09647741 6.5625 23.375 C2.26473255 24.96330536 -1.12482748 24.13684537 -5.3125 22.4375 C-9.1703122 19.2226565 -11.14246886 17.20582387 -11.625 12.1875 C-11.02453117 4.98187404 -7.20187311 0.16567232 0 0 Z " fill="#C5B7A6" transform="translate(248.3125,678.5625)"/>
<path d="M0 0 C4.23100003 2.55827909 6.38594494 5.33717427 8 10 C8.21485665 14.37448149 7.48128587 17.27030852 5.0625 20.9375 C2.39211155 23.60788845 1.48643166 23.94493226 -2.3125 24.375 C-6 24 -6 24 -8.8125 21.6875 C-12.41827861 17.25754342 -13.4947952 14.88040506 -13.39453125 9.29296875 C-12.72761415 5.41692581 -10.8124343 3.67850886 -8 1 C-5.14675563 -0.42662219 -3.16545451 -0.31033868 0 0 Z " fill="#C9B9A8" transform="translate(727,674)"/>
<path d="M0 0 C3.90727193 0.9431346 5.7675406 2.10158352 8.625 4.875 C10.23108952 8.08717903 10.10516287 11.39057486 9.625 14.875 C7.8125 18.1875 7.8125 18.1875 5.625 20.875 C5.191875 21.49375 4.75875 22.1125 4.3125 22.75 C1.27746614 24.77335591 -0.85200495 24.4721178 -4.375 23.875 C-7.96201732 21.43144235 -10.01830398 18.62852852 -10.88671875 14.359375 C-11.07179153 10.09631926 -10.79389635 7.56834568 -8.5625 3.875 C-4.15586763 -0.15392102 -4.15586763 -0.15392102 0 0 Z " fill="#C6B7A6" transform="translate(299.375,674.125)"/>
<path d="M0 0 C3.15195865 2.31572472 4.69900634 3.6622504 5.5625 7.5 C4.54382112 12.0274617 2.04341971 14.31229156 -1.75 16.8125 C-5.82901365 18.30290883 -8.67860916 18.29297565 -13 18 C-14.78569161 16.21430839 -14.21468103 13.66346262 -14.25 11.25 C-14.27578125 10.20328125 -14.3015625 9.1565625 -14.328125 8.078125 C-13.9589595 4.61500101 -13.05955369 2.7793977 -11 0 C-7.48417931 -1.75791034 -3.72007438 -0.93643252 0 0 Z " fill="#68625B" transform="translate(381,543)"/>
<path d="M0 0 C2.5625 1.6875 2.5625 1.6875 4 4 C4.5625 6.875 4.5625 6.875 4 10 C1.22413152 14.12414745 -1.09709173 16.83264089 -6 18 C-9.75 18.1875 -9.75 18.1875 -13 18 C-14.70558443 16.29441557 -14.21230676 14.14005782 -14.25 11.8125 C-14.21358752 7.14563374 -13.69789205 3.94307299 -11 0 C-7.5043981 -1.74780095 -3.71679351 -0.84502588 0 0 Z " fill="#68625B" transform="translate(699,543)"/>
<path d="M0 0 C3.30669336 2.73692466 4.86780532 6.39995179 6.6875 10.1875 C7.00783203 10.84169922 7.32816406 11.49589844 7.65820312 12.16992188 C8.44428292 13.77727907 9.22288683 15.38828858 10 17 C8.98421875 17.03738281 7.9684375 17.07476562 6.921875 17.11328125 C-0.91324409 17.46660167 -8.08048128 18.20213092 -15.64453125 20.4765625 C-18 21 -18 21 -21 20 C-12.01893575 17.22623803 -3.33562359 15.17858371 6 14 C5.566875 13.15695313 5.13375 12.31390625 4.6875 11.4453125 C4.130625 10.34960938 3.57375 9.25390625 3 8.125 C2.443125 7.03445312 1.88625 5.94390625 1.3125 4.8203125 C0 2 0 2 0 0 Z " fill="#F37573" transform="translate(270,241)"/>
<path d="M0 0 C0.99 0.66 1.98 1.32 3 2 C1.23055495 3.46001748 -0.54060571 4.91795593 -2.3125 6.375 C-3.29863281 7.18710937 -4.28476562 7.99921875 -5.30078125 8.8359375 C-8 11 -8 11 -11 13 C-11.99 12.67 -12.98 12.34 -14 12 C-17.15020361 12.88319294 -17.15020361 12.88319294 -20 14 C-17.98522311 11.85620367 -16.03693543 10.28492274 -13.49609375 8.80859375 C-12.83802734 8.42123047 -12.17996094 8.03386719 -11.50195312 7.63476562 C-10.82068359 7.23966797 -10.13941406 6.84457031 -9.4375 6.4375 C-4.4233974 3.62385995 -4.4233974 3.62385995 0 0 Z " fill="#E7D2B5" transform="translate(652,766)"/>
<path d="M0 0 C-2.90092502 1.93395001 -3.89674737 2.30131941 -7.1875 2.625 C-8.445625 2.74875 -9.70375 2.8725 -11 3 C-10.67 8.28 -10.34 13.56 -10 19 C-10.99 19 -11.98 19 -13 19 C-13 13.06 -13 7.12 -13 1 C-8.3736134 0.33908763 -4.56428209 -0.11132395 0 0 Z " fill="#F6E1C1" transform="translate(534,711)"/>
<path d="M0 0 C0 4.16743727 -2.2779799 5.8824673 -5 8.75 C-5.49604736 9.28206055 -5.99209473 9.81412109 -6.50317383 10.36230469 C-10.43107849 14.523569 -14.5593515 18.38640638 -19 22 C-19.66 21.67 -20.32 21.34 -21 21 C-14.07 14.07 -7.14 7.14 0 0 Z " fill="#FEF6E7" transform="translate(428,568)"/>
<path d="M0 0 C0.33 0.66 0.66 1.32 1 2 C0.06553465 4.03144641 -0.93224776 6.03533587 -2 8 C-1.03578125 8.04898438 -0.0715625 8.09796875 0.921875 8.1484375 C2.18515625 8.22320312 3.4484375 8.29796875 4.75 8.375 C6.00296875 8.44460937 7.2559375 8.51421875 8.546875 8.5859375 C12 9 12 9 16 11 C9.4 11 2.8 11 -4 11 C-4.33 10.34 -4.66 9.68 -5 9 C-4.00390625 6.8359375 -4.00390625 6.8359375 -2.5625 4.375 C-2.08941406 3.55773437 -1.61632812 2.74046875 -1.12890625 1.8984375 C-0.75636719 1.27195313 -0.38382813 0.64546875 0 0 Z " fill="#F57573" transform="translate(748,247)"/>
<path d="M0 0 C-0.33 0.99 -0.66 1.98 -1 3 C-4.10473456 4.21921083 -7.31896652 4.19653315 -10.625 4.25 C-12.06746094 4.28867187 -12.06746094 4.28867187 -13.5390625 4.328125 C-14.35117187 4.21984375 -15.16328125 4.1115625 -16 4 C-16.66 3.01 -17.32 2.02 -18 1 C-15.93769732 0.8309093 -13.8751477 0.66482867 -11.8125 0.5 C-10.08966797 0.36078125 -10.08966797 0.36078125 -8.33203125 0.21875 C-5.53927574 0.0354038 -2.79680188 -0.04213637 0 0 Z " fill="#E79B35" transform="translate(921,603)"/>
<path d="M0 0 C0.66 0.33 1.32 0.66 2 1 C1.175 1.66 0.35 2.32 -0.5 3 C-3.1374662 6.16495944 -3.74936974 7.88539934 -3.5 12 C-2.60516552 15.5793379 -0.61631085 17.44598226 2 20 C2.66 20.33 3.32 20.66 4 21 C3.67 21.66 3.34 22.32 3 23 C1.86800647 22.0919838 0.74467637 21.17316174 -0.375 20.25 C-1.00148438 19.73953125 -1.62796875 19.2290625 -2.2734375 18.703125 C-4.90722488 16.10509039 -5.8571793 13.80336643 -6.5 10.1875 C-5.78252483 5.61359579 -3.19120552 3.21020079 0 0 Z " fill="#0E0A0D" transform="translate(747,284)"/>
<path d="M0 0 C0.66 0.66 1.32 1.32 2 2 C0.90033225 3.29549899 -0.20491801 4.58626071 -1.3125 5.875 C-1.92738281 6.59429688 -2.54226563 7.31359375 -3.17578125 8.0546875 C-5 10 -5 10 -8 12 C-8.66 11.34 -9.32 10.68 -10 10 C-6.7 6.7 -3.4 3.4 0 0 Z " fill="#F4EAD4" transform="translate(663,756)"/>
<path d="M0 0 C-3.43361902 3.63559661 -6.7973607 6.36113346 -11 9 C-11.66 8.67 -12.32 8.34 -13 8 C-9.25 5 -9.25 5 -7 5 C-7 4.34 -7 3.68 -7 3 C-7.66 2.67 -8.32 2.34 -9 2 C-3.375 -1.125 -3.375 -1.125 0 0 Z " fill="#E1C7AA" transform="translate(641,778)"/>
<path d="M0 0 C0 0.99 0 1.98 0 3 C-1.42004307 4.25492178 -2.84994883 5.50181737 -4.34375 6.66796875 C-6.2431325 8.14650458 -6.2431325 8.14650458 -8.6875 10.6875 C-11 13 -11 13 -14 15 C-12.47925254 11.39952764 -10.33755655 9.09993237 -7.5625 6.375 C-6.78003906 5.59898437 -5.99757813 4.82296875 -5.19140625 4.0234375 C-3 2 -3 2 0 0 Z " fill="#0C0A0E" transform="translate(327,374)"/>
<path d="M0 0 C1.98283479 1.11852219 3.96117623 2.24501325 5.9375 3.375 C7.59072266 4.31472656 7.59072266 4.31472656 9.27734375 5.2734375 C12 7 12 7 13 9 C6.8847608 8.63308565 4.16739794 7.26904179 0 3 C0 2.01 0 1.02 0 0 Z " fill="#EDDBBF" transform="translate(373,768)"/>
<path d="M0 0 C0 0.99 0 1.98 0 3 C-3.31362249 3.89212913 -6.58453106 4.63665224 -10 5 C-10.99 4.34 -11.98 3.68 -13 3 C-11.2092015 2.49689942 -9.41733089 1.99761372 -7.625 1.5 C-6.62726562 1.2215625 -5.62953125 0.943125 -4.6015625 0.65625 C-2 0 -2 0 0 0 Z " fill="#251E19" transform="translate(592,933)"/>
<path d="M0 0 C0.33 0.66 0.66 1.32 1 2 C0.01 2.495 0.01 2.495 -1 3 C-1.65213292 5.02463255 -1.65213292 5.02463255 -2 7 C-2.53625 6.79375 -3.0725 6.5875 -3.625 6.375 C-6.83267308 5.8685253 -9.01317066 6.84599775 -12 8 C-9.69716746 5.45868642 -7.32686207 3.92889705 -4.3125 2.3125 C-3.50425781 1.87550781 -2.69601562 1.43851563 -1.86328125 0.98828125 C-1.24839844 0.66214844 -0.63351562 0.33601562 0 0 Z " fill="#F0DFC1" transform="translate(644,772)"/>
<path d="M0 0 C0.33 0.66 0.66 1.32 1 2 C0.22265625 3.7265625 0.22265625 3.7265625 -0.9375 5.625 C-1.618125 6.73875 -2.29875 7.8525 -3 9 C-3.66 8.67 -4.32 8.34 -5 8 C-5.625 4.9375 -5.625 4.9375 -6 2 C-4.7934375 1.7834375 -4.7934375 1.7834375 -3.5625 1.5625 C-1.07896294 1.25864751 -1.07896294 1.25864751 0 0 Z " fill="#F58A87" transform="translate(180,395)"/>
<path d="M0 0 C0.33 0 0.66 0 1 0 C1.33 2.64 1.66 5.28 2 8 C0.68 8.99 -0.64 9.98 -2 11 C-2.33 9.35 -2.66 7.7 -3 6 C-2.34 6 -1.68 6 -1 6 C-0.67 4.02 -0.34 2.04 0 0 Z " fill="#F07E7A" transform="translate(227,310)"/>
<path d="M0 0 C2.28459758 2.28459758 2.97129748 4.12537344 4.125 7.125 C4.47820312 8.03507813 4.83140625 8.94515625 5.1953125 9.8828125 C5.46085938 10.58148437 5.72640625 11.28015625 6 12 C4 12 4 12 2.5 11 C0.16997854 7.89330472 -0.26429637 4.80113541 -1 1 C-0.67 0.67 -0.34 0.34 0 0 Z " fill="#E3CEB0" transform="translate(147,711)"/>
<path d="M0 0 C1.98 0.495 1.98 0.495 4 1 C2.515 4.96 2.515 4.96 1 9 C-1.14809171 5.77786243 -1.29386153 4.72224599 -1 1 C-0.67 0.67 -0.34 0.34 0 0 Z " fill="#291C14" transform="translate(171,114)"/>
<path d="M0 0 C-0.33 0.99 -0.66 1.98 -1 3 C-6.61 2.67 -12.22 2.34 -18 2 C-18 1.67 -18 1.34 -18 1 C-15.93769732 0.8309093 -13.8751477 0.66482867 -11.8125 0.5 C-10.08966797 0.36078125 -10.08966797 0.36078125 -8.33203125 0.21875 C-5.53927574 0.0354038 -2.79680188 -0.04213637 0 0 Z " fill="#F29331" transform="translate(921,603)"/>
<path d="M0 0 C0.89203125 0.00902344 1.7840625 0.01804687 2.703125 0.02734375 C3.37859375 0.03894531 4.0540625 0.05054688 4.75 0.0625 C4.75 0.3925 4.75 0.7225 4.75 1.0625 C2.11 1.0625 -0.53 1.0625 -3.25 1.0625 C-3.25 1.7225 -3.25 2.3825 -3.25 3.0625 C-5.89 3.0625 -8.53 3.0625 -11.25 3.0625 C-7.92392552 -0.26357448 -4.54621004 -0.05981855 0 0 Z " fill="#F6B63E" transform="translate(354.25,378.9375)"/>
<path d="M0 0 C0 0.99 0 1.98 0 3 C-3.96 2.67 -7.92 2.34 -12 2 C-12 1.67 -12 1.34 -12 1 C-7.95858806 0.36605303 -4.0934693 -0.12404452 0 0 Z " fill="#2E271F" transform="translate(575,786)"/>
<path d="M0 0 C2.0957222 4.1914444 2.29166003 4.80210489 1 9 C0.34 9.99 -0.32 10.98 -1 12 C-0.67 8.04 -0.34 4.08 0 0 Z " fill="#F9B43E" transform="translate(738,523)"/>
<path d="M0 0 C0.66 0.99 1.32 1.98 2 3 C-0.57784846 5.64752004 -2.91648098 7.94432065 -6 10 C-4.6302836 6.00499382 -2.74277578 3.19990508 0 0 Z " fill="#0F0D09" transform="translate(207,356)"/>
<path d="M0 0 C0 0.66 0 1.32 0 2 C-2.375 2.625 -2.375 2.625 -5 3 C-5.66 2.34 -6.32 1.68 -7 1 C-3.375 -1.125 -3.375 -1.125 0 0 Z " fill="#F1E7D0" transform="translate(619,761)"/>
<path d="M0 0 C0.99 0.33 1.98 0.66 3 1 C3.33 2.65 3.66 4.3 4 6 C3.01 5.01 2.02 4.02 1 3 C-0.32 3.99 -1.64 4.98 -3 6 C-1.125 1.125 -1.125 1.125 0 0 Z " fill="#DEC6AA" transform="translate(867,727)"/>
<path d="M0 0 C1.125 1.6875 1.125 1.6875 2 4 C1.125 6.75 1.125 6.75 0 9 C-0.66 8.67 -1.32 8.34 -2 8 C-1.34 5.36 -0.68 2.72 0 0 Z " fill="#25201A" transform="translate(126,616)"/>
<path d="M0 0 C0.33 0.66 0.66 1.32 1 2 C1.66 2 2.32 2 3 2 C2.67 3.65 2.34 5.3 2 7 C0.4375 5.75 0.4375 5.75 -1 4 C-0.6875 1.8125 -0.6875 1.8125 0 0 Z " fill="#F1AE3C" transform="translate(865,430)"/>
</svg>
