<?xml version="1.0" encoding="UTF-8"?>
<svg version="1.1" xmlns="http://www.w3.org/2000/svg" width="1024" height="1024">
<path d="M0 0 C3.59085963 2.77294161 6.79783628 5.79221845 10 9 C10.67289062 9.60199219 11.34578125 10.20398438 12.0390625 10.82421875 C35.48960831 32.35948094 46.10428838 71.26112465 48 102 C49.34405799 137.16229133 41.04516099 166.69913168 26.07177734 198.17285156 C21.361594 208.08981352 16.82794621 218.01516488 14.0390625 228.671875 C13.06382905 231.79555506 12.23198317 233.39438201 10.125 235.8125 C0.84639974 247.45045093 0.99610859 261.83058001 2.390625 275.95703125 C5.36571266 293.86477041 15.44941347 310.14167942 30 321 C43.15139663 329.54999999 57.04099466 335.39997197 72.78125 336.546875 C73.94720703 336.63291992 75.11316406 336.71896484 76.31445312 336.80761719 C77.64379883 336.90284668 77.64379883 336.90284668 79 337 C79.05516929 341.55453134 79.05726456 346.10502319 79.01220703 350.65966797 C79.00414376 352.20555775 79.01006381 353.75159104 79.03076172 355.29736328 C79.20848011 369.7860889 79.20848011 369.7860889 74.3515625 374.76953125 C72.15722656 376.52197266 72.15722656 376.52197266 70 378 C69.42475586 378.44778809 68.84951172 378.89557617 68.25683594 379.35693359 C60.25846026 385.41034907 51.59449301 389.18782101 42 392 C41.02289063 392.31839844 40.04578125 392.63679688 39.0390625 392.96484375 C16.83030646 399.28938451 -7.11744711 394.65438665 -27 383.875 C-33.83745525 379.75820757 -39.38059116 374.61142672 -45 369 C-45.7425 368.26910156 -46.485 367.53820312 -47.25 366.78515625 C-62.46944648 350.82257274 -66.51656085 331.38068336 -66.2890625 310.00390625 C-66.02931196 301.55676631 -63.7256027 294.69562897 -60.1875 287.0625 C-58.81572312 283.52475963 -58.96798808 281.6120417 -60 278 C-61.57732656 276.42267344 -63.12007241 276.63986779 -65.3125 276.5 C-73.70895189 276.5842051 -80.81463234 281.69592076 -86.8125 287.25 C-93.65408898 294.64631241 -98.42178297 302.45161627 -98.2734375 312.61328125 C-98.14684111 315.16177976 -98.14684111 315.16177976 -96.4375 317.625 C-93.1286211 319.49154707 -90.74242418 319.34022038 -87 319 C-86.01 318.67 -85.02 318.34 -84 318 C-83.84144531 319.258125 -83.68289063 320.51625 -83.51953125 321.8125 C-80.6147448 343.6380578 -74.69980264 362.17022596 -60 379 C-59.47148437 379.67160156 -58.94296875 380.34320312 -58.3984375 381.03515625 C-43.75796473 399.17347596 -19.49881281 410.08362855 3 414 C7.44861322 414.38297583 11.84956082 414.43105655 16.3125 414.375 C17.49239502 414.36484863 18.67229004 414.35469727 19.88793945 414.34423828 C43.51877252 413.92582122 63.83511951 406.36967069 82.46875 391.953125 C84.26295257 390.56870944 86.114388 389.25707466 88 388 C88.48726562 388.4846875 88.97453125 388.969375 89.4765625 389.46875 C110.52651083 409.37051933 137.94151519 414.80535813 165.97167969 414.13183594 C190.56284431 413.06127572 211.9921635 401.17767224 229 384 C230.30904297 382.72382812 230.30904297 382.72382812 231.64453125 381.421875 C248.63792965 363.98471658 254.68427163 341.48315856 258 318 C258.67546875 318.11859375 259.3509375 318.2371875 260.046875 318.359375 C265.49545644 319.23303053 265.49545644 319.23303053 270.625 317.6875 C272.8231569 313.39110242 272.86105443 309.7159289 272 305 C266.98869193 291.9779148 257.27470183 283.13735092 245 277 C243.33765189 276.85398294 241.66849493 276.77910166 240 276.75 C239.113125 276.72421875 238.22625 276.6984375 237.3125 276.671875 C236.549375 276.78015625 235.78625 276.8884375 235 277 C232.88219868 280.17670198 232.75069985 281.13598799 233.37890625 284.765625 C234.48308578 288.7378935 236.18091402 292.46491866 237.84375 296.23046875 C240.49651041 302.5845469 240.21952637 308.68914331 240.25 315.5 C240.270625 316.62148438 240.29125 317.74296875 240.3125 318.8984375 C240.3625805 329.74086652 238.36663905 339.4434936 233.3125 349.0625 C232.96582275 349.73659912 232.61914551 350.41069824 232.26196289 351.10522461 C221.2318261 372.00849084 204.44318164 384.5849803 182.40625 392.25 C161.09354192 398.590971 137.10764481 396.38788824 117.42407227 386.13916016 C112.18691574 383.26174767 107.49154767 379.94584561 103 376 C102.410979 375.68562988 101.82195801 375.37125977 101.21508789 375.04736328 C98.81066335 373.55085868 97.53455299 372.40601796 96 370 C95.11236221 364.35503994 95.34053697 358.81826187 95.5625 353.125 C95.59764173 351.56256953 95.62957576 350.00006341 95.65820312 348.4375 C95.73505067 344.62312343 95.85566319 340.81239507 96 337 C97.72633667 336.84712524 97.72633667 336.84712524 99.48754883 336.69116211 C122.40864881 334.59924032 141.61664997 325.37036607 157 308 C169.66374303 292.43414919 173.68295262 273.23022918 171.75390625 253.48046875 C170.50477559 246.33338096 166.9854383 238.78881569 162.50756836 233.10595703 C160.95931314 230.94316359 160.1756155 229.12121704 159.34375 226.60546875 C158.90192383 225.31370728 158.90192383 225.31370728 158.45117188 223.99584961 C158.13728516 223.06909424 157.82339844 222.14233887 157.5 221.1875 C154.63746668 213.00252865 151.3396246 205.21018846 147.5 197.4375 C126.98151371 155.64830065 119.71529497 111.39760928 133 66 C133.20995605 65.27941406 133.41991211 64.55882812 133.63623047 63.81640625 C140.15042738 41.97941793 149.95996507 23.32519111 166 7 C166.63292969 6.33097656 167.26585937 5.66195313 167.91796875 4.97265625 C178.52177366 -5.35025316 192.66091326 -9.51714264 207 -11 C207.97453125 -11.10183594 208.9490625 -11.20367187 209.953125 -11.30859375 C227.57171361 -12.17897313 246.05594634 -3.44862322 259 8 C259.78375 8.65355469 260.5675 9.30710937 261.375 9.98046875 C289.83027004 34.38975508 303.72055227 71.58744348 317.1875 105.5 C330.35276067 138.61735433 348.67719349 166.87604901 375.86328125 190.36328125 C386.83104003 199.88130886 397.26725523 210.38443795 406 222 C407.15628906 223.47146484 407.15628906 223.47146484 408.3359375 224.97265625 C433.11430938 257.29098616 443.27915335 297.93957935 438.1796875 338.16699219 C436.70132598 348.06336439 434.20147937 357.53295507 431 367 C430.76861328 367.72396973 430.53722656 368.44793945 430.29882812 369.19384766 C424.36305527 387.5762445 412.59487106 401.67841275 400 416 C399.36578125 416.73347656 398.7315625 417.46695312 398.078125 418.22265625 C396.39846735 420.16042643 394.7008943 422.08085035 393 424 C392.06353638 425.06371826 392.06353638 425.06371826 391.1081543 426.14892578 C385.58084498 432.36819475 379.82753889 438.32794055 373.93383789 444.1965332 C372.43193075 445.69304925 370.93548938 447.194883 369.43945312 448.69726562 C364.13162768 454.0091385 358.72182949 459.1324954 353 464 C351.80824372 465.04499385 350.61812074 466.09185352 349.4296875 467.140625 C341.70989787 473.90739398 333.83665513 480.39719459 325.71191406 486.67041016 C324.02480784 487.98073253 322.35039703 489.3055723 320.6796875 490.63671875 C317.14213517 493.45361063 313.57878498 496.23570987 310 499 C309.37754395 499.48178711 308.75508789 499.96357422 308.11376953 500.45996094 C250.83441577 544.46814226 183.93788937 584.47933759 115 607 C114.2795752 607.24991699 113.55915039 607.49983398 112.81689453 607.75732422 C94.12778017 614.17548028 72.30524758 613.0252766 54 606 C53.03223633 605.63471191 52.06447266 605.26942383 51.06738281 604.89306641 C26.68290133 595.57222735 2.88277748 584.5610747 -20 572 C-21.53672363 571.16082031 -21.53672363 571.16082031 -23.10449219 570.3046875 C-37.9323194 562.19403427 -52.61773433 553.88156314 -67 545 C-67.76119141 544.53062012 -68.52238281 544.06124023 -69.30664062 543.57763672 C-111.58086061 517.4117232 -152.03967589 488.26078081 -188.49804688 454.38427734 C-190.02346663 452.97837195 -191.56413794 451.59110567 -193.109375 450.20703125 C-201.31829205 442.814853 -208.89804325 434.93164628 -216.359375 426.7890625 C-217.75306979 425.26927152 -219.15673127 423.75862986 -220.5625 422.25 C-226.26156952 416.06243881 -231.47005566 409.53210451 -236.57519531 402.85302734 C-238.00028949 400.9996235 -239.44857071 399.16608833 -240.8984375 397.33203125 C-262.40597264 369.67844082 -268.22424301 331.13365982 -264.53125 296.98046875 C-258.39076577 251.49758716 -231.46298918 216.56522899 -198.671875 186.40625 C-189.06548063 177.54667862 -179.95769046 168.38881437 -172 158 C-171.58186035 157.47422363 -171.1637207 156.94844727 -170.73291016 156.40673828 C-156.83995137 138.92522976 -148.48966778 118.99318287 -140.33642578 98.36474609 C-128.77796429 69.2637749 -116.81735789 41.75526243 -96 18 C-95.31550781 17.21238281 -94.63101563 16.42476563 -93.92578125 15.61328125 C-69.28487188 -10.73806 -31.45385639 -19.58156746 0 0 Z " fill="#FEF7EC" transform="translate(425,358)"/>
<path d="M0 0 C18.95204545 8.16902751 34.99982045 21.16945419 50.34765625 34.703125 C51.724375 35.9096875 51.724375 35.9096875 53.12890625 37.140625 C60.20536831 43.48503926 66.9309515 50.18277488 73.66015625 56.890625 C74.13646484 57.36425476 74.61277344 57.83788452 75.10351562 58.3258667 C80.744671 63.9429499 86.1721704 69.65594182 91.34765625 75.703125 C92.80211142 77.31080873 94.2598652 78.91552215 95.72265625 80.515625 C99.5669387 84.78057808 103.2429253 89.1517335 106.8515625 93.6171875 C108.65963781 95.85252317 110.47878388 98.07500705 112.3125 100.2890625 C120.09005919 109.71307115 127.43092709 119.40485372 134.60253906 129.29638672 C136.34341991 131.69728255 138.09116892 134.09305821 139.83984375 136.48828125 C145.2484291 143.91639125 150.53060601 151.3824673 155.55859375 159.07421875 C157.89946502 162.51397064 160.45948597 165.74566748 163.09765625 168.9609375 C164.34765625 170.703125 164.34765625 170.703125 164.34765625 172.703125 C171.77731214 174.03820022 176.72095018 173.0860222 183.78515625 170.640625 C210.1087499 162.10115146 237.33871547 156.65279694 265.0546875 156.46484375 C266.24609848 156.45509521 267.43750946 156.44534668 268.6650238 156.43530273 C317.67408733 156.1164007 317.67408733 156.1164007 340.34765625 160.703125 C341.30671875 160.88504395 342.26578125 161.06696289 343.25390625 161.25439453 C355.64681899 163.63551908 367.62975615 167.15931753 379.60839844 171.11230469 C387.32393613 173.7528096 387.32393613 173.7528096 395.34765625 173.703125 C399.93814433 170.14444387 403.12915927 165.10189334 406.47265625 160.390625 C407.04250244 159.59519287 407.61234863 158.79976074 408.19946289 157.98022461 C411.78991723 152.95018953 415.30567563 147.87279266 418.78515625 142.765625 C431.03465553 124.8160194 444.3631041 107.80934717 458.46557617 91.28808594 C461.32586036 87.93461323 464.09918429 84.5234613 466.84765625 81.078125 C470.86014734 76.138015 475.2535498 71.69901594 479.79296875 67.25390625 C481.91740013 65.13272323 483.90346221 62.98685532 485.84765625 60.703125 C492.05711086 53.4513159 498.95473368 46.73828291 506.22265625 40.5546875 C508.8116457 38.29884007 511.28679168 35.93391986 513.78515625 33.578125 C528.54141524 19.89491871 551.19518847 -0.82418847 572.09765625 -2.109375 C577.650779 -1.78193455 581.17605046 -0.47792002 585.29296875 3.26953125 C589.52015302 8.2762533 592.46957462 13.85845402 595.34765625 19.703125 C595.85941406 20.71632813 596.37117187 21.72953125 596.8984375 22.7734375 C622.44629491 77.72543268 624.80346066 146.25018037 624.60839844 205.98486328 C624.597005 209.49983932 624.60381407 213.01451226 624.61526775 216.52947807 C624.68934817 243.32408097 623.44989934 269.98118962 620.03515625 296.578125 C619.92816406 297.43269287 619.82117188 298.28726074 619.7109375 299.16772461 C617.12879587 319.72043283 613.80659403 339.96900873 607.34765625 359.703125 C604.92953618 357.49438301 603.46415668 355.34060699 601.95703125 352.44140625 C601.50247559 351.58168213 601.04791992 350.72195801 600.57958984 349.83618164 C600.09055176 348.90539795 599.60151367 347.97461426 599.09765625 347.015625 C592.41974202 334.54250934 585.00056305 322.5968427 577.34765625 310.703125 C576.88117676 309.97512695 576.41469727 309.24712891 575.93408203 308.49707031 C565.17016736 291.76975656 553.10040624 275.95501856 540.34765625 260.703125 C539.82929199 260.08034668 539.31092773 259.45756836 538.77685547 258.81591797 C532.95314953 251.83878609 526.99166615 245.1860477 520.484375 238.8359375 C517.90204245 236.25832585 515.60682259 233.5647357 513.34765625 230.703125 C513.82976563 230.33960938 514.311875 229.97609375 514.80859375 229.6015625 C519.75138429 225.66750472 521.81028979 222.91249557 522.62890625 216.5 C522.90010637 212.4048782 522.7836511 210.33602074 520.41015625 206.890625 C511.30361532 200.3859529 501.33782918 198.48938686 490.41015625 197.578125 C489.44013672 197.49175781 488.47011719 197.40539062 487.47070312 197.31640625 C485.09681614 197.10591381 482.72256919 196.90164615 480.34765625 196.703125 C482.23197734 189.96629952 484.4907848 183.55138983 487.28515625 177.140625 C487.6721167 176.24786865 488.05907715 175.3551123 488.45776367 174.43530273 C502.22536402 143.00943504 517.894491 111.66566343 539.34765625 84.703125 C540.01023437 83.84976563 540.6728125 82.99640625 541.35546875 82.1171875 C546.83668259 75.13132673 552.76784678 68.59372179 558.77734375 62.0625 C567.23619704 53.1713662 567.23619704 53.1713662 570.50390625 41.6953125 C570.51031251 39.54873068 570.51031251 39.54873068 568.84765625 37.640625 C565.44570239 36.3648923 562.97294255 36.38112987 559.34765625 36.703125 C556.95215706 38.08797693 555.11837403 39.33000842 553.03515625 41.078125 C552.47538086 41.53002197 551.91560547 41.98191895 551.33886719 42.44750977 C530.59172779 59.49149166 515.10450419 82.90035248 501.34765625 105.703125 C500.8985791 106.44433594 500.44950195 107.18554688 499.98681641 107.94921875 C485.55499825 131.91625131 473.69161274 156.75660951 463.34765625 182.703125 C462.84745972 183.91863037 462.84745972 183.91863037 462.3371582 185.15869141 C459.72620713 191.68722745 459.049435 198.25103292 461.0390625 205.07421875 C463.66664384 210.89007871 467.4094696 214.47888056 473.34765625 216.953125 C479.19132015 218.35772449 485.36900386 218.38802265 491.34765625 218.703125 C490.68765625 219.486875 490.02765625 220.270625 489.34765625 221.078125 C486.49186769 225.35672637 486.67898457 229.73823774 487.34765625 234.703125 C489.8132845 240.93971411 496.03425485 245.60860317 501.03515625 249.890625 C509.47556823 257.20237724 517.14969062 265.14312081 524.08984375 273.88671875 C526.06685509 276.35285227 528.10450278 278.74930987 530.17773438 281.13452148 C541.68739491 294.43480367 551.88296983 308.89111853 561.34765625 323.703125 C561.84088379 324.47317871 562.33411133 325.24323242 562.84228516 326.03662109 C571.28198438 339.27897906 579.02616395 352.8142761 586.34765625 366.703125 C587.23372559 368.38269287 587.23372559 368.38269287 588.13769531 370.09619141 C595.87946669 384.80297758 603.3055547 399.63457016 610.453125 414.640625 C621.56963692 437.96460941 633.08042572 460.5014699 649.34765625 480.703125 C649.84265625 481.31913574 650.33765625 481.93514648 650.84765625 482.56982422 C662.84498245 497.35168609 676.46066246 509.67054692 693.34765625 518.703125 C693.34765625 519.363125 693.34765625 520.023125 693.34765625 520.703125 C681.74139002 527.08019436 670.27609827 530.70028789 657.08984375 532.015625 C653.63924658 532.88073198 652.31426008 533.72875901 650.34765625 536.703125 C650.2391615 542.56184165 652.46924539 545.64293392 656.34765625 549.703125 C675.95299111 571.62922145 688.11831021 602.37546023 687.34765625 631.703125 C686.35765625 630.836875 685.36765625 629.970625 684.34765625 629.078125 C674.84734228 620.9838575 665.27944515 613.12711808 652.34765625 612.703125 C652.17314941 613.30390869 651.99864258 613.90469238 651.81884766 614.52368164 C645.45285035 636.12841546 637.07790846 656.6907417 625.09765625 675.796875 C623.25457793 678.61823939 623.25457793 678.61823939 622.34765625 681.703125 C621.35765625 682.033125 620.36765625 682.363125 619.34765625 682.703125 C619.73953125 681.5275 620.13140625 680.351875 620.53515625 679.140625 C620.94314453 677.91085937 620.94314453 677.91085937 621.359375 676.65625 C622.0820078 674.49692037 622.81527105 672.34114016 623.5546875 670.1875 C636.67365685 631.8405126 636.2009532 590.50639321 618.32470703 553.6875 C618.00228027 553.03265625 617.67985352 552.3778125 617.34765625 551.703125 C616.83114502 550.64351562 616.83114502 550.64351562 616.30419922 549.5625 C611.52534776 539.86291485 606.26379761 531.067844 599.34765625 522.703125 C598.89471191 522.15011719 598.44176758 521.59710937 597.97509766 521.02734375 C587.10559311 507.83623295 575.10098274 495.45950622 562.1628418 484.2890625 C554.03840279 477.19069588 546.96710415 469.20026189 540.34765625 460.703125 C539.61933594 459.79175781 538.89101563 458.88039063 538.140625 457.94140625 C523.97280962 439.75400052 515.44390362 419.18681067 507.08496094 397.86254883 C496.64276108 371.26797432 485.37957426 344.39144147 466.34765625 322.703125 C465.61804688 321.84074219 464.8884375 320.97835938 464.13671875 320.08984375 C452.64689229 306.80599176 438.34088786 297.31557358 421.34765625 292.703125 C420.5690625 292.47882813 419.79046875 292.25453125 418.98828125 292.0234375 C403.35428291 287.97633864 385.96309742 291.55895449 372.07421875 299.33984375 C347.08241359 314.50564642 333.87260474 344.37664223 326.9375 371.61279297 C323.95652405 384.05681497 321.90013981 396.9122935 321.34765625 409.703125 C321.29480469 410.87359375 321.24195313 412.0440625 321.1875 413.25 C320.49182189 443.37588664 330.16777196 470.87849857 342.80273438 497.7512207 C346.520436 505.72211687 349.83839671 513.76736787 352.84912109 522.0300293 C354.98780882 527.89803142 357.35826776 533.36641014 360.84765625 538.578125 C368.94944702 551.36528875 368.82214064 566.47399434 365.72265625 580.890625 C362.90996016 592.95705297 357.59337014 602.46670611 349.34765625 611.703125 C348.68121094 612.46367188 348.01476562 613.22421875 347.328125 614.0078125 C335.42246058 626.77492573 318.58914974 635.1480603 301.34765625 637.703125 C297.67859517 637.79666506 294.01697118 637.77276461 290.34765625 637.703125 C288.54663403 657.16692603 288.54663403 657.16692603 293.74609375 675.0625 C296.83334509 678.11278425 300.45098226 679.89194003 304.34765625 681.703125 C305.66313077 682.44065765 306.97300217 683.18826516 308.27734375 683.9453125 C327.37577142 694.64715861 351.58255405 698.57320102 372.97265625 693.078125 C385.09813487 689.48445983 395.54038619 684.73264218 405.34765625 676.703125 C406.20101562 676.02507813 407.054375 675.34703125 407.93359375 674.6484375 C421.03959437 663.63939698 430.85088725 646.79498967 433.34765625 629.703125 C434.53770605 614.80822786 434.56161812 600.89648677 427.16796875 587.578125 C425.81963475 584.49621871 426.63787231 581.89715272 427.34765625 578.703125 C429.75500215 576.2957791 430.52822327 576.32917942 433.84765625 576.203125 C442.8695008 576.41082214 449.8461876 582.53588257 456.23828125 588.41796875 C459.93348905 592.42111054 462.69190369 596.965439 465.34765625 601.703125 C465.73179687 602.36957031 466.1159375 603.03601563 466.51171875 603.72265625 C468.14587976 607.59424333 467.96945195 611.60191932 467.34765625 615.703125 C465.41015625 618.890625 465.41015625 618.890625 462.34765625 620.703125 C460.07983398 620.66137695 460.07983398 620.66137695 457.65625 620.31640625 C456.84857178 620.20723877 456.04089355 620.09807129 455.20874023 619.9855957 C454.59458252 619.89238037 453.9804248 619.79916504 453.34765625 619.703125 C453.25266846 620.33178467 453.15768066 620.96044434 453.05981445 621.6081543 C449.42387743 645.19966735 449.42387743 645.19966735 444.34765625 655.703125 C443.92226562 656.5988623 443.92226562 656.5988623 443.48828125 657.51269531 C435.07131047 675.01535807 421.89478282 690.38670658 405.34765625 700.703125 C404.47109375 701.28578125 403.59453125 701.8684375 402.69140625 702.46875 C396.82616876 706.17480665 390.89143158 708.80071364 384.34765625 711.015625 C383.63673828 711.25804932 382.92582031 711.50047363 382.19335938 711.75024414 C371.97583058 715.02239618 361.72540067 716.07315771 351.03515625 716.015625 C349.94356201 716.01071045 348.85196777 716.0057959 347.72729492 716.00073242 C325.38358329 715.67777462 303.377559 707.94634129 286.30078125 693.3671875 C284.24606464 691.55062268 284.24606464 691.55062268 281.34765625 689.703125 C280.92097656 690.115625 280.49429687 690.528125 280.0546875 690.953125 C268.77185343 701.37520678 255.25431994 708.07076397 240.66015625 712.453125 C239.95922852 712.66412842 239.25830078 712.87513184 238.53613281 713.0925293 C220.59168102 718.23730918 198.94133862 717.84790371 181.34765625 711.703125 C180.20425781 711.31769531 179.06085938 710.93226563 177.8828125 710.53515625 C152.38289511 701.34090366 131.15499687 682.88568762 119.1015625 658.6015625 C113.32258814 646.23011441 109.8215331 632.38232697 110.34765625 618.703125 C109.35765625 619.363125 108.36765625 620.023125 107.34765625 620.703125 C103.10117147 621.25359525 101.05038939 621.15167807 97.41015625 618.828125 C94.45443533 614.34975997 94.43870439 610.9200504 95.34765625 605.703125 C98.68124329 594.75988377 107.95214255 585.48626518 117.41015625 579.453125 C122.11879279 576.9455308 125.97077912 575.95287968 131.2890625 576.06640625 C134.08974884 576.93265269 134.91607345 578.19213792 136.34765625 580.703125 C136.34765625 586.60551069 133.88362252 591.50924701 131.50390625 596.8359375 C125.33474958 612.1337787 128.71938057 632.70071775 134.890625 647.37109375 C138.35902146 654.9902108 142.741133 661.50644141 148.34765625 667.703125 C149.0128125 668.46109375 149.67796875 669.2190625 150.36328125 670 C164.42525143 685.1035976 184.92919361 694.20371058 205.46484375 694.94140625 C228.01315452 695.37386105 247.37027099 690.92160244 265.34765625 676.703125 C266.1828479 676.17452881 266.1828479 676.17452881 267.03491211 675.63525391 C270.27694867 673.20504987 271.2337827 671.39847297 271.89648438 667.35180664 C272.12830351 663.20752666 272.18404244 659.10182837 272.16015625 654.953125 C272.17433875 652.80267414 272.1967053 650.6524788 272.22233582 648.50213623 C272.24127974 646.56173135 272.23992505 644.62115996 272.23754883 642.68066406 C272.34765625 639.703125 272.34765625 639.703125 273.34765625 637.703125 C272.58324219 637.74953125 271.81882812 637.7959375 271.03125 637.84375 C251.35671772 638.50667046 233.31960356 630.04930078 218.34765625 617.703125 C217.71730469 617.18621094 217.08695312 616.66929687 216.4375 616.13671875 C203.29176923 604.18877666 196.00628739 585.86352785 195.09375 568.4375 C194.6228371 554.89410226 197.15953518 544.72199649 205.34765625 533.703125 C207.32679581 530.73441565 207.98620042 528.72935372 208.91015625 525.328125 C212.4436065 513.55430368 217.67682886 502.33730059 222.91015625 491.234375 C243.54370496 447.33954947 247.32521076 401.25627135 231.19116211 355.06958008 C221.9775486 330.33401762 207.92145357 307.27428199 183.34765625 295.703125 C180.3794723 294.4388985 177.47924715 293.46875292 174.34765625 292.703125 C173.58453125 292.50074219 172.82140625 292.29835938 172.03515625 292.08984375 C154.49238987 287.95717282 136.8930789 292.17507182 121.34765625 300.703125 C117.09687573 303.4371951 113.20711471 306.44463936 109.34765625 309.703125 C108.4865625 310.41339844 107.62546875 311.12367188 106.73828125 311.85546875 C78.66498511 335.96188609 65.25761513 372.41338262 52.10424805 405.92553711 C45.9583591 421.56600597 39.43443687 437.1574675 29.34765625 450.703125 C28.61289062 451.72019531 27.878125 452.73726563 27.12109375 453.78515625 C18.3419225 465.72715716 7.8987802 476.2100238 -2.52734375 486.703125 C-3.12119873 487.3017334 -3.71505371 487.9003418 -4.3269043 488.51708984 C-7.34408408 491.52293789 -10.42194912 494.40286254 -13.6484375 497.18359375 C-43.67822277 523.19734749 -66.63602014 562.56889772 -69.65234375 602.703125 C-70.84090156 630.10611698 -66.41196308 653.87855576 -57.65234375 679.703125 C-58.31234375 679.703125 -58.97234375 679.703125 -59.65234375 679.703125 C-71.45346521 659.96590251 -80.69346359 639.83449916 -87.59375 617.89453125 C-88.33028872 614.87567087 -88.33028872 614.87567087 -89.65234375 613.703125 C-101.37787012 612.18314936 -110.85488945 620.93374427 -119.65234375 627.703125 C-121.32306632 629.03137258 -122.99091862 630.36326602 -124.65234375 631.703125 C-125.7414881 612.80041973 -120.90862071 596.57999341 -112.65234375 579.703125 C-112.13027344 578.60742188 -111.60820313 577.51171875 -111.0703125 576.3828125 C-107.06704443 568.45419884 -102.03016393 561.5282581 -96.6171875 554.52734375 C-96.13572266 553.90327637 -95.65425781 553.27920898 -95.15820312 552.63623047 C-94.10351017 551.28229746 -93.03595737 549.93832956 -91.95898438 548.60205078 C-91.41306641 547.90966309 -90.86714844 547.21727539 -90.3046875 546.50390625 C-89.80573975 545.88298096 -89.30679199 545.26205566 -88.79272461 544.62231445 C-86.81711064 541.29748006 -87.24880025 538.469531 -87.65234375 534.703125 C-90.50174816 533.13641849 -92.97551999 532.32582415 -96.1796875 531.80859375 C-97.04835449 531.66035156 -97.91702148 531.51210938 -98.81201172 531.359375 C-99.72869629 531.2046875 -100.64538086 531.05 -101.58984375 530.890625 C-112.8248285 528.87206439 -122.90154301 525.82572081 -132.65234375 519.703125 C-129.37960502 517.07853257 -125.90774693 515.18161569 -122.21484375 513.203125 C-114.53014576 508.92064324 -108.09225748 503.66109944 -101.65234375 497.703125 C-101.14461426 497.23922363 -100.63688477 496.77532227 -100.11376953 496.29736328 C-72.43473144 470.75226966 -56.50061925 434.19023868 -40.65234375 400.703125 C-28.59683895 375.2510169 -15.89688839 350.43043543 -0.65234375 326.703125 C-0.26208008 326.09549316 0.12818359 325.48786133 0.53027344 324.86181641 C5.85931387 316.61776629 11.57000278 308.63627969 17.34765625 300.703125 C17.81187988 300.0632666 18.27610352 299.4234082 18.75439453 298.76416016 C32.71591883 279.58894565 48.55823194 260.50167491 66.59765625 245.015625 C71.97277188 240.31635888 74.87921691 237.13393267 75.38671875 229.84765625 C75.30092023 225.13731743 73.10161389 222.31202004 70.34765625 218.703125 C70.9523877 218.63319336 71.55711914 218.56326172 72.18017578 218.49121094 C74.94659965 218.16176126 77.70934208 217.80767722 80.47265625 217.453125 C81.42398438 217.34355469 82.3753125 217.23398437 83.35546875 217.12109375 C90.69797975 216.15229022 95.00372985 214.74389439 99.66015625 208.703125 C102.98171797 202.79812639 103.32075224 196.11206647 101.86474609 189.51513672 C101.1709671 187.34880541 100.38310668 185.25136569 99.53515625 183.140625 C99.22674805 182.34180908 98.91833984 181.54299316 98.60058594 180.7199707 C87.78176939 153.17186388 74.61321414 127.03298183 59.34765625 101.703125 C58.86876953 100.90551758 58.38988281 100.10791016 57.89648438 99.28613281 C47.74415875 82.45154351 35.75149154 67.08602304 22.34765625 52.703125 C21.61675781 51.91808594 20.88585937 51.13304687 20.1328125 50.32421875 C11.16846256 40.87306656 11.16846256 40.87306656 -0.52734375 36.078125 C-3.8494113 36.74253851 -5.47712394 37.09286123 -7.65234375 39.703125 C-8.46960356 43.60781074 -7.6604641 46.10909003 -5.71484375 49.453125 C-1.44728911 55.75909262 3.9340181 61.17549712 9.17578125 66.66796875 C36.1379474 95.09682681 82.34765625 156.90383417 82.34765625 196.703125 C81.48769043 196.76258301 81.48769043 196.76258301 80.61035156 196.82324219 C66.97537807 197.81318611 53.99794779 198.85184157 42.34765625 206.703125 C39.50204035 210.97154885 39.8476162 214.6949114 40.34765625 219.703125 C42.02118581 224.45947217 44.24782984 226.8221659 48.34765625 229.703125 C47.01355685 232.65070369 45.53768979 234.7793682 43.29296875 237.1015625 C42.68437012 237.73827881 42.07577148 238.37499512 41.44873047 239.03100586 C40.79662598 239.70655518 40.14452148 240.38210449 39.47265625 241.078125 C28.13233805 253.01894056 17.75253872 265.46751478 7.88525391 278.65087891 C6.46774733 280.54283831 5.0395632 282.42621753 3.609375 284.30859375 C-12.04697115 305.09797863 -25.21497472 327.55520089 -38.05078125 350.1484375 C-39.87736467 353.35891426 -41.72871231 356.54941631 -43.65234375 359.703125 C-57.14529695 346.2101718 -56.81835201 301.74871381 -58.96484375 283.015625 C-59.04606476 282.31307587 -59.12728577 281.61052673 -59.21096802 280.88668823 C-61.49938604 260.83653263 -61.84037452 240.90694571 -61.83764648 220.75341797 C-61.83756604 217.74847284 -61.84438957 214.74368282 -61.8581543 211.73876953 C-61.98503168 183.55333519 -60.72960714 155.56471864 -57.83984375 127.515625 C-57.75619568 126.69068542 -57.67254761 125.86574585 -57.58636475 125.01580811 C-47.35015534 25.03970478 -47.35015534 25.03970478 -19.52734375 0.703125 C-13.39178826 -3.20862653 -6.58377179 -2.3377671 0 0 Z " fill="#4C565E" transform="translate(230.65234375,57.296875)"/>
<path d="M0 0 C13.34823735 8.79096614 25.55813558 18.96359191 37.27612305 29.81152344 C38.27677925 30.72108867 39.27812132 31.62989974 40.2800293 32.53808594 C50.47852652 41.81777166 60.67462541 51.30587748 69.58862305 61.84667969 C71.6708296 64.27110074 73.85114511 66.59502376 76.02612305 68.93652344 C80.29866577 73.61628279 84.23486384 78.4787174 88.1081543 83.49121094 C91.14202799 87.40643342 94.28434644 91.19265952 97.52612305 94.93652344 C111.73125625 111.46091483 124.298766 129.63075438 136.27612305 147.81152344 C137.77341342 150.06333328 139.27473448 152.3124447 140.77612305 154.56152344 C141.94278971 156.31152344 143.10945638 158.06152344 144.27612305 159.81152344 C145.11530273 159.50859375 145.95448242 159.20566406 146.8190918 158.89355469 C166.17399646 152.15149251 185.98568846 148.46947783 206.27612305 145.81152344 C207.15768066 145.69147949 208.03923828 145.57143555 208.94750977 145.44775391 C258.10593451 139.0366163 310.31641794 144.1582884 357.27612305 159.81152344 C357.48495117 159.16699219 357.6937793 158.52246094 357.90893555 157.85839844 C359.83158101 153.57364568 362.47015484 149.90527916 365.15112305 146.06152344 C365.72975098 145.22532471 366.30837891 144.38912598 366.90454102 143.52758789 C368.68998359 140.95199098 370.48290166 138.38170813 372.27612305 135.81152344 C373.32310913 134.29988162 374.36998949 132.78816657 375.41674805 131.27636719 C381.73197078 122.19817037 388.33339473 113.41741882 395.27612305 104.81152344 C395.78788086 104.17359863 396.29963867 103.53567383 396.8269043 102.87841797 C403.10526538 95.05528981 409.48045745 87.33018345 416.04418945 79.74462891 C418.96621971 76.36310529 421.80197186 72.93155699 424.58862305 69.43652344 C434.6918219 56.99188982 446.05638119 45.08869982 458.22143555 34.65136719 C460.44137533 32.66355039 462.50963603 30.57099944 464.58862305 28.43652344 C483.7049007 9.1576924 513.25296533 -14.665895 541.40112305 -15.56347656 C550.51590113 -15.28979524 557.96795889 -12.57343963 565.27612305 -7.18847656 C565.93354492 -6.71925781 566.5909668 -6.25003906 567.26831055 -5.76660156 C601.32884317 21.00471202 605.33678369 86.15828726 610.1784668 126.15527344 C610.94373331 132.70101874 611.62961777 139.25307506 612.27612305 145.81152344 C612.37521973 146.80152344 612.47431641 147.79152344 612.57641602 148.81152344 C614.87091645 172.08928843 615.4846368 195.3681405 615.46362305 218.74902344 C615.46321518 220.47608521 615.46321518 220.47608521 615.46279907 222.23803711 C615.44234576 241.17812919 614.91171157 259.93954507 613.27612305 278.81152344 C613.17960449 279.9982666 613.08308594 281.18500977 612.98364258 282.40771484 C606.0324854 366.0841242 606.0324854 366.0841242 591.11669922 390.72705078 C589.55016462 394.6117654 590.96311684 398.00734441 592.42431641 401.76147461 C593.13793335 403.29251831 593.13793335 403.29251831 593.8659668 404.85449219 C594.39794678 406.00143555 594.92992676 407.14837891 595.47802734 408.33007812 C596.05588081 409.5533806 596.63442761 410.77635577 597.21362305 411.99902344 C597.50612946 412.62168091 597.79863586 413.24433838 598.1000061 413.88586426 C610.65989451 440.62004907 624.69603213 466.31594805 645.27612305 487.81152344 C646.04182617 488.64039063 646.8075293 489.46925781 647.59643555 490.32324219 C656.17270696 499.32694834 665.93198602 505.7034025 676.89331055 511.47167969 C681.24184502 513.91683923 684.48549161 516.62557629 687.27612305 520.81152344 C688.21043498 528.14478572 687.85107417 534.82391036 683.27612305 540.81152344 C675.24798039 549.84082271 663.89741836 553.68757199 652.27612305 555.81152344 C650.95612305 555.81152344 649.63612305 555.81152344 648.27612305 555.81152344 C648.88198242 556.67390625 649.4878418 557.53628906 650.11206055 558.42480469 C662.4940588 576.33679692 673.25748896 595.93622707 676.27612305 617.81152344 C676.38569336 618.51019531 676.49526367 619.20886719 676.6081543 619.92871094 C678.33025188 633.20034299 680.45508448 654.28216735 671.90112305 665.56152344 C667.89593631 668.99454064 665.19902091 670.03602592 659.96362305 669.81152344 C651.08331912 668.482399 645.28129719 661.00840229 639.31201172 654.86303711 C636.57799586 651.96988596 636.57799586 651.96988596 633.27612305 649.81152344 C633.11829346 650.54725586 632.96046387 651.28298828 632.79785156 652.04101562 C631.07306429 659.54195965 628.6132923 666.16999657 625.21362305 673.06152344 C624.73119141 674.05369873 624.24875977 675.04587402 623.75170898 676.06811523 C619.48194577 684.69479392 614.6655995 692.84374066 609.27612305 700.81152344 C608.35379883 702.18630859 608.35379883 702.18630859 607.4128418 703.58886719 C605.73798229 706.02607654 604.02050658 708.4236562 602.27612305 710.81152344 C601.61354492 711.72933594 600.9509668 712.64714844 600.26831055 713.59277344 C594.3279302 721.68361406 587.87612099 729.25716189 581.27612305 736.81152344 C580.62643555 737.56304688 579.97674805 738.31457031 579.30737305 739.08886719 C575.17460793 743.85519299 570.92219401 748.51020926 566.66674805 753.16699219 C564.74663178 755.29104237 562.8774797 757.44073163 561.02612305 759.62402344 C553.83002358 767.89697389 545.89043636 775.77200746 537.51831055 782.85058594 C534.93078137 785.113547 532.43785767 787.46425712 529.93823242 789.82348633 C523.26422727 796.12038709 516.45532291 802.09119841 509.27612305 807.81152344 C508.05066824 808.81490687 506.8268182 809.8202522 505.60424805 810.82714844 C492.26379324 821.79713744 478.48743005 832.06045176 464.3347168 841.95605469 C461.84749827 843.69728195 459.37916841 845.4578856 456.9362793 847.26074219 C446.68464063 854.77861055 435.89961966 861.39847895 425.0847168 868.07080078 C422.64911317 869.58034997 420.22461572 871.10485239 417.80737305 872.64355469 C409.78665692 877.74523678 401.62685766 882.49149967 393.2878418 887.05371094 C389.64637472 889.04716663 386.02918449 891.07936351 382.4206543 893.13183594 C274.19752786 954.59956958 274.19752786 954.59956958 220.06518555 939.70996094 C216.0904254 938.53709677 212.18193258 937.19428823 208.27612305 935.81152344 C207.08760742 935.40417969 205.8990918 934.99683594 204.67456055 934.57714844 C186.48859641 928.06848759 168.72032107 919.90671232 151.5847168 911.00488281 C148.78106572 909.55561817 145.96576838 908.12994125 143.15112305 906.70214844 C128.74582776 899.35651891 114.69613614 891.56108027 100.7980957 883.29931641 C98.06687545 881.68808153 95.31650509 880.11628665 92.54833984 878.56958008 C66.77297098 864.02512087 41.77634616 846.76681165 18.27612305 828.81152344 C16.75423324 827.65885533 15.23209336 826.50651734 13.7097168 825.35449219 C1.22698491 815.88270424 -10.88117803 806.07021468 -22.72387695 795.81152344 C-23.87243164 794.81765625 -23.87243164 794.81765625 -25.04418945 793.80371094 C-26.94558257 792.14865215 -28.83660834 790.48266313 -30.72387695 788.81152344 C-31.48829102 788.13992188 -32.25270508 787.46832031 -33.0402832 786.77636719 C-39.52440852 781.02284754 -45.63901816 774.98050471 -51.72387695 768.81152344 C-54.55459023 765.97145243 -57.3973947 763.14400772 -60.24731445 760.32324219 C-61.53121531 759.04854963 -62.81506854 757.7738091 -64.09887695 756.49902344 C-64.7330957 755.87318359 -65.36731445 755.24734375 -66.02075195 754.60253906 C-70.46922704 750.17676028 -74.65603549 745.58846496 -78.72387695 740.81152344 C-79.26866699 740.17335693 -79.81345703 739.53519043 -80.37475586 738.87768555 C-132.72387695 677.09636067 -132.72387695 677.09636067 -132.72387695 649.81152344 C-133.84979941 650.78962926 -134.97452929 651.76910778 -136.09887695 652.74902344 C-136.82977539 653.38324219 -137.56067383 654.01746094 -138.3137207 654.67089844 C-139.95761571 656.1309543 -141.5741112 657.62230682 -143.1652832 659.13964844 C-149.25245063 664.89340294 -154.69661111 669.63816944 -163.34887695 669.93652344 C-167.90094983 668.41916581 -170.68661881 666.51570979 -173.72387695 662.81152344 C-177.29361121 655.20927799 -177.19308233 647.10508312 -177.09887695 638.87402344 C-177.08872559 637.59438721 -177.07857422 636.31475098 -177.06811523 634.99633789 C-176.58144663 605.01717444 -165.82535356 581.62363492 -149.72387695 556.81152344 C-150.76286133 556.50859375 -151.8018457 556.20566406 -152.87231445 555.89355469 C-178.6089725 548.23343039 -178.6089725 548.23343039 -185.09887695 537.06152344 C-187.91172226 531.43583283 -187.91172226 531.43583283 -188.03637695 527.62402344 C-188.07375977 526.88796875 -188.11114258 526.15191406 -188.1496582 525.39355469 C-187.42285479 520.98605878 -185.62036611 517.2884579 -182.08837891 514.5378418 C-180.17051072 513.38977714 -178.22475849 512.37009856 -176.22387695 511.37402344 C-174.77554233 510.60119666 -173.32893748 509.82511988 -171.8840332 509.04589844 C-171.1739209 508.66755859 -170.46380859 508.28921875 -169.73217773 507.89941406 C-140.32992212 491.9722987 -123.30053742 463.00461279 -108.11547852 434.42724609 C-106.83608379 432.02243292 -105.54429613 429.62485192 -104.24731445 427.22949219 C-102.02704089 423.11328098 -99.85801744 418.97300029 -97.72387695 414.81152344 C-97.33619141 414.0590332 -96.94850586 413.30654297 -96.54907227 412.53125 C-95.37906995 410.23819878 -94.23518371 407.93392985 -93.09887695 405.62402344 C-92.74341797 404.92881592 -92.38795898 404.2336084 -92.02172852 403.51733398 C-89.86938551 399.04494003 -89.61820723 396.58118066 -90.72387695 391.81152344 C-91.45495287 389.76862913 -92.23798037 387.74380463 -93.0637207 385.73730469 C-95.62043084 379.25228245 -97.56860389 372.74985154 -99.28637695 365.99902344 C-99.73352051 364.25685547 -99.73352051 364.25685547 -100.18969727 362.47949219 C-102.83237518 351.89727813 -104.71491676 341.26531724 -106.31518555 330.48242188 C-106.68336089 328.07630583 -107.09127846 325.68316361 -107.5246582 323.28808594 C-109.38919751 312.79032892 -110.4191684 302.23828006 -111.34887695 291.62402344 C-111.41140656 290.91062805 -111.47393616 290.19723267 -111.5383606 289.46221924 C-111.96141163 284.58073146 -112.36941919 279.69851064 -112.72387695 274.81152344 C-112.80867813 273.68584961 -112.89347931 272.56017578 -112.98085022 271.40039062 C-113.71803459 260.82876712 -113.88730412 250.30476949 -113.8918457 239.70996094 C-113.89507492 237.8989764 -113.8984401 236.0879921 -113.90193176 234.27700806 C-113.90787563 230.4968404 -113.90977689 226.71669543 -113.90917969 222.93652344 C-113.90909892 219.12820638 -113.91597058 215.32001087 -113.9296875 211.51171875 C-114.00998379 188.85495894 -113.75307994 166.39207561 -111.72387695 143.81152344 C-111.64817474 142.95476013 -111.57247253 142.09799683 -111.49447632 141.215271 C-111.06537474 136.48698552 -110.54864454 131.77467902 -109.97387695 127.06152344 C-109.89184021 126.37792755 -109.80980347 125.69433167 -109.72528076 124.99002075 C-97.03091157 20.04443251 -97.03091157 20.04443251 -62.97387695 -8.56347656 C-42.31190524 -23.05155235 -18.61826226 -11.94295854 0 0 Z M-58.28637695 18.18652344 C-80.25112472 51.70642195 -84.9670677 97.72513735 -88.91137695 136.62402344 C-89.02959808 137.77152069 -89.02959808 137.77152069 -89.15020752 138.94219971 C-91.90247522 166.06023868 -93.06995942 193.16222292 -92.98461914 220.40771484 C-92.97314045 224.09903511 -92.98007601 227.7900695 -92.99149799 231.48138046 C-93.03750752 249.01726321 -92.47116359 266.34761124 -90.72387695 283.81152344 C-90.58066958 285.34983127 -90.43850244 286.88823647 -90.29760742 288.42675781 C-89.91855527 292.47630123 -89.49205872 296.51991464 -89.03637695 300.56152344 C-88.95661621 301.27246155 -88.87685547 301.98339966 -88.79467773 302.71588135 C-87.41356881 314.79561402 -85.47602828 326.74018475 -83.22387695 338.68652344 C-83.00871933 339.84106018 -83.00871933 339.84106018 -82.78921509 341.0189209 C-81.00425855 350.50793085 -78.7989709 359.64414922 -75.72387695 368.81152344 C-73.44210094 366.70275177 -71.96231402 364.6958887 -70.5168457 361.95214844 C-70.10233154 361.17766357 -69.68781738 360.40317871 -69.26074219 359.60522461 C-68.81545166 358.76580322 -68.37016113 357.92638184 -67.91137695 357.06152344 C-51.14727315 326.04778902 -31.33645569 296.85070813 -8.72387695 269.81152344 C-8.28350098 269.28478027 -7.843125 268.75803711 -7.3894043 268.21533203 C-0.86718021 260.44084091 5.86404104 252.91717514 12.90771484 245.609375 C16.13854593 242.71146076 16.13854593 242.71146076 17.27612305 238.81152344 C16.32737305 238.04839844 15.37862305 237.28527344 14.40112305 236.49902344 C10.73269466 233.50544744 9.56505208 231.20607231 8.9909668 226.44824219 C8.7480111 222.24323979 8.76933985 219.62599642 11.02612305 215.99902344 C20.10799809 209.88622293 29.51600965 207.86667709 40.27612305 206.81152344 C41.37569336 206.70066406 42.47526367 206.58980469 43.6081543 206.47558594 C46.1630423 206.23288798 48.71747523 206.00994919 51.27612305 205.81152344 C50.70791248 201.72078239 49.79830827 198.21878414 48.1940918 194.41699219 C47.76298096 193.39186523 47.33187012 192.36673828 46.88769531 191.31054688 C46.41775146 190.21774414 45.94780762 189.12494141 45.46362305 187.99902344 C44.72873657 186.28054199 44.72873657 186.28054199 43.97900391 184.52734375 C25.75755521 142.33152189 3.71780171 103.50374125 -27.72387695 69.81152344 C-38.20779427 58.57155439 -38.20779427 58.57155439 -39.16137695 51.62402344 C-38.72387695 48.81152344 -38.72387695 48.81152344 -37.16137695 46.93652344 C-33.49711874 45.24532734 -31.77392804 45.10437166 -27.72387695 45.81152344 C-13.31832165 53.5008149 -1.61011849 68.13146343 7.96557617 81.04785156 C9.29802781 82.84100182 10.65260041 84.61571407 12.01049805 86.38964844 C19.12970541 95.78343124 25.32897712 105.64242738 31.27612305 115.81152344 C31.65978027 116.46701172 32.0434375 117.1225 32.4387207 117.79785156 C75.99586594 192.73074368 75.99586594 192.73074368 70.74487305 212.84667969 C68.53249642 218.31750233 66.15113238 221.99159024 60.6940918 224.37792969 C56.26856756 225.95972946 51.93631326 226.55884949 47.27612305 226.99902344 C46.50139648 227.08087891 45.72666992 227.16273438 44.9284668 227.24707031 C43.04532122 227.44468435 41.16083728 227.62947718 39.27612305 227.81152344 C39.91678711 228.5346875 40.55745117 229.25785156 41.2175293 230.00292969 C44.24102174 234.12796017 44.45458876 237.79014729 44.27612305 242.81152344 C42.06629979 250.17760097 35.05804117 255.30986988 29.40112305 260.18652344 C21.74043188 266.79368144 14.81464665 274.10637529 8.27612305 281.81152344 C7.48979492 282.70871094 6.7034668 283.60589844 5.89331055 284.53027344 C-17.05128469 310.88641833 -36.26559437 341.05786667 -52.72387695 371.81152344 C-53.17021484 372.64248535 -53.61655273 373.47344727 -54.07641602 374.32958984 C-64.51270893 393.83508658 -74.13218228 413.76717597 -83.46264648 433.82226562 C-101.43632907 472.35247923 -124.83080628 508.30038167 -163.72387695 527.81152344 C-154.27519284 535.81830782 -142.68291484 537.94462969 -130.87036133 540.35595703 C-121.77367932 542.28662225 -121.77367932 542.28662225 -118.72387695 543.81152344 C-118.20855866 548.62116082 -118.12372181 551.57950726 -121.09887695 555.49902344 C-122.29523563 556.94650457 -123.50534927 558.38265466 -124.72387695 559.81152344 C-138.13161911 576.41477747 -147.51757425 594.34243453 -153.72387695 614.81152344 C-153.97266602 615.58753906 -154.22145508 616.36355469 -154.4777832 617.16308594 C-156.5827934 624.78822776 -155.88582679 632.97495073 -155.72387695 640.81152344 C-155.10838989 640.25319824 -155.10838989 640.25319824 -154.48046875 639.68359375 C-150.09265182 635.80104803 -145.53551574 632.60325295 -140.53637695 629.56152344 C-139.83834961 629.12839844 -139.14032227 628.69527344 -138.42114258 628.24902344 C-129.146622 622.53076527 -129.146622 622.53076527 -124.47387695 622.68652344 C-123.23637695 622.72777344 -121.99887695 622.76902344 -120.72387695 622.81152344 C-118.30160572 628.72396604 -116.04149773 634.66728878 -113.93530273 640.69921875 C-110.25073695 651.18965846 -106.02830378 661.04924425 -100.72387695 670.81152344 C-100.30251465 671.59672363 -99.88115234 672.38192383 -99.44702148 673.19091797 C-98.11157626 675.67407965 -96.7647109 678.15056972 -95.41137695 680.62402344 C-94.99065918 681.39584961 -94.56994141 682.16767578 -94.13647461 682.96289062 C-93.73605957 683.68250977 -93.33564453 684.40212891 -92.9230957 685.14355469 C-92.39462036 686.09838745 -92.39462036 686.09838745 -91.85546875 687.07250977 C-90.65642921 688.91517613 -89.29772951 690.28495514 -87.72387695 691.81152344 C-86.67037138 693.41553457 -85.65337204 695.04376008 -84.66137695 696.68652344 C-74.94168898 712.17281875 -62.54418586 725.93987356 -50.12426758 739.29345703 C-48.71125941 740.82520124 -47.31736182 742.372494 -45.92700195 743.92480469 C-37.9938204 752.73554459 -29.46626263 760.81049965 -20.72387695 768.81152344 C-19.78157227 769.68035156 -18.83926758 770.54917969 -17.8684082 771.44433594 C-13.00390718 775.88348313 -7.99858268 780.11090212 -2.8762207 784.24902344 C-0.53527815 786.14173256 1.77861516 788.06402519 4.0847168 789.99902344 C14.50451035 798.71823154 25.24534854 806.88234594 36.27612305 814.81152344 C37.31905518 815.5646582 37.31905518 815.5646582 38.38305664 816.33300781 C77.67705796 844.65266814 119.33590143 870.50268745 162.93676758 891.66845703 C165.72312804 893.02994103 168.49678468 894.41618219 171.2722168 895.79980469 C187.30870772 903.73004141 203.46554614 910.67957658 220.27612305 916.81152344 C221.01685059 917.09415039 221.75757813 917.37677734 222.52075195 917.66796875 C239.61660354 924.09154496 261.25756006 922.69415186 278.27612305 916.81152344 C279.11062988 916.54259277 279.94513672 916.27366211 280.80493164 915.99658203 C319.21464786 903.6004415 356.00467628 884.121317 390.53637695 863.43798828 C393.13620982 861.89458367 395.75328137 860.38782513 398.3815918 858.89355469 C433.60878027 838.73728911 467.15153598 814.82541647 498.27612305 788.81152344 C498.78981445 788.38274902 499.30350586 787.95397461 499.83276367 787.51220703 C506.23810963 782.15732261 512.56820402 776.73643501 518.73999023 771.11206055 C520.32622763 769.6731777 521.91939811 768.2418594 523.52270508 766.82202148 C529.71292394 761.33095006 535.63644488 755.6065425 541.47265625 749.74536133 C542.9691723 748.24345419 544.47100604 746.74701281 545.97338867 745.25097656 C551.28474011 739.94356205 556.41484282 734.53828015 561.27612305 728.81152344 C562.14495117 727.82410156 563.0137793 726.83667969 563.90893555 725.81933594 C572.49275566 715.89008948 580.41177059 705.3726609 587.5300293 694.33886719 C589.27612305 691.81152344 589.27612305 691.81152344 591.27612305 690.81152344 C592.32108227 689.01313825 592.32108227 689.01313825 593.33862305 686.74902344 C595.17848272 682.92405201 597.17053545 679.25767773 599.33520508 675.60693359 C614.42002605 650.02470304 614.42002605 650.02470304 621.27612305 621.81152344 C633.69688158 621.81152344 643.78852976 629.72830012 652.38549805 638.02636719 C654.15947508 639.87356963 654.15947508 639.87356963 656.27612305 640.81152344 C657.93641594 612.12535176 644.61455376 581.42594565 626.27612305 559.81152344 C625.11139914 558.53890932 623.94498617 557.26783685 622.77612305 555.99902344 C619.97243235 552.78809275 619.11207667 550.1587525 619.27612305 545.81152344 C621.49988902 542.78317882 622.94315113 541.89867454 626.60424805 540.94042969 C627.8984668 540.75351562 629.19268555 540.56660156 630.52612305 540.37402344 C636.43744008 539.4171482 642.11840184 538.15297166 647.83862305 536.37402344 C649.09803711 535.9834375 650.35745117 535.59285156 651.6550293 535.19042969 C655.51518202 533.72049019 658.75144887 531.94810199 662.27612305 529.81152344 C662.27612305 529.15152344 662.27612305 528.49152344 662.27612305 527.81152344 C660.36240151 526.53370937 658.39194022 525.34055371 656.40112305 524.18652344 C650.25788052 520.52159187 644.69790909 516.49701755 639.27612305 511.81152344 C638.29643555 510.96589844 637.31674805 510.12027344 636.30737305 509.24902344 C629.55107824 503.29753359 623.78968463 496.95075327 618.27612305 489.81152344 C617.49881836 488.86148437 616.72151367 487.91144531 615.9206543 486.93261719 C602.95165024 470.78837208 593.59396594 452.21131447 584.27612305 433.81152344 C583.77580566 432.82603516 583.27548828 431.84054687 582.76000977 430.82519531 C577.81391018 421.06336586 572.94472542 411.2720429 568.28637695 401.36938477 C548.72198913 359.83929537 524.71227992 321.06757408 495.27612305 285.81152344 C494.62353516 285.02140869 494.62353516 285.02140869 493.95776367 284.21533203 C484.15100716 272.36492492 473.60053357 261.00224577 461.79174805 251.10839844 C458.34950172 248.16297117 456.53358314 246.26372527 456.0378418 241.54199219 C455.86356814 235.57082624 456.40250287 232.4114474 460.27612305 227.81152344 C458.91680664 227.75544922 458.91680664 227.75544922 457.5300293 227.69824219 C439.54146743 226.72743091 439.54146743 226.72743091 433.83862305 220.43652344 C429.59293993 215.13849151 428.72986319 209.88841003 428.85668945 203.24169922 C429.66031212 196.66958138 432.35898581 190.77283173 434.96362305 184.74902344 C435.55478019 183.34299146 436.14501601 181.9365718 436.734375 180.52978516 C456.32604054 134.15970608 482.41940831 82.25488923 522.27612305 49.81152344 C523.08823242 49.13283203 523.08823242 49.13283203 523.91674805 48.44042969 C527.6743495 45.5826749 530.65173802 45.21206612 535.27612305 45.81152344 C537.77612305 46.74902344 537.77612305 46.74902344 539.27612305 48.81152344 C539.99268312 53.97717294 538.55091784 57.96026417 535.46362305 62.06152344 C531.82436334 66.35303336 527.9352485 70.42430877 524.09863281 74.5390625 C508.04437396 91.86433493 495.04163942 111.38093611 483.27612305 131.81152344 C482.91164063 132.43365723 482.5471582 133.05579102 482.17163086 133.69677734 C460.43331303 168.15821092 460.43331303 168.15821092 449.27612305 205.81152344 C449.84419678 205.85116211 450.41227051 205.89080078 450.99755859 205.93164062 C480.01895161 208.05551493 480.01895161 208.05551493 489.27612305 215.81152344 C491.99485666 219.88962385 491.77827534 223.02912065 491.27612305 227.81152344 C489.51233649 233.69081197 487.07011889 236.29592649 482.27612305 239.81152344 C485.97379762 244.33090347 489.92063809 248.4759692 494.08862305 252.56152344 C498.73168085 257.13750771 502.96070721 261.88311872 507.01831055 266.99511719 C508.99467742 269.4604468 511.0313726 271.856281 513.10449219 274.24023438 C537.73126607 302.71120917 557.19263267 335.92799487 575.27612305 368.81152344 C577.56719932 366.52044717 577.85130917 365.30628944 578.64331055 362.20996094 C579.00900146 360.78224365 579.00900146 360.78224365 579.38208008 359.32568359 C579.63586426 358.28976074 579.88964844 357.25383789 580.15112305 356.18652344 C580.54920166 354.56496338 580.54920166 354.56496338 580.95532227 352.91064453 C584.78436863 336.90945685 587.13923905 320.73352604 589.14276123 304.41571045 C589.38520126 302.44119588 589.63343742 300.46739543 589.88208008 298.49365234 C592.8004253 273.58491606 593.61859314 248.58590645 593.53686523 223.52978516 C593.52547183 220.01481734 593.53227567 216.50015273 593.54374218 212.98519516 C593.61616519 186.75541117 592.30168825 160.64745391 589.46362305 134.56152344 C589.37964264 133.77721954 589.29566223 132.99291565 589.20913696 132.18484497 C582.4990774 65.8224747 582.4990774 65.8224747 550.65112305 9.24902344 C544.67429972 6.70333943 538.61262721 6.38532014 532.37426758 8.43701172 C511.00790589 17.08799263 492.36124254 33.81823911 475.7722168 49.41259766 C474.17944655 50.90192101 472.5733014 52.37565402 470.96362305 53.84667969 C462.72339135 61.38227219 454.61997969 68.96852103 447.34643555 77.45996094 C445.14929309 79.95558312 442.88722513 82.37914432 440.61108398 84.80249023 C434.54473056 91.26466369 428.81179223 97.88507456 423.27612305 104.81152344 C422.27124863 106.03812595 421.2646201 107.26329274 420.2565918 108.48730469 C408.23485002 123.10951337 397.10675911 138.29304881 386.27612305 153.81152344 C384.43262585 156.45276493 382.58903857 159.0939411 380.74438477 161.734375 C379.55175748 163.44228046 378.36057882 165.1511988 377.17114258 166.86132812 C374.48213403 170.7158098 371.76869968 174.55054763 368.98706055 178.33886719 C368.51316895 178.98460693 368.03927734 179.63034668 367.55102539 180.2956543 C365.61612531 182.59626606 364.40944726 182.79791893 361.4050293 183.10449219 C355.76177245 183.01574801 350.51810361 180.87451761 345.21362305 179.12402344 C333.32340258 175.35751486 321.53069743 172.13602184 309.27612305 169.81152344 C308.30674805 169.6154248 307.33737305 169.41932617 306.33862305 169.21728516 C287.46005608 165.536085 268.63370471 165.43966686 249.46362305 165.43652344 C247.56839905 165.43366837 247.56839905 165.43366837 245.6348877 165.43075562 C231.70788173 165.43312807 218.05557752 165.67913814 204.27612305 167.81152344 C203.26026123 167.95734863 202.24439941 168.10317383 201.19775391 168.25341797 C182.22646836 171.07755815 163.70779094 175.7674782 145.5534668 181.92871094 C141.07147451 183.13601756 137.68189594 183.2801144 133.27612305 181.81152344 C132.23632813 179.96411133 132.23632813 179.96411133 131.27612305 177.81152344 C130.51354242 176.64749727 129.7244864 175.5004796 128.9128418 174.37011719 C128.44507324 173.71406494 127.97730469 173.0580127 127.49536133 172.38208008 C126.9898877 171.67817139 126.48441406 170.9742627 125.96362305 170.24902344 C122.07001685 164.79242427 118.24007983 159.3031332 114.49731445 153.74194336 C108.00712559 144.11387028 101.07807923 134.92690568 93.8659668 125.83056641 C91.98385783 123.44035739 90.14089357 121.022441 88.30273438 118.59838867 C83.3157828 112.02901007 78.0722796 105.72143461 72.69702148 99.47070312 C71.26875135 97.80291552 69.85322036 96.12504241 68.44018555 94.44433594 C57.39635038 81.35161067 45.58209702 69.03497169 33.52612305 56.87402344 C32.25007202 55.57839478 32.25007202 55.57839478 30.94824219 54.2565918 C25.79022399 49.09160935 20.44518642 44.3481652 14.73095703 39.80493164 C12.4234171 37.93113119 10.24951704 35.97613995 8.08862305 33.93652344 C-1.34031217 25.47248824 -12.41045716 18.45103969 -23.72387695 12.81152344 C-24.61333008 12.32683594 -25.5027832 11.84214844 -26.41918945 11.34277344 C-39.60382283 4.58142299 -49.41828975 6.57168357 -58.28637695 18.18652344 Z " fill="#1D1B16" transform="translate(261.723876953125,48.1884765625)"/>
<path d="M0 0 C1.08849243 0.00090637 1.08849243 0.00090637 2.19897461 0.00183105 C26.0652124 0.05561339 49.51040837 1.01255758 70.125 14.1875 C70.97964844 15.05181641 70.97964844 15.05181641 71.8515625 15.93359375 C73.18341579 17.53831066 73.18341579 17.53831066 76.125 17.1875 C76.516875 18.0125 76.90875 18.8375 77.3125 19.6875 C78.65972947 22.28904656 80.03056119 24.62507995 81.625 27.0625 C89.72679077 39.84966375 89.59948439 54.95836934 86.5 69.375 C83.68730391 81.44142797 78.37071389 90.95108111 70.125 100.1875 C69.45855469 100.94804688 68.79210937 101.70859375 68.10546875 102.4921875 C56.19980433 115.25930073 39.36649349 123.6324353 22.125 126.1875 C18.45593892 126.28104006 14.79431493 126.25713961 11.125 126.1875 C9.32397778 145.65130103 9.32397778 145.65130103 14.5234375 163.546875 C17.61068884 166.59715925 21.22832601 168.37631503 25.125 170.1875 C26.44047452 170.92503265 27.75034592 171.67264016 29.0546875 172.4296875 C48.15311517 183.13153361 72.3598978 187.05757602 93.75 181.5625 C105.87547862 177.96883483 116.31772994 173.21701718 126.125 165.1875 C126.97835938 164.50945312 127.83171875 163.83140625 128.7109375 163.1328125 C141.81693812 152.12377198 151.628231 135.27936467 154.125 118.1875 C155.3150498 103.29260286 155.33896187 89.38086177 147.9453125 76.0625 C146.5969785 72.98059371 147.41521606 70.38152772 148.125 67.1875 C150.5323459 64.7801541 151.30556702 64.81355442 154.625 64.6875 C163.64684455 64.89519714 170.62353135 71.02025757 177.015625 76.90234375 C180.7108328 80.90548554 183.46924744 85.449814 186.125 90.1875 C186.70121094 91.18716797 186.70121094 91.18716797 187.2890625 92.20703125 C188.92322351 96.07861833 188.7467957 100.08629432 188.125 104.1875 C186.1875 107.375 186.1875 107.375 183.125 109.1875 C180.85717773 109.14575195 180.85717773 109.14575195 178.43359375 108.80078125 C177.62591553 108.69161377 176.8182373 108.58244629 175.98608398 108.4699707 C175.37192627 108.37675537 174.75776855 108.28354004 174.125 108.1875 C174.03001221 108.81615967 173.93502441 109.44481934 173.8371582 110.0925293 C170.20122118 133.68404235 170.20122118 133.68404235 165.125 144.1875 C164.84140625 144.7846582 164.5578125 145.38181641 164.265625 145.99707031 C155.84865422 163.49973307 142.67212657 178.87108158 126.125 189.1875 C125.2484375 189.77015625 124.371875 190.3528125 123.46875 190.953125 C117.60351251 194.65918165 111.66877533 197.28508864 105.125 199.5 C104.05862305 199.86363647 104.05862305 199.86363647 102.97070312 200.23461914 C92.75317433 203.50677118 82.50274442 204.55753271 71.8125 204.5 C70.72090576 204.49508545 69.62931152 204.4901709 68.50463867 204.48510742 C46.16092704 204.16214962 24.15490275 196.43071629 7.078125 181.8515625 C5.02340839 180.03499768 5.02340839 180.03499768 2.125 178.1875 C1.69832031 178.6 1.27164063 179.0125 0.83203125 179.4375 C-10.45080282 189.85958178 -23.96833631 196.55513897 -38.5625 200.9375 C-39.26342773 201.14850342 -39.96435547 201.35950684 -40.68652344 201.5769043 C-58.63097523 206.72168418 -80.28131763 206.33227871 -97.875 200.1875 C-99.01839844 199.80207031 -100.16179687 199.41664063 -101.33984375 199.01953125 C-126.83976114 189.82527866 -148.06765938 171.37006262 -160.12109375 147.0859375 C-165.90006811 134.71448941 -169.40112315 120.86670197 -168.875 107.1875 C-170.36 108.1775 -170.36 108.1775 -171.875 109.1875 C-176.12148478 109.73797025 -178.17226686 109.63605307 -181.8125 107.3125 C-184.76822092 102.83413497 -184.78395186 99.4044254 -183.875 94.1875 C-180.54141296 83.24425877 -171.2705137 73.97064018 -161.8125 67.9375 C-157.10386346 65.4299058 -153.25187713 64.43725468 -147.93359375 64.55078125 C-145.13290741 65.41702769 -144.3065828 66.67651292 -142.875 69.1875 C-142.875 75.08988569 -145.33903373 79.99362201 -147.71875 85.3203125 C-153.88790667 100.6181537 -150.50327568 121.18509275 -144.33203125 135.85546875 C-140.86363479 143.4745858 -136.48152325 149.99081641 -130.875 156.1875 C-129.87726563 157.32445312 -129.87726563 157.32445312 -128.859375 158.484375 C-114.79740482 173.5879726 -94.29346264 182.68808558 -73.7578125 183.42578125 C-51.20950173 183.85823605 -31.85238526 179.40597744 -13.875 165.1875 C-13.31820557 164.83510254 -12.76141113 164.48270508 -12.18774414 164.11962891 C-8.94570758 161.68942487 -7.98887355 159.88284797 -7.32617188 155.83618164 C-7.09435274 151.69190166 -7.03861381 147.58620337 -7.0625 143.4375 C-7.0483175 141.28704914 -7.02595095 139.1368538 -7.00032043 136.98651123 C-6.98137651 135.04610635 -6.9827312 133.10553496 -6.98510742 131.16503906 C-6.875 128.1875 -6.875 128.1875 -5.875 126.1875 C-6.63941406 126.23390625 -7.40382813 126.2803125 -8.19140625 126.328125 C-27.86593853 126.99104546 -45.90305269 118.53367578 -60.875 106.1875 C-61.50535156 105.67058594 -62.13570313 105.15367187 -62.78515625 104.62109375 C-75.93088702 92.67315166 -83.21636886 74.34790285 -84.12890625 56.921875 C-84.56376771 44.41531222 -82.72093266 34.5244735 -75.26953125 24.16796875 C-73.47613616 21.62104631 -72.17795827 19.01057626 -70.875 16.1875 C-69.885 16.1875 -68.895 16.1875 -67.875 16.1875 C-66.37592832 15.18329561 -64.92336802 14.10890299 -63.5 13 C-45.57974162 0.21825951 -21.21109955 -0.03264734 0 0 Z " fill="#1D1B17" transform="translate(509.875,568.8125)"/>
<path d="M0 0 C2.85607527 3.460582 4.69864394 7.29447886 6.625 11.3125 C13.91100283 26.09845302 22.63937947 39.17988498 33 52 C33.48887695 52.6074707 33.97775391 53.21494141 34.48144531 53.84082031 C41.67257471 62.67899775 49.60017812 70.80044083 57.625 78.875 C58.10628357 79.36164124 58.58756714 79.84828247 59.08343506 80.34967041 C64.96540554 86.28129047 71.02735917 91.8428068 77.57250977 97.04394531 C79.8952356 98.91558158 82.11128855 100.862813 84.3125 102.875 C147.45518791 159.45885237 228.46676182 205.21108642 340 249 C340.73718262 249.21333984 341.47436523 249.42667969 342.23388672 249.64648438 C350.86391608 251.88921162 358.43962589 250.18680385 366.8125 247.625 C368.08830933 247.23526001 368.08830933 247.23526001 369.38989258 246.83764648 C406.51024541 235.13160197 442.59833336 217.54078334 476.3046875 198.2421875 C481.70670536 195.1524318 487.15934872 192.16274531 492.625 189.1875 C499.55162723 185.39711795 506.34583456 181.46816343 513.01953125 177.24365234 C515.41997224 175.73627483 517.83495058 174.25339007 520.25 172.76953125 C551.31474312 153.61819203 580.9404196 132.60968258 609.16650391 109.49707031 C610.79694039 108.16580047 612.43504819 106.84393831 614.07421875 105.5234375 C619.62260294 101.04357238 624.96082142 96.39389125 630.19921875 91.5546875 C632.37545232 89.5696711 634.57532786 87.63471429 636.8046875 85.7109375 C641.18413834 81.88877758 645.33048243 77.86168889 649.4375 73.75 C650.18322266 73.00347168 650.92894531 72.25694336 651.69726562 71.48779297 C657.20422008 65.91951653 662.18385146 60.17702418 667 54 C668.01126953 52.824375 668.01126953 52.824375 669.04296875 51.625 C681.63139398 36.94996876 691.43615035 20.26582591 700 3 C700.66 3 701.32 3 702 3 C700.85267904 13.80536606 698.40086579 23.71583623 695 34 C694.76716309 34.7326709 694.53432617 35.4653418 694.29443359 36.22021484 C688.35926333 54.58906384 676.58592296 68.6885876 664 83 C663.36578125 83.73347656 662.7315625 84.46695313 662.078125 85.22265625 C660.39846735 87.16042643 658.7008943 89.08085035 657 91 C656.06353638 92.06371826 656.06353638 92.06371826 655.1081543 93.14892578 C649.58084498 99.36819475 643.82753889 105.32794055 637.93383789 111.1965332 C636.43193075 112.69304925 634.93548938 114.194883 633.43945312 115.69726562 C628.13162768 121.0091385 622.72182949 126.1324954 617 131 C615.80824372 132.04499385 614.61812074 133.09185352 613.4296875 134.140625 C605.70989787 140.90739398 597.83665513 147.39719459 589.71191406 153.67041016 C588.02480784 154.98073253 586.35039703 156.3055723 584.6796875 157.63671875 C581.14213517 160.45361063 577.57878498 163.23570987 574 166 C573.06631592 166.72268066 573.06631592 166.72268066 572.11376953 167.45996094 C514.83441577 211.46814226 447.93788937 251.47933759 379 274 C378.2795752 274.24991699 377.55915039 274.49983398 376.81689453 274.75732422 C358.12778017 281.17548028 336.30524758 280.0252766 318 273 C317.03223633 272.63471191 316.06447266 272.26942383 315.06738281 271.89306641 C290.68290133 262.57222735 266.88277748 251.5610747 244 239 C242.46327637 238.16082031 242.46327637 238.16082031 240.89550781 237.3046875 C226.0676806 229.19403427 211.38226567 220.88156314 197 212 C196.23880859 211.53062012 195.47761719 211.06124023 194.69335938 210.57763672 C152.41913939 184.4117232 111.96032411 155.26078081 75.50195312 121.38427734 C73.97653337 119.97837195 72.43586206 118.59110567 70.890625 117.20703125 C62.68170795 109.814853 55.10195675 101.93164628 47.640625 93.7890625 C46.24693021 92.26927152 44.84326873 90.75862986 43.4375 89.25 C37.73843048 83.06243881 32.52994434 76.53210451 27.42480469 69.85302734 C25.99971051 67.9996235 24.55142929 66.16608833 23.1015625 64.33203125 C9.64917453 47.03545009 -0.39017512 22.1619469 0 0 Z " fill="#DED1C5" transform="translate(161,691)"/>
<path d="M0 0 C3.51432295 2.76886051 4.77478127 6.72115635 6.375 10.75 C6.83507446 11.89770874 6.83507446 11.89770874 7.30444336 13.06860352 C36.42633743 86.57759364 35.57190375 181.56263939 6.95800781 254.95068359 C6 257 6 257 4 259 C-3.1962137 249.15043377 -3.1962137 249.15043377 -6.37109375 244.64453125 C-17.65271892 228.64799308 -29.90973678 213.4772418 -43.21118164 199.11474609 C-45.67562275 196.45370501 -48.09365079 193.76786213 -50.4375 191 C-52.53704254 188.54199898 -54.67184091 186.23861451 -57 184 C-56.51789062 183.63648438 -56.03578125 183.27296875 -55.5390625 182.8984375 C-50.59627196 178.96437972 -48.53736646 176.20937057 -47.71875 169.796875 C-47.44754988 165.7017532 -47.56400515 163.63289574 -49.9375 160.1875 C-59.04404093 153.6828279 -69.00982707 151.78626186 -79.9375 150.875 C-80.90751953 150.78863281 -81.87753906 150.70226562 -82.87695312 150.61328125 C-85.25084011 150.40278881 -87.62508706 150.19852115 -90 150 C-88.11567891 143.26317452 -85.85687145 136.84826483 -83.0625 130.4375 C-82.67553955 129.54474365 -82.2885791 128.6519873 -81.88989258 127.73217773 C-68.12229223 96.30631004 -52.45316525 64.96253843 -31 38 C-30.33742188 37.14664063 -29.67484375 36.29328125 -28.9921875 35.4140625 C-23.52779624 28.44964226 -17.63747892 21.90450429 -11.60546875 15.4296875 C-7.09169057 10.53414699 -3.31776421 5.77933121 0 0 Z " fill="#FE8D8C" transform="translate(801,104)"/>
<path d="M0 0 C2.4817426 2.35993928 4.5347683 4.91544039 6.625 7.625 C9.39159922 11.11991784 12.24179701 14.33134386 15.4375 17.4375 C20.4023476 22.29182873 24.70624501 27.55107235 29 33 C29.79277344 33.98742187 30.58554688 34.97484375 31.40234375 35.9921875 C52.77824243 63.07507966 91 115.04998692 91 150 C90.42668945 150.03963867 89.85337891 150.07927734 89.26269531 150.12011719 C75.62772182 151.11006111 62.65029154 152.14871657 51 160 C48.1543841 164.26842385 48.49995995 167.9917864 49 173 C50.67352956 177.75634717 52.90017359 180.1190409 57 183 C55.6659006 185.94757869 54.19003354 188.0762432 51.9453125 190.3984375 C51.03241455 191.35351196 51.03241455 191.35351196 50.10107422 192.32788086 C49.44896973 193.00343018 48.79686523 193.67897949 48.125 194.375 C36.18969865 206.94230451 25.36280381 220.11127625 15 234 C14.48985352 234.68336426 13.97970703 235.36672852 13.45410156 236.07080078 C8.10803011 243.25252978 2.84056674 250.46342141 -2 258 C-5.37436371 254.90884497 -6.71801053 251.33180521 -8.3125 247.125 C-8.76761963 245.92895142 -8.76761963 245.92895142 -9.23193359 244.70874023 C-14.35575555 230.92894676 -18.00333789 216.93692443 -20.75 202.5 C-21.04801514 200.95517944 -21.04801514 200.95517944 -21.35205078 199.37915039 C-24.83275587 180.07421151 -25.35168624 160.77441135 -25.31567383 141.20214844 C-25.31107217 138.5017823 -25.31787252 135.80186988 -25.33618164 133.1015625 C-25.62835948 89.55042609 -23.11621808 38.2188139 0 0 Z " fill="#FE8E8C" transform="translate(222,104)"/>
<path d="M0 0 C2.46651099 2.15679781 4.75676012 4.38969821 7.01953125 6.7578125 C7.94958984 7.65886719 7.94958984 7.65886719 8.8984375 8.578125 C23.31891073 23.48250672 27.60701962 44.57241165 27.2890625 64.58203125 C26.64861623 81.82991173 18.2019868 99.61384813 6.01953125 111.7578125 C-1.27305321 118.22100456 -8.75865583 122.65548757 -17.98046875 125.7578125 C-18.85445313 126.07621094 -19.7284375 126.39460937 -20.62890625 126.72265625 C-37.79836419 132.06043902 -56.3201766 129.42065939 -72.29296875 121.9453125 C-77.68772387 119.08673708 -82.39751605 115.78186853 -86.98046875 111.7578125 C-87.65722656 111.17515625 -88.33398438 110.5925 -89.03125 109.9921875 C-100.6335999 99.26846216 -108.01154539 83.1195997 -109.1574707 67.31689453 C-109.69406533 44.9766002 -105.86569712 23.65915356 -89.98046875 6.7578125 C-66.40285348 -17.44853918 -26.91586896 -20.24863536 0 0 Z " fill="#49BCE8" transform="translate(406.98046875,437.2421875)"/>
<path d="M0 0 C3.62019541 2.75800402 6.82657246 5.74335321 10 9 C10.69609375 9.66386719 11.3921875 10.32773437 12.109375 11.01171875 C25.107459 24.23651351 30.31957945 42.92158097 30.5 61 C30.31728302 80.82248865 24.1564684 98.04322363 10.0390625 112.15625 C-4.11219181 125.67757386 -21.72223056 131.53155809 -40.99560547 131.421875 C-60.15838925 130.90109132 -75.86216916 123.56846753 -89.22265625 109.69140625 C-101.42252691 95.37595108 -106.91769374 77.31055105 -106.3203125 58.65234375 C-104.3779085 36.50420057 -95.61281159 16.25952138 -78.453125 1.86328125 C-55.21591857 -15.19460436 -24.16006805 -15.34981767 0 0 Z " fill="#49BDE8" transform="translate(695,435)"/>
<path d="M0 0 C6.46873671 6.18314127 9.13291423 11.88651978 9.5 20.8125 C9.3155209 29.06135124 6.79751973 34.40318891 1.8125 40.8125 C-2.14461693 42.4832827 -4.37155576 41.214797 -8.30859375 39.82421875 C-13.95827109 38.09405631 -19.00821111 38.07787551 -24.375 40.5625 C-30.07503578 45.85539037 -31.71813378 51.5618026 -33 59 C-42.12360716 61.45635577 -50.81068238 62.30078869 -60.25 62.3125 C-61.24257813 62.31765625 -62.23515625 62.3228125 -63.2578125 62.328125 C-78.62915963 62.18542019 -78.62915963 62.18542019 -85 59 C-85.45703125 57.21484375 -85.45703125 57.21484375 -85.8125 54.9375 C-86.99227163 49.11295817 -89.47534535 44.40889538 -93.7890625 40.29296875 C-96.66716662 38.60983719 -98.68407829 38.63361627 -102 38.6875 C-103.546875 38.69330078 -103.546875 38.69330078 -105.125 38.69921875 C-107.97112072 38.99697866 -109.51554191 39.68656037 -112 41 C-117.30048651 40.80725504 -120.29198949 39.80822701 -124 36 C-128.64656307 30.34877464 -128.66436245 24.91526627 -128.4375 17.7265625 C-127.41209861 8.99233995 -123.21955659 3.25985135 -116.5234375 -2.24609375 C-90.57517049 -20.28134435 -24.20918092 -20.75797693 0 0 Z " fill="#2E2E2B" transform="translate(571,600)"/>
<path d="M0 0 C2.46651099 2.15679781 4.75676012 4.38969821 7.01953125 6.7578125 C7.94958984 7.65886719 7.94958984 7.65886719 8.8984375 8.578125 C23.31891073 23.48250672 27.60701962 44.57241165 27.2890625 64.58203125 C26.64861623 81.82991173 18.2019868 99.61384813 6.01953125 111.7578125 C-1.27305321 118.22100456 -8.75865583 122.65548757 -17.98046875 125.7578125 C-18.85445313 126.07621094 -19.7284375 126.39460937 -20.62890625 126.72265625 C-37.79836419 132.06043902 -56.3201766 129.42065939 -72.29296875 121.9453125 C-77.68772387 119.08673708 -82.39751605 115.78186853 -86.98046875 111.7578125 C-87.65722656 111.17515625 -88.33398438 110.5925 -89.03125 109.9921875 C-100.6335999 99.26846216 -108.01154539 83.1195997 -109.1574707 67.31689453 C-109.69406533 44.9766002 -105.86569712 23.65915356 -89.98046875 6.7578125 C-66.40285348 -17.44853918 -26.91586896 -20.24863536 0 0 Z M-81.85546875 24.0078125 C-91.74701333 37.31023452 -95.54755146 52.38963357 -93.98046875 68.7578125 C-91.17437297 84.09567696 -83.79825218 97.16253764 -71.23046875 106.5078125 C-57.59707186 115.59674376 -41.87483851 118.2661766 -25.7734375 115.359375 C-16.30695797 112.81146125 -7.49933881 107.00100145 -0.98046875 99.7578125 C-0.15546875 98.8709375 0.66953125 97.9840625 1.51953125 97.0703125 C8.89037371 87.94340726 13.95452396 74.3442621 13.41015625 62.58203125 C10.9625629 44.88593136 5.59697618 28.44265488 -8.453125 16.578125 C-18.48443796 9.35309897 -28.5857704 6.40370651 -40.79296875 6.4453125 C-41.72689453 6.42919922 -42.66082031 6.41308594 -43.62304688 6.39648438 C-58.48605181 6.38617001 -72.30386261 12.54588513 -81.85546875 24.0078125 Z " fill="#1D1B16" transform="translate(406.98046875,437.2421875)"/>
<path d="M0 0 C3.62019541 2.75800402 6.82657246 5.74335321 10 9 C10.69609375 9.66386719 11.3921875 10.32773437 12.109375 11.01171875 C25.107459 24.23651351 30.31957945 42.92158097 30.5 61 C30.31728302 80.82248865 24.1564684 98.04322363 10.0390625 112.15625 C-4.11219181 125.67757386 -21.72223056 131.53155809 -40.99560547 131.421875 C-60.15838925 130.90109132 -75.86216916 123.56846753 -89.22265625 109.69140625 C-101.42252691 95.37595108 -106.91769374 77.31055105 -106.3203125 58.65234375 C-104.3779085 36.50420057 -95.61281159 16.25952138 -78.453125 1.86328125 C-55.21591857 -15.19460436 -24.16006805 -15.34981767 0 0 Z M-77 25 C-88.15365378 39.47651313 -92.82930904 56.9805562 -91 75 C-88.55679182 88.96515586 -82.13000808 100.40125238 -70.83984375 109.05859375 C-57.97686242 117.85213119 -45.21911506 119.2042821 -30 118 C-25.66994391 117.18493062 -21.96514028 115.90020817 -18 114 C-17.04867187 113.55269531 -16.09734375 113.10539063 -15.1171875 112.64453125 C-1.23343652 105.58916461 7.7205478 94.64223071 13 80 C17.37748089 64.54202061 15.5245555 48.30386242 8.1875 34.0625 C0.1987017 20.648473 -10.99352941 13.72295931 -25.86108398 9.46728516 C-29.89573086 8.58584307 -34.01105729 8.77298292 -38.125 8.75 C-39.02476562 8.729375 -39.92453125 8.70875 -40.8515625 8.6875 C-54.92368702 8.60662572 -67.45092549 14.67506319 -77 25 Z " fill="#1D1B17" transform="translate(695,435)"/>
<path d="M0 0 C2.46980232 2.46980232 4.50180468 4.87270977 6.625 7.625 C9.39159922 11.11991784 12.24179701 14.33134386 15.4375 17.4375 C20.4023476 22.29182873 24.70624501 27.55107235 29 33 C29.79277344 33.98742187 30.58554688 34.97484375 31.40234375 35.9921875 C52.77824243 63.07507966 91 115.04998692 91 150 C90.42668945 150.03963867 89.85337891 150.07927734 89.26269531 150.12011719 C67.45417284 151.35931686 67.45417284 151.35931686 49 162 C47.0020288 156.84280385 45.26348531 151.70922863 43.8359375 146.36328125 C43.43710375 144.89928543 43.03808909 143.43533888 42.63891602 141.97143555 C42.43324005 141.21228851 42.22756409 140.45314148 42.01565552 139.67098999 C30.46771393 97.15874451 16.37851781 55.87855577 -1.890625 15.7734375 C-3 13 -3 13 -3 10 C-3.66 9.67 -4.32 9.34 -5 9 C-3.35 6.03 -1.7 3.06 0 0 Z " fill="#DD7279" transform="translate(222,104)"/>
<path d="M0 0 C3.00236665 2.83649004 4.23083749 4.84652247 5 9 C3.54492671 15.22858152 0.74784161 21.19650555 -1.7734375 27.0546875 C-2.51736307 28.80344415 -3.26083383 30.55239433 -4.00390625 32.30151367 C-4.39078613 33.20984955 -4.77766602 34.11818542 -5.17626953 35.05404663 C-20.95213993 72.17915182 -34.67431626 109.71775142 -44.48950195 148.87426758 C-44.79202881 150.05915771 -45.09455566 151.24404785 -45.40625 152.46484375 C-45.66728516 153.512771 -45.92832031 154.56069824 -46.19726562 155.64038086 C-47 158 -47 158 -49 159 C-51.09001316 158.30722641 -53.14918486 157.5201834 -55.1875 156.6875 C-63.49889697 153.31069262 -71.0417858 151.61681622 -79.9375 150.875 C-80.90751953 150.78863281 -81.87753906 150.70226562 -82.87695312 150.61328125 C-85.25084011 150.40278881 -87.62508706 150.19852115 -90 150 C-88.11567891 143.26317452 -85.85687145 136.84826483 -83.0625 130.4375 C-82.67553955 129.54474365 -82.2885791 128.6519873 -81.88989258 127.73217773 C-68.12229223 96.30631004 -52.45316525 64.96253843 -31 38 C-30.33742188 37.14664063 -29.67484375 36.29328125 -28.9921875 35.4140625 C-23.52779624 28.44964226 -17.63747892 21.90450429 -11.60546875 15.4296875 C-7.09169057 10.53414699 -3.31776421 5.77933121 0 0 Z " fill="#DD7379" transform="translate(801,104)"/>
<path d="M0 0 C11.81248486 5.8975136 17.45928623 13.73843566 22.37963867 25.84472656 C25.23422962 38.69038585 23.66922937 50.53086987 16.58276367 61.66894531 C10.12516115 70.30921749 2.11713422 76.0301498 -8.62036133 77.84472656 C-20.38455119 78.9527491 -30.50772939 77.13238588 -39.78051758 69.52832031 C-48.46651338 61.57998869 -53.92234221 52.3904749 -54.89379883 40.49707031 C-55.14083596 31.46121214 -53.80268001 24.86581632 -49.62036133 16.84472656 C-48.60374639 18.84867123 -47.63192563 20.81537103 -46.80786133 22.90722656 C-45.11538141 25.66864116 -43.59229172 26.55258292 -40.62036133 27.84472656 C-35.028414 28.37729297 -31.40794079 28.07355922 -26.62036133 24.84472656 C-22.98969078 20.97201131 -23.13279483 16.6461466 -23.24926758 11.58300781 C-23.79566079 7.55120107 -25.27921022 5.13697031 -27.62036133 1.84472656 C-18.94793371 -3.70562711 -9.47587655 -4.2348331 0 0 Z " fill="#1D1B17" transform="translate(669.620361328125,458.1552734375)"/>
<path d="M0 0 C3.44218886 2.96576133 5.95493012 6.03760896 8.2578125 9.9453125 C8.6703125 10.61433594 9.0828125 11.28335937 9.5078125 11.97265625 C14.30932404 21.45897593 13.7725667 35.4223741 11.1953125 45.5703125 C7.31922422 55.84013518 -0.47405786 64.69746623 -10.4296875 69.3203125 C-19.72223635 73.22759995 -30.67233907 73.55155131 -40.0546875 69.8828125 C-50.69726999 64.82368873 -58.09879867 57.86500758 -62.6171875 46.8828125 C-65.61141166 36.66300548 -64.77678885 25.29528644 -59.7421875 15.9453125 C-58.24479167 17.21484375 -56.74739583 18.484375 -55.25 19.75390625 C-51.8327248 22.45408484 -49.01783401 22.2303556 -44.7421875 21.9453125 C-40.58461197 20.34624499 -38.0299761 18.79843015 -35.7421875 14.9453125 C-34.3892384 10.88646519 -34.19175062 7.18947053 -34.7421875 2.9453125 C-36.53652403 -0.45746562 -36.53652403 -0.45746562 -38.7421875 -3.0546875 C-39.0721875 -3.7146875 -39.4021875 -4.3746875 -39.7421875 -5.0546875 C-26.16875643 -11.04296591 -11.66933259 -8.7428542 0 0 Z " fill="#1D1B17" transform="translate(394.7421875,464.0546875)"/>
<path d="M0 0 C0.69222656 0.52787109 0.69222656 0.52787109 1.3984375 1.06640625 C2.80085104 2.12791689 4.20901633 3.18184778 5.62109375 4.23046875 C7.14519514 5.36415993 8.65931309 6.51147435 10.16015625 7.67578125 C32.18081131 24.10628717 59.86868799 29.00414018 86.80859375 25.46875 C93.7771239 24.33512901 100.360142 22.42052191 106.86328125 19.671875 C109 19 109 19 112 20 C105.13178681 31.73319753 93.76164385 37.34753627 80.9375 40.875 C59.79891647 45.13331538 41.04121601 40.07615223 21.65625 31.90234375 C2.75491661 24.04634762 -9.16088965 26.88339577 -27.734375 34.51171875 C-35.01955008 37.48353444 -42.28300339 39.48891322 -50 41 C-50.94617188 41.18820312 -51.89234375 41.37640625 -52.8671875 41.5703125 C-69.91643429 43.90873787 -87.54555959 41.87132516 -102 32 C-106.49958176 28.55869551 -110.92926676 24.80636507 -114 20 C-113.505 18.515 -113.505 18.515 -113 17 C-111.99582031 17.39832031 -110.99164063 17.79664063 -109.95703125 18.20703125 C-108.5756999 18.74264953 -107.1941789 19.27777889 -105.8125 19.8125 C-105.15830078 20.07353516 -104.50410156 20.33457031 -103.83007812 20.60351562 C-92.9409178 24.78371461 -82.32772876 26.52120658 -70.6875 26.375 C-69.50760498 26.36484863 -68.32770996 26.35469727 -67.11206055 26.34423828 C-42.70267199 25.91203581 -17.61079728 17.61079728 0 0 Z " fill="#DFD2C6" transform="translate(512,746)"/>
<path d="M0 0 C0.63164063 0.43570312 1.26328125 0.87140625 1.9140625 1.3203125 C4.54991658 3.30657221 5.88398744 4.62710248 6.875 7.8125 C6.91625 8.534375 6.9575 9.25625 7 10 C5.5410574 9.52269162 4.08286504 9.04308958 2.625 8.5625 C1.81289063 8.29566406 1.00078125 8.02882813 0.1640625 7.75390625 C-2 7 -2 7 -4 6 C-6.39618862 6.00579489 -8.79235447 6.05406775 -11.1875 6.125 C-16.8926963 6.22660396 -20.72807407 5.30047677 -26 3 C-33.54357434 2.29869035 -40.3257177 2.1861244 -47 6 C-46.34 6.928125 -45.68 7.85625 -45 8.8125 C-42.22345947 13.69127836 -42.19174201 18.5318873 -43 24 C-44.78950635 27.85432136 -46.26334285 29.49773376 -49.75 31.875 C-53.69095458 33.23917659 -56.88020591 33.73185963 -61 33 C-65.93760781 30.5777773 -67.93267422 28.05346301 -70 23 C-74.8378912 26.40851425 -76.95166441 29.31701513 -79.125 34.8046875 C-80 37 -80 37 -81.6875 40.0625 C-83.35002054 43.7833793 -83.65076565 46.9488815 -84 51 C-84.33 51 -84.66 51 -85 51 C-87.55595288 36.44878309 -83.2608807 22.13683894 -75 10 C-68.13570868 0.62585767 -58.24902632 -6.53940998 -46.9296875 -9.55078125 C-30.01300412 -12.1446727 -14.16988686 -9.87288146 0 0 Z " fill="#41A6CD" transform="translate(690,454)"/>
<path d="M0 0 C0.33 0 0.66 0 1 0 C1.99995876 5.54448677 2.13776347 10.97814386 2.23925781 16.60522461 C3.0326317 57.44017868 10.01957455 97.79640883 26.82421875 135.24609375 C27.16179199 136.02065918 27.49936523 136.79522461 27.84716797 137.59326172 C28.9838272 140.07999314 28.9838272 140.07999314 30.60986328 142.58251953 C32.27733083 145.4604219 33.37485111 147.7258134 34 151 C32.66708996 155.85910723 30.20314535 159.78008976 27.5 164 C26.83484375 165.11761719 26.1696875 166.23523438 25.484375 167.38671875 C20.28016324 176.01530184 20.28016324 176.01530184 17 179 C13.74414161 169.24612706 11.45546513 159.46704369 9.5625 149.375 C9.41447937 148.5950769 9.26645874 147.81515381 9.11395264 147.01159668 C6.57142439 133.48840766 4.69820184 119.91751818 3.125 106.25 C3.02172394 105.35851257 2.91844788 104.46702515 2.81204224 103.54852295 C2.51541919 100.95501192 2.22798413 98.36069123 1.9453125 95.765625 C1.86334122 95.03020477 1.78136993 94.29478455 1.69691467 93.53707886 C0.25627984 79.79051195 -0.14884958 66.05592028 -0.09765625 52.24609375 C-0.0957835 50.72339424 -0.09436367 49.20069411 -0.09336853 47.67799377 C-0.08961063 43.73428587 -0.07984076 39.79061675 -0.06866455 35.84692383 C-0.05830286 31.79704309 -0.05383981 27.74715589 -0.04882812 23.69726562 C-0.03821001 15.79815958 -0.02121819 7.89908466 0 0 Z " fill="#41474B" transform="translate(169,238)"/>
<path d="M0 0 C0.33 0 0.66 0 1 0 C1.04730142 8.18303755 1.08234659 16.36601377 1.10362434 24.54915619 C1.11386008 28.35297119 1.12762457 32.15668976 1.15087891 35.96044922 C1.31780637 64.08090589 0.2726491 91.95079706 -3.3125 119.875 C-3.41949219 120.72956787 -3.52648437 121.58413574 -3.63671875 122.46459961 C-6.21886038 143.01730783 -9.54106222 163.26588373 -16 183 C-18.65675273 180.61403357 -20.19594877 178.09965068 -21.8828125 174.96484375 C-22.41003906 173.99095703 -22.93726563 173.01707031 -23.48046875 172.01367188 C-24.02316406 170.99853516 -24.56585937 169.98339844 -25.125 168.9375 C-25.67542969 167.91849609 -26.22585938 166.89949219 -26.79296875 165.84960938 C-30.65401786 158.69196429 -30.65401786 158.69196429 -32 156 C-31.19897461 153.76367188 -31.19897461 153.76367188 -29.90234375 150.96875 C-29.43344727 149.94023926 -28.96455078 148.91172852 -28.48144531 147.85205078 C-27.97194336 146.74587402 -27.46244141 145.63969727 -26.9375 144.5 C-16.08329386 120.30915887 -8.21409684 94.38549269 -5 68 C-4.8767334 66.98824707 -4.7534668 65.97649414 -4.62646484 64.93408203 C-2.08801379 43.34629297 -0.97981128 21.70361141 0 0 Z " fill="#41474C" transform="translate(854,234)"/>
<path d="M0 0 C1.18215088 0.00676758 2.36430176 0.01353516 3.58227539 0.02050781 C17.88518587 0.19004131 34.83598057 0.52348057 45.5625 11.25 C45.2325 12.57 44.9025 13.89 44.5625 15.25 C43.31452637 15.22905273 42.06655273 15.20810547 40.78076172 15.18652344 C36.03560418 15.11270514 31.29049405 15.06769909 26.54492188 15.03027344 C24.51260781 15.01047402 22.48034811 14.98342729 20.44824219 14.94824219 C-0.04876863 14.60290107 -19.29534813 16.66956698 -38.0078125 25.45703125 C-42.31580947 27.46885162 -45.54959546 28.9653031 -50.4375 28.25 C-52.4375 26.25 -52.4375 26.25 -52.9375 23.125 C-52.25562925 17.84050167 -50.20704804 14.94166481 -46.4375 11.25 C-33.0478191 1.44128027 -16.05488818 -0.13355088 0 0 Z " fill="#8A7C76" transform="translate(507.4375,593.75)"/>
<path d="M0 0 C13.13322604 8.90644065 19.1122554 20.6691683 23.1875 35.6875 C23.60076749 38.01954978 23.90654899 40.33415765 24.1875 42.6875 C20.02674412 41.30058137 19.06740201 38.39058283 17.1875 34.6875 C16.836875 33.90375 16.48625 33.12 16.125 32.3125 C15.22075133 30.32985617 15.22075133 30.32985617 12.1875 29.6875 C10.72265625 27.359375 10.72265625 27.359375 9.25 24.4375 C5.41097825 17.17346866 3.02979942 13.71435241 -4.8125 10.6875 C-5.616875 10.171875 -6.42125 9.65625 -7.25 9.125 C-16.52286924 3.92314652 -26.96042451 5.01575072 -36.8125 7.6875 C-40.25825117 7.96316009 -42.38618016 7.84855416 -45.625 6.625 C-53.20617524 4.39524258 -59.22361353 7.0194986 -65.94140625 10.62890625 C-66.55886719 10.97824219 -67.17632812 11.32757813 -67.8125 11.6875 C-67.48842819 8.57641062 -67.0847753 6.99468239 -64.984375 4.625 C-46.45863946 -10.19558843 -20.35450376 -12.17978392 0 0 Z " fill="#41A7CD" transform="translate(394.8125,451.3125)"/>
<path d="M0 0 C4.05434487 2.0555245 6.31988217 5.05661075 8.9375 8.6875 C10.44522285 13.38804772 10.78286836 18.11091036 10 23 C8.43783768 24.9767026 7.2500219 25.87498905 5 27 C-2.02361544 27.80990651 -8.06692909 26.97000309 -14 23 C-17.90328187 19.29444535 -21.58995975 15.63597301 -22.4375 10.1875 C-22 7 -22 7 -19.25 4.25 C-12.86353547 -0.17139852 -7.78920366 -1.16226337 0 0 Z " fill="#0F0F0C" transform="translate(475,638)"/>
<path d="M0 0 C2 2 2 2 2.4375 5.6875 C2.28644838 10.5922348 0.44659431 13.59493092 -3 17 C-9.28382387 21.8773828 -15.91009644 24.88253493 -24 24 C-26.9375 22.6875 -26.9375 22.6875 -29 20 C-30.28571951 14.01945621 -29.57877535 9.17019234 -26.3125 4 C-19.17310289 -5.25968209 -10.02561751 -4.65475099 0 0 Z " fill="#0F0F0C" transform="translate(568,641)"/>
<path d="M0 0 C2.98782002 2.64866207 5.78002339 5.88484026 6.203125 9.953125 C6.3077631 15.08039184 5.95667565 18.61596369 3 23 C-0.67702577 26.40124883 -3.28622563 27.83832317 -8.3125 28.3125 C-12.7020258 27.94050629 -14.64776343 26.80652364 -18 24 C-20.55394652 19.79608115 -20.90735868 15.79603874 -20 11 C-16.38233845 4.19028413 -7.8846759 -1.7521502 0 0 Z " fill="#FBFCFC" transform="translate(355,459)"/>
<path d="M0 0 C3.36298892 2.77812128 5.79634542 4.95677703 6.23828125 9.390625 C6.35838346 14.01772065 6.34935793 17.24753676 4.375 21.5 C0.7053959 25.36274116 -2.69489499 27.12364837 -8 27.4375 C-12.22865911 27.26738153 -14.77322576 25.76580649 -18 23 C-20.26981576 20.11114358 -20.60036469 16.80827776 -20.51171875 13.16015625 C-19.2132558 7.67885844 -14.49259932 3.99506622 -10 1 C-6.34143414 -0.21952195 -3.83032404 -0.55713804 0 0 Z " fill="#FBFBFB" transform="translate(641,460)"/>
<path d="M0 0 C1.08796875 0.47050781 2.1759375 0.94101562 3.296875 1.42578125 C14.033187 6.00428616 24.103519 9.74770171 35.859375 10.5703125 C37.5913916 10.6943042 37.5913916 10.6943042 39.35839844 10.82080078 C40.66599121 10.90950439 40.66599121 10.90950439 42 11 C41.98054625 15.60901301 41.92873288 20.21612544 41.84741211 24.82446289 C41.82427118 26.39076369 41.80984552 27.95721922 41.80444336 29.52368164 C41.79512412 31.78108703 41.75407767 34.03607221 41.70703125 36.29296875 C41.71293022 37.33701118 41.71293022 37.33701118 41.71894836 38.40214539 C41.60034305 42.38909004 41.08613892 43.89904859 38.45581055 46.98168945 C37.64539307 47.64773193 36.83497559 48.31377441 36 49 C35.01 48.505 35.01 48.505 34 48 C34.64453125 47.55140625 35.2890625 47.1028125 35.953125 46.640625 C39.0611305 42.63106065 38.67384692 38.69302721 38.75 33.75 C38.79447266 32.34621094 38.79447266 32.34621094 38.83984375 30.9140625 C38.91039804 28.60928908 38.96316252 26.30551832 39 24 C38.4423999 23.89840576 37.8847998 23.79681152 37.31030273 23.69213867 C31.76991295 22.58686627 27.06307445 20.91690111 22.0625 18.3125 C21.37373779 17.95945801 20.68497559 17.60641602 19.9753418 17.24267578 C11.83642443 12.98592382 4.48656996 8.49831228 -1 1 C-0.67 0.67 -0.34 0.34 0 0 Z " fill="#DED3C7" transform="translate(462,684)"/>
<path d="M0 0 C0.495 1.485 0.495 1.485 1 3 C-9.09568425 16.54452049 -26.51810218 24.55688683 -43 27 C-42.98259766 25.84371094 -42.98259766 25.84371094 -42.96484375 24.6640625 C-42.95582031 23.66117188 -42.94679688 22.65828125 -42.9375 21.625 C-42.92589844 20.62726562 -42.91429687 19.62953125 -42.90234375 18.6015625 C-42.81993398 16.01567547 -42.81993398 16.01567547 -44 14 C-42.94683594 13.91363281 -41.89367187 13.82726562 -40.80859375 13.73828125 C-27.40947292 12.49316099 -9.95770432 9.95770432 0 0 Z " fill="#DED1C5" transform="translate(565,681)"/>
<path d="M0 0 C2.9375 2.0625 2.9375 2.0625 5 5 C5 8.51955419 4.63108355 10.84920059 2.9375 13.9375 C-0.27905997 15.70141999 -3.49385409 15.73924763 -7 15 C-9.5625 12.9375 -9.5625 12.9375 -11 10 C-11 6.1862249 -10.84985071 3.97575452 -8.3125 1.0625 C-5.2135552 -0.3613395 -3.37817188 -0.55153827 0 0 Z " fill="#1C1A16" transform="translate(424,721)"/>
<path d="M0 0 C2.5625 2.0625 2.5625 2.0625 4 5 C4 8.77910616 3.83289714 11.00693033 1.375 13.9375 C-2.01168643 15.45259656 -4.33417263 15.52368962 -8 15 C-10.5 12.9375 -10.5 12.9375 -12 10 C-11.94021398 6.53241058 -11.60965977 4.11173251 -9.9375 1.0625 C-6.72094003 -0.70141999 -3.50614591 -0.73924763 0 0 Z " fill="#1E1C17" transform="translate(589,697)"/>
<path d="M0 0 C2.5625 2.0625 2.5625 2.0625 4 5 C4 8.77910616 3.83289714 11.00693033 1.375 13.9375 C-2.01168643 15.45259656 -4.33417263 15.52368962 -8 15 C-10.5 12.9375 -10.5 12.9375 -12 10 C-11.94021398 6.53241058 -11.60965977 4.11173251 -9.9375 1.0625 C-6.72094003 -0.70141999 -3.50614591 -0.73924763 0 0 Z " fill="#1D1B16" transform="translate(443,697)"/>
<path d="M0 0 C2.875 1.5625 2.875 1.5625 5 4 C5.51921468 7.63450273 5.37882203 10.01506272 4.0625 13.4375 C1.13463409 15.65558023 -1.30093951 15.56044045 -4.90234375 15.37890625 C-7 15 -7 15 -9.0625 13.4375 C-10.36454848 10.05217395 -10.4495791 7.59663278 -10 4 C-7.25657347 -0.1151398 -4.81370572 -0.78591114 0 0 Z " fill="#1B1915" transform="translate(605,721)"/>
<path d="M0 0 C2.4375 1 2.4375 1 4 3 C4.56153595 7.42209561 4.79893062 9.72171101 2.4375 13.5 C-0.94888329 15.58392818 -3.09385318 15.55802097 -7 15 C-9.4375 13.4375 -9.4375 13.4375 -11 11 C-11.56288002 7.05983987 -11.60396028 4.94217804 -9.4375 1.5625 C-6.08147594 -0.58879747 -3.91578329 -0.48947291 0 0 Z " fill="#1B1915" transform="translate(626,697)"/>
<path d="M0 0 C2.4375 1.5625 2.4375 1.5625 4 4 C4.56288002 7.94016013 4.60396028 10.05782196 2.4375 13.4375 C-0.94217804 15.60396028 -3.05983987 15.56288002 -7 15 C-9.4375 13.4375 -9.4375 13.4375 -11 11 C-11.56288002 7.05983987 -11.60396028 4.94217804 -9.4375 1.5625 C-6.05782196 -0.60396028 -3.94016013 -0.56288002 0 0 Z " fill="#1C1915" transform="translate(405,697)"/>
<path d="M0 0 C-0.94101562 0.36351562 -1.88203125 0.72703125 -2.8515625 1.1015625 C-13.74128279 5.12588005 -13.74128279 5.12588005 -20.82421875 13.86328125 C-22.02870419 17.47677625 -22.02870419 17.47677625 -21 21 C-14.53350961 19.83391157 -9.24920079 17.89240211 -3.3828125 14.92578125 C-1 14 -1 14 2 15 C-0.86659903 16.35194887 -3.74444847 17.67807247 -6.625 19 C-7.43324219 19.3815625 -8.24148438 19.763125 -9.07421875 20.15625 C-13.48747854 22.16553901 -17.04246292 23.73219009 -22 23 C-24 21 -24 21 -24.5 17.875 C-23.81973154 12.6029194 -21.77894871 9.67097875 -18 6 C-15.12904982 4.00544514 -12.17253615 2.4570166 -9 1 C-8.071875 0.54625 -7.14375 0.0925 -6.1875 -0.375 C-3.6729891 -1.09343169 -2.46461912 -0.71303446 0 0 Z " fill="#A4928A" transform="translate(479,599)"/>
<path d="M0 0 C0.91448257 3.08637868 1 5.79630389 1 9 C1.33 9.66 1.66 10.32 2 11 C0.77627174 13.38538334 -0.49078582 15.64822271 -1.875 17.9375 C-4.81006292 22.78597686 -4.81006292 22.78597686 -7 28 C-7.99 28.33 -8.98 28.66 -10 29 C-9.33111978 26.99335934 -8.66202456 24.98679021 -7.9921875 22.98046875 C-7.24437176 20.73407736 -6.50020527 18.48647066 -5.7578125 16.23828125 C-5.31771135 14.90885317 -4.87760718 13.57942609 -4.4375 12.25 C-4.02371094 10.99703125 -3.60992188 9.7440625 -3.18359375 8.453125 C-2.20301575 5.59229678 -1.15668539 2.79310204 0 0 Z " fill="#454F59" transform="translate(860,711)"/>
<path d="M0 0 C0 3 0 3 -1.17687988 4.53764343 C-2.00294739 5.35371819 -2.00294739 5.35371819 -2.84570312 6.1862793 C-3.46634644 6.80669601 -4.08698975 7.42711273 -4.72644043 8.06632996 C-5.40452759 8.72893326 -6.08261475 9.39153656 -6.78125 10.07421875 C-7.46932739 10.7580513 -8.15740479 11.44188385 -8.86633301 12.1464386 C-11.07063179 14.33391366 -13.28512144 16.51074286 -15.5 18.6875 C-16.99417133 20.16662934 -18.48766988 21.64643865 -19.98046875 23.12695312 C-23.64587892 26.75924493 -27.32046381 30.38202091 -31 34 C-31 29.83880635 -28.72694293 28.16321275 -26 25.3125 C-25.49815186 24.77794189 -24.99630371 24.24338379 -24.47924805 23.69262695 C-22.9954037 22.11928314 -21.50040709 20.55754095 -20 19 C-19.26394531 18.23429687 -18.52789062 17.46859375 -17.76953125 16.6796875 C-13.9287018 12.76986112 -9.91973743 9.11648673 -5.765625 5.54296875 C-3.75058361 3.78203656 -1.85305602 1.93026669 0 0 Z " fill="#505B66" transform="translate(305,295)"/>
<path d="M0 0 C0.72058594 -0.01224609 1.44117188 -0.02449219 2.18359375 -0.03710938 C5.98987912 -0.04762398 8.90013112 0.05165752 12.125 2.1875 C8.70673253 3.89663373 4.89145237 3.37208479 1.125 3.375 C0.29226563 3.38724609 -0.54046875 3.39949219 -1.3984375 3.41210938 C-2.59339844 3.41500977 -2.59339844 3.41500977 -3.8125 3.41796875 C-4.54339844 3.42207764 -5.27429688 3.42618652 -6.02734375 3.43041992 C-7.875 3.1875 -7.875 3.1875 -9.875 1.1875 C-6.74650741 -0.37674629 -3.43069916 0.00303602 0 0 Z " fill="#2B2824" transform="translate(654.875,423.8125)"/>
<path d="M0 0 C1.11246094 -0.00257813 2.22492188 -0.00515625 3.37109375 -0.0078125 C6.22627492 0.11100777 8.78757946 0.47146731 11.5625 1.125 C8.94434261 3.74315739 7.05781662 3.38612488 3.49023438 3.3984375 C2.31944336 3.38683594 2.31944336 3.38683594 1.125 3.375 C-0.03999023 3.38660156 -0.03999023 3.38660156 -1.22851562 3.3984375 C-5.13802168 3.38496806 -7.11697032 3.33868645 -10.4375 1.125 C-6.92571216 0.04312893 -3.66197434 -0.00846699 0 0 Z " fill="#24221E" transform="translate(365.4375,423.875)"/>
<path d="M0 0 C4.95 0 9.9 0 15 0 C15 0.99 15 1.98 15 3 C10.05 3 5.1 3 0 3 C0 2.01 0 1.02 0 0 Z " fill="#212427" transform="translate(360,553)"/>
<path d="M0 0 C0.66 0.66 1.32 1.32 2 2 C-1.96 5.96 -5.92 9.92 -10 14 C-10.99 13.67 -11.98 13.34 -13 13 C-8.71 8.71 -4.42 4.42 0 0 Z " fill="#ECE8E3" transform="translate(219,551)"/>
<path d="M0 0 C0.66 0.33 1.32 0.66 2 1 C2 4.33333333 2 7.66666667 2 11 C-0.31 9.02 -2.62 7.04 -5 5 C-3.35 3.35 -1.7 1.7 0 0 Z " fill="#D8777B" transform="translate(749,284)"/>
<path d="M0 0 C2.14082246 2.14082246 2.59262865 3.30767976 3.5078125 6.1328125 C3.77207031 6.93847656 4.03632813 7.74414062 4.30859375 8.57421875 C4.57800781 9.41597656 4.84742188 10.25773438 5.125 11.125 C5.40214844 11.97449219 5.67929688 12.82398438 5.96484375 13.69921875 C6.6486468 15.79778673 7.32678277 17.89801696 8 20 C7.34 20 6.68 20 6 20 C2.55842108 13.772381 0 7.15293157 0 0 Z " fill="#3A4550" transform="translate(165,717)"/>
<path d="M0 0 C0.66 0 1.32 0 2 0 C2.8320582 5.72040011 3.12036664 11.22240116 3 17 C2.5359375 16.0409375 2.5359375 16.0409375 2.0625 15.0625 C1.1654837 13.06389179 1.1654837 13.06389179 0 12 C-0.07244053 9.98035801 -0.08377188 7.95832876 -0.0625 5.9375 C-0.05347656 4.83277344 -0.04445313 3.72804688 -0.03515625 2.58984375 C-0.02355469 1.73519531 -0.01195312 0.88054688 0 0 Z " fill="#F3F0EC" transform="translate(339,676)"/>
<path d="M0 0 C2.97 1.98 2.97 1.98 6 4 C5.25 5.9375 5.25 5.9375 4 8 C2.68 8.33 1.36 8.66 0 9 C0 6.03 0 3.06 0 0 Z " fill="#E0787C" transform="translate(273,283)"/>
<path d="M0 0 C0.33 0 0.66 0 1 0 C1.054138 2.24973447 1.09285491 4.49984383 1.125 6.75 C1.14820313 8.00296875 1.17140625 9.2559375 1.1953125 10.546875 C1.01537302 13.72820492 0.68998582 15.36521896 -1 18 C-2 17 -2 17 -2.1875 14.0625 C-2.13753336 9.26570271 -1.0505076 4.66162747 0 0 Z " fill="#3C4750" transform="translate(472,490)"/>
<path d="M0 0 C0.99 0.33 1.98 0.66 3 1 C0.36 3.64 -2.28 6.28 -5 9 C-5.99 8.67 -6.98 8.34 -8 8 C-5.36 5.36 -2.72 2.72 0 0 Z M-10 9 C-9.34 9.33 -8.68 9.66 -8 10 C-8.99 10 -9.98 10 -11 10 C-10.67 9.67 -10.34 9.34 -10 9 Z " fill="#EFEBE5" transform="translate(579,669)"/>
<path d="M0 0 C1.90389849 2.85584773 2.69462177 4.9311762 3.625 8.1875 C3.88539063 9.08855469 4.14578125 9.98960937 4.4140625 10.91796875 C4.60742188 11.60503906 4.80078125 12.29210937 5 13 C1.67356033 10.01767477 -0.29152862 7.13629913 -2 3 C-1 1 -1 1 0 0 Z " fill="#525C65" transform="translate(164,718)"/>
<path d="M0 0 C3.60895522 4.6761194 3.60895522 4.6761194 4 8 C3.72949547 10.00946222 3.40632091 12.01354224 3 14 C0.81005752 10.71508627 0.64722661 9.16904361 0.375 5.3125 C0.30023438 4.31863281 0.22546875 3.32476563 0.1484375 2.30078125 C0.09945312 1.54152344 0.05046875 0.78226563 0 0 Z " fill="#EDE1D2" transform="translate(161,691)"/>
<path d="M0 0 C0.66 0.66 1.32 1.32 2 2 C1.38125 2.556875 0.7625 3.11375 0.125 3.6875 C-2.06106379 6.06645178 -2.98785699 7.96357096 -4 11 C-4.66 10.67 -5.32 10.34 -6 10 C-4.6302836 6.00499382 -2.74277578 3.19990508 0 0 Z " fill="#9A8982" transform="translate(461,605)"/>
<path d="M0 0 C0.99 0 1.98 0 3 0 C3 2.97 3 5.94 3 9 C2.01 9 1.02 9 0 9 C0 6.03 0 3.06 0 0 Z " fill="#47B7DE" transform="translate(707,490)"/>
<path d="M0 0 C7.425 0.99 7.425 0.99 15 2 C15 2.33 15 2.66 15 3 C9.72 3 4.44 3 -1 3 C-0.67 2.01 -0.34 1.02 0 0 Z " fill="#F38089" transform="translate(712,251)"/>
<path d="M0 0 C0.33 0.99 0.66 1.98 1 3 C-1.95183101 5.95183101 -4.95511947 6.08663988 -9 7 C-6.3765992 4.08511023 -3.28183606 2.11496102 0 0 Z " fill="#E8DED1" transform="translate(565,681)"/>
<path d="M0 0 C0.99 0.33 1.98 0.66 3 1 C3.33 3.31 3.66 5.62 4 8 C3.01 7.67 2.02 7.34 1 7 C0.67 4.69 0.34 2.38 0 0 Z " fill="#3D9EC3" transform="translate(415,486)"/>
<path d="M0 0 C1.64826111 2.96687001 2.44271087 5.65626525 3 9 C1.0625 8.1875 1.0625 8.1875 -1 7 C-2 4 -2 4 -1.0625 1.8125 C-0.5365625 0.9153125 -0.5365625 0.9153125 0 0 Z " fill="#121211" transform="translate(620,475)"/>
<path d="M0 0 C5.75 1.75 5.75 1.75 8 4 C2.25 4.125 2.25 4.125 0 3 C0 2.01 0 1.02 0 0 Z " fill="#26221F" transform="translate(425,940)"/>
<path d="M0 0 C3.36720387 1.39332574 4.9859524 2.9789286 7 6 C4 6 4 6 1.8125 4.125 C0 2 0 2 0 0 Z " fill="#D1C9BE" transform="translate(217,792)"/>
<path d="M0 0 C0 0.99 0 1.98 0 3 C-2.97 2.67 -5.94 2.34 -9 2 C-5.23312136 0.11656068 -3.97041037 -0.22057835 0 0 Z " fill="#291F1C" transform="translate(297,255)"/>
<path d="M0 0 C0.99 0 1.98 0 3 0 C3 1.98 3 3.96 3 6 C2.01 5.67 1.02 5.34 0 5 C0 3.35 0 1.7 0 0 Z " fill="#26241F" transform="translate(413,726)"/>
<path d="M0 0 C0.99 0 1.98 0 3 0 C2.45773019 3.79588866 0.79872437 5.47211993 -2 8 C-1.125 1.125 -1.125 1.125 0 0 Z " fill="#0F0E0A" transform="translate(585,656)"/>
</svg>
