<?xml version="1.0" encoding="UTF-8"?>
<svg version="1.1" xmlns="http://www.w3.org/2000/svg" width="1024" height="1024">

<path d="M0 0 C9.94484831 6.64700584 19.54086343 13.66792563 28.6171875 21.46142578 C29.68123091 22.35461805 30.74639866 23.24647209 31.8125 24.13720703 C37.67746053 29.04857791 43.45249215 34.04012374 49.10546875 39.19580078 C50.49612572 40.45020365 51.89284163 41.69831295 53.31323242 42.91894531 C68.13967018 55.67557408 81.6789896 69.61398137 93.13720703 85.45996094 C95.68487654 88.90532462 98.40046418 92.21133071 101.1171875 95.52392578 C101.6519873 96.1783667 102.18678711 96.83280762 102.73779297 97.50708008 C104.36242629 99.49336963 105.98973908 101.47744246 107.6171875 103.46142578 C109.84944711 106.18807846 112.07858289 108.91724575 114.3046875 111.64892578 C114.84432129 112.31093994 115.38395508 112.9729541 115.93994141 113.6550293 C119.36289686 117.87090513 122.70106899 122.14214968 125.9921875 126.46142578 C126.79011719 127.49654297 127.58804687 128.53166016 128.41015625 129.59814453 C129.80127798 131.40290953 131.18062733 133.21686944 132.54296875 135.04345703 C133.12433594 135.77951172 133.70570313 136.51556641 134.3046875 137.27392578 C134.78292969 137.89912109 135.26117188 138.52431641 135.75390625 139.16845703 C138.66168138 141.18622133 141.25869287 140.98387517 144.6171875 140.46142578 C148.55124315 139.42818204 152.38621685 138.12707379 156.2421875 136.83642578 C170.52506564 132.2754557 184.86822889 129.09870932 199.6171875 126.46142578 C201.26799316 126.14383301 201.26799316 126.14383301 202.95214844 125.81982422 C239.80288088 118.90140346 283.40237739 119.00672925 320.3046875 125.33642578 C321.37557617 125.51351074 322.44646484 125.6905957 323.54980469 125.87304688 C330.2688845 127.0030832 336.92021718 128.29842645 343.5625 129.81689453 C346.77930151 130.49563142 349.98478562 130.95821847 353.2421875 131.39892578 C359.67881979 132.34182228 365.50886765 134.27932432 371.6171875 136.46142578 C373.88158394 137.25096792 376.15257981 138.02182964 378.4296875 138.77392578 C379.44675781 139.12068359 380.46382812 139.46744141 381.51171875 139.82470703 C385.39471678 140.62084373 387.79867853 140.59584829 391.6171875 139.46142578 C393.98516789 137.44713145 395.73331295 135.09343708 397.5546875 132.58642578 C398.07554932 131.90314209 398.59641113 131.2198584 399.13305664 130.51586914 C400.65070486 128.51355035 402.13944845 126.49331697 403.6171875 124.46142578 C404.65359375 123.03636719 404.65359375 123.03636719 405.7109375 121.58251953 C406.95567261 119.85518585 408.19779977 118.12597027 409.4375 116.39501953 C416.44768824 106.96016044 424.10900177 97.99120667 431.73144531 89.04833984 C434.59764252 85.68312659 437.40238797 82.27521872 440.1796875 78.83642578 C443.98414756 74.16081923 447.97270403 69.68937674 452.0625 65.26220703 C454.0475164 63.08597346 455.98247321 60.88609793 457.90625 58.65673828 C467.52698464 47.63325018 478.07286742 37.4403414 489.6171875 28.46142578 C491.12925781 27.18912109 491.12925781 27.18912109 492.671875 25.89111328 C540.7687748 -14.42808721 540.7687748 -14.42808721 566.3046875 -13.90576172 C575.85269728 -12.84737384 582.77321205 -6.81698 588.6171875 0.46142578 C613.96058408 37.49801113 621.21380325 86.78676641 626.3671875 130.27392578 C626.48280029 131.24330078 626.59841309 132.21267578 626.7175293 133.21142578 C628.54761302 149.68634803 628.85554885 166.21332064 628.8671875 182.77392578 C628.86819458 183.78033112 628.86920166 184.78673645 628.87023926 185.82363892 C628.85897723 202.56216571 627.94535855 218.8685482 625.6171875 235.46142578 C625.32376459 237.7191793 625.03080024 239.97699247 624.73828125 242.23486328 C621.38766406 267.14892928 615.68688283 291.36062478 608.6171875 315.46142578 C607.94636427 317.7936005 607.28128331 320.12732433 606.6171875 322.46142578 C605.9571875 322.46142578 605.2971875 322.46142578 604.6171875 322.46142578 C604.12412109 321.53136719 604.12412109 321.53136719 603.62109375 320.58251953 C592.65628346 300.16836054 580.32596135 279.99120649 565.34521484 262.27514648 C561.18861903 257.3154402 557.5727792 252.09789031 553.9921875 246.71142578 C549.19227833 239.54467222 544.23408649 233.13086117 538.13623047 226.99511719 C536.4344838 225.27696023 534.76299801 223.53164238 533.08984375 221.78564453 C525.12395416 213.55813573 516.80051049 206.29123384 507.6171875 199.46142578 C506.77671875 198.82205078 505.93625 198.18267578 505.0703125 197.52392578 C502.29513011 195.41721798 499.51742604 193.39491814 496.6171875 191.46142578 C499.52319011 190.204776 501.41323334 189.46142578 504.6171875 189.46142578 C504.74249667 178.54222498 504.74249667 178.54222498 499.6171875 169.46142578 C492.34488542 163.83341259 486.79584546 161.70250398 477.6171875 162.46142578 C471.05829261 163.53649276 466.86473551 165.32871078 462.7734375 170.64501953 C460.46076251 174.27810693 458.77920657 177.0410764 459.6171875 181.46142578 C461.98437803 183.47761951 461.98437803 183.47761951 465.1171875 185.02392578 C466.20515625 185.61431641 467.293125 186.20470703 468.4140625 186.81298828 C469.99960938 187.62896484 469.99960938 187.62896484 471.6171875 188.46142578 C472.46796875 188.90228516 473.31875 189.34314453 474.1953125 189.79736328 C475.99119986 190.70822702 477.80235866 191.58891192 479.6171875 192.46142578 C479.41738281 193.07888672 479.21757813 193.69634766 479.01171875 194.33251953 C478.33542475 197.31456756 478.10875143 199.43199419 478.6171875 202.46142578 C481.76558101 206.16078816 485.63464042 208.71778189 489.6171875 211.46142578 C499.79207929 219.1473825 508.72798975 227.90154824 516.984375 237.61376953 C518.73810312 239.59825135 520.59199427 241.42962059 522.4921875 243.27392578 C526.78984947 247.52228379 530.54522356 252.12246585 534.31298828 256.84082031 C535.71176274 258.57894552 537.12933762 260.30039025 538.55078125 262.02001953 C546.65914952 271.85545008 554.3812805 281.94949426 561.94677734 292.20751953 C563.36975881 294.12756702 564.81015027 296.03175302 566.26171875 297.93017578 C574.82621638 309.40631854 581.60695093 322.00157336 588.6171875 334.46142578 C589.50760742 336.03972168 589.50760742 336.03972168 590.41601562 337.64990234 C593.90536222 343.83910649 597.3722937 350.04050866 600.82714844 356.24902344 C602.68146067 359.57677035 604.54340503 362.90016762 606.40625 366.22314453 C631.14276328 410.41909022 652.73423844 456.40474392 662.6171875 506.46142578 C662.89647095 507.87210327 662.89647095 507.87210327 663.18139648 509.3112793 C664.71756207 518.01530689 664.95709857 526.56065339 664.93286133 535.37133789 C664.92970516 537.76055788 664.95324357 540.14852981 664.97851562 542.53759766 C665.03614002 556.34308574 662.87121257 569.20188698 658.9921875 582.46142578 C658.73840332 583.33114014 658.48461914 584.20085449 658.22314453 585.09692383 C648.40956778 617.83499264 633.14120302 648.78867993 611.6171875 675.46142578 C610.44929687 676.93289063 610.44929687 676.93289063 609.2578125 678.43408203 C599.44455758 690.54708159 588.23189665 701.71224394 576.43286133 711.88427734 C573.91192766 714.07403551 571.48888323 716.36354551 569.0546875 718.64892578 C558.54412307 728.36704049 547.18173792 736.97586521 535.45800781 745.16650391 C533.53947982 746.51608911 531.63602215 747.88504593 529.734375 749.25830078 C507.2841239 765.40596967 483.42271519 779.54064554 459.58984375 793.53173828 C456.83250222 795.15069969 454.09044664 796.78392018 451.36328125 798.45361328 C441.22019701 804.62509685 430.38869514 809.50444071 419.6171875 814.46142578 C418.99871948 814.74626831 418.38025146 815.03111084 417.74304199 815.32458496 C378.65723608 833.2934553 338.38989046 848.0201457 296.6171875 858.46142578 C295.83134277 858.65881348 295.04549805 858.85620117 294.23583984 859.05957031 C242.71827174 871.31063059 184.35877272 846.24159173 137.6171875 826.46142578 C136.37134938 825.94030641 135.12525212 825.41980616 133.87890625 824.89990234 C107.48486368 813.8726115 82.07265486 801.47791775 57.72802734 786.38232422 C54.58525297 784.44170667 51.42611733 782.53061007 48.26171875 780.62548828 C17.0372786 761.7511546 -14.59335218 741.36083215 -41.3828125 716.46142578 C-42.39798847 715.52604238 -43.41363904 714.59117388 -44.4296875 713.65673828 C-46.62926271 711.63265048 -48.82384187 709.60332161 -51.015625 707.57080078 C-53.24729385 705.50381638 -55.49235574 703.45312091 -57.75 701.41455078 C-98.48243285 664.53042893 -132.28847599 607.09191084 -136.3828125 551.46142578 C-137.83058119 521.46700705 -132.11163963 493.76446602 -122.3828125 465.46142578 C-122.07005371 464.54522461 -121.75729492 463.62902344 -121.43505859 462.68505859 C-110.39305852 430.57938834 -96.54206752 400.78144797 -79.7265625 371.33251953 C-76.86990887 366.32918458 -74.05369047 361.30435392 -71.24902344 356.27172852 C-42.71752435 305.10145302 -42.71752435 305.10145302 -25.75048828 284.16015625 C-23.86201939 281.81457136 -22.01063445 279.44078551 -20.15795898 277.06689453 C-12.87257658 267.73753998 -5.47825421 258.54859714 2.5 249.79736328 C4.40798953 247.6922383 6.26765819 245.55528944 8.1171875 243.39892578 C11.38452278 239.63997756 14.89435699 236.1657597 18.44140625 232.67236328 C20.37484173 230.70768737 22.15947184 228.69690187 23.9296875 226.58642578 C31.08702769 218.28853946 39.30392699 211.2874643 48.53515625 205.41064453 C50.84589946 203.56581034 50.84589946 203.56581034 51.54296875 200.54345703 C51.62162569 197.27712429 51.06631338 195.35967754 49.6171875 192.46142578 C50.18751709 192.16373291 50.75784668 191.86604004 51.34545898 191.55932617 C53.91621112 190.21611408 56.48546402 188.87005931 59.0546875 187.52392578 C59.95251953 187.05535156 60.85035156 186.58677734 61.77539062 186.10400391 C62.62939453 185.65605469 63.48339844 185.20810547 64.36328125 184.74658203 C65.15404053 184.33287354 65.9447998 183.91916504 66.75952148 183.49291992 C68.57284025 182.59741827 68.57284025 182.59741827 69.6171875 181.46142578 C70.23360881 176.16020249 68.85890701 173.60362293 65.6171875 169.46142578 C60.16570435 163.13067115 53.75938009 162.86885456 45.8046875 162.08642578 C39.86753588 162.17883281 34.20476242 165.04517432 29.90625 169.05908203 C26.01027455 173.64192021 25.43144143 176.66600682 25.0546875 182.58642578 C24.97089844 183.86775391 24.88710938 185.14908203 24.80078125 186.46923828 C24.74019531 187.45666016 24.67960938 188.44408203 24.6171875 189.46142578 C25.5865625 189.58517578 26.5559375 189.70892578 27.5546875 189.83642578 C28.5653125 190.04267578 29.5759375 190.24892578 30.6171875 190.46142578 C30.9471875 191.12142578 31.2771875 191.78142578 31.6171875 192.46142578 C31.08351563 192.87392578 30.54984375 193.28642578 30 193.71142578 C27.5345484 195.62236405 25.07489758 197.54054093 22.6171875 199.46142578 C21.80121094 200.09822266 20.98523438 200.73501953 20.14453125 201.39111328 C2.91140173 214.9919033 -13.19166955 230.14140222 -25.3828125 248.46142578 C-29.12249976 253.62447696 -32.92136595 258.74092642 -37.015625 263.62939453 C-52.02211389 281.63874383 -64.12587952 301.95642839 -75.3828125 322.46142578 C-76.0428125 322.46142578 -76.7028125 322.46142578 -77.3828125 322.46142578 C-95.105633 255.40427894 -103.15612864 189.746598 -95.3828125 120.46142578 C-95.23827637 119.16769043 -95.09374023 117.87395508 -94.94482422 116.54101562 C-91.25837221 84.88161884 -84.74566923 53.78680643 -72.8828125 24.14892578 C-72.44428955 23.04597168 -72.0057666 21.94301758 -71.55395508 20.80664062 C-66.21381547 7.89876593 -58.59594357 -6.44020603 -45.3828125 -12.53857422 C-30.1012037 -17.04587702 -12.6178715 -8.14731825 0 0 Z " fill="#F79E3E" transform="translate(247.3828125,84.53857421875)"/>
<path d="M0 0 C0.63953613 0.23605957 1.27907227 0.47211914 1.93798828 0.71533203 C15.1534505 5.71098933 26.21501559 13.22140774 37.2878418 21.88208008 C53.4885283 34.54639867 70.71109835 43.73994361 91 48 C91.77682129 48.17128418 92.55364258 48.34256836 93.35400391 48.51904297 C113.48852172 52.17885106 134.81842674 47.95167144 152 37 C154.30994099 35.15204721 156.40196655 33.30911516 158.421875 31.15234375 C160 30 160 30 161.95703125 30.11328125 C164.38583289 31.16746475 165.98061321 32.46748926 167.9375 34.25 C168.63617188 34.88164063 169.33484375 35.51328125 170.0546875 36.1640625 C171.59209492 37.61502934 173.08580488 39.11228792 174.5625 40.625 C178.26333713 44.23094387 182.06805538 47.35601846 187 49 C186.80664062 49.56847656 186.61328125 50.13695312 186.4140625 50.72265625 C186.02347656 51.88087891 186.02347656 51.88087891 185.625 53.0625 C185.24214844 54.19365234 185.24214844 54.19365234 184.8515625 55.34765625 C184.43003906 56.66056641 184.43003906 56.66056641 184 58 C183.64550781 59.0209375 183.29101562 60.041875 182.92578125 61.09375 C178.25524169 77.78035498 182.19331514 96.21657566 190 111.1875 C200.90996428 128.59600822 219.81228286 140.8926755 239.6965332 145.6003418 C244.42438401 146.42063769 249.21556001 146.69698547 254 147 C254.14892693 152.4259046 254.25748635 157.85060596 254.32958984 163.27807617 C254.35966233 165.12203712 254.4005326 166.96585621 254.45263672 168.80932617 C254.52587858 171.46829291 254.55955005 174.12536075 254.5859375 176.78515625 C254.61690521 177.60210464 254.64787292 178.41905304 254.67977905 179.26075745 C254.68298914 184.78778159 253.40380796 187.57437639 249.56427002 191.55429077 C233.17378415 206.70249177 213.77203843 213.17456108 191.75 213.1875 C190.66847656 213.19974609 189.58695312 213.21199219 188.47265625 213.22460938 C171.99734932 213.25441994 156.90034063 208.45793535 144 198 C143.22011719 197.38253906 142.44023437 196.76507812 141.63671875 196.12890625 C127.75771329 184.53585463 119.13398203 166.86262114 117 149 C115.68982178 130.30566678 115.68982178 130.30566678 119 123 C119.60645793 118.42335816 119.83533158 114.40335706 117.4375 110.375 C114.08415501 108.48336949 111.82578928 108.72701193 108 109 C96.7885092 112.97126838 87.75585217 119.52481773 81.9375 130.0625 C79.88117674 134.66235901 79.12444319 138.00932621 80 143 C82.88530585 145.97838023 85.59095511 146.17135555 89.5625 146.25 C92.52654711 146.18835604 95.14584031 145.80253016 98 145 C98.08636719 145.93457031 98.17273438 146.86914062 98.26171875 147.83203125 C100.75931466 172.1428015 108.15845924 195.04250112 127.54296875 211.16796875 C151.8407828 229.28509878 181.13386331 233.93579369 210.89550781 230.68359375 C231.10581121 227.49453017 247.83806314 218.36078479 263 205 C266.23128051 206.42176343 268.35909765 208.16783467 270.875 210.625 C290.31330541 228.18320702 315.72271662 232.12873505 340.98535156 231.17285156 C366.05301708 229.73554129 388.38834904 223.41435344 406.125 204.8125 C421.06690552 187.82986327 427.64517928 167.12292101 430 145 C430.556875 145.15984375 431.11375 145.3196875 431.6875 145.484375 C434.17651299 146.03935763 436.45123461 146.20337624 439 146.25 C439.845625 146.27578125 440.69125 146.3015625 441.5625 146.328125 C444.5466489 145.92641265 445.87130887 145.10938327 448 143 C449.11100397 135.96364149 446.85432285 130.85420734 443 125 C437.00750206 117.23006623 429.1904123 112.25537383 420 109 C415.24633266 108.48814951 415.24633266 108.48814951 411.125 110.375 C409.20851488 113.14325629 408.84082951 114.91844964 408.8125 118.25 C408.79123047 119.37148438 408.79123047 119.37148438 408.76953125 120.515625 C408.89764786 123.07845014 408.89764786 123.07845014 409.98828125 125.640625 C415.25700269 143.1352213 409.39976282 161.86120256 401.1328125 177.30078125 C392.1374393 193.33831651 377.14413065 205.24335194 359.5625 210.4375 C350.7794674 212.7499159 342.35058885 213.2086594 333.3125 213.25 C332.20455078 213.270625 331.09660156 213.29125 329.95507812 213.3125 C319.11117254 213.36320207 309.42811529 211.30051393 299.8125 206.25 C299.13179443 205.89929443 298.45108887 205.54858887 297.74975586 205.18725586 C293.24949037 202.80855177 289.00608594 200.29184631 285.18652344 196.89331055 C283.03877608 194.96246364 283.03877608 194.96246364 280.65429688 193.38867188 C277.26261986 190.73395184 274.51758975 188.27156035 273.52731323 183.92550659 C272.86869398 177.93718878 273.18049293 171.94241363 273.4375 165.9375 C273.48270357 164.09970761 273.52375784 162.26180821 273.56054688 160.42382812 C273.65913804 155.94655214 273.81408037 151.47446572 274 147 C274.99290039 146.88172852 275.98580078 146.76345703 277.00878906 146.64160156 C299.73093593 143.84073276 319.02593057 134.71851302 334 117 C345.08783659 101.16815994 348.79280212 82.82842301 345.61914062 63.70507812 C344.73553162 60.00834657 343.46306664 56.50195871 342 53 C341.67 52.01 341.34 51.02 341 50 C341.64066406 49.64808594 342.28132813 49.29617188 342.94140625 48.93359375 C351.71694886 43.92460296 357.57306483 37.6809713 364 30 C367.93033761 30.51910119 369.79267773 31.38049891 372.5625 34.1875 C387.22984543 47.59136623 407.41784918 49.66418925 426.35253906 49.13183594 C453.62783587 47.77360463 479.59317943 33.22845436 500.29003906 16.38330078 C511.88379657 7.00434161 524.59290219 0.81726523 539 -3 C539.6089209 -3.1757959 540.2178418 -3.3515918 540.84521484 -3.53271484 C552.55412939 -6.07190161 567.82950016 -5.11891587 579 -1 C580.05960938 -0.63648438 581.11921875 -0.27296875 582.2109375 0.1015625 C606.24135279 8.78388038 626.0632909 25.86313526 637 49 C637.31372559 49.64549805 637.62745117 50.29099609 637.95068359 50.95605469 C651.15022811 78.34665881 661.50388707 115.88539596 652.109375 145.96875 C649.82485958 152.19026893 646.97327427 158.08470521 644 164 C643.19460882 165.73424583 642.39490666 167.47114768 641.6015625 169.2109375 C633.5223965 186.55039471 623.01148446 203.11526476 611 218 C610.22140625 218.98097656 609.4428125 219.96195313 608.640625 220.97265625 C598.82737008 233.08565581 587.61470915 244.25081816 575.81567383 254.42285156 C573.29474016 256.61260973 570.87169573 258.90211973 568.4375 261.1875 C557.92693557 270.90561471 546.56455042 279.51443943 534.84082031 287.70507812 C532.92229232 289.05466333 531.01883465 290.42362015 529.1171875 291.796875 C506.6669364 307.94454389 482.80552769 322.07921976 458.97265625 336.0703125 C456.21531472 337.68927391 453.47325914 339.3224944 450.74609375 340.9921875 C440.60300951 347.16367107 429.77150764 352.04301493 419 357 C418.38153198 357.28484253 417.76306396 357.56968506 417.12585449 357.86315918 C378.04004858 375.83202952 337.77270296 390.55871992 296 401 C295.21415527 401.1973877 294.42831055 401.39477539 293.61865234 401.59814453 C242.10108424 413.84920481 183.74158522 388.78016595 137 369 C135.75416188 368.47888062 134.50806462 367.95838038 133.26171875 367.43847656 C106.86767618 356.41118572 81.45546736 344.01649197 57.11083984 328.92089844 C53.96806547 326.98028089 50.80892983 325.06918429 47.64453125 323.1640625 C16.4200911 304.28972882 -15.21053968 283.89940637 -42 259 C-43.01517597 258.0646166 -44.03082654 257.1297481 -45.046875 256.1953125 C-47.24645021 254.1712247 -49.44102937 252.14189583 -51.6328125 250.109375 C-53.86448135 248.0423906 -56.10954324 245.99169513 -58.3671875 243.953125 C-83.23113167 221.43827179 -102.72165394 193.27302755 -117 163 C-117.73669922 161.47463623 -117.73669922 161.47463623 -118.48828125 159.91845703 C-129.69689519 136.1962685 -129.49311514 113.08392903 -123 88 C-122.60855735 86.36118195 -122.21926012 84.72185007 -121.83203125 83.08203125 C-119.39379945 73.02145332 -116.3500618 63.41674534 -112 54 C-111.68047363 53.30632324 -111.36094727 52.61264648 -111.03173828 51.89794922 C-106.06054141 41.3391743 -100.29609705 33.16306925 -92 25 C-91.26007813 24.20207031 -90.52015625 23.40414062 -89.7578125 22.58203125 C-67.69199353 -0.8982633 -30.55035356 -11.37620901 0 0 Z " fill="#FEF2E1" transform="translate(248,542)"/>
<path d="M0 0 C7.84227697 5.76248081 15.46497759 11.80252315 22.90234375 18.078125 C23.42521973 18.5107666 23.9480957 18.9434082 24.48681641 19.38916016 C33.04273832 26.47736089 41.04270445 34.03783804 48.90234375 41.890625 C49.78647949 42.77395508 50.67061523 43.65728516 51.58154297 44.56738281 C55.9902694 49.01379067 60.2567818 53.52638258 64.33789062 58.27514648 C66.2428482 60.47054469 68.22720058 62.57998838 70.22460938 64.69091797 C76.41203179 71.24442249 82.00661556 78.12843266 87.49609375 85.26904297 C89.42598477 87.75176735 91.40483673 90.1934294 93.38305664 92.63769531 C97.90075002 98.22183439 102.25983999 103.87982963 106.46484375 109.703125 C108.26779543 112.16859735 110.08321854 114.62457178 111.90234375 117.078125 C112.3705957 117.71717773 112.83884766 118.35623047 113.32128906 119.01464844 C114.71537052 120.89337989 116.14560101 122.73779471 117.58984375 124.578125 C118.00500244 125.14869629 118.42016113 125.71926758 118.84790039 126.30712891 C120.21507156 128.11616988 120.21507156 128.11616988 122.90234375 130.078125 C125.99367478 130.09122386 127.9860905 129.84446769 130.90234375 129.078125 C132.07083862 128.78808594 132.07083862 128.78808594 133.26293945 128.4921875 C135.92316446 127.80293205 138.56787093 127.06655782 141.21484375 126.328125 C160.77033046 121.07170192 180.68905779 117.43080733 200.90234375 116.078125 C201.70269043 116.02172852 202.50303711 115.96533203 203.32763672 115.90722656 C251.25479751 112.71397201 299.59067919 114.86439866 345.91455078 128.3371582 C351.96860183 130.31179162 351.96860183 130.31179162 357.90234375 129.078125 C360.24604425 126.63563422 362.18588317 123.95301974 364.15234375 121.203125 C365.30983455 119.63701227 366.46869022 118.07190738 367.62890625 116.5078125 C368.1899707 115.74436523 368.75103516 114.98091797 369.32910156 114.19433594 C376.05664333 105.14493618 383.59139272 96.66001546 390.90234375 88.078125 C391.4020166 87.49063477 391.90168945 86.90314453 392.41650391 86.29785156 C398.80460153 78.79127863 405.25552309 71.3579762 411.90234375 64.078125 C413.13210938 62.70914063 413.13210938 62.70914063 414.38671875 61.3125 C420.88343585 54.1262201 427.64207377 47.20451795 434.46484375 40.328125 C435.3269043 39.45309326 436.18896484 38.57806152 437.07714844 37.67651367 C443.03788236 31.707316 449.31533839 26.34030657 455.90234375 21.078125 C456.92969853 20.21450442 457.95310141 19.34610756 458.96875 18.46875 C485.541607 -4.31986602 515.56044866 -25.53869872 551.90234375 -22.921875 C565.02502792 -21.06282808 575.25306179 -12.73008475 583.10693359 -2.32617188 C597.57662727 18.1142876 604.92781281 40.9974965 610.078125 65.23925781 C610.80233099 68.61230727 611.55205168 71.97786475 612.31323242 75.34265137 C616.55979768 94.17174172 620.00946386 113.04608553 622.83984375 132.140625 C622.98936493 133.14427094 623.13888611 134.14791687 623.29293823 135.18197632 C626.12671054 154.35015322 627.14240562 173.01648587 627.15234375 192.390625 C627.15335587 194.16280899 627.15335587 194.16280899 627.15438843 195.97079468 C627.13727788 214.86675859 626.48341738 233.34245057 623.90234375 252.078125 C623.81277405 252.73455994 623.72320435 253.39099487 623.63092041 254.06732178 C619.29174695 285.70339515 612.43408651 316.53989875 603.17431641 347.09960938 C602.38098018 349.75041378 601.63799512 352.41088262 600.90234375 355.078125 C600.54914062 356.2228125 600.1959375 357.3675 599.83203125 358.546875 C599.94744826 364.34337388 602.97728207 368.65124564 605.83984375 373.578125 C607.05732931 375.7499789 608.27477738 377.92185381 609.4921875 380.09375 C610.62839612 382.08883227 611.76505669 384.08365729 612.90234375 386.078125 C636.62760102 428.27788843 655.67150326 475.10978823 662.90234375 523.078125 C663.0223877 523.86541992 663.14243164 524.65271484 663.26611328 525.46386719 C671.36932664 580.65266755 654.19175179 639.22594353 621.71484375 684.078125 C621.10125 684.8825 620.48765625 685.686875 619.85546875 686.515625 C617.92108434 689.05353734 616.08184192 691.64066365 614.24926758 694.25219727 C601.62587867 712.19751672 586.63127353 729.0762947 569.91796875 743.34375 C567.60119754 745.33725081 565.34814391 747.39366888 563.08984375 749.453125 C552.70358928 758.78820265 541.6569018 767.0669965 530.37646484 775.27734375 C527.98260386 777.01970793 525.59276349 778.7674766 523.203125 780.515625 C508.75296167 791.05496431 493.90863533 800.8746251 478.72412109 810.32226562 C476.74333192 811.5548176 474.76467307 812.79079659 472.78759766 814.02929688 C423.42200017 844.88188315 369.77031833 868.74479398 314.22558594 886.04296875 C311.48128494 886.89779069 308.74197222 887.76614558 306.00390625 888.640625 C265.75619411 901.25572017 226.50991592 901.99291178 185.90234375 891.078125 C184.80535156 890.78663574 183.70835937 890.49514648 182.578125 890.19482422 C120.69507537 873.60103899 63.53392077 846.29533529 8.90234375 813.078125 C8.06751465 812.5713623 7.23268555 812.06459961 6.37255859 811.54248047 C-14.81339593 798.60624228 -35.84415456 784.69241221 -55.40771484 769.39892578 C-57.19885558 767.99903104 -59.00123052 766.61445151 -60.8046875 765.23046875 C-66.95410312 760.48517375 -72.91079838 755.61798645 -78.62109375 750.34375 C-79.95525239 749.12322633 -81.2964692 747.90937555 -82.67504883 746.73925781 C-89.15948504 741.21729462 -95.15157331 735.21030263 -101.16967773 729.19140625 C-103.02243093 727.34083533 -104.88304331 725.49842424 -106.74414062 723.65625 C-113.65990263 716.77303982 -120.0896615 709.77946756 -126.09765625 702.078125 C-126.94224921 701.04023099 -127.78824938 700.00347749 -128.63671875 698.96875 C-167.62321208 649.61506182 -189.52157157 587.98758515 -182.4140625 524.87109375 C-181.58243722 518.87844595 -180.44466513 512.97503054 -179.09765625 507.078125 C-178.88866699 506.16144043 -178.67967773 505.24475586 -178.46435547 504.30029297 C-167.45687001 457.73904176 -145.24293622 409.08107214 -120.77392578 367.98217773 C-118.07259669 363.37534414 -116.51501973 360.32750779 -117.8828125 355.046875 C-118.30433594 353.9021875 -118.72585937 352.7575 -119.16015625 351.578125 C-119.63525302 350.23048024 -120.10639628 348.8814372 -120.57421875 347.53125 C-120.82461914 346.81001953 -121.07501953 346.08878906 -121.33300781 345.34570312 C-130.55598672 317.99480017 -135.88128667 289.12454095 -140.22265625 260.640625 C-140.38137207 259.61839844 -140.54008789 258.59617187 -140.70361328 257.54296875 C-141.21741089 254.0593021 -141.66997375 250.5734674 -142.09765625 247.078125 C-142.187659 246.34658203 -142.27766174 245.61503906 -142.37039185 244.86132812 C-144.35233555 228.12615301 -144.37323298 211.42331175 -144.29327393 194.60174561 C-144.28244566 191.73567502 -144.28285591 188.86965137 -144.28326607 186.00356388 C-144.28267334 165.88538745 -144.26121361 145.83750786 -141.34765625 125.890625 C-141.17065186 124.65997314 -140.99364746 123.42932129 -140.8112793 122.16137695 C-134.77062719 81.32719928 -125.18832415 27.49528786 -98.09765625 -4.921875 C-97.29134766 -5.98535156 -97.29134766 -5.98535156 -96.46875 -7.0703125 C-71.49492372 -38.48317351 -26.45172202 -19.07259299 0 0 Z M-81.09765625 11.078125 C-109.99050624 45.94880602 -115.61258865 100.68657661 -120.09765625 144.078125 C-120.2177002 145.20782715 -120.33774414 146.3375293 -120.46142578 147.50146484 C-127.05598735 212.17927359 -117.59038906 274.67521312 -101.09765625 337.078125 C-100.43765625 337.078125 -99.77765625 337.078125 -99.09765625 337.078125 C-98.6078125 336.12679688 -98.11796875 335.17546875 -97.61328125 334.1953125 C-87.27168852 314.64282701 -74.87658929 295.33925223 -60.55859375 278.45019531 C-56.15922432 273.25951073 -52.24462718 267.79884019 -48.40429688 262.18432617 C-41.6150733 252.31430924 -33.96446029 243.58371888 -25.47265625 235.140625 C-24.99165466 234.66044922 -24.51065308 234.18027344 -24.01507568 233.68554688 C-16.47543497 226.17559348 -8.72590699 219.30312655 -0.09765625 213.078125 C1.52886536 211.85097254 3.1541185 210.62213443 4.77734375 209.390625 C5.80859375 208.6275 6.83984375 207.864375 7.90234375 207.078125 C7.57234375 206.418125 7.24234375 205.758125 6.90234375 205.078125 C3.87299884 204.42040072 3.87299884 204.42040072 0.90234375 204.078125 C1.32487896 188.65558979 1.32487896 188.65558979 5.90234375 184.078125 C12.48327301 179.06805047 17.46792126 176.49341634 25.90234375 177.078125 C34.6123015 178.35345991 39.55462437 181.09638026 44.90234375 188.078125 C46.25674043 190.78691835 45.96735826 193.08745768 45.90234375 196.078125 C43.31966962 197.53763619 40.73623634 198.99577381 38.15234375 200.453125 C37.05792969 201.071875 37.05792969 201.071875 35.94140625 201.703125 C35.23242188 202.10273438 34.5234375 202.50234375 33.79296875 202.9140625 C33.14360352 203.28063965 32.49423828 203.6472168 31.82519531 204.02490234 C29.87397184 205.09366543 27.89823819 206.09571003 25.90234375 207.078125 C26.25296875 207.779375 26.60359375 208.480625 26.96484375 209.203125 C28.12550612 212.7624896 27.96478642 214.49013005 26.90234375 218.078125 C24.97053766 219.90809946 23.26016989 221.28935784 21.08984375 222.765625 C19.89130221 223.63619674 18.69605957 224.5113256 17.50390625 225.390625 C16.59560059 226.05771484 16.59560059 226.05771484 15.66894531 226.73828125 C6.00226733 234.06978053 -2.14049149 243.22304213 -10.30224609 252.13427734 C-12.08729034 254.06690208 -13.89437503 255.97591097 -15.7109375 257.87890625 C-22.31445527 264.81318414 -28.50171447 271.88691472 -34.32421875 279.48828125 C-36.77948665 282.69214955 -39.31819686 285.81994259 -41.88061523 288.93847656 C-59.17574814 309.99785929 -73.17399028 332.28925268 -86.4296875 356.08496094 C-88.12645758 359.12980889 -89.82986214 362.17085618 -91.53515625 365.2109375 C-93.87555833 369.38365605 -96.21257936 373.55823749 -98.546875 377.734375 C-100.93751002 382.00964162 -103.33660323 386.28000288 -105.7421875 390.546875 C-108.68585212 395.7708879 -111.61295311 401.00379319 -114.52392578 406.24609375 C-115.51343285 408.02677666 -116.50613281 409.80569283 -117.50341797 411.58203125 C-125.32583342 425.56376003 -131.3321872 440.14523942 -137.09765625 455.078125 C-137.56880859 456.29000488 -138.03996094 457.50188477 -138.52539062 458.75048828 C-162.04219761 519.63591865 -167.05433215 573.04357856 -140.46142578 634.05371094 C-126.46066563 665.10301577 -105.32755001 695.95809444 -79.33984375 718.34765625 C-75.94649639 721.30354327 -72.66766397 724.35406374 -69.41870117 727.46704102 C-62.24476677 734.32777392 -54.89767332 740.73083683 -46.95556641 746.68261719 C-45.04784896 748.1155361 -43.15703817 749.56908583 -41.265625 751.0234375 C-18.32409597 768.45867709 6.17965873 784.29931579 30.90234375 799.078125 C31.9687207 799.72265625 33.03509766 800.3671875 34.13378906 801.03125 C100.95604651 841.40505205 198.63275433 890.91321648 278.58984375 871.640625 C329.12343492 858.9028692 381.03889297 840.02419854 426.21484375 813.828125 C427.16649414 813.28293213 428.11814453 812.73773926 429.09863281 812.17602539 C432.03883906 810.48625447 434.97159771 808.78424314 437.90234375 807.078125 C438.84577637 806.53075684 439.78920898 805.98338867 440.76123047 805.41943359 C477.05983664 784.31792754 514.01204314 761.74818526 544.90234375 733.078125 C546.42547491 731.676152 547.95043945 730.27620114 549.47607422 728.87695312 C550.93542005 727.5374969 552.39164471 726.1946424 553.84765625 724.8515625 C556.12461541 722.76482549 558.44557897 720.73556729 560.78125 718.71484375 C572.38333294 708.58708904 582.8474988 697.53223568 591.90234375 685.078125 C592.64484375 684.06878906 593.38734375 683.05945313 594.15234375 682.01953125 C617.94675662 648.66486321 640.68600499 604.83329968 641.140625 562.9765625 C641.15538376 561.85114296 641.15538376 561.85114296 641.17044067 560.70298767 C641.34358611 544.06997651 641.04201536 528.28544129 636.90234375 512.078125 C636.6609668 511.08409668 636.41958984 510.09006836 636.17089844 509.06591797 C625.42102595 465.04552818 607.1148082 423.91916821 584.87744141 384.59326172 C582.85222789 381.00006805 580.86380082 377.38725369 578.8828125 373.76953125 C563.18391582 345.1048248 546.96816735 317.91183643 526.90234375 292.078125 C526.35835937 291.37671387 525.814375 290.67530273 525.25390625 289.95263672 C522.16265468 285.97345116 519.04270123 282.01866972 515.90234375 278.078125 C515.15984375 277.14097656 514.41734375 276.20382812 513.65234375 275.23828125 C508.26626692 268.53453919 502.52917502 262.20098086 496.64453125 255.93798828 C494.7428197 253.90782593 492.85369131 251.86635214 490.96484375 249.82421875 C480.74172529 238.80909147 470.38975448 228.6801002 458.23828125 219.79296875 C455.90234375 218.078125 455.90234375 218.078125 454.90234375 217.078125 C454.74416731 213.51915515 454.96689465 210.50068084 455.90234375 207.078125 C455.40307373 206.81596191 454.90380371 206.55379883 454.3894043 206.28369141 C452.12198681 205.09186741 449.8559055 203.89752456 447.58984375 202.703125 C446.80416016 202.290625 446.01847656 201.878125 445.20898438 201.453125 C444.45166016 201.05351562 443.69433594 200.65390625 442.9140625 200.2421875 C442.21756592 199.87561035 441.52106934 199.5090332 440.8034668 199.13134766 C439.1197915 198.19859111 437.50386168 197.14580362 435.90234375 196.078125 C436.44227627 189.32896845 438.76608094 184.52389965 443.90234375 180.078125 C451.34522411 176.81346809 459.2251088 175.68240294 467.02734375 178.203125 C471.85809198 180.24170075 476.13844083 183.42631149 479.05859375 187.81640625 C480.239173 190.9810145 480.34043851 193.96383077 480.52734375 197.328125 C480.60210938 198.59140625 480.676875 199.8546875 480.75390625 201.15625 C480.80289063 202.12046875 480.851875 203.0846875 480.90234375 204.078125 C479.47921875 204.26375 479.47921875 204.26375 478.02734375 204.453125 C474.81567184 204.79499677 474.81567184 204.79499677 472.90234375 207.078125 C473.91941406 207.63371094 474.93648437 208.18929687 475.984375 208.76171875 C479.77565454 210.93210962 483.17899936 213.41976244 486.58984375 216.140625 C487.19578369 216.62176758 487.80172363 217.10291016 488.42602539 217.59863281 C494.51267756 222.48578389 500.26823538 227.67855869 505.90234375 233.078125 C506.50224121 233.64547363 507.10213867 234.21282227 507.72021484 234.79736328 C516.07716257 242.73187658 523.34353163 250.76354524 529.74169922 260.34863281 C531.70400502 263.27269135 533.73725676 266.14550853 535.77734375 269.015625 C536.18799072 269.59642822 536.5986377 270.17723145 537.02172852 270.77563477 C539.60806431 274.39350623 542.32821258 277.85534422 545.16503906 281.27929688 C552.74944701 290.45229716 559.01491851 300.32350126 565.265625 310.43798828 C566.78535917 312.88942105 568.32311311 315.32805407 569.87109375 317.76171875 C570.7566218 319.15878357 571.6420458 320.55591435 572.52734375 321.953125 C572.91680176 322.56406006 573.30625977 323.17499512 573.70751953 323.80444336 C576.40499636 328.10009504 578.685964 332.51499022 580.90234375 337.078125 C581.56234375 337.078125 582.22234375 337.078125 582.90234375 337.078125 C593.15745152 302.05481062 600.31113987 267.47729874 603.90234375 231.078125 C604.02734001 229.97301575 604.02734001 229.97301575 604.15486145 228.84558105 C604.80861614 222.86401236 605.06194207 216.96809233 605.0703125 210.953125 C605.07666466 209.5485051 605.07666466 209.5485051 605.08314514 208.11550903 C605.09297426 205.10300128 605.09307395 202.09064587 605.08984375 199.078125 C605.0892395 198.04524353 605.08863525 197.01236206 605.0880127 195.94818115 C605.06301414 180.22500473 604.66400439 164.71525675 602.90234375 149.078125 C602.7734375 147.86688965 602.64453125 146.6556543 602.51171875 145.40771484 C599.58121919 118.23615003 595.35997102 91.13704344 586.90234375 65.078125 C586.63309082 64.2428125 586.36383789 63.4075 586.08642578 62.546875 C575.2148265 27.59493533 575.2148265 27.59493533 550.58984375 2.453125 C542.85493563 -0.39299436 534.69623425 0.03921133 527.08984375 3.015625 C513.97520453 9.15879811 501.78283609 16.84106924 489.90234375 25.078125 C489.03295166 25.67512207 489.03295166 25.67512207 488.14599609 26.28417969 C473.45700342 36.39709768 459.73091879 47.69460026 446.90234375 60.078125 C445.97542725 60.97217041 445.97542725 60.97217041 445.02978516 61.88427734 C437.93290429 68.76809199 431.1381022 75.69374843 425.0078125 83.46875 C422.74120023 86.27783534 420.34931341 88.92505529 417.90234375 91.578125 C413.91466653 95.92053424 410.1287321 100.37126177 406.4296875 104.9609375 C404.55186459 107.29050442 402.64210258 109.59069897 400.71875 111.8828125 C394.40796872 119.42520535 388.32983853 127.07363661 382.52734375 135.015625 C381.93985352 135.81661621 381.35236328 136.61760742 380.74707031 137.44287109 C377.66827663 141.64167849 377.66827663 141.64167849 374.62841797 145.86865234 C373.59110506 147.32588307 372.5291992 148.76552737 371.46484375 150.203125 C370.92988281 150.94820312 370.39492188 151.69328125 369.84375 152.4609375 C366.93032078 154.88781818 364.65416275 154.95697251 360.90234375 155.078125 C358.24816992 154.46303075 355.88422091 153.79516637 353.33984375 152.890625 C351.92097353 152.41936502 350.50169473 151.94933363 349.08203125 151.48046875 C348.37788086 151.24312012 347.67373047 151.00577148 346.94824219 150.76123047 C336.76458545 147.36100713 326.602351 145.17808949 316.04150391 143.44140625 C313.26162437 142.96931532 310.4946121 142.43934713 307.72631836 141.90405273 C265.88677728 133.82458801 217.84587475 133.00875461 175.90234375 141.078125 C174.70383789 141.29243164 173.50533203 141.50673828 172.27050781 141.72753906 C157.61738898 144.35935413 143.41001244 147.81054161 129.28588867 152.53808594 C119.07695914 155.90845481 119.07695914 155.90845481 113.90234375 155.078125 C111.6015625 153.34765625 111.6015625 153.34765625 109.58984375 150.890625 C108.82542969 149.97152344 108.06101562 149.05242187 107.2734375 148.10546875 C104.02997082 143.96430454 100.80368968 139.81217432 97.625 135.62109375 C94.69008843 131.77300264 91.64833359 128.01582932 88.58984375 124.265625 C88.04521484 123.59740723 87.50058594 122.92918945 86.93945312 122.24072266 C84.69588884 119.49150159 82.44892334 116.7450869 80.19970703 114.00048828 C74.04999084 106.49398322 67.9601031 98.99879031 62.29296875 91.1171875 C55.61745591 82.63099634 47.98106155 74.99864417 40.33984375 67.390625 C39.44587891 66.49279297 38.55191406 65.59496094 37.63085938 64.66992188 C32.54980035 59.59629673 27.36985741 54.73103251 21.90234375 50.078125 C20.78436631 49.10507352 19.66714991 48.1311468 18.55078125 47.15625 C-17.57682175 14.39371784 -17.57682175 14.39371784 -62.51171875 0.87109375 C-70.39479157 1.50221589 -75.78314125 5.42073806 -81.09765625 11.078125 Z " fill="#1B1913" transform="translate(271.09765625,69.921875)"/>
<path d="M0 0 C2.65691679 0.00314829 5.31270322 -0.02034228 7.96948242 -0.0456543 C22.6751601 -0.10054881 36.88339098 1.59453015 51.0534668 5.69067383 C51.80176758 5.905625 52.55006836 6.12057617 53.32104492 6.34204102 C65.70487607 10.04637479 76.45061376 17.55010193 83.20605469 28.82250977 C87.27167635 36.71119082 87.97201146 45.08466301 87.8659668 53.81567383 C87.87756836 54.77086914 87.88916992 55.72606445 87.90112305 56.71020508 C87.83151649 73.85662074 80.46588763 88.36229062 68.4909668 100.31567383 C67.93924805 100.93829102 67.3875293 101.5609082 66.8190918 102.20239258 C56.45994715 113.61283656 39.59368288 121.03356808 24.4909668 123.31567383 C21.15492869 123.40802743 17.82725151 123.38598498 14.4909668 123.31567383 C14.36084422 128.6698917 14.30487181 134.01822882 14.31396484 139.37402344 C14.30704052 141.19061261 14.28077133 143.00724494 14.23388672 144.82324219 C13.7015726 157.04988326 13.7015726 157.04988326 19.24980164 167.44194031 C21.53909455 169.59822707 23.93669159 171.48291107 26.4909668 173.31567383 C27.42996826 174.0035498 28.36896973 174.69142578 29.33642578 175.40014648 C42.80164147 184.83179385 56.93356173 188.70954578 73.1159668 188.62817383 C74.26661621 188.62325928 75.41726563 188.61834473 76.6027832 188.61328125 C97.19222288 188.33049912 115.24088564 182.19117009 130.3659668 167.87817383 C146.24100512 150.71279988 151.47425862 130.54757064 150.703125 107.66210938 C150.43338055 104.67877926 149.55513362 102.10495485 148.4909668 99.31567383 C147.93591955 94.92575471 148.01032604 91.36434457 149.8659668 87.31567383 C151.4909668 85.31567383 151.4909668 85.31567383 153.4909668 84.31567383 C162.67861383 83.62014988 170.42609872 88.09496486 177.4440918 93.65551758 C183.80943054 99.68734306 189.44508496 106.63376907 190.1159668 115.69067383 C189.4909668 119.31567383 189.4909668 119.31567383 187.6159668 121.81567383 C182.42528687 124.30720019 176.91519672 124.12375047 171.4909668 122.31567383 C171.34401367 123.4062207 171.19706055 124.49676758 171.0456543 125.62036133 C167.48183397 150.24737961 158.21417225 174.03567204 138.4909668 190.31567383 C124.75546747 200.48820528 110.29612707 205.01990861 93.4909668 207.31567383 C92.79503418 207.41138672 92.09910156 207.50709961 91.38208008 207.60571289 C65.43710848 210.84230895 38.36959114 208.10133595 16.7253418 192.29614258 C12.74996945 189.16350267 9.02683791 185.94014307 5.4909668 182.31567383 C2.23599705 183.77378245 -0.18197983 185.62594551 -2.8840332 187.94067383 C-13.01033845 196.12189698 -24.02878379 201.64664727 -36.5090332 205.31567383 C-37.56348633 205.63536133 -38.61793945 205.95504883 -39.7043457 206.28442383 C-65.37212833 212.71625799 -97.69376195 209.52124832 -120.7590332 196.10083008 C-142.34831183 182.08619892 -154.7825387 164.06698728 -160.33300781 138.86865234 C-161.52716702 132.98635935 -161.98506339 127.31894335 -161.5090332 121.31567383 C-162.07879883 121.63793945 -162.64856445 121.96020508 -163.2355957 122.29223633 C-166.96905766 123.9729357 -170.49537348 123.8563741 -174.5090332 123.31567383 C-178.0715332 121.81567383 -178.0715332 121.81567383 -180.5090332 119.31567383 C-181.82649616 112.36905097 -179.35165629 107.07525174 -175.5090332 101.31567383 C-169.09187291 93.20021024 -161.25796104 87.70367867 -151.5090332 84.31567383 C-147.15993357 83.97065131 -145.27517968 83.82664416 -141.5715332 86.19067383 C-138.70918773 90.52756091 -138.75706676 94.24979461 -139.5090332 99.31567383 C-139.84032227 100.04270508 -140.17161133 100.76973633 -140.51293945 101.51879883 C-145.61448263 115.84313182 -140.9317012 135.2422853 -134.82397461 148.63085938 C-125.70413967 167.37027667 -111.1108203 179.28857071 -91.5715332 186.19067383 C-72.09466757 192.50965693 -47.52439787 189.15610477 -29.5090332 180.31567383 C-22.1510155 176.48069702 -15.30968823 172.3120136 -9.5090332 166.31567383 C-8.99115234 165.80512451 -8.47327148 165.2945752 -7.93969727 164.76855469 C-5.78839182 161.08013049 -6.02955988 157.59449611 -5.99731445 153.39379883 C-5.97936325 152.53381287 -5.96141205 151.6738269 -5.94291687 150.78778076 C-5.88883282 148.04712799 -5.85492458 145.30664918 -5.8215332 142.56567383 C-5.78835841 140.70497255 -5.7538686 138.84429422 -5.71801758 136.98364258 C-5.63310752 132.42777855 -5.56628736 127.87196595 -5.5090332 123.31567383 C-6.284646 123.33887695 -7.06025879 123.36208008 -7.859375 123.38598633 C-25.94333046 123.69881404 -43.43123464 115.96592886 -56.43261719 103.44726562 C-57.80416226 102.08275532 -59.15704665 100.69956567 -60.5090332 99.31567383 C-61.25926758 98.58606445 -62.00950195 97.85645508 -62.7824707 97.10473633 C-74.24117846 85.29480381 -79.11114613 69.54523718 -78.9465332 53.37817383 C-78.93823486 52.3249292 -78.92993652 51.27168457 -78.92138672 50.18652344 C-78.59178254 35.04232574 -73.51905064 25.98845566 -62.8215332 15.56567383 C-46.40207269 1.34701449 -20.74897268 -0.05120394 0 0 Z " fill="#1F1C16" transform="translate(507.509033203125,565.684326171875)"/>
<path d="M0 0 C0.66 0.33 1.32 0.66 2 1 C-8.35365603 25.29697504 -20.52582881 48.25893369 -37 69 C-38.17369141 70.48113281 -38.17369141 70.48113281 -39.37109375 71.9921875 C-49.18867875 84.09324183 -60.38996069 95.25484405 -72.18432617 105.42285156 C-74.70525984 107.61260973 -77.12830427 109.90211973 -79.5625 112.1875 C-90.07306443 121.90561471 -101.43544958 130.51443943 -113.15917969 138.70507812 C-115.07770768 140.05466333 -116.98116535 141.42362015 -118.8828125 142.796875 C-141.3330636 158.94454389 -165.19447231 173.07921976 -189.02734375 187.0703125 C-191.78468528 188.68927391 -194.52674086 190.3224944 -197.25390625 191.9921875 C-207.39699049 198.16367107 -218.22849236 203.04301493 -229 208 C-229.61846802 208.28484253 -230.23693604 208.56968506 -230.87414551 208.86315918 C-269.95995142 226.83202952 -310.22729704 241.55871992 -352 252 C-352.78584473 252.1973877 -353.57168945 252.39477539 -354.38134766 252.59814453 C-405.89891576 264.84920481 -464.25841478 239.78016595 -511 220 C-512.24583812 219.47888062 -513.49193538 218.95838038 -514.73828125 218.43847656 C-541.13232382 207.41118572 -566.54453264 195.01649197 -590.88916016 179.92089844 C-594.03193453 177.98028089 -597.19107017 176.06918429 -600.35546875 174.1640625 C-631.5799089 155.28972882 -663.21053968 134.89940637 -690 110 C-691.01517597 109.0646166 -692.03082654 108.1297481 -693.046875 107.1953125 C-695.24645021 105.1712247 -697.44102937 103.14189583 -699.6328125 101.109375 C-701.86448135 99.0423906 -704.10954324 96.99169513 -706.3671875 94.953125 C-730.9477218 72.69490572 -757.71586527 40.33253899 -767 8 C-766.01 7.67 -765.02 7.34 -764 7 C-759.74802236 12.2367681 -755.58404034 17.52116487 -751.5625 22.9375 C-741.05417733 37.00248573 -729.36932079 49.71213116 -717.02227783 62.1529541 C-716.02395359 63.15932386 -715.02711386 64.1671689 -714.03192139 65.17663574 C-707.37003522 71.92381162 -700.41639014 78.0904682 -693 84 C-691.1849197 85.55950185 -689.37183674 87.12133812 -687.5625 88.6875 C-679.14650628 95.71540125 -670.06616119 101.84832136 -661 108 C-660.44994293 108.37428131 -659.89988586 108.74856262 -659.3331604 109.13418579 C-650.00620683 115.46784022 -640.51896317 121.45388766 -630.8125 127.1875 C-630.12945801 127.59219513 -629.44641602 127.99689026 -628.74267578 128.41384888 C-614.717399 136.7108822 -600.46964113 144.50257252 -586 152 C-585.00162109 152.52110352 -584.00324219 153.04220703 -582.97460938 153.57910156 C-526.33380317 183.0330765 -460.03093837 211.69994592 -395.33984375 212.23828125 C-394.36004547 212.2480751 -393.38024719 212.25786896 -392.37075806 212.26795959 C-371.90379802 212.43062072 -352.06241475 212.50937844 -332 208 C-331.00774414 207.79101074 -330.01548828 207.58202148 -328.99316406 207.36669922 C-292.84382056 199.71376969 -256.84988489 187.01043115 -223.46630859 171.16015625 C-220.68322165 169.85098686 -217.88418982 168.58032386 -215.08203125 167.3125 C-190.8376331 156.31124649 -166.83655652 144.72243512 -144 131 C-142.68032227 130.20746826 -142.68032227 130.20746826 -141.33398438 129.39892578 C-114.37667653 113.12308884 -87.59708052 95.04773603 -64.62109375 73.41015625 C-62 71 -62 71 -59.47265625 68.99609375 C-56.7795203 66.82201401 -54.41966051 64.47448666 -52 62 C-50.97302381 60.9813868 -49.94428794 59.96454554 -48.9140625 58.94921875 C-43.68047387 53.76690115 -38.47807158 48.61331558 -33.71484375 42.98828125 C-31.66778991 40.61481792 -29.5180851 38.34960042 -27.375 36.0625 C-18.08588922 25.86713451 -9.87564756 14.69848026 -2.390625 3.125 C-1 1 -1 1 0 0 Z " fill="#EAD3BC" transform="translate(896,691)"/>
<path d="M0 0 C11.16533565 4.24252123 22.49938888 11.90780845 30.5546875 20.75 C32.15742944 22.39503064 33.83163685 23.59421568 35.72265625 24.89453125 C54.41752562 38.48091887 68.60347055 61.30181345 81.65771484 80.04467773 C83.97735371 83.37214125 86.3148068 86.67187177 88.7734375 89.8984375 C114.03515625 123.11114659 114.03515625 123.11114659 114.03515625 133.26953125 C111.35046708 134.25703784 108.6628236 135.2346548 105.97265625 136.20703125 C105.22048828 136.48482422 104.46832031 136.76261719 103.69335938 137.04882812 C99.16606426 138.67551858 94.88163937 140.0016352 90.03515625 140.26953125 C87.34765625 138.08203125 87.34765625 138.08203125 85.03515625 135.26953125 C79.34769899 129.04887487 73.34403336 128.69335523 65.22265625 127.89453125 C59.28550463 127.98693828 53.62273117 130.85327979 49.32421875 134.8671875 C45.4282433 139.45002568 44.84941018 142.47411229 44.47265625 148.39453125 C44.38886719 149.67585937 44.30507813 150.9571875 44.21875 152.27734375 C44.15816406 153.26476562 44.09757812 154.2521875 44.03515625 155.26953125 C45.48921875 155.45515625 45.48921875 155.45515625 46.97265625 155.64453125 C47.98328125 155.85078125 48.99390625 156.05703125 50.03515625 156.26953125 C50.36515625 156.92953125 50.69515625 157.58953125 51.03515625 158.26953125 C50.23464844 158.88828125 50.23464844 158.88828125 49.41796875 159.51953125 C46.95251715 161.43046952 44.49286633 163.3486464 42.03515625 165.26953125 C41.21917969 165.90632812 40.40320313 166.543125 39.5625 167.19921875 C22.32937048 180.80000877 6.2262992 195.94950769 -5.96484375 214.26953125 C-11.34862001 221.70242882 -17.00968373 228.90446709 -22.80419922 236.01928711 C-25.09250323 238.84545343 -27.27378646 241.66510718 -29.2578125 244.71484375 C-30.10279297 245.97941406 -30.10279297 245.97941406 -30.96484375 247.26953125 C-31.29484375 247.26953125 -31.62484375 247.26953125 -31.96484375 247.26953125 C-32.12267334 246.32698486 -32.28050293 245.38443848 -32.44311523 244.41333008 C-34.30386327 233.71340619 -37.01186774 223.38277451 -40.02734375 212.95703125 C-52.48296864 169.74080524 -52.69843462 120.62582934 -45.96484375 76.26953125 C-45.7932373 75.07328125 -45.62163086 73.87703125 -45.44482422 72.64453125 C-41.78364237 47.51684883 -37.40998577 18.44737277 -17.96484375 0.26953125 C-12.7805927 -2.32259428 -5.45276284 -1.34343432 0 0 Z " fill="#FE968C" transform="translate(227.96484375,118.73046875)"/>
<path d="M0 0 C21.17081951 16.63100471 26.49486026 60.07567212 29.46740723 84.7956543 C31.1947989 100.32728048 31.23951298 115.9501288 31.27240753 131.55973816 C31.27725824 133.53548173 31.28675032 135.51121215 31.29632568 137.48693848 C31.36350769 159.42168977 30.51579359 181.25760278 24.41186523 202.45263672 C23.782727 204.64428258 23.18179325 206.84257663 22.58398438 209.04296875 C21.27402246 213.84981543 19.93389433 218.64790653 18.58984375 223.4453125 C18.12610563 225.10671601 17.66256302 226.76817411 17.19921875 228.4296875 C16.08166869 232.43552553 14.96151476 236.44062651 13.83984375 240.4453125 C9.7500525 238.60105526 7.56829058 235.96139853 4.90234375 232.4453125 C4.43143311 231.83518311 3.96052246 231.22505371 3.4753418 230.59643555 C-1.45954269 224.15279657 -6.20087114 217.56596008 -10.921875 210.96484375 C-11.44265625 210.24119629 -11.9634375 209.51754883 -12.5 208.77197266 C-13.66756872 207.13565943 -14.81990665 205.48842397 -15.9609375 203.83349609 C-20.96482411 196.6986527 -26.58362867 190.55521313 -32.78515625 184.4453125 C-33.26615784 183.96763428 -33.74715942 183.48995605 -34.24273682 182.99780273 C-41.78419473 175.51729663 -49.54864681 168.6601672 -58.16015625 162.4453125 C-59.72405684 161.25965764 -61.28678353 160.07245062 -62.84765625 158.8828125 C-64.92149443 157.33318175 -67.00243267 155.88379489 -69.16015625 154.4453125 C-66.25415364 153.18866272 -64.36411041 152.4453125 -61.16015625 152.4453125 C-61.03484708 141.5261117 -61.03484708 141.5261117 -66.16015625 132.4453125 C-73.43245833 126.81729931 -78.98149829 124.6863907 -88.16015625 125.4453125 C-95.85358308 126.70634036 -99.63342273 129.24044412 -104.16015625 135.4453125 C-105.14266749 136.46250061 -106.13805691 137.46791138 -107.16015625 138.4453125 C-114.88933453 136.27938345 -122.56949122 134.0627832 -130.16015625 131.4453125 C-129.72333935 125.3695865 -127.78230943 121.39170316 -124.59765625 116.2578125 C-124.14438965 115.50951172 -123.69112305 114.76121094 -123.22412109 113.99023438 C-117.15661684 104.04490555 -110.53976907 94.50745627 -103.79785156 85.01269531 C-100.79054032 80.77451971 -97.82772357 76.51065799 -94.90698242 72.21240234 C-87.69080584 61.60196439 -80.18678501 51.39450128 -71.4609375 41.95703125 C-69.56820531 39.89077183 -67.72965805 37.79592309 -65.8984375 35.67578125 C-22.99895003 -13.45132865 -22.99895003 -13.45132865 0 0 Z " fill="#FE968C" transform="translate(813.16015625,121.5546875)"/>
<path d="M0 0 C0.83789062 0.31582031 1.67578125 0.63164062 2.5390625 0.95703125 C15.76728136 6.56327639 27.13398525 19.71826643 33.3125 32.375 C40.99055934 51.65546012 38.87638222 70.65519347 31.61328125 89.62109375 C25.91938072 101.86687983 16.86508505 110.75697403 4.13671875 115.5078125 C-5.5216356 118.88536724 -13.87978711 120.20210952 -24.0625 120.25 C-25.66641602 120.2809375 -25.66641602 120.2809375 -27.30273438 120.3125 C-44.08612462 120.39362817 -58.88030102 114.71112928 -71.00805664 103.12133789 C-83.07936796 91.11170931 -89.74095012 76.35460475 -90.25 59.3125 C-90.00254527 42.67116935 -82.09214168 27.12921184 -71 15 C-70.44828125 14.36835938 -69.8965625 13.73671875 -69.328125 13.0859375 C-52.46251789 -5.14498066 -22.48008384 -9.92156193 0 0 Z " fill="#1C1913" transform="translate(379,442)"/>
<path d="M0 0 C0.94359375 0.42410156 1.8871875 0.84820312 2.859375 1.28515625 C18.20971992 8.89672231 30.50257071 23.77587943 36 40 C40.93928482 57.14694813 39.92185035 72.76352989 31.8125 88.8125 C23.89470516 102.54229317 11.50408428 113.00354546 -3.69262695 117.8605957 C-10.98813993 119.78184508 -17.77877885 120.51213203 -25.3125 120.4375 C-26.40336914 120.42920166 -27.49423828 120.42090332 -28.61816406 120.41235352 C-44.33730326 120.0847743 -59.12348305 115.76999554 -70.875 104.8125 C-83.74660639 90.80932381 -88.59891062 72.24859854 -88.27734375 53.59375 C-87.52784776 35.93398373 -79.59785872 22.01351056 -67 10 C-48.9962769 -4.8986937 -21.72160752 -10.1939123 0 0 Z " fill="#1B1913" transform="translate(695,442)"/>
<path d="M0 0 C9.95388207 7.10259853 16.9976279 15.32207064 19.27734375 27.625 C19.8727103 32.60108831 19.90919045 36.31075886 17.71484375 40.875 C11.18799891 48.23861981 4.28837578 52.97460117 -5.88476562 53.80053711 C-12.95679187 53.98390179 -19.6788253 52.79294349 -26.59765625 51.4375 C-27.69207031 51.24091797 -28.78648437 51.04433594 -29.9140625 50.84179688 C-43.71889932 48.18702056 -56.29640498 43.42028036 -64.53515625 31.5546875 C-68.03007709 25.87544113 -68.38539486 20.13847788 -67.72265625 13.625 C-65.59915943 6.91922056 -62.08427737 1.68005402 -55.875 -1.67578125 C-54.47711966 -2.36096534 -53.07193507 -3.03143046 -51.66015625 -3.6875 C-50.95310547 -4.03361328 -50.24605469 -4.37972656 -49.51757812 -4.73632812 C-33.76740523 -12.32303113 -14.39224131 -9.33046438 0 0 Z " fill="#FEF2E0" transform="translate(410.72265625,364.375)"/>
<path d="M0 0 C5.82410757 5.40308774 8.30709781 10.86785388 8.6953125 18.8046875 C8.26996449 27.70799475 4.59010349 33.50479712 -1.6796875 39.6171875 C-16.14225034 51.13866946 -39.97663566 54.63397525 -57.99902344 53.09130859 C-65.36678113 52.06402266 -70.37494113 48.24460081 -74.8984375 42.55078125 C-77.82887109 38.12543052 -78.50255993 35.23018006 -78.0546875 29.8046875 C-77.31176563 27.08390214 -76.27284222 24.56190034 -75.1171875 21.9921875 C-74.80652344 21.29367676 -74.49585938 20.59516602 -74.17578125 19.87548828 C-71.17537224 13.48337675 -67.20076723 8.63664387 -62.0546875 3.8046875 C-61.20970703 2.93263672 -61.20970703 2.93263672 -60.34765625 2.04296875 C-45.32029397 -12.47251258 -16.27193745 -12.06885398 0 0 Z " fill="#FEF2E1" transform="translate(672.0546875,364.1953125)"/>
<path d="M0 0 C0.99 0.495 0.99 0.495 2 1 C1.74347656 1.59941406 1.48695313 2.19882813 1.22265625 2.81640625 C-11.51407517 32.96429241 -22.57003412 63.73714835 -32.25512695 94.98852539 C-32.62155807 96.1705101 -32.62155807 96.1705101 -32.99539185 97.37637329 C-33.4534907 98.85773106 -33.9096287 100.3396971 -34.36349487 101.82235718 C-35.89221814 106.78443627 -35.89221814 106.78443627 -37 109 C-38.99628664 109.3548954 -40.99690671 109.68578929 -43 110 C-44.98330173 110.86649466 -44.98330173 110.86649466 -47 112 C-48.134375 112.4125 -49.26875 112.825 -50.4375 113.25 C-54.7227087 115.3550148 -56.16757778 117.22343704 -59 121 C-59.98581772 122.01398394 -60.9826127 123.01769502 -62 124 C-69.72917828 121.83407095 -77.40933497 119.6174707 -85 117 C-84.5631831 110.924274 -82.62215318 106.94639066 -79.4375 101.8125 C-78.9842334 101.06419922 -78.5309668 100.31589844 -78.06396484 99.54492188 C-71.99646059 89.59959305 -65.37961282 80.06214377 -58.63769531 70.56738281 C-55.63038407 66.32920721 -52.66756732 62.06534549 -49.74682617 57.76708984 C-42.53064959 47.15665189 -35.02662876 36.94918878 -26.30078125 27.51171875 C-24.42148151 25.46012328 -22.60261003 23.37842869 -20.7890625 21.26953125 C-16.7499764 16.63880437 -12.43005129 12.31889819 -8.0625 8 C-6.89364258 6.83791016 -6.89364258 6.83791016 -5.70117188 5.65234375 C-3.8030758 3.76589243 -1.90266851 1.88183755 0 0 Z " fill="#EF7C79" transform="translate(768,136)"/>
<path d="M0 0 C12.7734086 6.93130699 22.19409625 19.7488205 31 31 C31.47904785 31.61182129 31.9580957 32.22364258 32.45166016 32.85400391 C39.0707381 41.33656565 45.4731086 49.94596388 51.62255859 58.77514648 C53.94219746 62.10261 56.27965055 65.40234052 58.73828125 68.62890625 C84 101.84161534 84 101.84161534 84 112 C81.31531083 112.98750659 78.62766735 113.96512355 75.9375 114.9375 C75.18533203 115.21529297 74.43316406 115.49308594 73.65820312 115.77929688 C69.13090801 117.40598733 64.84648312 118.73210395 60 119 C57.3125 116.8125 57.3125 116.8125 55 114 C51.13191473 109.76928173 48.1599325 108.26525487 42.4375 107.5625 C38.82587973 106.97150759 37.6341466 106.41829976 35 104 C33.99230957 101.9765625 33.99230957 101.9765625 33.26757812 99.625 C32.84497459 98.29137169 32.84497459 98.29137169 32.41383362 96.93080139 C32.12258102 95.96363693 31.83132843 94.99647247 31.53125 94 C31.21417587 92.98864487 30.89710175 91.97728973 30.57041931 90.93528748 C29.88951825 88.75930029 29.21471598 86.58139723 28.54537964 84.40182495 C26.78931094 78.6873093 24.98672697 72.98743503 23.19140625 67.28515625 C22.83450211 66.14708023 22.47759796 65.00900421 22.10987854 63.83644104 C19.2431938 54.71144254 16.27247245 45.62683626 13.17138672 36.57885742 C12.69294848 35.18285549 12.21676341 33.78607869 11.74316406 32.38842773 C8.87485024 23.93023236 5.71141395 15.65136736 2.21226501 7.43418884 C0 2.2017964 0 2.2017964 0 0 Z " fill="#EF7C79" transform="translate(258,140)"/>
<path d="M0 0 C4.48975768 1.78641767 7.87523083 4.29509563 10.5 8.375 C12.19679122 12.47557878 12.76825555 14.62094336 12 19 C8.76297735 24.72124934 4.35402471 29.88199176 -2 32 C-5.9974027 32.37711346 -8.45591678 32.25027828 -12.125 30.5625 C-16.86499644 26.33772057 -19.4844269 21.67160608 -20.6875 15.4375 C-19.4986789 9.49339448 -15.70475019 5.84297318 -11.6875 1.5 C-7.7283785 -0.70974223 -4.42586486 -0.84091432 0 0 Z " fill="#FCF6E6" transform="translate(346,462)"/>
<path d="M0 0 C4.04718901 3.25534769 6.7014688 6.3985138 7.30078125 11.62109375 C7.32953006 18.53039192 6.64963831 22.0191569 2 27.25 C-0.69886175 29.61150404 -2.70249451 29.9713937 -6.25 30.3125 C-11.62532091 29.86455659 -15.1753191 28.007149 -18.875 23.9375 C-21.45831581 19.48845611 -21.716149 15.0047157 -21 10 C-18.86575672 4.88379999 -15.13252645 1.783587 -10.1171875 -0.40234375 C-6.26773443 -1.48899748 -3.88361564 -1.08231911 0 0 Z " fill="#FBFAFA" transform="translate(654,464)"/>
<path d="M0 0 C2.43659593 2.37074199 3.74157067 4.35392668 5 7.5 C5 11.08779836 3.44144183 12.48880269 1 15 C-1.88861709 16.44430855 -3.79647701 16.37688506 -7 16 C-10.10164769 13.44975635 -11.72566416 11.82300753 -13 8 C-12.24351504 4.36887221 -11.58468048 2.50347486 -8.75 0.0625 C-5.25431068 -1.28810724 -3.54297097 -1.20611778 0 0 Z " fill="#1A1812" transform="translate(407,684)"/>
<path d="M0 0 C0 0.66 0 1.32 0 2 C-0.99902344 2.04898438 -1.99804688 2.09796875 -3.02734375 2.1484375 C-4.31769531 2.22320313 -5.60804688 2.29796875 -6.9375 2.375 C-8.22527344 2.44460938 -9.51304687 2.51421875 -10.83984375 2.5859375 C-11.88269531 2.72257813 -12.92554688 2.85921875 -14 3 C-14.33 3.66 -14.66 4.32 -15 5 C-17.10914772 5.47625916 -19.2196411 5.94721052 -21.3359375 6.390625 C-30.47934876 8.48207978 -37.81867166 11.70467402 -44 19 C-45.66790792 22.36408617 -45.66790792 22.36408617 -45.75 26 C-44.86893544 28.3495055 -43.96514891 30.68364262 -43 33 C-41.515 32.505 -41.515 32.505 -40 32 C-39.34 32.33 -38.68 32.66 -38 33 C-32.50614027 31.03050311 -28.7848495 28.34991962 -24.32421875 24.5859375 C-13.37399714 16.29353667 2.5440372 13.81897378 15.9375 13.9375 C16.96327148 13.94426758 16.96327148 13.94426758 18.00976562 13.95117188 C19.67321604 13.9628044 21.3366205 13.98073306 23 14 C23 14.33 23 14.66 23 15 C21.29457031 15.16435547 21.29457031 15.16435547 19.5546875 15.33203125 C2.9613499 17.00201681 -12.69405028 18.95424635 -26.16796875 29.57421875 C-30.11556631 32.64644287 -33.57608297 34.77904736 -38.625 35.5625 C-42.8878691 34.85202182 -44.28666411 33.27196387 -47 30 C-47.33 29.67 -47.66 29.34 -48 29 C-48.41303567 23.73379523 -48.00871802 20.37631712 -45 16 C-33.82650958 4.99803246 -15.4903579 -0.46940478 0 0 Z " fill="#9C8477" transform="translate(497,588)"/>
<path d="M0 0 C2.4375 2.125 2.4375 2.125 4 5 C4.07517661 9.2850666 3.69099731 11.23003157 0.8125 14.4375 C-2.53970418 16.29983565 -4.22907665 16.72209171 -8 16 C-10.71568468 13.78457303 -11.87689279 12.18738889 -12.2421875 8.6640625 C-12.24924256 6.42760718 -12.17482975 4.22907932 -12 2 C-5.12820513 -1.43589744 -5.12820513 -1.43589744 0 0 Z " fill="#1A1812" transform="translate(627,686)"/>
<path d="M0 0 C2.55257017 2.41822437 3.78934979 4.06377684 4.5625 7.5 C3.72860575 11.20619668 1.95470879 12.70189316 -1 15 C-3.5625 15.625 -3.5625 15.625 -6 15 C-8.4564832 12.87547399 -9.76452026 11.22259176 -10.38671875 7.9921875 C-10.56267195 4.70368291 -10.43982244 2.55823617 -8.375 -0.0625 C-5.08273115 -1.36207981 -3.34900636 -1.11633545 0 0 Z " fill="#1B1913" transform="translate(436,721)"/>
<path d="M0 0 C0.61875 0.33 1.2375 0.66 1.875 1 C2.98875 1.556875 2.98875 1.556875 4.125 2.125 C5.875 4 5.875 4 6.4375 7.375 C5.875 11 5.875 11 3.75 14 C0.875 16 0.875 16 -2.25 16.125 C-5.125 15 -5.125 15 -7 12.75 C-8.24289435 9.71181382 -8.84850804 8.2155913 -8.125 5 C-3.3423913 0 -3.3423913 0 0 0 Z " fill="#1C1A14" transform="translate(593.125,720)"/>
<path d="M0 0 C1.02577148 0.00676758 1.02577148 0.00676758 2.07226562 0.01367188 C3.73571604 0.0253044 5.3991205 0.04323306 7.0625 0.0625 C7.0625 0.3925 7.0625 0.7225 7.0625 1.0625 C5.92554688 1.17207031 4.78859375 1.28164063 3.6171875 1.39453125 C-10.33129179 2.79833316 -23.31435092 4.57976412 -35.9375 11.0625 C-37.27083333 11.72916667 -38.60416667 12.39583333 -39.9375 13.0625 C-38.63669982 9.16009946 -36.45422931 7.86843796 -32.9375 6.0625 C-30.00501107 4.96810151 -27.02898544 4.15675475 -24 3.375 C-22.84081055 3.05692383 -22.84081055 3.05692383 -21.65820312 2.73242188 C-14.3987773 0.78716576 -7.53743927 -0.066703 0 0 Z " fill="#6A5B52" transform="translate(512.9375,601.9375)"/>
<path d="M0 0 C0 0.66 0 1.32 0 2 C-0.99902344 2.04898438 -1.99804688 2.09796875 -3.02734375 2.1484375 C-4.31769531 2.22320313 -5.60804688 2.29796875 -6.9375 2.375 C-8.22527344 2.44460938 -9.51304687 2.51421875 -10.83984375 2.5859375 C-11.88269531 2.72257813 -12.92554688 2.85921875 -14 3 C-14.33 3.66 -14.66 4.32 -15 5 C-16.890625 5.59765625 -16.890625 5.59765625 -19.25 6.0625 C-20.05824219 6.22621094 -20.86648438 6.38992188 -21.69921875 6.55859375 C-22.45847656 6.70425781 -23.21773438 6.84992187 -24 7 C-25.5159375 7.309375 -25.5159375 7.309375 -27.0625 7.625 C-27.701875 7.74875 -28.34125 7.8725 -29 8 C-29.33 7.34 -29.66 6.68 -30 6 C-27.14732627 5.18193166 -24.29304815 4.37042204 -21.4375 3.5625 C-20.63763672 3.33240234 -19.83777344 3.10230469 -19.01367188 2.86523438 C-12.70787198 1.08931522 -6.59313621 -0.19979201 0 0 Z " fill="#6A5A50" transform="translate(497,588)"/>
<path d="M0 0 C0.33 0.66 0.66 1.32 1 2 C0.29707688 3.707099 -0.41497807 5.4112974 -1.18359375 7.08984375 C-2.13045395 9.18150284 -2.13045395 9.18150284 -2.875 12.25 C-4.42025455 17.40084849 -6.70100085 22.14753233 -9 27 C-10.34080097 23.34235033 -9.64818478 21.36294455 -8.1640625 17.83203125 C-7.75929687 16.85685547 -7.35453125 15.88167969 -6.9375 14.87695312 C-6.504375 13.86568359 -6.07125 12.85441406 -5.625 11.8125 C-5.19960937 10.78962891 -4.77421875 9.76675781 -4.3359375 8.71289062 C-1.17452679 1.17452679 -1.17452679 1.17452679 0 0 Z " fill="#F1AF43" transform="translate(142,507)"/>
<path d="M0 0 C2.47045803 3.81615468 2.43831912 7.84744248 2.625 12.25 C2.66367188 12.99507812 2.70234375 13.74015625 2.7421875 14.5078125 C2.83605108 16.3381524 2.91909718 18.16904143 3 20 C1.15963319 17.23944978 0.31655886 15.25401883 -0.625 12.125 C-0.88539062 11.28195312 -1.14578125 10.43890625 -1.4140625 9.5703125 C-2.01971062 6.9135361 -2.24834329 4.71338044 -2 2 C-1.34 1.34 -0.68 0.68 0 0 Z " fill="#F1A641" transform="translate(118,656)"/>
<path d="M0 0 C0.66 0.33 1.32 0.66 2 1 C1.06027344 1.79664063 1.06027344 1.79664063 0.1015625 2.609375 C-0.71570313 3.31578125 -1.53296875 4.0221875 -2.375 4.75 C-3.59316406 5.79414062 -3.59316406 5.79414062 -4.8359375 6.859375 C-6.88458925 8.88583918 -7.77139671 10.45503604 -9 13 C-11.625 14.25 -11.625 14.25 -14 15 C-10.33129035 8.98331618 -5.89077809 3.92718539 0 0 Z " fill="#0D0A0D" transform="translate(449,578)"/>
<path d="M0 0 C-0.65226562 0.37511719 -1.30453125 0.75023437 -1.9765625 1.13671875 C-7.0349819 4.09865459 -11.63040781 7.09036489 -16 11 C-16 10.01 -16 9.02 -16 8 C-14.171875 6.24609375 -14.171875 6.24609375 -11.75 4.4375 C-10.96109375 3.83808594 -10.1721875 3.23867188 -9.359375 2.62109375 C-3.73336939 -1.24445646 -3.73336939 -1.24445646 0 0 Z " fill="#947D70" transform="translate(468,596)"/>
<path d="M0 0 C1 3 1 3 0.375 5.9375 C-0.33094121 9.00836232 -0.33094121 9.00836232 1.4375 11.25 C1.953125 11.8275 2.46875 12.405 3 13 C3 13.66 3 14.32 3 15 C3.66 15.33 4.32 15.66 5 16 C2.41851492 15.64393309 1.17954253 15.16671807 -0.75 13.375 C-2.4788573 10.09017113 -2.32710355 7.66355972 -2 4 C-1 1.5625 -1 1.5625 0 0 Z " fill="#A98E80" transform="translate(451,606)"/>
<path d="M0 0 C-0.33 1.65 -0.66 3.3 -1 5 C-1.33 4.34 -1.66 3.68 -2 3 C-2.5775 3.350625 -3.155 3.70125 -3.75 4.0625 C-6 5 -6 5 -8.1875 4.75 C-10 4 -10 4 -11 2 C-9.5422647 1.664061 -8.08378894 1.33133376 -6.625 1 C-5.40683594 0.7215625 -5.40683594 0.7215625 -4.1640625 0.4375 C-2 0 -2 0 0 0 Z " fill="#F2EADE" transform="translate(346,687)"/>
<path d="M0 0 C-1.65215996 3.57967992 -3.73124352 6.77982952 -6 10 C-6.33 10 -6.66 10 -7 10 C-7.3125 7.8125 -7.3125 7.8125 -7 5 C-2.77777778 0 -2.77777778 0 0 0 Z " fill="#EBC32F" transform="translate(330,462)"/>
<path d="M0 0 C2.30903272 3.98352209 1.86516528 6.50114053 1 11 C0.34 10.34 -0.32 9.68 -1 9 C-0.9765625 6.8359375 -0.9765625 6.8359375 -0.625 4.375 C-0.51414062 3.55773437 -0.40328125 2.74046875 -0.2890625 1.8984375 C-0.19367188 1.27195312 -0.09828125 0.64546875 0 0 Z " fill="#2A2620" transform="translate(430,603)"/>
<path d="M0 0 C4.455 1.98 4.455 1.98 9 4 C7.02 4.99 7.02 4.99 5 6 C3.2925002 4.71937515 1.62626404 3.38232443 0 2 C0 1.34 0 0.68 0 0 Z " fill="#27231E" transform="translate(338,889)"/>
<path d="M0 0 C3.75376152 1.25125384 4.24073289 2.5652404 6 6 C6 6.66 6 7.32 6 8 C5.01 8.33 4.02 8.66 3 9 C2.01 6.03 1.02 3.06 0 0 Z " fill="#E9D9C3" transform="translate(125,689)"/>
<path d="M0 0 C0.33 0.66 0.66 1.32 1 2 C-0.65 3.98 -2.3 5.96 -4 8 C-4.99 7.67 -5.98 7.34 -7 7 C-4.66666667 4.66666667 -2.33333333 2.33333333 0 0 Z " fill="#F3EEE3" transform="translate(574,667)"/>
<path d="M0 0 C0.66 0.33 1.32 0.66 2 1 C0.68 3.64 -0.64 6.28 -2 9 C-3 5 -3 5 -1.5625 2.25 C-1.046875 1.5075 -0.53125 0.765 0 0 Z " fill="#ECDCC6" transform="translate(896,691)"/>
<path d="M0 0 C0.66 0 1.32 0 2 0 C2.33 2.31 2.66 4.62 3 7 C2.01 7.66 1.02 8.32 0 9 C0 6.03 0 3.06 0 0 Z " fill="#2E2517" transform="translate(109,604)"/>
<path d="M0 0 C0.99 0.33 1.98 0.66 3 1 C1.35 2.65 -0.3 4.3 -2 6 C-2.66 5.67 -3.32 5.34 -4 5 C-2.68 3.35 -1.36 1.7 0 0 Z " fill="#19140E" transform="translate(439,587)"/>
<path d="M0 0 C0.66 0.33 1.32 0.66 2 1 C-2.75 4 -2.75 4 -5 4 C-5 4.66 -5 5.32 -5 6 C-5.99 5.67 -6.98 5.34 -8 5 C-6.35197949 1.70395897 -3.32254422 1.22409524 0 0 Z " fill="#F4B546" transform="translate(305,273)"/>
<path d="M0 0 C0.99 0 1.98 0 3 0 C2.67 2.31 2.34 4.62 2 7 C0 5 0 5 -0.125 2.375 C-0.08375 1.59125 -0.0425 0.8075 0 0 Z " fill="#291D18" transform="translate(272,260)"/>
</svg>
