<?xml version="1.0" encoding="UTF-8"?>
<svg version="1.1" xmlns="http://www.w3.org/2000/svg" width="951.584" height="830.548" viewBox="0 0 951.584 830.548">
<g transform="translate(-24.792 -101.775)">
<path d="M336.03808594 134.9387207 C334.9344873 135.55880005 334.9344873 135.55880005 333.80859375 136.19140625 C333.16720459 136.56467041 332.52581543 136.93793457 331.86499023 137.32250977 C329.50536528 138.17968469 328.32288588 137.87119624 326 137 C324.3515625 135.6171875 324.3515625 135.6171875 322.625 133.875 C310.70049185 123.06493186 296.61724733 120.31741775 281.04345703 120.89941406 C243.70577781 122.73730222 209.64182897 142.76442756 180 164 C179.18724609 164.58072266 178.37449219 165.16144531 177.53710938 165.75976562 C168.34467359 172.35669013 159.39926622 179.13160064 150.8515625 186.546875 C148.22025652 188.81051904 145.54053525 190.97973389 142.8125 193.125 C138.50775369 196.53670332 134.42641577 200.14882675 130.3671875 203.84765625 C128.2659587 205.75817947 126.14302801 207.63668448 124 209.5 C110.59550285 221.19895477 97.60026014 233.31512924 85 245.875 C83.81676147 247.0513501 83.81676147 247.0513501 82.60961914 248.25146484 C77.86691822 253.00676727 73.37330228 257.90517647 69 263 C68.03952431 264.08359729 67.07736572 265.16570596 66.11328125 266.24609375 C45.25022932 289.88157098 26.7443823 318.59677721 25 351 C24.92072266 352.44826172 24.92072266 352.44826172 24.83984375 353.92578125 C23.51967703 402.77195002 48.79472174 449.3739012 70.58422852 491.45166016 C76.6426016 503.17570367 82.23075884 514.72226729 86.57202148 527.2019043 C91.72829891 541.95898529 97.80658375 555.01397014 112.25 562.4375 C121.90282372 567.02634236 130.6390454 566.93202595 140.921875 564.09765625 C154.53578343 559.24295033 164.04739548 548.99404813 174 539 C174.13986328 539.76328613 174.27972656 540.52657227 174.42382812 541.31298828 C181.16312001 577.45271187 194.13133548 608.66949801 218 637 C218.44456543 637.53334961 218.88913086 638.06669922 219.34716797 638.61621094 C246.27135994 670.87486526 279.80242894 693.70801185 317.61328125 711.46875 C318.56017822 711.91420166 319.5070752 712.35965332 320.48266602 712.81860352 C322.48142673 713.75663116 324.48250106 714.68972863 326.484375 715.62109375 C329.05462691 717.02994301 330.84972113 718.517416 332.9375 720.5625 C360.73662824 745.83443476 399.33625806 760.51282296 436 766 C437.44366943 766.22429687 437.44366943 766.22429687 438.91650391 766.453125 C480.28510827 772.61822294 534.53538551 774.23230724 573 755 C573.00386719 755.89912109 573.00386719 755.89912109 573.0078125 756.81640625 C574.45726739 790.78196582 592.56327867 826.65834536 613 853 C613.76828125 853.99773438 614.5365625 854.99546875 615.328125 856.0234375 C648.96121989 898.24627965 697.90063641 925.4016946 751.63330078 931.58984375 C758.97013012 932.34466074 766.31910745 932.34826414 773.6875 932.3125 C774.4727002 932.31067719 775.25790039 932.30885437 776.06689453 932.30697632 C788.58246044 932.25823623 800.72550695 931.62494375 813 929 C813.81742676 928.82839355 814.63485352 928.65678711 815.47705078 928.47998047 C847.72400593 921.5071606 877.91919463 907.65057088 903 886 C903.75667969 885.35289062 904.51335938 884.70578125 905.29296875 884.0390625 C907.9110888 881.74126709 910.46040075 879.38440152 913 877 C913.82177734 876.23719727 913.82177734 876.23719727 914.66015625 875.45898438 C937.20928 854.37183678 952.89915293 828.66570601 964 800 C964.25861816 799.33339355 964.51723633 798.66678711 964.78369141 797.97998047 C967.7354069 790.19260632 969.78384434 782.21972964 971.6875 774.125 C971.89020508 773.27623291 972.09291016 772.42746582 972.30175781 771.55297852 C975.5668589 756.99765937 976.41234464 742.36825957 976.375 727.5 C976.37445618 726.67605743 976.37391235 725.85211487 976.37335205 725.00320435 C976.20877808 670.42191804 953.60689844 621.13654064 915.54882812 582.52783203 C904.46295887 571.51189355 891.74274288 561.47605213 878 554 C879.12229028 550.83718193 880.54035638 548.05706261 882.25 545.1875 C884.5667543 541.08392347 886.30806166 536.84921623 887.9375 532.4375 C888.1950708 531.74116455 888.4526416 531.0448291 888.71801758 530.32739258 C889.9170398 527.05226131 891.07682077 523.77130658 892.1875 520.46484375 C898.53491126 502.23587203 908.20310134 485.06695794 917.25 468.0625 C939.63923324 425.81700365 959.98388618 376.4402446 946.96875 328.17578125 C940.79196503 308.2055677 929.64823121 289.72417576 916 274 C915.02705444 272.84508878 914.05579253 271.68875776 913.0859375 270.53125 C907.9531966 264.43310585 902.72935054 258.57146857 897.01171875 253.0078125 C895.07432787 251.07418354 893.28049843 249.07792723 891.5 247 C885.81086705 240.39114579 879.57899764 234.41723956 872.96484375 228.74609375 C870.89179676 226.90384325 868.94564198 224.97598338 867 223 C863.16450552 219.12007895 859.14802568 215.54083113 855 212 C853.95810756 211.10573172 852.91646037 210.21117767 851.875 209.31640625 C849.4860602 207.26471254 847.09347026 205.21736629 844.69921875 203.171875 C842.31513925 201.13283501 839.94307537 199.08128278 837.58203125 197.015625 C829.40119561 189.88085955 820.94423739 183.19307913 812.25488281 176.68847656 C810.73870241 175.55314702 809.22506577 174.41441322 807.71386719 173.27246094 C771.41550522 145.85349582 726.20344576 115.80800044 678.375 121.42578125 C666.10636365 123.65768719 655.82859962 129.22474539 647 138 C643.77487067 136.80133797 640.70182746 135.38646447 637.62109375 133.86328125 C602.48437099 116.5086469 562.92449999 106.84870668 524 103 C522.61820557 102.85751831 522.61820557 102.85751831 521.20849609 102.7121582 C511.60530504 101.84019776 502.00872213 101.81387715 492.37402344 101.81469727 C489.53304721 101.81252527 486.69246973 101.79434642 483.8515625 101.77539062 C434.56877858 101.62194567 379.27786852 110.13788082 336.03808594 134.9387207 Z " fill="#201500" transform="translate(0,0)"/>
<path d="M0 0 C1.2725766 0.00090637 1.2725766 0.00090637 2.57086182 0.00183105 C57.37172965 0.10694371 121.95160647 7.11397038 164.81738281 44.72851562 C167.15027246 46.75134623 169.57660143 48.64966908 172 50.5625 C176.7460668 54.45283657 181.26013625 58.56981751 185.75 62.75 C186.41193359 63.36343262 187.07386719 63.97686523 187.75585938 64.60888672 C192.31119855 68.89579443 196.43808339 73.43528747 200.5 78.1875 C201.46012664 79.27140658 202.42225316 80.35354617 203.38671875 81.43359375 C211.13231683 90.21102833 218.0222777 99.43947129 224.5 109.1875 C225.09675537 110.0849292 225.09675537 110.0849292 225.70556641 111.00048828 C236.7705517 127.9169179 245.59144459 146.86955047 251.5 166.1875 C251.86617432 167.35249023 251.86617432 167.35249023 252.23974609 168.54101562 C259.65301186 192.30472904 263.27874511 216.71950971 266.9921875 241.265625 C268.3040732 249.93446894 269.63788222 258.59886129 271.0625 267.25 C271.17421539 267.92874176 271.28593079 268.60748352 271.40103149 269.30679321 C273.3260746 280.9079348 275.46698708 292.46850889 277.62890625 304.02734375 C277.84108512 305.16303645 277.84108512 305.16303645 278.05755043 306.32167244 C279.49832456 314.03242548 280.94393144 321.74218906 282.40938663 329.44829273 C285.1436156 343.84262993 287.78041173 358.23217434 289.8828125 372.734375 C290.04705719 373.85533569 290.21130188 374.97629639 290.38052368 376.13122559 C291.54924485 384.52995861 291.97351742 392.71679949 291.5 401.1875 C290.80664551 401.23237549 290.11329102 401.27725098 289.39892578 401.32348633 C251.09496597 403.86589662 219.72306903 412.9637587 185.5 430.1875 C184.84 429.1975 184.18 428.2075 183.5 427.1875 C183.83 428.5075 184.16 429.8275 184.5 431.1875 C183.60539062 431.8165625 182.71078125 432.445625 181.7890625 433.09375 C170.80201711 440.85514284 160.31899845 448.96739082 150.5 458.1875 C149.97390137 458.67959961 149.44780273 459.17169922 148.90576172 459.67871094 C124.83688899 482.37837549 108.90506596 510.3938219 97.5 541.1875 C92.0383838 541.3331431 87.07969774 540.96884467 81.75 539.6875 C81.02901123 539.51444336 80.30802246 539.34138672 79.56518555 539.16308594 C59.36896179 533.99926648 41.18962071 525.03434907 26.5 510.1875 C25.57574219 509.29611328 25.57574219 509.29611328 24.6328125 508.38671875 C15.36831437 498.71419868 12.14496883 485.19367706 12.375 472.25 C12.38402344 471.27998047 12.39304687 470.30996094 12.40234375 469.31054688 C12.42573893 466.93593593 12.45851824 464.56185224 12.5 462.1875 C13.5415625 461.97996094 14.583125 461.77242187 15.65625 461.55859375 C36.5907772 457.15352798 53.22380767 448.24943998 68.5 433.1875 C69.61568359 432.09115234 69.61568359 432.09115234 70.75390625 430.97265625 C83.10328106 417.99493751 90.14293524 400.22035652 90.8125 382.375 C90.42449349 368.77321618 86.12970153 356.99440611 76.875 346.9375 C54.01180871 325.90685457 19.9049637 324.28192953 -9.5 325.1875 C-31.48530033 326.29032251 -56.34955891 331.46812562 -71.9453125 348.2578125 C-82.33488663 361.15341456 -84.99341009 375.05333746 -83.5 391.1875 C-80.83126594 411.83312325 -68.64267232 429.47315894 -52.5 442.1875 C-39.58716631 451.56712889 -25.89631065 457.82147512 -10.31640625 461.265625 C-9.38699219 461.56984375 -8.45757812 461.8740625 -7.5 462.1875 C-3.55519535 474.02191395 -7.15322502 488.88114682 -12.375 499.6875 C-18.92313307 511.09838167 -28.98569782 519.98749113 -40.5 526.1875 C-41.09151855 526.51057129 -41.68303711 526.83364258 -42.29248047 527.16650391 C-51.73519487 532.27760992 -61.19471908 536.16232207 -71.5 539.1875 C-72.29148437 539.42210937 -73.08296875 539.65671875 -73.8984375 539.8984375 C-96.30904343 546.01042094 -121.00280596 542.51117962 -141.29296875 531.69921875 C-159.78172548 520.77285899 -169.77713897 502.80975697 -175.5 482.66796875 C-176.26282342 479.51765474 -176.92327147 476.37672267 -177.5 473.1875 C-177.63148438 472.46949219 -177.76296875 471.75148438 -177.8984375 471.01171875 C-180.04747862 456.0555542 -178.12408484 441.05120857 -175.77539062 426.26196289 C-175.4342009 424.04062551 -175.4342009 424.04062551 -175.5 421.1875 C-188.51999322 449.76146718 -195.20695245 479.38098244 -184.25 509.9375 C-177.78016236 525.46128203 -168.1656021 538.57572202 -153.5 547.1875 C-152.015 548.06148437 -152.015 548.06148437 -150.5 548.953125 C-123.67381486 563.50506505 -91.08647542 564.91738151 -62.0625 556.75 C-38.41956978 549.64297988 -11.10101878 536.57088862 1.5 514.1875 C5.16910554 515.41053518 5.94441033 516.75989927 8.25 519.8125 C28.02097965 544.96261105 60.68518791 556.68956328 91.5 561.1875 C91.30664062 562.41339844 91.11328125 563.63929688 90.9140625 564.90234375 C88.76727471 578.95793637 87.48307062 593.00622089 86.5 607.1875 C80.01183987 609.94814516 73.61777032 612.15658684 66.75 613.75 C65.85676025 613.95979492 64.96352051 614.16958984 64.04321289 614.38574219 C53.96453989 616.66307138 43.76851797 618.08719958 33.5 619.1875 C32.65026611 619.28248779 31.80053223 619.37747559 30.92504883 619.4753418 C-26.34162687 625.10704733 -87.7670663 617.9702918 -134.5 582.1875 C-137.17513314 579.94664172 -139.758889 577.6601072 -142.2890625 575.2578125 C-147.73908583 570.15443377 -152.1181167 567.25758213 -159.0625 564.625 C-186.52590559 553.57360319 -210.10452675 535.35093055 -231.5 515.1875 C-232.2321875 514.49785156 -232.964375 513.80820312 -233.71875 513.09765625 C-239.12951995 507.84792112 -243.80066147 502.07203326 -248.5 496.1875 C-249.15871094 495.39601563 -249.81742188 494.60453125 -250.49609375 493.7890625 C-271.61941151 468.20307198 -286.38733208 437.6521598 -288.5 404.1875 C-288.56123047 403.22070312 -288.62246094 402.25390625 -288.68554688 401.2578125 C-289.51947432 385.62870034 -287.9710066 373.32989085 -282.43164062 358.78222656 C-271.69894402 328.89042899 -268.30917866 294.93926153 -263.72265625 263.64453125 C-263.604471 262.83973642 -263.48628574 262.0349416 -263.36451912 261.20575905 C-262.18345344 253.15353803 -261.01690569 245.09957103 -259.89145947 237.03937721 C-257.74146351 221.68386486 -255.36467165 206.46080468 -251.9375 191.33203125 C-251.66118744 190.11051361 -251.38487488 188.88899597 -251.10018921 187.63046265 C-241.60243514 147.18326902 -222.97782353 111.28414868 -195.5 80.1875 C-194.83355469 79.41019531 -194.16710937 78.63289063 -193.48046875 77.83203125 C-181.42665352 64.01888205 -168.35854033 50.95566111 -153.5 40.1875 C-152.25283203 39.24777344 -152.25283203 39.24777344 -150.98046875 38.2890625 C-108.76100271 7.34212387 -50.95580595 -0.06741342 0 0 Z " fill="#F1A43B" transform="translate(484.5,124.8125)"/>
<path d="M0 0 C3.04801902 2.61554894 5.96589113 5.34817459 8.83447266 8.16064453 C10.40384696 9.6973019 11.99331771 11.21146292 13.58349609 12.7265625 C24.74216963 23.48212591 33.55928281 35.14359502 41.31005859 48.60546875 C41.96748047 49.73210937 42.62490234 50.85875 43.30224609 52.01953125 C66.83231171 93.44892693 71.05710154 143.11266813 58.74365234 188.66796875 C50.26517536 218.5573949 34.45931747 243.11034794 13.31005859 265.60546875 C12.72740234 266.24226563 12.14474609 266.8790625 11.54443359 267.53515625 C5.78516708 273.61438202 -0.98980178 278.61927766 -7.68994141 283.60546875 C-8.26212402 284.03263184 -8.83430664 284.45979492 -9.42382812 284.89990234 C-45.8094701 311.62730439 -94.18815612 321.68928399 -138.56884766 315.35546875 C-185.45346546 307.17564815 -227.42469451 282.80735253 -255.62353516 244.0546875 C-272.73011788 219.69927812 -282.61537157 192.77058672 -287.68994141 163.60546875 C-287.8664624 162.68765625 -288.0429834 161.76984375 -288.22485352 160.82421875 C-288.75682056 157.14261587 -288.86960506 153.52390269 -288.89306641 149.8125 C-288.90012604 149.07320251 -288.90718567 148.33390503 -288.91445923 147.57220459 C-289.1439829 116.44912048 -289.1439829 116.44912048 -285.68994141 102.60546875 C-285.48062988 101.76032715 -285.27131836 100.91518555 -285.05566406 100.04443359 C-272.69485199 51.51971698 -243.94909895 10.31226497 -200.68994141 -15.39453125 C-199.83094238 -15.9064502 -199.83094238 -15.9064502 -198.95458984 -16.42871094 C-137.15790385 -52.64718366 -55.13707824 -45.49884295 0 0 Z " fill="#FEBD00" transform="translate(885.68994140625,590.39453125)"/>
<path d="M0 0 C6.82324645 2.62726873 10.80562672 7.60217851 14 14 C21.79725786 32.62924391 23.00139713 53.2659089 24.4609375 73.19140625 C27.20488532 110.58375019 35.63039565 146.17694165 61 175 C61.70769531 175.82886719 62.41539062 176.65773438 63.14453125 177.51171875 C73.25344043 189.11419649 84.85478034 198.36117603 97.09960938 207.56201172 C101.13854372 210.61819405 105.07074396 213.80499888 109 217 C110.33417969 218.07314453 110.33417969 218.07314453 111.6953125 219.16796875 C140.04829941 242.11098462 169.18835377 272.37248546 178 309 C177.10539062 309.6290625 176.21078125 310.258125 175.2890625 310.90625 C164.30201711 318.66764284 153.81899845 326.77989082 144 336 C143.47390137 336.49209961 142.94780273 336.98419922 142.40576172 337.49121094 C118.33688899 360.19087549 102.40506596 388.2063219 91 419 C85.5383838 419.1456431 80.57969774 418.78134467 75.25 417.5 C74.52901123 417.32694336 73.80802246 417.15388672 73.06518555 416.97558594 C52.86896179 411.81176648 34.68962071 402.84684907 20 388 C19.38382813 387.40574219 18.76765625 386.81148437 18.1328125 386.19921875 C8.86831437 376.52669868 5.64496883 363.00617706 5.875 350.0625 C5.88402344 349.09248047 5.89304687 348.12246094 5.90234375 347.12304688 C5.92573893 344.74843593 5.95851824 342.37435224 6 340 C7.0415625 339.79246094 8.083125 339.58492187 9.15625 339.37109375 C30.0907772 334.96602798 46.72380767 326.06193998 62 311 C62.74378906 310.26910156 63.48757813 309.53820312 64.25390625 308.78515625 C76.60328106 295.80743751 83.64293524 278.03285652 84.3125 260.1875 C83.92449349 246.58571618 79.62970153 234.80690611 70.375 224.75 C47.51180871 203.71935457 13.4049637 202.09442953 -16 203 C-37.98530033 204.10282251 -62.84955891 209.28062562 -78.4453125 226.0703125 C-88.83488663 238.96591456 -91.49341009 252.86583746 -90 269 C-87.33126594 289.64562325 -75.14267232 307.28565894 -59 320 C-46.08716631 329.37962889 -32.39631065 335.63397512 -16.81640625 339.078125 C-15.88699219 339.38234375 -14.95757812 339.6865625 -14 340 C-10.05519535 351.83441395 -13.65322502 366.69364682 -18.875 377.5 C-25.42313307 388.91088167 -35.48569782 397.79999113 -47 404 C-47.59151855 404.32307129 -48.18303711 404.64614258 -48.79248047 404.97900391 C-58.23519487 410.09010992 -67.69471908 413.97482207 -78 417 C-79.18722656 417.35191406 -79.18722656 417.35191406 -80.3984375 417.7109375 C-102.80904343 423.82292094 -127.50280596 420.32367962 -147.79296875 409.51171875 C-166.28172548 398.58535899 -176.27713897 380.62225697 -182 360.48046875 C-182.76282342 357.33015474 -183.42327147 354.18922267 -184 351 C-184.13148438 350.28199219 -184.26296875 349.56398438 -184.3984375 348.82421875 C-186.63768778 333.24024721 -184.63766288 317.38474465 -182 302 C-181.81824219 300.93007813 -181.63648438 299.86015625 -181.44921875 298.7578125 C-177.04127694 279.02702534 -161.95370915 261.82630197 -149 247 C-148.20722656 246.071875 -147.41445313 245.14375 -146.59765625 244.1875 C-145.88480469 243.3625 -145.17195313 242.5375 -144.4375 241.6875 C-143.81746094 240.96949219 -143.19742188 240.25148438 -142.55859375 239.51171875 C-141 238 -141 238 -139 238 C-139 237.34 -139 236.68 -139 236 C-137.7421875 234.6953125 -137.7421875 234.6953125 -135.875 233.125 C-134.78058594 232.196875 -134.78058594 232.196875 -133.6640625 231.25 C-132.78492188 230.5075 -131.90578125 229.765 -131 229 C-129.92312488 228.06405594 -128.84769237 227.12645036 -127.7734375 226.1875 C-120.41648316 219.77812635 -112.8797609 213.763123 -105 208 C-68.46439188 180.87790315 -41.33902727 149.77539366 -34.4362793 103.19604492 C-33.89860754 99.03293851 -33.44759409 94.8610719 -33 90.6875 C-32.82924723 89.15701116 -32.65801426 87.62657583 -32.48632812 86.09619141 C-31.64109468 78.47120813 -30.87531716 70.84277734 -30.21875 63.19921875 C-26.17395635 16.15812664 -26.17395635 16.15812664 -11 2 C-7.25278183 -0.49814545 -4.33531961 -0.72901618 0 0 Z " fill="#FDE8BF" transform="translate(491,247)"/>
<path d="M0 0 C13.21208549 9.31183376 26.08545264 19.11661995 38.31787109 29.68530273 C41.18416198 32.14827673 44.1072223 34.52437566 47.05224609 36.89233398 C50.76679697 39.91343035 54.19715504 43.04481052 57.52490234 46.48217773 C59.22088204 48.18617624 60.98214305 49.75947481 62.80224609 51.32983398 C73.0450154 60.17357199 82.76124185 69.56099473 92.30908203 79.14379883 C94.06868089 80.90881942 95.83365006 82.66834531 97.59912109 84.42749023 C103.34068383 90.16542924 108.91784913 95.95409857 114.17724609 102.14233398 C115.23261652 103.32360711 116.29121442 104.5020047 117.35302734 105.67749023 C135.55887063 126.03462109 151.39560589 150.76922166 150.49755859 179.08764648 C147.35649941 224.30534023 127.67724828 263.93412307 106.45068359 303.19311523 C99.09111953 316.85967574 92.82821081 330.90083248 87.42724609 345.45483398 C82.24036718 359.19738946 82.24036718 359.19738946 76.17724609 362.14233398 C68.54535864 364.32287326 63.0031264 361.7879746 56.17724609 358.14233398 C27.9526373 340.35340291 17.84328073 309.10788383 10.67724609 278.14233398 C9.80153881 274.15063556 8.98475023 270.1483339 8.17724609 266.14233398 C7.78448486 264.21695801 7.78448486 264.21695801 7.38378906 262.25268555 C3.62030331 243.69709034 0.29632802 225.07039215 -2.79541016 206.39233398 C-2.92485834 205.61104 -3.05430653 204.82974602 -3.18767738 204.02477646 C-4.49423509 196.13356419 -5.79212093 188.24104046 -7.06748581 180.3447237 C-13.4672735 140.77250347 -20.71828399 100.82562706 -39.82275391 65.14233398 C-40.38518799 64.06967285 -40.38518799 64.06967285 -40.95898438 62.9753418 C-50.88306794 44.0861032 -63.2101784 27.33510529 -77.60009766 11.58764648 C-79.02824806 10.01643004 -80.43883958 8.42897162 -81.82666016 6.82202148 C-91.98518118 -4.85931389 -103.63750354 -15.33148512 -115.82275391 -24.85766602 C-112.82984054 -28.00365607 -110.09273399 -30.55478973 -106.26025391 -32.60766602 C-105.51646484 -33.01500977 -104.77267578 -33.42235352 -104.00634766 -33.84204102 C-73.37386616 -48.08970683 -23.94613136 -16.57402512 0 0 Z " fill="#B26017" transform="translate(778.82275390625,178.857666015625)"/>
<path d="M0 0 C1.03060547 0.68255859 1.03060547 0.68255859 2.08203125 1.37890625 C3.75581425 2.5376791 5.38385749 3.76210361 7 5 C5.50153206 8.62401213 3.44211507 10.6317703 0.5 13.1875 C-0.84578125 14.37085938 -0.84578125 14.37085938 -2.21875 15.578125 C-3.1365625 16.37734375 -4.054375 17.1765625 -5 18 C-14.57883807 26.4553941 -23.80644823 35.17722848 -32 45 C-32.45213867 45.53834473 -32.90427734 46.07668945 -33.37011719 46.63134766 C-45.81677807 61.49973905 -56.96527856 76.81774275 -66 94 C-66.33451172 94.62664551 -66.66902344 95.25329102 -67.01367188 95.89892578 C-90.65624149 140.40733047 -97.18462202 190.04194223 -105.12109375 239.14556885 C-106.27381242 246.27339325 -107.43556521 253.39975079 -108.59759521 260.52606201 C-108.98204241 262.8895988 -109.36359903 265.25358606 -109.74462891 267.61767578 C-112.38398028 283.92713924 -115.52305458 300.02223744 -119.5 316.0625 C-119.76946442 317.16064529 -119.76946442 317.16064529 -120.04437256 318.28097534 C-123.52449892 332.35304174 -127.44007305 346.72646493 -134.8125 359.3125 C-135.23845459 360.05612793 -135.66440918 360.79975586 -136.10327148 361.56591797 C-144.30093821 375.60561751 -154.80002829 389.73739339 -171.12109375 394.63671875 C-175.8058641 395.54250595 -179.6985613 395.50904711 -184 393.375 C-192.75551518 387.29665196 -196.01202602 373.55827827 -199.74707031 364.01489258 C-205.44819033 349.61270059 -212.36496512 335.78607306 -219.875 322.25 C-233.43811829 297.7721174 -245.6094066 272.36238129 -252 245 C-252.29414795 243.75428223 -252.29414795 243.75428223 -252.59423828 242.48339844 C-259.0579002 214.16590002 -257.49890283 188.36412117 -243 163 C-242.44441406 162.01644531 -241.88882813 161.03289062 -241.31640625 160.01953125 C-237.04252407 152.91689251 -231.76166095 146.79720932 -226.34033203 140.56689453 C-224.35076324 138.24101976 -222.46381124 135.83570564 -220.5625 133.4375 C-216.78908367 128.79016858 -212.72267139 124.56529693 -208.42407227 120.40991211 C-205.68106834 117.74641554 -203.11394846 115.00959379 -200.625 112.10546875 C-197.03427026 107.9555592 -193.15298975 104.22094661 -189.125 100.5 C-187.62477426 99.10310698 -186.12478114 97.7059641 -184.625 96.30859375 C-183.861875 95.59944824 -183.09875 94.89030273 -182.3125 94.15966797 C-180.0289341 92.02702186 -177.76188413 89.87826741 -175.5 87.72265625 C-168.75703955 81.30335192 -162.0267233 74.9942772 -154.73046875 69.19921875 C-152.07399549 67.05959866 -149.49307444 64.85400212 -146.91772461 62.6184082 C-139.8182565 56.45676988 -132.54760164 50.60499563 -125 45 C-124.33516602 44.50387207 -123.67033203 44.00774414 -122.98535156 43.49658203 C-95.76406602 23.258148 -66.46604755 4.54584766 -33 -3 C-32.23042969 -3.19078125 -31.46085938 -3.3815625 -30.66796875 -3.578125 C-20.70174199 -5.15404373 -8.61382829 -5.84843439 0 0 Z " fill="#B26017" transform="translate(304,147)"/>
<path d="M0 0 C19.53231349 10.03895442 41.95415779 31.68496573 49.19140625 52.5703125 C51.9494166 64.26853998 50.23551281 75.37014013 44.5625 85.8125 C41.93708453 89.89080382 38.91849435 93.4477143 35.61187744 96.97862244 C35.08683129 97.54289536 34.56178513 98.10716829 34.02082849 98.6885404 C28.0253118 105.09639511 21.84521299 111.31826358 15.64746094 117.52954102 C14.35801884 118.82526927 13.06875838 120.12117831 11.77966309 121.41725159 C7.60138358 125.61628027 3.4180349 129.81023941 -0.765625 134.00390625 C-2.21546187 135.45779859 -3.66526786 136.91172172 -5.11504364 138.36567497 C-11.91694849 145.18655002 -18.72120585 152.00506734 -25.5284102 158.8206535 C-33.36027786 166.66232894 -41.18375665 174.51225338 -49.0003798 182.369124 C-55.06754981 188.46645267 -61.14237494 194.556086 -67.22298598 200.6400103 C-70.84528658 204.26465711 -74.46423026 207.89250995 -78.07508087 211.52856636 C-81.4645427 214.94131616 -84.86341189 218.3444082 -88.26966858 221.74039268 C-89.5147237 222.9849529 -90.75638412 224.23292026 -91.99430084 225.48458099 C-99.92464311 233.49800366 -106.41188905 239.01899534 -117.59277344 241.98291016 C-119.4557608 242.48330307 -119.4557608 242.48330307 -121.35638428 242.99380493 C-122.6906237 243.34257175 -124.02495637 243.690982 -125.359375 244.0390625 C-126.75425035 244.40909211 -128.14896187 244.77973981 -129.54351807 245.15097046 C-132.45695215 245.92451484 -135.37187258 246.69207997 -138.28808594 247.45507812 C-141.99310589 248.42474022 -145.6946576 249.40692651 -149.39522934 250.39341164 C-152.27345883 251.15957577 -155.15315596 251.92009805 -158.03333282 252.67890549 C-159.39701302 253.03864241 -160.76032277 253.39978712 -162.12322235 253.76247025 C-193.30875514 262.04246203 -193.30875514 262.04246203 -202.375 257 C-206.51431242 253.91680844 -209.22211791 250.87593719 -211 246 C-212.95227859 232.10976094 -208.49639517 218.19491119 -205.3125 204.8125 C-204.77522749 202.49708429 -204.23941108 200.18133021 -203.70507812 197.86523438 C-202.41112613 192.27928431 -201.08700017 186.7011373 -199.74713135 181.1260376 C-199.02984805 178.12488584 -198.32885433 175.12031942 -197.63037109 172.11474609 C-197.2061163 170.33023407 -196.78119111 168.54588123 -196.35546875 166.76171875 C-196.17486404 165.9696553 -195.99425934 165.17759186 -195.80818176 164.36152649 C-195.62809067 163.62049179 -195.44799957 162.87945709 -195.26245117 162.1159668 C-195.11410324 161.48538864 -194.96575531 160.85481049 -194.81291199 160.2051239 C-192.2575112 153.27328449 -188.046562 148.62578181 -182.86401367 143.53930664 C-182.15290939 142.82937057 -181.44180511 142.11943451 -180.70915222 141.38798523 C-178.36899625 139.0549858 -176.01850616 136.73269172 -173.66796875 134.41015625 C-172.03062782 132.78095997 -170.39402713 131.15101944 -168.75813293 129.52037048 C-164.45510549 125.23443297 -160.14359044 120.95714179 -155.82977295 116.68206787 C-148.93449646 109.84604257 -142.05181892 102.99733946 -135.16985512 96.14791679 C-132.77364187 93.76557937 -130.37360335 91.38715084 -127.97294617 89.0092926 C-126.48993308 87.53631263 -125.00700334 86.06324873 -123.52416992 84.59008789 C-122.86366638 83.93789276 -122.20316284 83.28569763 -121.52264404 82.61373901 C-117.74548106 78.85442706 -114.18767567 74.97179326 -110.70513439 70.93894482 C-108.02603293 67.89248119 -105.19052548 65.01081529 -102.3371582 62.12841797 C-101.71167587 61.49315186 -101.08619354 60.85788574 -100.4417572 60.20336914 C-98.39786544 58.12988529 -96.3500128 56.06039368 -94.30078125 53.9921875 C-93.59402945 53.27886387 -92.88727764 52.56554024 -92.15910912 51.83060074 C-88.42049125 48.05955656 -84.67791554 44.29248346 -80.93286133 40.52783203 C-77.85329027 37.43043458 -74.78246811 34.32474351 -71.71899414 31.21142578 C-67.99608127 27.42804764 -64.25839953 23.6598608 -60.50996971 19.90176773 C-59.0939941 18.47728859 -57.68311648 17.04772121 -56.27773476 15.61278915 C-40.05258069 -0.93514438 -22.96703252 -9.89349093 0 0 Z " fill="#201400" transform="translate(853,586)"/>
<path d="M0 0 C3.66910554 1.22303518 4.44441033 2.57239927 6.75 5.625 C26.52097965 30.77511105 59.18518791 42.50206328 90 47 C89.80664062 48.22589844 89.61328125 49.45179688 89.4140625 50.71484375 C87.26727471 64.77043637 85.98307062 78.81872089 85 93 C78.51183987 95.76064516 72.11777032 97.96908684 65.25 99.5625 C64.35676025 99.77229492 63.46352051 99.98208984 62.54321289 100.19824219 C52.46453989 102.47557138 42.26851797 103.89969958 32 105 C31.15026611 105.09498779 30.30053223 105.18997559 29.42504883 105.2878418 C-27.88877685 110.92418415 -89.20642124 103.74490978 -136 68 C-138.67808356 65.77246885 -141.24822652 63.49227816 -143.7734375 61.09375 C-145.96016349 58.98394788 -145.96016349 58.98394788 -148.2890625 57.15625 C-158.38817712 48.96590275 -165.69475774 36.20442589 -170 24 C-169.67 23.34 -169.34 22.68 -169 22 C-168.23429687 22.74443359 -168.23429687 22.74443359 -167.453125 23.50390625 C-145.20268696 44.29465243 -116.18545463 47.81793029 -87 47 C-57.70567794 45.64736818 -26.10775572 29.99747942 -6 9 C-3.77111774 6.11163572 -1.78925922 3.1782894 0 0 Z " fill="#E2C59D" transform="translate(486,639)"/>
<path d="M0 0 C2.98932164 1.34155631 5.05967051 2.81752877 7.35644531 5.14526367 C7.99100647 5.78320358 8.62556763 6.42114349 9.27935791 7.07841492 C9.95545105 7.76796768 10.63154419 8.45752045 11.328125 9.16796875 C12.38987946 10.23752556 12.38987946 10.23752556 13.4730835 11.32868958 C15.73685772 13.61026194 17.99385671 15.89838342 20.25 18.1875 C22.49266506 20.45793875 24.73682159 22.72684929 26.98406982 24.99275208 C28.38052401 26.40129031 29.77429967 27.81249126 31.16485596 29.22685242 C35.05591825 33.15718137 39.06548172 36.87109016 43.25408936 40.48240662 C45.19270892 42.16750788 47.03630731 43.9212718 48.84375 45.74609375 C49.75253906 46.6597168 49.75253906 46.6597168 50.6796875 47.59179688 C51.58074219 48.50541992 51.58074219 48.50541992 52.5 49.4375 C53.13164063 50.07365234 53.76328125 50.70980469 54.4140625 51.36523438 C55.94505774 52.90782806 57.47287667 54.45357314 59 56 C57.64296597 59.03579807 56.1245168 61.11711042 53.76293945 63.44824219 C53.10497879 64.1028241 52.44701813 64.75740601 51.76911926 65.43182373 C51.05769272 66.12979065 50.34626617 66.82775757 49.61328125 67.546875 C48.87804733 68.27690735 48.14281342 69.0069397 47.38529968 69.75909424 C45.0323975 72.09419488 42.67294328 74.42252447 40.3125 76.75 C37.97073528 79.06399867 35.63049486 81.3794862 33.29325867 83.69805908 C31.84020192 85.13902375 30.38448192 86.57730974 28.9256134 88.01239014 C25.77437156 91.13308451 22.71991676 94.27417324 19.84179688 97.64941406 C14.38744777 103.97293219 8.38025212 109.78430076 2.48046875 115.6875 C1.17239781 116.99878858 -0.13559963 118.31015047 -1.44352722 119.62158203 C-4.16916163 122.35317131 -6.89682141 125.08271946 -9.62573242 127.81103516 C-13.12918479 131.31438514 -16.62566286 134.82460981 -20.12048817 138.33656311 C-22.81158321 141.03873794 -25.50717156 143.73639488 -28.20407677 146.43276978 C-29.49632949 147.72620506 -30.78695521 149.02126793 -32.07593727 150.31796265 C-33.86861562 152.12037612 -35.66744258 153.91641752 -37.46801758 155.7109375 C-38.00152328 156.25006271 -38.53502899 156.78918793 -39.08470154 157.34465027 C-42.77167253 161 -42.77167253 161 -45 161 C-45.21914063 160.35933594 -45.43828125 159.71867188 -45.6640625 159.05859375 C-49.35795269 148.9829827 -54.13989168 143.77507635 -63.54296875 138.51171875 C-69.48790943 135.91206672 -75.59475544 134.91878508 -82 134 C-82.21914063 133.02160156 -82.43828125 132.04320312 -82.6640625 131.03515625 C-84.76751172 122.14964247 -86.95134862 113.91270482 -94.5 108.0625 C-97.29325679 106.87536586 -100.09502286 105.8782489 -103 105 C-99.11411037 100.34414813 -95.07429899 95.94511789 -90.75390625 91.69140625 C-90.17970444 91.12099106 -89.60550262 90.55057587 -89.01390076 89.96287537 C-86.59114554 87.55624785 -84.16241462 85.15568571 -81.73413086 82.75463867 C-79.94691746 80.98570386 -78.16286615 79.21362125 -76.37890625 77.44140625 C-75.84326553 76.91406387 -75.30762482 76.3867215 -74.75575256 75.84339905 C-72.04949175 73.15430738 -69.47574212 70.415207 -67.00537109 67.50756836 C-61.20947862 60.81522702 -54.8037847 54.6815285 -48.53515625 48.4375 C-47.13246609 47.03667785 -45.72999872 45.63563257 -44.32774353 44.234375 C-40.6590246 40.56945113 -36.98731122 36.90754192 -33.31494141 33.24627686 C-29.55904022 29.50065494 -25.80601289 25.75215587 -22.05273438 22.00390625 C-14.70461446 14.66647047 -7.3533242 7.33221995 0 0 Z " fill="#9E5DBC" transform="translate(792,635)"/>
<path d="M0 0 C0.88816406 0.39058594 1.77632812 0.78117187 2.69140625 1.18359375 C14.67373293 7.06643286 24.21787032 17.24821713 28.68017578 29.93359375 C33.2786207 44.64297088 33.52087449 58.63394683 26.375 72.6875 C19.33155528 84.57655779 9.43626364 93.47732005 -3.9296875 97.4921875 C-17.98559147 100.93986206 -31.72594368 99.34729452 -44.51953125 92.57421875 C-56.2454948 85.13238676 -65.34833391 73.82972184 -68.58984375 60.24804688 C-71.39761703 44.85877522 -68.6747679 30.43951048 -59.90234375 17.53125 C-46.37293242 -0.47092359 -21.35422878 -9.60027721 0 0 Z " fill="#211500" transform="translate(644,347)"/>
<path d="M0 0 C11.66763022 8.7892721 18.1671339 19.90460777 21.75 33.9375 C23.07919049 50.22008349 20.22909396 63.99853478 10 77 C1.1440426 86.93191484 -12.03366659 92.31789353 -25.08203125 93.2109375 C-39.8528152 93.66650142 -52.09171212 89.29812998 -63.3125 79.6875 C-72.81376682 70.66807238 -78.41004457 59.37158709 -79.23828125 46.21484375 C-79.61461917 31.70549129 -76.42299671 19.50655495 -66.671875 8.33203125 C-48.60164104 -10.43107977 -22.24867223 -15.10793939 0 0 Z " fill="#211500" transform="translate(379,352)"/>
<path d="M0 0 C0.66 0.33 1.32 0.66 2 1 C1.90912109 2.2375 1.90912109 2.2375 1.81640625 3.5 C1.73261719 4.655 1.64882812 5.81 1.5625 7 C1.48128906 8.11375 1.40007812 9.2275 1.31640625 10.375 C1.24667603 11.41527344 1.24667603 11.41527344 1.17553711 12.4765625 C1.0454071 14.34724932 0.90073876 16.21693705 0.74829102 18.0859375 C-0.16963365 30.46348776 -0.18611143 42.83468323 -0.18530273 55.24169922 C-0.18747932 58.96463637 -0.20566778 62.68727159 -0.22460938 66.41015625 C-0.33544906 112.4242682 3.61909715 161.91552506 36.5625 197.0625 C46.84198574 206.96008534 59.53994452 215.16448409 73 220 C73.66 219.67 74.32 219.34 75 219 C75.15855469 220.00417969 75.31710937 221.00835938 75.48046875 222.04296875 C77.97190011 236.98420756 82.49413723 252.18591983 93.125 263.5 C96.47283799 267.14896628 97.93782497 271.31133482 99.72265625 275.87890625 C103.11268888 284.16219699 107.90066683 291.6764896 113 299 C75.46514872 288.27575678 39.75169196 258.14809865 16 228 C15.34644531 227.21367188 14.69289062 226.42734375 14.01953125 225.6171875 C-7.12181431 200.04502101 -21.88757715 169.46077787 -24 136 C-24.06123047 135.03320312 -24.12246094 134.06640625 -24.18554688 133.0703125 C-25.01947432 117.44120034 -23.4710066 105.14239085 -17.93164062 90.59472656 C-11.88353661 73.7500595 -9.47511848 55.3537534 -6.25 37.8125 C-6.05327698 36.74269897 -5.85655396 35.67289795 -5.65386963 34.57067871 C-3.54938592 23.07521456 -1.5007364 11.59255276 0 0 Z " fill="#CB7D1E" transform="translate(220,393)"/>
<path d="M0 0 C3.3304946 1.3740433 4.70799182 2.62552665 6.40234375 5.7890625 C6.81556885 6.55839111 7.22879395 7.32771973 7.65454102 8.12036133 C8.07791748 8.94689209 8.50129395 9.77342285 8.9375 10.625 C9.37698975 11.47151123 9.81647949 12.31802246 10.26928711 13.19018555 C25.20255375 42.79920097 20.25609166 74.78224478 10.3203125 105.296875 C1.65139869 130.67054542 -11.00526736 154.52246974 -23.7265625 178.05078125 C-31.08612657 191.71734176 -37.34903528 205.7584985 -42.75 220.3125 C-47.93687891 234.05505547 -47.93687891 234.05505547 -54 237 C-61.63188746 239.18053927 -67.1741197 236.64564062 -74 233 C-103.0586788 214.68538534 -112.78045029 182.29139685 -120 150.5 C-122 141.53373401 -122 141.53373401 -122 139 C-121.01 139.33 -120.02 139.66 -119 140 C-117.9296875 142.265625 -117.9296875 142.265625 -116.875 145.25 C-112.23015401 156.97403898 -104.94989371 168.04344771 -93.1875 173.375 C-83.74122839 176.77109161 -75.94642721 175.1004458 -67 171 C-40.0700025 158.07526355 -17.59845725 117.39500913 -7.71923828 90.18701172 C-6.18939918 85.53517917 -4.95915981 80.80609856 -3.75 76.0625 C-3.50354736 75.09828125 -3.25709473 74.1340625 -3.00317383 73.140625 C0.17902244 59.99385354 1.3188257 47.15025374 1.20581055 33.68383789 C1.18748446 31.43559383 1.18530252 29.18776452 1.18554688 26.93945312 C1.1629906 17.91657215 0.7789621 8.99347154 0 0 Z " fill="#974E0D" transform="translate(909,304)"/>
<path d="M0 0 C1.07687576 -0.00101212 1.07687576 -0.00101212 2.17550659 -0.00204468 C25.63043284 0.03296707 49.78833124 2.36065808 67.5 19.4375 C70.90544869 22.91374804 72.74850718 25.61206219 73.3125 30.5 C72.244284 41.18215997 64.17553124 48.13492502 56.28564453 54.60449219 C37.20165649 69.5868305 17.1465253 76.21711341 -7.0625 74.25 C-10.96340311 73.6603286 -14.40042793 72.69739039 -18.0625 71.25 C-19.01898438 70.89808594 -19.97546875 70.54617188 -20.9609375 70.18359375 C-36.23617026 64.23449924 -54.62155259 53.63617334 -63.3203125 39.15625 C-65.03467386 34.75304819 -64.47154581 30.60772144 -62.625 26.375 C-55.49729148 13.68718896 -42.38971691 7.14228302 -28.83642578 3.32543945 C-25.92535718 2.56415552 -23.0037562 1.88410761 -20.0625 1.25 C-19.31129883 1.0749292 -18.56009766 0.8998584 -17.78613281 0.71948242 C-11.94662186 -0.28709517 -5.91562853 0.00495102 0 0 Z " fill="#32230D" transform="translate(483.0625,467.75)"/>
<path d="M0 0 C0.8483844 0.00060425 1.6967688 0.0012085 2.57086182 0.00183105 C57.26369217 0.10673649 122.11435938 7.05102253 164.84326172 44.73339844 C167.35321875 46.93636102 169.92716812 49.05853072 172.5 51.1875 C171.84 51.5175 171.18 51.8475 170.5 52.1875 C170.5 52.8475 170.5 53.5075 170.5 54.1875 C166.1641056 53.54867076 162.70554559 51.99670361 158.7734375 50.08984375 C92.50393807 18.45867824 22.46742146 6.8450195 -50.5 17.1875 C-51.68335938 17.35378906 -52.86671875 17.52007812 -54.0859375 17.69140625 C-77.693248 21.14800811 -100.0766613 27.63624696 -121.5 38.1875 C-122.50063477 38.67452393 -122.50063477 38.67452393 -123.52148438 39.17138672 C-132.59179661 43.63325187 -140.62167874 48.80479588 -148.5 55.1875 C-149.44359375 55.92742187 -150.3871875 56.66734375 -151.359375 57.4296875 C-158.98432795 63.61261567 -165.93834658 70.44222405 -172.875 77.375 C-173.34935486 77.84835785 -173.82370972 78.3217157 -174.31243896 78.80941772 C-179.92696051 84.42527624 -185.37546853 90.1204065 -190.5 96.1875 C-191.00998535 96.7853833 -191.5199707 97.3832666 -192.04541016 97.99926758 C-205.76535385 114.20795546 -217.21806066 131.6330153 -227.5 150.1875 C-228.06315918 151.18620117 -228.06315918 151.18620117 -228.63769531 152.20507812 C-234.11229653 161.93661141 -238.7949576 172.01235465 -243.375 182.1875 C-243.65817078 182.8142865 -243.94134155 183.441073 -244.23309326 184.08685303 C-250.22780996 197.21174273 -250.22780996 197.21174273 -253.5 211.1875 C-253.83 211.1875 -254.16 211.1875 -254.5 211.1875 C-254.06906152 202.14150695 -252.75730429 193.70151985 -250.5 184.9375 C-250.19312256 183.73383789 -249.88624512 182.53017578 -249.57006836 181.29003906 C-244.79540083 163.13322116 -238.51523414 145.66713579 -229.5 129.1875 C-228.68575872 127.65908806 -227.87197727 126.13043109 -227.05859375 124.6015625 C-222.42650729 115.98831823 -217.5255908 107.91497522 -211.5 100.1875 C-210.74203125 99.176875 -209.9840625 98.16625 -209.203125 97.125 C-206.68474196 93.77292427 -204.10971278 90.46888664 -201.5 87.1875 C-200.87544922 86.40197754 -200.87544922 86.40197754 -200.23828125 85.60058594 C-186.75383967 68.84876044 -171.01454834 52.70784689 -153.5 40.1875 C-152.67242187 39.56488281 -151.84484375 38.94226563 -150.9921875 38.30078125 C-108.80683605 7.32308918 -50.93572679 -0.06738685 0 0 Z " fill="#FAC373" transform="translate(484.5,124.8125)"/>
<path d="M0 0 C0.33 0.66 0.66 1.32 1 2 C1.66 2 2.32 2 3 2 C16.7696853 32.42723773 21.53844443 65.32896304 26.4921875 98.078125 C27.80405331 106.74697172 29.13788228 115.41136164 30.5625 124.0625 C30.73007309 125.08061264 30.73007309 125.08061264 30.90103149 126.11929321 C32.8260746 137.7204348 34.96698708 149.28100889 37.12890625 160.83984375 C37.27035883 161.59697222 37.41181141 162.35410069 37.55755043 163.13417244 C38.99832456 170.84492548 40.44393144 178.55468906 41.90938663 186.26079273 C44.6436156 200.65512993 47.28041173 215.04467434 49.3828125 229.546875 C49.54705719 230.66783569 49.71130188 231.78879639 49.88052368 232.94372559 C51.04924485 241.34245861 51.47351742 249.52929949 51 258 C50.30664551 258.04487549 49.61329102 258.08975098 48.89892578 258.13598633 C28.55613511 259.48623107 9.5434079 261.97234065 -10.08740234 267.47509766 C-11.03413818 267.73492432 -11.03413818 267.73492432 -12 268 C-12.69947754 268.22864746 -13.39895508 268.45729492 -14.11962891 268.69287109 C-14.74015137 268.79422363 -15.36067383 268.89557617 -16 269 C-16.66 268.34 -17.32 267.68 -18 267 C-17.67314209 266.4423999 -17.34628418 265.8847998 -17.00952148 265.31030273 C8.58290263 221.50122084 13.57362537 179.56800528 13.44604492 129.54394531 C13.43687751 125.77516413 13.44375359 122.00700406 13.46655273 118.23828125 C13.58317973 98.82655144 13.369432 79.59795864 11.1640625 60.29296875 C11.08228193 59.57649548 11.00050137 58.8600222 10.9162426 58.12183762 C8.8254188 40.30582554 5.57117723 22.45429727 0.55297852 5.22680664 C0 3 0 3 0 0 Z " fill="#CA7C1D" transform="translate(725,268)"/>
<path d="M0 0 C3.6156264 4.22944205 6.31835406 8.78680403 9.125 13.5625 C13.13501959 20.25213724 17.34501542 26.21035624 22.48046875 32.08984375 C25.2133909 35.24647476 27.7629103 38.50823907 30.3125 41.8125 C53.14382753 72.44439756 53.14382753 72.44439756 86 89 C99.39417879 89.87759925 108.4565242 88.28753685 119.1875 79.68359375 C121.21158439 77.93408014 121.21158439 77.93408014 123 75 C123.66 75 124.32 75 125 75 C126.57721373 79.82665405 125.2229909 83.63820221 123.625 88.25 C123.35461914 89.03922852 123.08423828 89.82845703 122.80566406 90.64160156 C115.26446408 111.75191722 102.71997291 132.26648652 82.4453125 142.90625 C77.42126579 145.15342744 72.40389206 146.07209199 67.015625 144.375 C56.61179693 139.21341088 53.21337326 124.1341944 49.25292969 114.01489258 C43.55180967 99.61270059 36.63503488 85.78607306 29.125 72.25 C2.23232326 23.71574926 2.23232326 23.71574926 -1 2 C-0.67 1.34 -0.34 0.68 0 0 Z " fill="#974D0D" transform="translate(55,397)"/>
<path d="M0 0 C0.66 0 1.32 0 2 0 C4.9178326 5.83566519 3.27802644 14.07047257 1.5 20.0625 C-3.7174024 33.49840436 -14.62133954 42.99367838 -24.6875 52.875 C-26.10291748 54.27533051 -27.51763604 55.67636782 -28.93164062 57.078125 C-32.08580638 60.2027024 -35.24467803 63.32232517 -38.41635132 66.42913818 C-39.88428052 67.88521488 -41.31839058 69.37517235 -42.74926758 70.86767578 C-45 73 -45 73 -48 74 C-48.33 74.66 -48.66 75.32 -49 76 C-49.33 76.66 -49.66 77.32 -50 78 C-50.99 78.33 -51.98 78.66 -53 79 C-53 79.66 -53 80.32 -53 81 C-54.3984375 82.33984375 -54.3984375 82.33984375 -56.375 83.9375 C-59.8825176 86.9058762 -62.9479733 90.06528883 -66 93.5 C-69.54454663 97.4801284 -73.18541526 101.02284436 -77.2578125 104.44921875 C-79.82927436 106.73816574 -81.84297647 109.31829507 -84 112 C-85.12317587 113.14019369 -86.24893686 114.27795388 -87.38745117 115.40283203 C-89.39236704 117.38862456 -91.37706759 119.39394 -93.36328125 121.3984375 C-95.01295516 123.05735698 -96.66269658 124.71620932 -98.3125 126.375 C-99.12912109 127.2 -99.94574219 128.025 -100.78710938 128.875 C-105.09920406 133.20427434 -109.47929296 137.36024274 -114.11303711 141.34228516 C-117.24824224 144.09659267 -120.18507506 147.04025535 -123.125 150 C-123.70636719 150.5775 -124.28773438 151.155 -124.88671875 151.75 C-128.31873322 155.18969236 -131.52268299 158.74752693 -134.65576172 162.45996094 C-136.9067743 165.03885439 -139.46482442 167.1734771 -142.07421875 169.375 C-143.69575155 170.74327108 -145.26143322 172.17733767 -146.8125 173.625 C-155.74482072 180.28045465 -166.62981515 182.83273888 -177.25 185.5625 C-177.99545074 185.75665497 -178.74090149 185.95080994 -179.50894165 186.15084839 C-219.23653384 196.46943456 -219.23653384 196.46943456 -233 194 C-237.26430232 191.20080713 -238.82522992 188.54724653 -241 184 C-241.99 183.34 -242.98 182.68 -244 182 C-243.15296509 181.88108398 -243.15296509 181.88108398 -242.28881836 181.75976562 C-224.85511555 179.24316691 -207.97618979 175.15250086 -191.00463867 170.54150391 C-188.29993601 169.81089491 -185.59133357 169.09536244 -182.88264465 168.37969971 C-179.60687466 167.51197159 -176.33485294 166.63052856 -173.0625 165.75 C-171.86665283 165.43321289 -170.67080566 165.11642578 -169.4387207 164.79003906 C-168.31554443 164.48291992 -167.19236816 164.17580078 -166.03515625 163.859375 C-165.0594165 163.59608398 -164.08367676 163.33279297 -163.07836914 163.06152344 C-156.16329861 160.67697854 -150.92911573 157.52624886 -145.81481934 152.31602478 C-145.24601469 151.75275453 -144.67721004 151.18948427 -144.09116888 150.60914522 C-142.20418916 148.73568356 -140.33172225 146.84838304 -138.45898438 144.96069336 C-137.10217789 143.60767339 -135.74451424 142.25551252 -134.38606262 140.90414429 C-130.70946781 137.24148235 -127.04552461 133.56640384 -123.38415718 129.88852763 C-119.54117093 126.03165422 -115.68799702 122.18498161 -111.83630371 118.33680725 C-105.36675149 111.86995538 -98.9053234 105.39507226 -92.44873047 98.9152832 C-85.00202254 91.44200617 -77.54300762 83.98119175 -70.07712889 76.52706999 C-62.878013 69.33876725 -55.68745796 62.1419595 -48.50080872 54.94119453 C-45.4510937 51.8857464 -42.39851526 48.83320293 -39.34355164 45.78300285 C-35.73821185 42.18246659 -32.14049519 38.57447556 -28.54831505 34.96081161 C-27.23518696 33.64215977 -25.91956406 32.3259864 -24.60116005 31.01260948 C-15.71493691 22.15600477 -7.49694733 13.44063105 -2 2 C-1.34 2 -0.68 2 0 2 C0 1.34 0 0.68 0 0 Z " fill="#E79700" transform="translate(902,663)"/>
<path d="M0 0 C4.2501585 0.53598802 6.50020205 1.89701299 9.8125 4.5625 C22.01649483 13.70321022 36.96389239 20.30992425 52 23 C55.94480465 34.83441395 52.34677498 49.69364682 47.125 60.5 C40.57686693 71.91088167 30.51430218 80.79999113 19 87 C18.11272217 87.48460693 18.11272217 87.48460693 17.20751953 87.97900391 C7.76480513 93.09010992 -1.69471908 96.97482207 -12 100 C-12.79148437 100.23460937 -13.58296875 100.46921875 -14.3984375 100.7109375 C-36.80904343 106.82292094 -61.50280596 103.32367962 -81.79296875 92.51171875 C-93.66736924 85.49426628 -102.77974026 76.22348053 -107 63 C-107.556875 61.948125 -108.11375 60.89625 -108.6875 59.8125 C-110 57 -110 57 -109 54 C-107.5 55.375 -107.5 55.375 -106 57 C-106 57.66 -106 58.32 -106 59 C-105.41863281 59.26554688 -104.83726562 59.53109375 -104.23828125 59.8046875 C-101.92956017 61.03761708 -100.18081284 62.43441909 -98.1875 64.125 C-94.19761628 67.26695126 -90.07269947 69.82767796 -85.625 72.25 C-85.0374292 72.57887207 -84.4498584 72.90774414 -83.84448242 73.24658203 C-74.16088825 78.37711914 -64.40295562 79.55847953 -53.5625 79.5 C-52.33764893 79.49500488 -51.11279785 79.49000977 -49.85083008 79.48486328 C-38.9995418 79.27909112 -29.24387454 77.50062969 -19 74 C-18.32727051 73.77538086 -17.65454102 73.55076172 -16.96142578 73.31933594 C1.57783926 66.96539476 18.60886674 57.50155805 27.9765625 39.60546875 C29.64980358 35.43817417 29.64980358 35.43817417 30 31 C28.03730845 28.44953565 25.59177004 26.59260253 23.0625 24.625 C21.66630343 23.47858767 20.27175762 22.33016182 18.87890625 21.1796875 C18.2048877 20.63151367 17.53086914 20.08333984 16.83642578 19.51855469 C10.35228447 14.15676807 4.82198456 7.8863967 0 1 C0 0.67 0 0.34 0 0 Z " fill="#E2C69D" transform="translate(425,564)"/>
<path d="M0 0 C1.03060547 0.68255859 1.03060547 0.68255859 2.08203125 1.37890625 C3.75581425 2.5376791 5.38385749 3.76210361 7 5 C5.45212498 8.83450856 3.06277254 11.02555699 0 13.75 C-1.3303125 14.94882813 -1.3303125 14.94882813 -2.6875 16.171875 C-5 18 -5 18 -7 18 C-7.99 14.535 -7.99 14.535 -9 11 C-20.27859429 7.63284685 -32.1090777 10.63001913 -43 14 C-44.2065625 14.36609375 -45.413125 14.7321875 -46.65625 15.109375 C-67.37672734 22.16130216 -86.39497062 34.19156173 -104 47 C-105.64452829 48.17969163 -107.2890596 49.35937904 -108.93359375 50.5390625 C-117.2861996 56.57560655 -125.37761093 62.80783405 -133.1640625 69.55859375 C-135.71075466 71.75099403 -138.29856863 73.85795376 -140.9375 75.9375 C-154.0710869 86.36773919 -166.92159713 97.47231428 -178.4765625 109.63671875 C-180 111 -180 111 -182 111 C-182 111.66 -182 112.32 -182 113 C-183.50390625 114.48046875 -183.50390625 114.48046875 -185.5625 116.1875 C-191.54121361 121.28203765 -196.87055699 126.76249668 -201.9921875 132.7109375 C-203.94347781 134.9355603 -205.94140516 137.1114534 -207.9543457 139.28027344 C-213.55872239 145.3247945 -218.88332071 151.53258894 -224 158 C-224.77859375 158.98355469 -225.5571875 159.96710938 -226.359375 160.98046875 C-235.5614136 172.77607555 -244.57900486 184.78447417 -251.6953125 197.97265625 C-252.12585938 198.64167969 -252.55640625 199.31070313 -253 200 C-253.66 200 -254.32 200 -255 200 C-256.16101127 171.80919521 -232.30922208 146.47229131 -214.6875 127.125 C-213.30625071 125.63444321 -211.92485793 124.14401277 -210.53955078 122.65722656 C-208.83021302 120.81723533 -207.13215788 118.96712673 -205.43359375 117.1171875 C-198.49403153 109.59596232 -191.39922731 102.40198191 -183.80078125 95.546875 C-181.52727585 93.47947539 -179.33731349 91.38098916 -177.1875 89.1875 C-174.32721354 86.27825998 -171.31316957 83.60317784 -168.22265625 80.94140625 C-165.67023117 78.71195939 -163.18112486 76.41998618 -160.6875 74.125 C-155.28508543 69.2042822 -149.69831141 64.57207447 -144 60 C-142.87979484 59.08774711 -141.76002295 58.17496197 -140.640625 57.26171875 C-108.85809975 31.43651871 -73.57985406 6.14985244 -33 -3 C-32.23042969 -3.19078125 -31.46085938 -3.3815625 -30.66796875 -3.578125 C-20.70174199 -5.15404373 -8.61382829 -5.84843439 0 0 Z " fill="#C5793D" transform="translate(304,147)"/>
<path d="M0 0 C2.90356857 2.90356857 2.33528975 5.06661232 2.375 9.125 C2.28939 35.13863295 -11.75648748 57.32744822 -29.359375 75.42578125 C-34.99907828 80.75321908 -41.24105896 85.06798494 -47.73120117 89.28369141 C-48.39869385 89.72374512 -49.06618652 90.16379883 -49.75390625 90.6171875 C-50.65604858 91.19895752 -50.65604858 91.19895752 -51.57641602 91.79248047 C-53.30354361 93.04576981 -53.30354361 93.04576981 -54 96 C-47.79946662 108.80398951 -34.7215937 115.164794 -22 120 C-9.86977497 124.21128414 2.20336026 126.95020494 15 128 C15.64996407 134.11372456 13.32465998 138.86963971 11 144.375 C10.6184375 145.30183594 10.236875 146.22867188 9.84375 147.18359375 C8.9051185 149.45977514 7.9570302 151.73150754 7 154 C1.5383838 154.1456431 -3.42030226 153.78134467 -8.75 152.5 C-9.47098877 152.32694336 -10.19197754 152.15388672 -10.93481445 151.97558594 C-31.13103821 146.81176648 -49.31037929 137.84684907 -64 123 C-64.61617188 122.40574219 -65.23234375 121.81148437 -65.8671875 121.19921875 C-75.13168563 111.52669868 -78.35503117 98.00617706 -78.125 85.0625 C-78.11597656 84.09248047 -78.10695313 83.12246094 -78.09765625 82.12304688 C-78.07426107 79.74843593 -78.04148176 77.37435224 -78 75 C-76.9584375 74.79246094 -75.916875 74.58492187 -74.84375 74.37109375 C-53.9092228 69.96602798 -37.27619233 61.06193998 -22 46 C-21.25621094 45.26910156 -20.51242187 44.53820312 -19.74609375 43.78515625 C-8.17660831 31.62700815 -2.45048931 16.37958644 0 0 Z " fill="#E2C69E" transform="translate(575,512)"/>
<path d="M0 0 C2.7888064 1.30159576 5.09449327 2.74404033 7.4765625 4.6875 C26.38281514 19.81019928 47.93183307 31.54782993 72 36 C67.31674807 43.80541988 57.82001545 45.99798605 49.5 48.125 C8.66444435 57.99798115 -38.56237903 57.49513625 -78 42 C-80.42578125 40.3515625 -80.42578125 40.3515625 -82 39 C-79.70913298 36.30126349 -78.24889278 35.59720128 -74.74609375 35.26171875 C-73.90079102 35.16745605 -73.05548828 35.07319336 -72.18457031 34.97607422 C-70.82477051 34.83322998 -70.82477051 34.83322998 -69.4375 34.6875 C-42.70769068 31.31530469 -19.44591007 18.41702594 0 0 Z " fill="#FDE8BE" transform="translate(486,662)"/>
<path d="M0 0 C5.25672571 3.48512202 8.87137571 7.73641221 10.80859375 13.78125 C11.63654479 20.42078042 12.01601628 27.25900793 7.80859375 32.78125 C-0.01384387 40.90319537 -7.36980411 43.14473604 -18.31640625 44.34375 C-19.36812012 44.46596924 -20.41983398 44.58818848 -21.50341797 44.71411133 C-24.73140856 45.08336397 -27.9609219 45.43455903 -31.19140625 45.78125 C-32.16207031 45.88856445 -33.13273437 45.99587891 -34.1328125 46.10644531 C-64.41379426 49.42303407 -64.41379426 49.42303407 -70.00390625 45.90625 C-73.22672575 42.77551106 -73.43830904 40.8073128 -73.62890625 36.40625 C-73.51889705 26.19984058 -68.28295084 18.02994878 -61.375 10.80859375 C-45.96182577 -3.50166998 -19.38230195 -10.77946205 0 0 Z " fill="#8D4A0D" transform="translate(390.19140625,268.21875)"/>
<path d="M0 0 C9.06105913 7.59027852 17.226971 17.34207524 18.3125 29.5 C17.9548304 33.50589956 17.31969212 35.70753377 15 39 C6.65954885 44.10639866 -3.6248621 41.99816574 -12.94140625 41.046875 C-14.45298561 40.8946347 -14.45298561 40.8946347 -15.99510193 40.73931885 C-18.11055693 40.52360346 -20.22571483 40.30495601 -22.34057617 40.08349609 C-25.55584243 39.75068911 -28.77276918 39.43963254 -31.99023438 39.12890625 C-34.05743037 38.91540123 -36.12449308 38.70060089 -38.19140625 38.484375 C-39.61677452 38.35128937 -39.61677452 38.35128937 -41.07093811 38.21551514 C-49.16296357 37.32610898 -57.17772543 34.98862527 -63 29 C-67.26067287 23.09952869 -68.00010552 17.12575181 -67 10 C-65.12646425 3.3021097 -60.6008153 -1.10807543 -55 -5 C-37.7232487 -14.64691697 -15.78334252 -10.91251871 0 0 Z " fill="#8D4A0D" transform="translate(641,274)"/>
<path d="M0 0 C6.82307094 4.41697949 12.49424015 10.31124397 18.25 16 C18.92369629 16.66418945 19.59739258 17.32837891 20.29150391 18.01269531 C29.24470405 27.0256868 35.25830838 34.55529919 35.49609375 47.5859375 C34.30002379 55.8171591 29.61778742 60.9422989 23.75 66.5 C23.1003125 67.13164063 22.450625 67.76328125 21.78125 68.4140625 C20.19633703 69.95236039 18.60284632 71.48043506 17 73 C13.78224053 71.58480907 11.64936999 69.88918018 9.18457031 67.39575195 C8.4499054 66.65770828 7.71524048 65.91966461 6.95831299 65.15925598 C6.17285095 64.36033432 5.38738892 63.56141266 4.578125 62.73828125 C3.75930847 61.91426315 2.94049194 61.09024506 2.09686279 60.24125671 C-0.52354537 57.60303526 -3.13719688 54.95825176 -5.75 52.3125 C-8.34933098 49.68542931 -10.95014188 47.05986951 -13.55401611 44.43730164 C-15.17302512 42.80617276 -16.78935517 41.17237885 -18.40252686 39.53547668 C-22.56420756 35.33742432 -26.80657534 31.312737 -31.29620361 27.46617126 C-33.61142706 25.47384747 -35.81790372 23.38663594 -38 21.25 C-39.1446875 20.14398437 -39.1446875 20.14398437 -40.3125 19.015625 C-42 17 -42 17 -42 14 C-40.0625 11.875 -40.0625 11.875 -38.67578125 10.58984375 C-37.39860418 9.37816294 -36.17582705 8.10887296 -34.98046875 6.81640625 C-24.57753239 -4.27884461 -13.76737601 -7.45108375 0 0 Z " fill="#F7836F" transform="translate(848,606)"/>
<path d="M0 0 C3.85027991 1.78200687 6.2799142 4.07675405 9.25 7.125 C10.14203125 8.03507813 11.0340625 8.94515625 11.953125 9.8828125 C12.62859375 10.58148437 13.3040625 11.28015625 14 12 C12.62703081 15.098842 11.06646891 17.15297721 8.62890625 19.49609375 C7.97212891 20.13740234 7.31535156 20.77871094 6.63867188 21.43945312 C5.25853698 22.76765444 3.87832907 24.09577988 2.49804688 25.42382812 C-0.95369529 28.79443238 -3.5401933 31.83623017 -6 36 C-8.1488646 38.37459345 -10.44633837 40.58902912 -12.75 42.8125 C-16.26663041 46.22637173 -19.72344044 49.62259956 -22.88256836 53.3737793 C-28.45135344 59.77220869 -34.52638783 65.69088665 -40.51953125 71.6875 C-41.82760219 72.99878858 -43.13559963 74.31015047 -44.44352722 75.62158203 C-47.16916163 78.35317131 -49.89682141 81.08271946 -52.62573242 83.81103516 C-56.12918479 87.31438514 -59.62566286 90.82460981 -63.12048817 94.33656311 C-65.81158321 97.03873794 -68.50717156 99.73639488 -71.20407677 102.43276978 C-72.49632949 103.72620506 -73.78695521 105.02126793 -75.07593727 106.31796265 C-76.86861562 108.12037612 -78.66744258 109.91641752 -80.46801758 111.7109375 C-81.00152328 112.25006271 -81.53502899 112.78918793 -82.08470154 113.34465027 C-85.77167253 117 -85.77167253 117 -88 117 C-88.21914063 116.35933594 -88.43828125 115.71867188 -88.6640625 115.05859375 C-90.91955415 108.90641937 -93.47127019 104.73458117 -98 100 C-96.54190191 96.64516562 -94.69713436 94.44988336 -92.11495972 91.87445068 C-91.3044516 91.06119324 -90.49394348 90.24793579 -89.65887451 89.41003418 C-88.76839417 88.52674438 -87.87791382 87.64345459 -86.96044922 86.73339844 C-86.0139238 85.78743735 -85.06783893 84.84103527 -84.12216187 83.89422607 C-81.55657326 81.32806382 -78.98486641 78.76811335 -76.41201925 76.20923138 C-73.72318166 73.53289903 -71.04000938 70.8508992 -68.35623169 68.16949463 C-63.27456387 63.09404217 -58.18781945 58.02370937 -53.09923279 52.95519471 C-47.30575182 47.18407095 -41.51795103 41.40726493 -35.7306211 35.62997389 C-23.82672435 23.74698043 -11.91571235 11.87114554 0 0 Z " fill="#753599" transform="translate(835,679)"/>
<path d="M0 0 C4.49839963 4.01208616 5.14129032 10.09691046 6.25 15.8125 C7.14280664 19.84770481 8.06599117 22.3029675 11.3125 25.0625 C15.52673106 26.81842961 19.92748706 27.77564217 24.38671875 28.69921875 C32.5978888 30.48156808 37.4785841 32.81162614 42.1875 39.875 C43.61484036 43.91913102 44.03784531 47.80061686 44.3125 52.0625 C34.62271798 55.23647584 24.8490731 58.11773149 15.03475952 60.88037109 C13.72163606 61.25130556 12.40947048 61.62564815 11.09829712 62.00341797 C9.22975031 62.54062112 7.35711292 63.06353239 5.484375 63.5859375 C4.3922168 63.89450684 3.30005859 64.20307617 2.17480469 64.52099609 C-0.62575149 65.05081813 -2.07202672 65.10794257 -4.6875 64.0625 C-6.22265625 62.6015625 -6.22265625 62.6015625 -7.75 60.6875 C-9.92097876 58.03197019 -12.07296159 55.71296692 -14.62109375 53.40234375 C-15.12697021 52.9419873 -15.63284668 52.48163086 -16.15405273 52.00732422 C-17.62963793 50.6771597 -19.1269525 49.37122156 -20.625 48.06640625 C-22.96898836 44.65252927 -23.04344894 42.948765 -22.33154297 38.9284668 C-22.11900879 37.98269775 -21.90647461 37.03692871 -21.6875 36.0625 C-21.41695801 34.81960205 -21.14641602 33.5767041 -20.86767578 32.29614258 C-20.05654067 28.66951016 -19.19005901 25.0581929 -18.30395508 21.44921875 C-17.74666616 19.17388842 -17.20194888 16.8957877 -16.65820312 14.6171875 C-16.3054328 13.16388139 -15.95194307 11.71074967 -15.59765625 10.2578125 C-15.43612564 9.57969513 -15.27459503 8.90157776 -15.10816956 8.20291138 C-14.31292346 5.00031996 -13.54243732 2.84490598 -11.6875 0.0625 C-7.45957718 -1.34680761 -4.23458781 -1.47718179 0 0 Z " fill="#FAB850" transform="translate(689.6875,754.9375)"/>
<path d="M0 0 C18.55994125 11.54691467 36.16933803 24.85218643 52.703125 39.13720703 C55.56941588 41.60018103 58.4924762 43.97627996 61.4375 46.34423828 C65.13898382 49.35470703 68.5639668 52.4682014 71.87109375 55.90283203 C74.36773032 58.3994686 77.06072242 60.65174867 79.765625 62.91845703 C81.65578202 64.6812339 83.13948002 66.43774812 84.5625 68.59423828 C84.5625 69.25423828 84.5625 69.91423828 84.5625 70.59423828 C85.20153117 72.2716951 85.86591637 73.93985215 86.5625 75.59423828 C74.6832327 67.87779115 63.21590607 59.53141977 51.75 51.21923828 C-8.01163097 4.08917181 -8.01163097 4.08917181 -79.4375 -12.40576172 C-82.68218575 -11.41301681 -85.53941702 -10.1650316 -88.4375 -8.40576172 C-85.13734002 -4.2663858 -82.26425589 -0.81913967 -77.4375 1.59423828 C-77.7675 2.58423828 -78.0975 3.57423828 -78.4375 4.59423828 C-80.81139234 2.45773518 -83.18520507 0.32114467 -85.55859375 -1.81591797 C-87.44505526 -3.51296543 -89.33302258 -5.20834086 -91.22265625 -6.90185547 C-92.53556641 -8.07941406 -92.53556641 -8.07941406 -93.875 -9.28076172 C-94.67808594 -10.00005859 -95.48117187 -10.71935547 -96.30859375 -11.46044922 C-98.06801689 -13.06814229 -99.77156188 -14.7023266 -101.4375 -16.40576172 C-72.76354151 -40.43421855 -27.39143702 -16.66618127 0 0 Z " fill="#C77A3D" transform="translate(764.4375,169.40576171875)"/>
<path d="M0 0 C3.71713736 1.73760147 6.08741012 3.85676878 8.984375 6.7890625 C9.44483215 7.25234955 9.90528931 7.7156366 10.37969971 8.19296265 C11.84125078 9.66565898 13.29567168 11.14517403 14.75 12.625 C15.74302611 13.62806322 16.73651089 14.63067257 17.73046875 15.6328125 C20.15897941 18.08330835 22.58114675 20.5399667 25 23 C22 23 22 23 19.30078125 20.59375 C18.29697757 19.5700032 17.30114351 18.5383946 16.3125 17.5 C15.80138672 16.97535156 15.29027344 16.45070313 14.76367188 15.91015625 C13.50227292 14.61339096 12.25022788 13.30753883 11 12 C7.21265679 15.11288483 3.90457967 18.02531203 1 22 C0.34 22 -0.32 22 -1 22 C-1.25770109 22.58274059 -1.51540218 23.16548119 -1.7809124 23.76588058 C-3.10548722 26.19331756 -4.54942519 27.79563678 -6.50540161 29.74591064 C-7.59495148 30.8395845 -7.59495148 30.8395845 -8.70651245 31.95535278 C-9.50348541 32.74513519 -10.30045837 33.5349176 -11.12158203 34.34863281 C-11.96068115 35.18802399 -12.79978027 36.02741516 -13.66430664 36.89224243 C-15.96217767 39.18895972 -18.26442257 41.48118096 -20.56868982 43.7714777 C-22.97725787 46.16753468 -25.38015516 48.56926488 -27.78366089 50.97039795 C-32.33408956 55.51461297 -36.88959199 60.0537061 -41.44694126 64.59097934 C-46.63584111 69.75751666 -51.81905625 74.92974101 -57.00180268 80.10244989 C-67.66155703 90.74130483 -78.32842605 101.37300007 -89 112 C-89.53689453 111.65428955 -90.07378906 111.3085791 -90.62695312 110.95239258 C-91.33787109 110.50017334 -92.04878906 110.0479541 -92.78125 109.58203125 C-93.48314453 109.1331958 -94.18503906 108.68436035 -94.90820312 108.22192383 C-97.497813 106.70920237 -100.11470687 105.79345561 -103 105 C-99.11411037 100.34414813 -95.07429899 95.94511789 -90.75390625 91.69140625 C-90.17970444 91.12099106 -89.60550262 90.55057587 -89.01390076 89.96287537 C-86.59114554 87.55624785 -84.16241462 85.15568571 -81.73413086 82.75463867 C-79.94691746 80.98570386 -78.16286615 79.21362125 -76.37890625 77.44140625 C-75.84326553 76.91406387 -75.30762482 76.3867215 -74.75575256 75.84339905 C-72.04949175 73.15430738 -69.47574212 70.415207 -67.00537109 67.50756836 C-61.20947862 60.81522702 -54.8037847 54.6815285 -48.53515625 48.4375 C-47.13246609 47.03667785 -45.72999872 45.63563257 -44.32774353 44.234375 C-40.6590246 40.56945113 -36.98731122 36.90754192 -33.31494141 33.24627686 C-29.55904022 29.50065494 -25.80601289 25.75215587 -22.05273438 22.00390625 C-14.70461446 14.66647047 -7.3533242 7.33221995 0 0 Z " fill="#BC95D9" transform="translate(792,635)"/>
<path d="M0 0 C1.07687576 -0.00101212 1.07687576 -0.00101212 2.17550659 -0.00204468 C23.08170093 0.02916252 48.9255611 1.2687218 64.72265625 17.03125 C66.125 18.6875 66.125 18.6875 67.9375 21.25 C65.13644518 20.34154979 62.35593776 19.41554356 59.6171875 18.33203125 C30.76908283 7.09418749 -9.53531263 5.63132223 -38.20703125 17.97265625 C-46.69569222 21.86498406 -53.51764704 26.4918728 -60.0625 33.25 C-61.0625 34.25 -62.0625 35.25 -63.0625 36.25 C-63.69267536 31.20859709 -63.66987471 27.40670656 -60.625 23.1875 C-59.4748785 21.84212532 -58.2845647 20.53037899 -57.0625 19.25 C-56.42054688 18.56808594 -55.77859375 17.88617188 -55.1171875 17.18359375 C-45.40286977 7.73812246 -32.9311475 4.20918191 -20.0625 1.25 C-19.30912354 1.073479 -18.55574707 0.89695801 -17.77954102 0.71508789 C-11.94098438 -0.28432359 -5.91357772 0.0049493 0 0 Z " fill="#7B654A" transform="translate(483.0625,467.75)"/>
<path d="M0 0 C4.95848942 3.7778967 8.50592687 7.8464998 12 13 C12.61875 13.886875 13.2375 14.77375 13.875 15.6875 C16.03385312 22.04412307 16.33750511 29.83773298 13.6875 36.125 C10.08892085 42.17009519 3.88765968 49.11807557 -2.453125 52.1875 C-6.62132413 51.88063871 -8.59739318 49.03493165 -11.3125 46.0625 C-11.86228516 45.48564453 -12.41207031 44.90878906 -12.97851562 44.31445312 C-14.33291509 42.88938934 -15.66834644 41.44634142 -17 40 C-15.44123799 36.41568095 -13.2390927 33.81683629 -10.6875 30.875 C-2.41292755 20.77495827 -0.18971186 12.93489922 0 0 Z " fill="#D05E49" transform="translate(868,625)"/>
<path d="M0 0 C5.13308791 2.61320839 8.1797908 5.53937241 10 11 C10.50201239 17.12455118 10.09928344 20.12517646 6 25 C1.28208874 29.15625516 -1.49423347 30.36072814 -7.68359375 30.28125 C-12.33144693 29.71692381 -15.04026533 26.90785712 -18.3125 23.8125 C-20.63907993 19.93486678 -21.19106309 16.49794346 -21 12 C-19.27222852 6.71505194 -16.32853311 4.22337572 -12 1 C-8.29018719 -0.85490641 -4.04876607 -0.4540091 0 0 Z " fill="#FCFCFC" transform="translate(630,365)"/>
<path d="M0 0 C4.24374307 2.06699555 6.55191516 4.85261841 8.3984375 9.171875 C9.47733219 13.13716326 9.32978113 16.49790218 8 20.3828125 C5.43876917 24.50271286 2.55339669 27.5716101 -2 29.3828125 C-7.01922811 30.18151714 -11.58710243 30.13418667 -15.9375 27.3203125 C-19.31350638 24.47105889 -20.85075788 21.69247046 -22 17.3828125 C-22.37778269 12.18599694 -21.5113907 8.50315876 -18.1875 4.4453125 C-13.18787751 -0.99129499 -7.02327225 -2.16733792 0 0 Z " fill="#FCFCFB" transform="translate(360,365.6171875)"/>
<path d="M0 0 C3.55109003 2.45844694 4.07562066 5.94695211 5 10 C5 11.32 5 12.64 5 14 C-4.68978202 17.17397584 -14.4634269 20.05523149 -24.27774048 22.81787109 C-25.59086394 23.18880556 -26.90302952 23.56314815 -28.21420288 23.94091797 C-30.08274969 24.47812112 -31.95538708 25.00103239 -33.828125 25.5234375 C-34.9202832 25.83200684 -36.01244141 26.14057617 -37.13769531 26.45849609 C-39.94584094 26.98975394 -41.4104478 27.16566528 -44 26 C-47 20.96428571 -47 20.96428571 -47 18 C-7.4812398 -2.80546493 -7.4812398 -2.80546493 0 0 Z " fill="#E6A23A" transform="translate(729,793)"/>
<path d="M0 0 C2.41880375 1.8812918 3.33791905 2.84792427 4.25 5.75 C4.375 9 4.375 9 4.25 11.75 C3.59 11.42 2.93 11.09 2.25 10.75 C1.94296143 11.53648926 1.63592285 12.32297852 1.31958008 13.13330078 C0.1637539 16.07789006 -1.0022424 19.01819155 -2.17504883 21.95605469 C-2.67844541 23.22300862 -3.17787921 24.49154514 -3.6730957 25.76171875 C-7.19745008 34.79088042 -9.90539154 40.86654365 -17.75 46.75 C-14.78 49.72 -11.81 52.69 -8.75 55.75 C-12.91894335 55.75 -14.65064366 53.54890232 -17.5 50.8125 C-18.01949219 50.36326172 -18.53898438 49.91402344 -19.07421875 49.45117188 C-20.546875 48.03515625 -20.546875 48.03515625 -22.75 44.75 C-22.81604829 41.34677498 -22.49993533 39.02206263 -21.75 35.75 C-21.34370361 33.88661987 -21.34370361 33.88661987 -20.92919922 31.9855957 C-20.11896152 28.35814299 -19.25270282 24.74627865 -18.36645508 21.13671875 C-17.80916616 18.86138842 -17.26444888 16.5832877 -16.72070312 14.3046875 C-16.3679328 12.85138139 -16.01444307 11.39824967 -15.66015625 9.9453125 C-15.49862564 9.26719513 -15.33709503 8.58907776 -15.17066956 7.89041138 C-14.37542346 4.68781996 -13.60493732 2.53240598 -11.75 -0.25 C-7.41696854 -1.69434382 -4.20952222 -1.91341919 0 0 Z " fill="#FBCC86" transform="translate(689.75,755.25)"/>
<path d="M0 0 C2.20186924 1.54524819 4.03996854 3.14312809 6 5 C3.74562118 7.25437882 2.90574682 7.40226991 -0.140625 7.96484375 C-0.96433594 8.12533203 -1.78804687 8.28582031 -2.63671875 8.45117188 C-4.36310193 8.77244946 -6.08966167 9.0927799 -7.81640625 9.41210938 C-15.95947242 11.00146366 -21.18629576 13.69735627 -26.875 19.6875 C-27.37257813 20.19861328 -27.87015625 20.70972656 -28.3828125 21.23632812 C-29.59558176 22.48408112 -30.79880719 23.74109864 -32 25 C-34.87806415 23.69235781 -37.00692296 22.28858403 -39.25 20.0625 C-39.77078125 19.55847656 -40.2915625 19.05445313 -40.828125 18.53515625 C-42 17 -42 17 -42 14 C-40.0625 11.875 -40.0625 11.875 -38.67578125 10.58984375 C-37.39860418 9.37816294 -36.17582705 8.10887296 -34.98046875 6.81640625 C-24.51267239 -4.34802104 -13.86623842 -7.34371003 0 0 Z " fill="#F9B59F" transform="translate(848,606)"/>
<path d="M0 0 C5.34245731 2.28150533 8.86048916 5.37303484 12.875 9.4375 C13.46796875 10.01048828 14.0609375 10.58347656 14.671875 11.17382812 C15.23132813 11.73392578 15.79078125 12.29402344 16.3671875 12.87109375 C16.87362793 13.37568115 17.38006836 13.88026855 17.90185547 14.40014648 C19 16 19 16 19 20 C16.12666819 20.67466072 13.25168518 21.3399234 10.375 22 C9.56675781 22.19078125 8.75851562 22.3815625 7.92578125 22.578125 C3.52795831 23.57925543 -0.45561039 24.2353082 -5 24 C-4.39496146 18.3444819 -3.37814297 12.99786009 -1.9375 7.5 C-1.75123047 6.77296875 -1.56496094 6.0459375 -1.37304688 5.296875 C-0.91973545 3.53012276 -0.4604998 1.76489225 0 0 Z " fill="#393726" transform="translate(666,801)"/>
<path d="M0 0 C3.38121991 2.44598887 4.76936783 3.89296559 5.625 8 C4.77618008 12.0743356 3.32274404 13.54405875 0 16 C-3.78454468 16.70960213 -5.46714413 16.27801176 -8.875 14.5 C-11.46043632 11.45831021 -11.69010681 9.79992767 -11.4140625 5.90625 C-11 4 -11 4 -9.4375 1.5 C-6.00863886 -0.61006839 -3.95779649 -0.62491523 0 0 Z " fill="#D1B187" transform="translate(587,580)"/>
<path d="M0 0 C4.0743356 0.84881992 5.54405875 2.30225596 8 5.625 C8.625 8.625 8.625 8.625 8 11.625 C5.54405875 14.94774404 4.0743356 16.40118008 0 17.25 C-4.0743356 16.40118008 -5.54405875 14.94774404 -8 11.625 C-8.625 8.625 -8.625 8.625 -8 5.625 C-5.54405875 2.30225596 -4.0743356 0.84881992 0 0 Z " fill="#D2B287" transform="translate(392,579.375)"/>
<path d="M0 0 C3.1658926 2.19853653 3.91796653 3.71800996 5 7.4375 C5 11 5 11 3.5625 13.9375 C0.49118321 16.40953546 -1.22763867 16.74757452 -5.08984375 16.48046875 C-7 16 -7 16 -9.5625 13.9375 C-11.46450952 10.0507849 -11.2706357 8.11088021 -10 4 C-6.93494453 0.67952324 -4.54668868 -0.93265409 0 0 Z " fill="#D2B186" transform="translate(371,546)"/>
<path d="M0 0 C3.5 0.5625 3.5 0.5625 5.9375 2.125 C8.11348954 5.51954368 8.05627159 7.5990649 7.5 11.5625 C5.9375 14.5 5.9375 14.5 3.5 16.5625 C-0.46569988 17.19984462 -2.53280512 17.18249672 -5.9375 15 C-8.11348954 11.60545632 -8.05627159 9.5259351 -7.5 5.5625 C-5.40973646 1.63280455 -4.43218827 0.71231597 0 0 Z " fill="#D1B186" transform="translate(340.5,573.4375)"/>
<path d="M0 0 C2.4375 1.5625 2.4375 1.5625 4 4 C4.72468526 8.42863214 4.49454049 10.28066838 1.9375 14 C-1 16 -1 16 -4.625 16.0625 C-8 15 -8 15 -9.9375 13.375 C-11.43699866 10.02317947 -11.45377473 7.63019782 -11 4 C-8.11188513 -0.5054592 -5.11821063 -0.73117295 0 0 Z " fill="#D1B186" transform="translate(611,547)"/>
<path d="M0 0 C0.66 0.33 1.32 0.66 2 1 C1.94013916 1.80904785 1.88027832 2.6180957 1.81860352 3.45166016 C1.11664901 13.08875482 0.51354389 22.72971263 -0.0625 32.375 C-0.1542251 33.90104598 -0.24602161 35.42708767 -0.33789062 36.953125 C-0.55941327 40.6353678 -0.77998236 44.31766693 -1 48 C-1.33 48 -1.66 48 -2 48 C-2.33 45.36 -2.66 42.72 -3 40 C-3.495 42.475 -3.495 42.475 -4 45 C-4.33 45 -4.66 45 -5 45 C-5.99 49.62 -6.98 54.24 -8 59 C-8.33 59 -8.66 59 -9 59 C-9.16526253 53.62720032 -8.568455 48.76183775 -7.5390625 43.49609375 C-7.38843353 42.69575211 -7.23780457 41.89541046 -7.08261108 41.07081604 C-6.60271176 38.52520187 -6.11446042 35.98129156 -5.625 33.4375 C-4.98813774 30.10362257 -4.3553167 26.7690098 -3.7265625 23.43359375 C-3.49891205 22.22743912 -3.49891205 22.22743912 -3.2666626 20.99691772 C-1.9683346 14.02407612 -0.91668588 7.03394004 0 0 Z " fill="#D1831E" transform="translate(220,393)"/>
<path d="M0 0 C0 7.21182987 -9.60388146 13.71127208 -14.48276615 18.59939575 C-16.22534751 20.33855233 -17.97004125 22.07557203 -19.71484375 23.8125 C-20.93817223 25.03395984 -22.16127748 26.25564329 -23.38417053 27.47753906 C-26.57941761 30.6689961 -29.77765786 33.85743667 -32.9765625 37.04522705 C-36.24988433 40.30825862 -39.52032274 43.57417744 -42.79101562 46.83984375 C-49.19121509 53.22936797 -55.59458507 59.61570451 -62 66 C-62.66 65.67 -63.32 65.34 -64 65 C-63.36408432 64.36630493 -62.72816864 63.73260986 -62.07298279 63.07971191 C-56.05371733 57.08055958 -50.0369174 51.07894746 -44.02281094 45.07462311 C-40.93150004 41.98851048 -37.83927448 38.90332652 -34.74487305 35.8203125 C-31.75355357 32.83993119 -28.76474879 29.8570486 -25.77760506 26.8724823 C-24.64272656 25.73943848 -23.50697458 24.6072688 -22.37029839 23.47602844 C-16.87211811 18.00307661 -11.41430064 12.53917001 -6.3941803 6.61560059 C-4.3805622 4.28218461 -2.21183309 2.14480784 0 0 Z " fill="#9750B4" transform="translate(802,646)"/>
<path d="M0 0 C10.60935577 0.72336517 20.3494565 5.73929312 28 13 C29.0318421 14.30884669 30.04202747 15.63615749 31 17 C26.65328707 15.58632741 22.3864361 14.02739359 18.125 12.375 C16.97257813 11.92898438 15.82015625 11.48296875 14.6328125 11.0234375 C13.76398437 10.68570312 12.89515625 10.34796875 12 10 C12.66 8.68 13.32 7.36 14 6 C9.38 4.35 4.76 2.7 0 1 C0 0.67 0 0.34 0 0 Z " fill="#866E52" transform="translate(520,472)"/>
<path d="M0 0 C1.4769824 4.43094719 0.55286021 8.42315728 0 13 C-0.103125 14.19625 -0.20625 15.3925 -0.3125 16.625 C-0.91325457 19.57415879 -1.53602208 21.18581447 -2.9375 23.75 C-5.54937276 28.57484131 -6.24792733 33.61674301 -7 39 C-7.33 39 -7.66 39 -8 39 C-7.95167399 26.6285402 -5.55998696 11.11997392 0 0 Z " fill="#F5D278" transform="translate(238,297)"/>
<path d="M0 0 C-2.39918542 5.19823509 -5.10747369 9.85480451 -10 13 C-11 12 -11 12 -11.3125 8.1875 C-11.25831199 5.1692278 -11.08640108 4.13824172 -9.4375 1.5 C-6.17971981 -0.50478781 -3.75217167 -0.28862859 0 0 Z " fill="#D4B488" transform="translate(639,575)"/>
<path d="M0 0 C4.23429756 1.31061591 8.07407404 2.94356259 12 5 C12 4.34 12 3.68 12 3 C12.66 3 13.32 3 14 3 C14.33 2.34 14.66 1.68 15 1 C18.28788824 4.11016455 20.83735988 7.01618925 23 11 C14.82175048 8.60292686 7.53348722 4.91141228 0 1 C0 0.67 0 0.34 0 0 Z " fill="#D7861C" transform="translate(310,681)"/>
<path d="M0 0 C-0.61488281 0.37511719 -1.22976563 0.75023437 -1.86328125 1.13671875 C-6.41822291 4.02078867 -9.49556849 6.11635855 -12 11 C-14.5625 13.8125 -14.5625 13.8125 -17 16 C-17.66 16 -18.32 16 -19 16 C-19.4021875 17.11375 -19.4021875 17.11375 -19.8125 18.25 C-20.94229421 20.86636554 -22.20893202 22.80187111 -24 25 C-22.5290013 15.43850844 -15.0716792 8.12468912 -8 2 C-3.49636099 -1.16545366 -3.49636099 -1.16545366 0 0 Z " fill="#110A00" transform="translate(328,351)"/>
<path d="M0 0 C0.33 0.66 0.66 1.32 1 2 C1.66 2 2.32 2 3 2 C3.86580287 3.93232821 4.71729941 5.87107194 5.5625 7.8125 C6.27599609 9.43091797 6.27599609 9.43091797 7.00390625 11.08203125 C8 14 8 14 7 17 C6.34 17 5.68 17 5 17 C5 16.01 5 15.02 5 14 C4.34 14 3.68 14 3 14 C2.49528803 12.23050388 1.99639315 10.45934777 1.5 8.6875 C1.2215625 7.70136719 0.943125 6.71523438 0.65625 5.69921875 C0 3 0 3 0 0 Z " fill="#D4841E" transform="translate(725,268)"/>
<path d="M0 0 C2 2 2 2 2.1953125 4.6015625 C2.17210937 5.59929688 2.14890625 6.59703125 2.125 7.625 C2.10695313 8.62789062 2.08890625 9.63078125 2.0703125 10.6640625 C2.03550781 11.82035156 2.03550781 11.82035156 2 13 C1.01 13.33 0.02 13.66 -1 14 C-1.12375 14.7425 -1.2475 15.485 -1.375 16.25 C-1.95486701 18.80141485 -2.73708739 20.7267573 -4 23 C-5.12576797 19.62269608 -4.91229893 19.15777543 -3.6875 16 C-1.80738118 10.76499026 -0.87081803 5.48103111 0 0 Z " fill="#E5D0A8" transform="translate(575,512)"/>
<path d="M0 0 C0.78375 0.474375 1.5675 0.94875 2.375 1.4375 C3.88948678 2.33898023 5.4235897 3.21179485 7 4 C7.144375 4.61875 7.28875 5.2375 7.4375 5.875 C7.81736661 8.03712532 7.81736661 8.03712532 9.30078125 9.28515625 C11.49830039 11.50288246 13.05984251 13.93996224 14.75 16.5625 C15.38421875 17.53316406 16.0184375 18.50382813 16.671875 19.50390625 C17.32929687 20.73947266 17.32929687 20.73947266 18 22 C17.67 22.66 17.34 23.32 17 24 C16.27554688 22.99839844 15.55109375 21.99679687 14.8046875 20.96484375 C13.82827984 19.62228321 12.85170854 18.27984166 11.875 16.9375 C11.1634375 15.95233398 11.1634375 15.95233398 10.4375 14.94726562 C7.50745236 10.92834893 4.45054063 7.13061614 1.10595703 3.44750977 C0 2 0 2 0 0 Z " fill="#100A02" transform="translate(905,608)"/>
<path d="M0 0 C1.62707421 3.25414842 0.39516001 6.55110724 -0.25 10 C-0.37246094 10.73734375 -0.49492187 11.4746875 -0.62109375 12.234375 C-0.97926462 14.17771796 -1.48214745 16.09298742 -2 18 C-2.99 18.66 -3.98 19.32 -5 20 C-5.68184286 11.89364595 -4.64573617 6.71972553 0 0 Z " fill="#261808" transform="translate(310,543)"/>
<path d="M0 0 C1.24481025 3.73443076 0.59036631 6.12982086 0 10 C0.020625 11.0725 0.04125 12.145 0.0625 13.25 C0 16 0 16 -2 19 C-2.66 19 -3.32 19 -4 19 C-4.42446917 12.63296252 -3.01472942 7.03374925 -1 1 C-0.67 0.67 -0.34 0.34 0 0 Z " fill="#D78443" transform="translate(53,328)"/>
<path d="M0 0 C3.66398299 1.68970089 6.90832572 3.87300211 10.25 6.125 C11.86648438 7.21167969 11.86648438 7.21167969 13.515625 8.3203125 C14.33546875 8.87460937 15.1553125 9.42890625 16 10 C12.64737261 11.6763137 10.554469 11.00709955 7 10 C4.08798699 7.04916015 1.85098396 3.70196793 0 0 Z " fill="#EDDAB3" transform="translate(428,565)"/>
<path d="M0 0 C6.65050424 -0.24991456 12.56986533 0.26044666 19 2 C16.39295102 4.60704898 14.52661759 4.23905333 10.97265625 4.265625 C9 4 9 4 6 2 C4.0103005 1.60986284 2.00980131 1.26797351 0 1 C0 0.67 0 0.34 0 0 Z " fill="#F5D681" transform="translate(533,128)"/>
<path d="M0 0 C0.33 0.66 0.66 1.32 1 2 C-1.13669543 5.20504314 -3.38989337 7.0968624 -6.34375 9.5 C-8.2388252 11.09351395 -8.2388252 11.09351395 -10 14 C-9.34 14.66 -8.68 15.32 -8 16 C-10.97 15.505 -10.97 15.505 -14 15 C-9.59156563 9.70987876 -4.92440206 4.81191572 0 0 Z " fill="#E0BAF1" transform="translate(703,725)"/>
<path d="M0 0 C0.33 0.99 0.66 1.98 1 3 C1.33 3.66 1.66 4.32 2 5 C2.04022391 7.3329866 2.04320247 9.66706666 2 12 C0.02 12 -1.96 12 -4 12 C-3.45660208 7.43545749 -2.20536179 4.0271824 0 0 Z " fill="#110900" transform="translate(305,553)"/>
<path d="M0 0 C0.66 0.33 1.32 0.66 2 1 C1.67 5.62 1.34 10.24 1 15 C0.34 15 -0.32 15 -1 15 C-1 16.65 -1 18.3 -1 20 C-1.33 20 -1.66 20 -2 20 C-1.85780436 17.79142945 -1.71108153 15.58315013 -1.5625 13.375 C-1.48128906 12.14523437 -1.40007812 10.91546875 -1.31640625 9.6484375 C-1.03336056 6.38467612 -0.58961047 3.22056141 0 0 Z " fill="#E09226" transform="translate(220,393)"/>
<path d="M0 0 C1.093125 0.0825 2.18625 0.165 3.3125 0.25 C1.94266497 3.41115776 1.3234362 4.2427092 -1.6875 6.25 C-4.375 5.375 -4.375 5.375 -6.6875 4.25 C-4.79150483 0.68106792 -4.16790733 0.28256999 0 0 Z " fill="#C9A67B" transform="translate(635.6875,574.75)"/>
<path d="M0 0 C3.03685633 0.32537746 3.95633666 0.95236726 6.0625 3.25 C8 6 8 6 9.5625 8.625 C10.86842624 10.78261727 12.14123248 12.31825796 14 14 C13.67 14.66 13.34 15.32 13 16 C3.40546697 5.62642369 3.40546697 5.62642369 0 0 Z " fill="#DDBE93" transform="translate(425,564)"/>
<path d="M0 0 C1.29608947 0.93137592 2.58671632 1.8703566 3.875 2.8125 C4.59429687 3.33457031 5.31359375 3.85664062 6.0546875 4.39453125 C8 6 8 6 10 9 C8.68 8.67 7.36 8.34 6 8 C5.01 9.485 5.01 9.485 4 11 C3.32880451 9.5437455 2.66318193 8.08492133 2 6.625 C1.62875 5.81289063 1.2575 5.00078125 0.875 4.1640625 C0 2 0 2 0 0 Z " fill="#F0E1BF" transform="translate(316,661)"/>
<path d="M0 0 C0.66 0.33 1.32 0.66 2 1 C-2.35452911 7.12355656 -6.72135278 11.84141548 -13 16 C-11.48099978 12.3758636 -9.31929546 10.142376 -6.5 7.4375 C-3.97190847 5.0038015 -1.95327066 2.92990599 0 0 Z " fill="#E08D48" transform="translate(102,260)"/>
<path d="M0 0 C0.66 0.33 1.32 0.66 2 1 C1.01 2.485 1.01 2.485 0 4 C-0.66 4 -1.32 4 -2 4 C-2 4.66 -2 5.32 -2 6 C-5.98188718 7.71767682 -9.96479403 9.41037341 -14 11 C-11.14325205 7.98306057 -8.17651069 5.59445469 -4.75 3.25 C-3.85796875 2.63640625 -2.9659375 2.0228125 -2.046875 1.390625 C-1.03367187 0.70226562 -1.03367187 0.70226562 0 0 Z " fill="#0E0901" transform="translate(882,870)"/>
<path d="M0 0 C2.97 0.495 2.97 0.495 6 1 C6 1.99 6 2.98 6 4 C7.76248102 6.12708293 7.76248102 6.12708293 10 8.1875 C11.11375 9.26064453 11.11375 9.26064453 12.25 10.35546875 C12.8275 10.89816406 13.405 11.44085937 14 12 C11 12 11 12 8.30078125 9.62890625 C7.29691517 8.61440318 6.30108274 7.59190164 5.3125 6.5625 C4.80138672 6.04623047 4.29027344 5.52996094 3.76367188 4.99804688 C0 1.15397613 0 1.15397613 0 0 Z " fill="#F0D165" transform="translate(667,799)"/>
<path d="M0 0 C4.95 0 9.9 0 15 0 C14.67 0.99 14.34 1.98 14 3 C12.41753293 3.08153933 10.83383727 3.13943557 9.25 3.1875 C8.36828125 3.22230469 7.4865625 3.25710938 6.578125 3.29296875 C4 3 4 3 0 0 Z " fill="#DBBE94" transform="translate(457,742)"/>
<path d="M0 0 C-0.66 0 -1.32 0 -2 0 C-2.33 0.66 -2.66 1.32 -3 2 C-4.423125 2.2165625 -4.423125 2.2165625 -5.875 2.4375 C-9.00298439 2.68509297 -9.00298439 2.68509297 -10.5625 4.625 C-11.036875 5.07875 -11.51125 5.5325 -12 6 C-14.6875 5.6875 -14.6875 5.6875 -17 5 C-12.52983658 0.91854644 -5.91668869 -1.99015892 0 0 Z " fill="#FADB02" transform="translate(725,560)"/>
<path d="M0 0 C6.94007154 0.24351128 10.17267808 2.06708042 15 7 C14.67 7.66 14.34 8.32 14 9 C12.35 8.67 10.7 8.34 9 8 C9 6.68 9 5.36 9 4 C6.03 3.01 3.06 2.02 0 1 C0 0.67 0 0.34 0 0 Z " fill="#F8D55F" transform="translate(715,785)"/>
<path d="M0 0 C0.66 0.33 1.32 0.66 2 1 C2.28571429 8.42857143 2.28571429 8.42857143 0 12 C-0.66 12 -1.32 12 -2 12 C-1.34 8.04 -0.68 4.08 0 0 Z " fill="#EFC800" transform="translate(601,689)"/>
<path d="M0 0 C0.33 0 0.66 0 1 0 C2.97094808 4.92737019 3.1799928 8.78020872 3 14 C2.01 14.33 1.02 14.66 0 15 C0 10.05 0 5.1 0 0 Z " fill="#ECB200" transform="translate(948,730)"/>
<path d="M0 0 C0.33 0 0.66 0 1 0 C1.33 4.29 1.66 8.58 2 13 C1.01 13.495 1.01 13.495 0 14 C-1.33257403 4.58997722 -1.33257403 4.58997722 0 0 Z " fill="#261E15" transform="translate(974,700)"/>
<path d="M0 0 C0.99 0.33 1.98 0.66 3 1 C2.67 2.65 2.34 4.3 2 6 C1.34 6 0.68 6 0 6 C-0.99 7.485 -0.99 7.485 -2 9 C-2.66 8.67 -3.32 8.34 -4 8 C-2.68 5.36 -1.36 2.72 0 0 Z " fill="#E5CEA7" transform="translate(486,639)"/>
<path d="M0 0 C0 0.66 0 1.32 0 2 C-4.29 2.66 -8.58 3.32 -13 4 C-12 2 -12 2 -9.3125 0.875 C-6.0420565 0.01110926 -3.36293818 -0.16013991 0 0 Z " fill="#170E02" transform="translate(618,345)"/>
<path d="M0 0 C3.7952131 1.49097658 5.61042731 3.75700849 8 7 C5 7 5 7 2.3125 4.625 C0 2 0 2 0 0 Z " fill="#2F2200" transform="translate(872,601)"/>
<path d="M0 0 C3.7952131 1.49097658 5.61042731 3.75700849 8 7 C7.01 7.33 6.02 7.66 5 8 C0 2.25 0 2.25 0 0 Z " fill="#2E2417" transform="translate(877,234)"/>
<path d="M0 0 C0.99 0 1.98 0 3 0 C2.67 2.31 2.34 4.62 2 7 C1.01 6.67 0.02 6.34 -1 6 C-0.67 4.02 -0.34 2.04 0 0 Z M0 7 C1 11 1 11 1 11 Z " fill="#2B1D00" transform="translate(658,747)"/>
<path d="M0 0 C2 2 2 2 2.3125 4.875 C1.96732652 8.32673483 1.14126508 9.38980351 -1 12 C-1.02698189 10.37509046 -1.04638757 8.75005367 -1.0625 7.125 C-1.07410156 6.22007812 -1.08570313 5.31515625 -1.09765625 4.3828125 C-1 2 -1 2 0 0 Z " fill="#D0B48D" transform="translate(570,710)"/>
<path d="M0 0 C0.99 0.33 1.98 0.66 3 1 C4.16552619 5.19589427 4.08954032 5.82091936 2 10 C1.34 6.7 0.68 3.4 0 0 Z " fill="#A5550D" transform="translate(787,443)"/>
<path d="M0 0 C0.66 0.66 1.32 1.32 2 2 C1.6875 4.3125 1.6875 4.3125 1 7 C0.814375 7.928125 0.62875 8.85625 0.4375 9.8125 C0.293125 10.534375 0.14875 11.25625 0 12 C-0.33 12 -0.66 12 -1 12 C-1.02712066 10.56260487 -1.04645067 9.12506137 -1.0625 7.6875 C-1.07410156 6.88699219 -1.08570313 6.08648437 -1.09765625 5.26171875 C-1 3 -1 3 0 0 Z " fill="#F0BD46" transform="translate(228,344)"/>
<path d="M0 0 C3 3 3 3 3.1875 6.1875 C3.0946875 7.5796875 3.0946875 7.5796875 3 9 C2.01 9.33 1.02 9.66 0 10 C0 6.7 0 3.4 0 0 Z " fill="#37280E" transform="translate(304,586)"/>
<path d="M0 0 C0.66 0.33 1.32 0.66 2 1 C2.1875 3.8125 2.1875 3.8125 2 7 C0.48828125 8.69921875 0.48828125 8.69921875 -1 10 C-1.02689216 8.52093108 -1.04634621 7.04172517 -1.0625 5.5625 C-1.07410156 4.73878906 -1.08570313 3.91507813 -1.09765625 3.06640625 C-1 1 -1 1 0 0 Z " fill="#372610" transform="translate(305,564)"/>
<path d="M0 0 C-2.75 1.625 -2.75 1.625 -6 3 C-8.375 2.1875 -8.375 2.1875 -10 1 C-3.71428571 -1.42857143 -3.71428571 -1.42857143 0 0 Z " fill="#F2B001" transform="translate(728,831)"/>
<path d="M0 0 C2.39763185 2.39763185 2.34280586 3.33273498 2.625 6.625 C2.69976562 7.44226563 2.77453125 8.25953125 2.8515625 9.1015625 C2.90054688 9.72804688 2.94953125 10.35453125 3 11 C0.28527098 8.28527098 -0.14258516 5.69347931 -1 2 C-0.67 1.34 -0.34 0.68 0 0 Z " fill="#A9540D" transform="translate(55,397)"/>
<path d="M0 0 C0.33 0.99 0.66 1.98 1 3 C1.66 3 2.32 3 3 3 C2.67 5.64 2.34 8.28 2 11 C-0.32590854 7.36576791 -0.16265833 4.22911669 0 0 Z " fill="#D9771D" transform="translate(773,359)"/>

</g>
</svg>