<?xml version="1.0" encoding="UTF-8"?>
<svg version="1.1" xmlns="http://www.w3.org/2000/svg" width="1024" height="1024">
<path d="M57.88671875 72.35546875 C47.55539355 86.83643596 45.94342177 104.84141295 44 122 C43.90211182 122.85553467 43.80422363 123.71106934 43.70336914 124.5925293 C42.67867917 134.96832668 42.71336589 145.39600947 42.6875 155.8125 C42.68454926 156.86435486 42.68159851 157.91620972 42.67855835 158.99993896 C42.66258834 184.47234491 44.55618297 209.76219682 46.7532959 235.12579346 C46.9770758 237.73292345 47.19274289 240.34050595 47.40332031 242.94873047 C51.3690055 291.9568484 61.59526862 343.35650928 83 388 C83.53077148 389.12680176 84.06154297 390.25360352 84.60839844 391.41455078 C107.27665049 439.41720204 138.93749607 481.7305068 189 503 C189.66 503 190.32 503 191 503 C190.97905273 503.74757568 190.95810547 504.49515137 190.93652344 505.26538086 C190.23867305 534.20629652 194.73799159 560.67736893 203.88671875 588.09375 C206.59085161 596.95956787 207.40382233 606.19188979 208.3125 615.375 C213.9288581 668.4278124 227.00387099 720.36469955 269.12792969 756.4921875 C273.54064739 760.04630129 278.24029413 763.25603431 282.94506836 766.40942383 C287.35799721 769.44969728 290.20771652 771.74170528 292 777 C294.08021379 788.31983005 290.10988662 800.72315498 287.70898438 811.70996094 C287.06020665 814.72061131 286.45273372 817.73584694 285.859375 820.7578125 C280.23862193 848.49776018 272.00082067 875.92249902 263.55212402 902.91893005 C262.8507037 905.56272871 262.81445733 907.79653786 263.1875 910.5 C263.28417969 911.3146875 263.38085938 912.129375 263.48046875 912.96875 C263.86971943 915.20961177 263.86971943 915.20961177 266 917 C268.53930842 917.14560255 270.9656297 917.18658283 273.5 917.125 C274.53447266 917.11146484 274.53447266 917.11146484 275.58984375 917.09765625 C277.39335504 917.07304693 279.19670497 917.03722398 281 917 C283.62386714 917 285.41875781 918.11149681 287.74316406 919.234375 C311.65707329 930.6271673 338.0024611 937.7115245 363.60888672 944.14599609 C366.84933193 944.96205638 370.08328681 945.79997997 373.31640625 946.64453125 C438.1615502 963.44577043 505.41097426 968.41468076 572 961 C573.85069092 960.79914795 573.85069092 960.79914795 575.73876953 960.59423828 C603.55319812 957.4624103 631.21988785 951.72851428 658.3125 944.75 C659.54403809 944.43321289 660.77557617 944.11642578 662.04443359 943.79003906 C668.36820605 942.11156666 674.4799309 940.16047759 680.60229492 937.85742188 C683.68802868 936.75396021 686.79545656 936.05003114 690 935.375 C697.76285881 933.58177377 705.16380942 930.89613926 712.625 928.125 C713.80698975 927.68671875 714.98897949 927.2484375 716.20678711 926.796875 C722.14309369 924.56093412 727.86972645 922.16492403 733.5625 919.375 C739.74012428 916.56769985 745.38890012 916.55052562 752.05102539 916.95654297 C756.12338187 917.34125947 756.12338187 917.34125947 759.70825195 915.73974609 C762.08431405 912.53962919 761.4533804 908.76319555 761 905 C760.0592907 900.82124736 758.79569846 896.76829456 757.5 892.6875 C756.76433764 890.28815476 756.03000497 887.88840149 755.296875 885.48828125 C754.72743164 883.64097412 754.72743164 883.64097412 754.14648438 881.75634766 C747.43921953 859.78062856 741.76819947 838.01629577 737.86572266 815.3840332 C736.81484623 809.33679141 735.67785363 803.35326411 734.22290039 797.39013672 C729.97466956 779.91291894 729.97466956 779.91291894 732 772 C735.13021286 768.102633 738.78673815 765.63258551 743 763 C744.28187024 762.07764849 745.55407921 761.14159681 746.8125 760.1875 C747.43640625 759.72601562 748.0603125 759.26453125 748.703125 758.7890625 C777.46495083 736.38614374 794.53378943 708.75807492 805 674 C805.23847656 673.20867676 805.47695313 672.41735352 805.72265625 671.60205078 C810.46027412 655.54491022 813.04330397 639.10532649 815.04296875 622.5078125 C815.41967998 619.42126652 815.80131438 616.33537488 816.1875 613.25 C816.33418121 612.07726028 816.33418121 612.07726028 816.48382568 610.88082886 C818.0377999 598.72929826 820.49260169 587.02497488 823.625 575.1875 C826.2326674 565.31112418 828.71627291 555.60496536 829.9375 545.4375 C830.0516626 544.51001953 830.1658252 543.58253906 830.28344727 542.62695312 C830.85198789 537.36646103 831.02357491 532.21290766 830.9765625 526.921875 C831.03249718 509.58678649 831.03249718 509.58678649 834.54199219 504.97265625 C838.67412478 501.465075 843.49602974 499.41609786 848.42285156 497.25488281 C852.92819686 495.06110914 856.82653396 492.07496118 860.8125 489.0625 C861.60624023 488.47227051 862.39998047 487.88204102 863.21777344 487.27392578 C869.24842084 482.72653226 874.84470255 477.83011594 880.28515625 472.59765625 C882.50847996 470.47030335 884.76511884 468.47052451 887.125 466.5 C901.69905885 453.78581058 912.98381524 437.40931449 923 421 C923.41572266 420.33258789 923.83144531 419.66517578 924.25976562 418.97753906 C969.40325626 346.17948046 981.1380891 249.45051134 981.24023438 165.42553711 C981.24461606 162.35900966 981.25852469 159.29276402 981.28125 156.22631836 C982.4750118 109.07601924 982.4750118 109.07601924 962.4140625 68.265625 C952.03471918 58.52449373 938.39419655 57.32366535 924.77734375 57.7265625 C882.54973205 59.76021067 842.27887181 86.01744386 809 110 C807.53132352 111.05348791 806.062573 112.10687262 804.59375 113.16015625 C800.05088706 116.42418784 795.52216492 119.70736379 791 123 C790.20239258 123.58072266 789.40478516 124.16144531 788.58300781 124.75976562 C768.38939744 139.48552087 768.38939744 139.48552087 749.4375 155.74609375 C747.37155814 157.65642781 745.27049421 159.4932997 743.125 161.3125 C734.42833025 168.90199619 726.38622953 177.17002586 719.22265625 186.21875 C717.2603594 188.67420757 715.23466131 191.0567815 713.17260742 193.4284668 C689.95828157 220.2514098 672.67264684 250.88012311 656 282 C649.79061872 280.01875357 643.77284353 277.73478783 637.75 275.25 C613.76763563 265.58646533 589.5709086 258.85079646 563.74609375 256.3515625 C563.09289721 256.2881303 562.43970066 256.2246981 561.76671028 256.15934372 C546.79502137 254.73880737 531.8585279 254.53819511 516.8293457 254.60888672 C513.16729425 254.6259934 509.50589671 254.61577344 505.8438673 254.59856606 C477.44171003 254.48562559 449.80265119 256.82110536 422 263 C420.7320459 263.27384521 420.7320459 263.27384521 419.43847656 263.55322266 C405.97301537 266.52088535 393.47181479 271.58514957 380.76318359 276.86230469 C375.54793225 279.00959849 370.27591852 281.00710831 365 283 C364.7834375 282.24332031 364.566875 281.48664063 364.34375 280.70703125 C362.45566776 275.49833926 359.98656398 270.63349475 357.5 265.6875 C356.96318604 264.61951172 356.42637207 263.55152344 355.87329102 262.45117188 C348.66129841 248.24266107 340.54957517 234.90034122 331.34375 221.90234375 C330.04046037 220.05727966 328.75309367 218.20203475 327.46875 216.34375 C319.23683834 204.51240735 309.93661891 193.83423765 300.03417969 183.37524414 C297.14225553 180.31933186 294.31328327 177.23091051 291.5625 174.046875 C283.18306672 164.41006146 273.99840699 155.21035302 263.94921875 147.32421875 C261.64372906 145.50730966 259.3884632 143.66027693 257.14453125 141.76953125 C248.81243885 134.76394594 240.30754258 128.23725799 231.35546875 122.046875 C227.59733873 119.44150922 223.92655194 116.73384993 220.26708984 113.9921875 C200.16220762 98.95671909 179.60967128 85.94028476 157 75 C156.195625 74.6095752 155.39125 74.21915039 154.5625 73.81689453 C135.21326787 64.55853233 113.4890282 57.74263904 91.9375 57.5625 C90.67123779 57.54727295 90.67123779 57.54727295 89.37939453 57.53173828 C76.49935071 57.71200304 66.177091 62.53406508 57.88671875 72.35546875 Z " fill="#EA933E" transform="translate(0,0)"/>
<path d="M0 0 C0.75780762 0.19803223 1.51561523 0.39606445 2.29638672 0.60009766 C18.01439776 4.83394162 32.55264505 12.65556196 47 20 C48.23459961 20.62479248 48.23459961 20.62479248 49.49414062 21.26220703 C67.8012561 30.65664787 84.25718676 43.588746 100.71484375 55.8359375 C103.91850865 58.21507238 107.1581621 60.53139167 110.43017578 62.81518555 C118.5632533 68.50084172 126.17239768 74.76530249 133.76611328 81.1472168 C135.36052246 82.46961803 136.97005741 83.77386911 138.58935547 85.06567383 C145.40033503 90.51723058 151.62655307 96.35363053 157.75 102.5625 C158.64332031 103.45646484 159.53664063 104.35042969 160.45703125 105.27148438 C164.95003652 109.79426655 169.29980584 114.38259535 173.453125 119.21899414 C175.31347097 121.36091709 177.25890952 123.40760774 179.21923828 125.45751953 C199.8398834 147.16685449 216.40699497 173.43529787 230 200 C230.45294434 200.8770459 230.90588867 201.7540918 231.37255859 202.65771484 C239 217.46005259 239 217.46005259 239 220 C244.94201947 217.74463494 250.87202216 215.47049589 256.75390625 213.0625 C297.06502352 196.58303818 338.21085281 191.61160087 381.51220703 191.68432617 C384.48990055 191.68893874 387.46718368 191.68208609 390.44482422 191.66381836 C406.29577812 191.56766378 422.01109174 191.81222769 437.796875 193.35546875 C439.63294312 193.53489265 439.63294312 193.53489265 441.50610352 193.71794128 C471.13160089 196.89150167 499.27389349 205.93797889 526.27368164 218.31665039 C528.00049327 219.12268519 528.00049327 219.12268519 530 219 C530.39155273 218.2565332 530.78310547 217.51306641 531.18652344 216.74707031 C548.13663144 184.63784645 566.68983929 154.54024727 590.4765625 126.9609375 C592.76685324 124.27356849 594.94729668 121.52844907 597.125 118.75 C601.30304915 113.61243504 605.88433036 108.93321403 610.5625 104.25 C611.62525146 103.18604004 611.62525146 103.18604004 612.70947266 102.10058594 C619.38668637 95.49300713 626.40885634 89.3567555 633.75 83.5 C634.37704834 82.99936035 635.00409668 82.4987207 635.65014648 81.98291016 C647.73554906 72.39939794 660.14094708 63.20712049 672.73828125 54.30859375 C675.465315 52.37844172 678.17431925 50.42587637 680.87915039 48.46484375 C713.4042244 24.99207098 748.14936151 3.80261395 788 -4 C788.9590625 -4.19078125 789.918125 -4.3815625 790.90625 -4.578125 C805.68217959 -6.59302449 821.65969932 -5.85328006 834.0390625 3.3046875 C850.78643058 17.78348779 853.40481191 42.09749203 855 63 C855.4631794 73.6390827 855.38680373 84.28644768 855.3225708 94.9329834 C855.30921048 97.92391277 855.31439857 100.91469113 855.31944084 103.90563679 C855.42992952 191.09586156 841.44366071 291.17141461 782.9375 378.875 C782.37184326 379.66011963 781.80618652 380.44523926 781.22338867 381.25415039 C777.75283341 385.96165611 774.05151902 390.14331835 769.82958984 394.19238281 C767.99566494 396.004283 766.33791596 397.89592407 764.6875 399.875 C754.50849444 411.63587805 741.58440238 421.0117604 729.0625 430.125 C728.53164291 430.51550034 728.00078583 430.90600067 727.45384216 431.30833435 C724.4361512 433.46769979 721.50383237 435.30631605 718.1081543 436.81420898 C710.95410829 440.00643524 710.95410829 440.00643524 706.11184692 445.8581543 C704.6829742 451.12137183 704.75325304 456.52064804 704.75 461.9375 C704.68430202 464.32038999 704.59777357 466.70190866 704.50959778 469.08406067 C704.45099374 470.67456555 704.39884486 472.26532107 704.35307312 473.85624695 C703.93881373 486.10414348 701.46799703 497.89278997 698.19628906 509.67504883 C693.5977609 526.25623738 691.09857512 542.87860007 689.07885742 559.95239258 C687.66441609 571.80536106 685.68138632 583.36743061 683 595 C682.83867081 595.70908005 682.67734161 596.4181601 682.51112366 597.14872742 C673.21437478 637.8899147 654.79852909 671.44635755 621.4375 697.125 C620.88884277 697.55296875 620.34018555 697.9809375 619.77490234 698.421875 C617.30787992 700.32650182 614.86148134 702.08131275 612.171875 703.66015625 C608.49535819 705.92040479 606.4001563 707.53138514 605.2421875 711.78125 C604.65360094 722.93880386 607.96582843 734.09192323 610.4296875 744.8828125 C611.81933793 751.02057195 612.89921945 757.16070195 613.875 763.375 C617.52387584 785.61455586 624.55462114 807.28166656 631.1171875 828.80859375 C631.44855713 829.89865723 631.77992676 830.9887207 632.12133789 832.11181641 C632.64048948 833.81828022 633.16209406 835.52400652 633.68920898 837.22802734 C634.65738943 840.44209368 635.29461401 843.38743412 635.3125 846.75 C635.32925781 847.48734375 635.34601562 848.2246875 635.36328125 848.984375 C634.89431652 851.58637284 634.04447882 852.36191516 632 854 C629.96550162 854.00624718 627.92794823 853.99421327 625.89819336 853.85522461 C616.81555104 853.23613787 610.37268723 854.48864204 602.27197266 858.51342773 C595.62072801 861.81323112 588.83618074 864.34816366 581.8125 866.75 C580.68924316 867.13438232 579.56598633 867.51876465 578.40869141 867.91479492 C571.42973419 870.26527153 564.45912241 872.34241429 557.3125 874.12109375 C553.90532573 875.02511994 550.63558648 876.13809103 547.3125 877.3125 C512.18722829 889.34330269 473.84292234 895.30614602 437 899 C435.37167236 899.17354004 435.37167236 899.17354004 433.71044922 899.35058594 C397.79575063 903.06380987 360.82653018 902.31059153 325 898 C324.30013977 897.9175 323.60027954 897.835 322.87921143 897.75 C291.10932686 893.98821707 259.75988256 887.62678459 228.99609375 878.84570312 C225.96254275 877.98942699 222.92098515 877.17021857 219.875 876.359375 C198.04810104 870.50093877 175.78051611 864.15185003 156 853 C155.67 853.33 155.34 853.66 155 854 C152.50761431 854.12653198 150.05529559 854.18519825 147.5625 854.1875 C146.86833984 854.19974609 146.17417969 854.21199219 145.45898438 854.22460938 C143.63779099 854.22989842 141.8171308 854.12169207 140 854 C137.16097695 851.16097695 137.29970884 848.72954454 136.98657227 844.82250977 C137.00935592 840.03338593 138.31611169 835.7666089 139.71875 831.21875 C140.01208725 830.21583923 140.3054245 829.21292847 140.60765076 828.17962646 C141.23323784 826.04829229 141.8668891 823.91931077 142.50802612 821.79260254 C143.51165375 818.46131838 144.49240194 815.12405155 145.46704102 811.78417969 C146.7402735 807.42614923 148.02029469 803.07025316 149.30908203 798.71679688 C155.51105546 777.76202592 160.19671477 756.82801771 163.99803162 735.31758118 C164.51099766 732.45329965 165.0780217 729.76593489 166 727 C166.14584712 724.89924051 166.22085655 722.79311451 166.25 720.6875 C166.27578125 719.57761719 166.3015625 718.46773437 166.328125 717.32421875 C165.89629396 712.94935904 164.87766539 709.72108741 161.55664062 706.67700195 C159.78615743 705.32047508 157.97364058 704.06029746 156.125 702.8125 C154.76814185 701.85667394 153.41402523 700.89694574 152.0625 699.93359375 C151.0415625 699.2063208 151.0415625 699.2063208 150 698.46435547 C132.96786682 685.99380679 119.09858281 670.55955759 109 652 C108.39929688 650.9378125 107.79859375 649.875625 107.1796875 648.78125 C90.03470796 617.36370359 84.92696404 579.94341443 81.22045898 544.8269043 C79.99642152 533.29546833 77.21782584 522.60247226 73.5625 511.625 C67.45033303 493.06485421 64.81364078 473.45542467 64.9375 454 C64.94252513 452.63932456 64.94708624 451.27864733 64.95117188 449.91796875 C64.96289541 446.61193275 64.97930573 443.30598999 65 440 C64.17121338 439.74802856 64.17121338 439.74802856 63.32568359 439.4909668 C57.78723652 437.73663579 52.73469526 435.56652705 47.625 432.8125 C46.88749512 432.41740234 46.14999023 432.02230469 45.39013672 431.61523438 C39.19599592 428.23045798 33.52634357 424.39712166 28 420 C27.14664063 419.33742188 26.29328125 418.67484375 25.4140625 417.9921875 C7.60381529 403.83800277 -6.5488088 387.99650356 -19 369 C-19.42861328 368.35450195 -19.85722656 367.70900391 -20.29882812 367.04394531 C-59.61963185 307.34235859 -74.08019193 235.92977395 -79.77282715 165.76092529 C-79.99494583 163.06142537 -80.2267522 160.36294297 -80.46191406 157.66455078 C-83.71207391 120.15352169 -86.15528392 81.3232057 -80 44 C-79.82380127 42.84854492 -79.82380127 42.84854492 -79.64404297 41.67382812 C-77.27006142 26.40017679 -72.38241185 11.60513795 -60.1484375 1.50390625 C-42.82817674 -10.62027628 -18.84447812 -5.08435504 0 0 Z M789.875 19 C788.59834473 19.33004028 788.59834473 19.33004028 787.29589844 19.66674805 C771.53781746 23.87756545 756.15805985 29.16495989 741.82568359 37.00537109 C740.07015041 37.96178219 738.29510343 38.88210698 736.51953125 39.80078125 C715.94464933 50.66387071 696.249703 64.62351736 678 79 C677.08089844 79.72058594 676.16179688 80.44117188 675.21484375 81.18359375 C672.7936609 83.10332605 670.3935644 85.04598833 668 87 C667.15566406 87.68191406 666.31132813 88.36382812 665.44140625 89.06640625 C651.00319414 100.68609551 651.00319414 100.68609551 637.5703125 113.42578125 C635.7874044 115.21312444 633.91278625 116.85267648 632 118.5 C625.43154987 124.182532 619.63876756 130.40663794 614 137 C612.83210937 138.33417969 612.83210937 138.33417969 611.640625 139.6953125 C587.7581626 167.17891907 567.68100579 198.16389868 552 231 C551.60087402 231.83499023 551.20174805 232.66998047 550.79052734 233.53027344 C548.17560056 239.01173508 545.58136021 244.50265882 543 250 C538.65576501 248.6497648 534.7022572 246.94761631 530.625 244.9375 C507.48843951 233.91251814 482.8443636 226.89046464 457.9375 221.1875 C456.04825806 220.75219971 456.04825806 220.75219971 454.12084961 220.30810547 C440.32310048 217.23710753 427.09240654 215.69008018 412.96875 215.734375 C411.56229588 215.73301888 410.15584222 215.73107064 408.74938965 215.72857666 C405.81481421 215.72565418 402.88036171 215.72981847 399.94580078 215.73925781 C396.28796819 215.75048338 392.63043216 215.74398872 388.97261047 215.73237705 C373.96271937 215.69204659 359.01251109 215.94523732 344.03125 216.91796875 C342.7781604 216.99911926 341.5250708 217.08026978 340.23400879 217.16387939 C302.70838291 219.82642465 267.59459049 233.50312167 233.77978516 249.21899414 C232 250 232 250 229 251 C228.7628125 250.22140625 228.525625 249.4428125 228.28125 248.640625 C210.89017399 199.22451878 175.95621595 155.08282788 139.5 118.3125 C138.63391113 117.43335938 137.76782227 116.55421875 136.87548828 115.6484375 C131.65925104 110.42532775 126.2700022 105.61259593 120.48876953 101.02124023 C118.02279457 99.01851248 115.69412281 96.92000429 113.375 94.75 C106.94938404 88.89645796 99.97179206 83.76716137 93.03515625 78.54296875 C91.25025432 77.18973216 89.48012411 75.82112306 87.71875 74.4375 C55.60387812 49.27533234 6.90620725 14.27526046 -36.4765625 17.3671875 C-40.96732154 18.17373181 -43.46854077 19.37657917 -46.5 22.7734375 C-55.75429237 36.51027773 -57.7602708 53.84805731 -59 70 C-59.08757568 71.11979248 -59.17515137 72.23958496 -59.26538086 73.39331055 C-60.05362784 84.534946 -60.20076702 95.64559833 -60.1875 106.8125 C-60.18689575 107.75875244 -60.1862915 108.70500488 -60.18566895 109.67993164 C-60.15885969 125.21491567 -59.5980755 140.53801505 -58 156 C-57.87641113 157.27520508 -57.75282227 158.55041016 -57.62548828 159.86425781 C-51.90051537 218.74527029 -41.02436945 280.48575193 -12.95019531 333.19238281 C-11.98518574 335.02818211 -11.06391931 336.88125564 -10.1484375 338.7421875 C-5.17438483 348.69029284 1.11049037 357.29646569 8 366 C8.77472656 367.0003125 9.54945313 368.000625 10.34765625 369.03125 C24.27203137 386.61993437 41.36695963 399.10864275 60.26318359 410.91455078 C61.78449959 411.86531982 63.29370756 412.8354067 64.80078125 413.80859375 C67.02276534 415.23816673 67.02276534 415.23816673 70 415 C70.22550537 413.74848145 70.22550537 413.74848145 70.45556641 412.47167969 C77.61884463 373.10884322 89.17798832 331.91617393 116 301 C116.62777344 300.25105469 117.25554687 299.50210937 117.90234375 298.73046875 C125.28631369 290.18433848 133.71570636 282.65516096 142 275 C141.67 274.01 141.34 273.02 141 272 C138.67448418 270.8039537 138.67448418 270.8039537 135.79296875 269.87890625 C134.73142578 269.50056641 133.66988281 269.12222656 132.57617188 268.73242188 C131.45791016 268.34634766 130.33964844 267.96027344 129.1875 267.5625 C126.98982754 266.80349023 124.79563527 266.03431041 122.60546875 265.25390625 C121.13823364 264.74839233 121.13823364 264.74839233 119.64135742 264.23266602 C116.72349913 262.87096285 115.05873186 261.4609082 113 259 C111.78560201 255.35680603 111.38869173 251.79156675 112 248 C113.1171875 245.77734375 113.1171875 245.77734375 115 244 C133.98858899 240.51961172 153.76282367 252.60422942 169.4609375 262.04296875 C173.29612032 264.99900966 174.81744534 267.59172118 175.4375 272.375 C174.76080484 277.98190274 172.32398767 282.15349967 168.00390625 285.703125 C166.86517634 286.56332504 165.71758697 287.41189261 164.5625 288.25 C163.30194862 289.20513798 162.04286678 290.16221807 160.78515625 291.12109375 C160.15109863 291.60046387 159.51704102 292.07983398 158.86376953 292.57373047 C117.81112403 323.98970571 99.0585248 367.64427282 91.55029297 418.01708984 C90.7253005 424.33251153 90.26623174 430.63817067 90 437 C89.93425781 438.49249268 89.93425781 438.49249268 89.8671875 440.01513672 C88.79459655 468.72929032 94.31097754 497.20803111 100.95947266 525.05102539 C104.18111604 538.6817375 105.99676993 552.43579644 107.77636719 566.31860352 C111.87827531 598.0587316 119.24003293 631.38351215 141 656 C142.06347656 657.22589844 142.06347656 657.22589844 143.1484375 658.4765625 C145.39435123 661.02193139 147.68722733 663.51533206 150 666 C150.70125 666.77859375 151.4025 667.5571875 152.125 668.359375 C162.76521429 679.66460268 176.08038054 688.31659873 189.16015625 696.54296875 C202.69421214 705.11636394 215.75491429 714.45658462 228.703125 723.8828125 C234.35079041 727.99183471 240.06237713 732.00884084 245.77734375 736.0234375 C248.6360583 738.03269408 251.48065866 740.06002903 254.31640625 742.1015625 C263.29251993 748.54644666 272.36818874 754.57886809 282 760 C282.70286133 760.39928711 283.40572266 760.79857422 284.12988281 761.20996094 C303.59657885 772.17120825 324.21619558 780.04819752 346 785 C346.76683105 785.17789063 347.53366211 785.35578125 348.32373047 785.5390625 C371.88521413 790.72804557 399.48183677 789.92967634 423 785 C423.84981445 784.82839355 424.69962891 784.65678711 425.57519531 784.47998047 C466.46848192 776.05280041 499.73013452 755.13799337 532.625 730.25 C546.46952905 719.80461778 560.82946975 710.09432251 575.1875 700.375 C609.20948457 677.33910954 640.40377266 654.80117961 654.1875 614.5 C654.49647217 613.60676025 654.80544434 612.71352051 655.1237793 611.79321289 C661.042988 593.60481303 663.83553143 574.61238101 666.45376587 555.72647095 C669.04106948 537.13219518 671.99335609 518.88551894 676.40234375 500.63574219 C677.39308325 496.26645149 678.1258397 491.86346874 678.8125 487.4375 C678.98036011 486.35625854 678.98036011 486.35625854 679.15161133 485.25317383 C686.30713509 436.76606359 680.86829025 385.37928614 657 342 C656.43667969 340.948125 655.87335937 339.89625 655.29296875 338.8125 C648.34502888 326.31597114 639.59373619 316.33505373 629.5625 306.25 C628.25804932 304.93721069 628.25804932 304.93721069 626.92724609 303.59790039 C621.67138487 298.39954205 616.23437478 293.60431934 610.43164062 289.0234375 C605.73507526 285.11529154 600.30375555 280.19283889 599 274 C599.20758646 269.0179249 600.57699054 266.55950984 604 263 C607.08819285 260.96827439 610.33031751 259.29556824 613.625 257.625 C614.54982178 257.14820801 615.47464355 256.67141602 616.42749023 256.18017578 C640.55429587 243.97351684 640.55429587 243.97351684 651.5625 243.75 C652.70912109 243.71132813 652.70912109 243.71132813 653.87890625 243.671875 C656.53528682 244.0828068 657.34633165 244.9291448 659 247 C660.81210173 250.62420345 660.91124656 254.08041319 660 258 C654.41778108 263.57967267 646.17778466 266.18901427 638.9375 268.875 C637.88111328 269.2771875 636.82472656 269.679375 635.73632812 270.09375 C633.16115403 271.07254921 630.58260265 272.04101298 628 273 C629.4153983 275.9489364 630.77499224 278.02260872 633.125 280.3125 C633.75148438 280.92351562 634.37796875 281.53453125 635.0234375 282.1640625 C636.88969657 283.89754424 638.8034381 285.54533873 640.75 287.1875 C662.53657114 306.16695524 678.07890456 333.14769377 688 360 C688.30244629 360.80888672 688.60489258 361.61777344 688.91650391 362.45117188 C693.8309533 375.88137917 696.66583377 389.50400032 699.04736328 403.56323242 C699.22269341 404.57878456 699.22269341 404.57878456 699.40156555 405.61485291 C699.71975975 407.47013257 700.02685121 409.32730653 700.33325195 411.18457031 C700.76765406 414.11773787 700.76765406 414.11773787 703 416 C715.58789889 408.35637933 727.51961131 400.22614233 739 391 C739.60070312 390.52175781 740.20140625 390.04351562 740.8203125 389.55078125 C801.95529746 340.61537849 820.53420925 248.1634879 828.78613281 174.0637207 C829.5859898 166.7143748 830.33114066 159.36243749 831 152 C831.10602539 150.89793213 831.21205078 149.79586426 831.32128906 148.66040039 C832.21311844 138.20976731 832.15114727 127.75379839 832.13037109 117.2722168 C832.12506283 114.10004783 832.1303168 110.92802376 832.13671875 107.75585938 C832.14080339 97.36131014 832.00265041 86.98401837 831.57421875 76.59765625 C831.53809479 75.6865358 831.50197083 74.77541534 831.4647522 73.83668518 C830.70314561 57.33035999 829.33007562 35.12259465 817.5234375 22.41015625 C809.16627922 15.01728547 799.96338358 16.34402396 789.875 19 Z " fill="#211B12" transform="translate(126,63)"/>
<path d="M0 0 C9.26490646 4.39575854 13.3867887 16.04496247 16.78613281 25.09228516 C23.73865311 45.1642771 23.76048149 67.65321569 24.9921875 88.671875 C25.03446535 89.38749414 25.0767432 90.10311329 25.1203022 90.84041786 C25.79930682 102.43454327 26.31817592 114.03080157 26.74609375 125.63671875 C26.77505171 126.41701509 26.80400967 127.19731144 26.83384514 128.00125313 C27.09875255 135.16238846 27.35733341 142.32373225 27.60180664 149.4855957 C28.17226768 166.09215733 28.87016446 182.64497458 30.484375 199.1875 C30.6061058 200.43589157 30.72783661 201.68428314 30.85325623 202.97050476 C31.87509821 212.82475185 33.38216598 222.4406412 36 232 C36.19932129 232.73395996 36.39864258 233.46791992 36.60400391 234.22412109 C45.31830179 265.22394443 65.14556954 286.40916337 87.52661133 308.49023438 C92.57729679 313.49052132 97.39871396 318.58473431 102 324 C102.98455088 325.12988858 103.97019039 326.25882968 104.95703125 327.38671875 C111.60098713 335.04462548 117.95753367 342.85731557 124 351 C124.76014404 352.0211792 124.76014404 352.0211792 125.53564453 353.06298828 C143.55679614 377.36743892 160.2648606 401.29137302 157 433 C156.11024625 438.08748087 154.5148409 442.89520517 152.77392578 447.74609375 C151.92916899 450.20628134 151.21023074 452.68640902 150.49609375 455.1875 C147.57563493 465.03772326 145.01139602 472.15141924 135.9296875 477.77685547 C133.57565713 479.26897239 131.30925268 480.86688602 129.03125 482.47265625 C117.64249963 490.45470591 106.00353452 497.97900977 94 505 C93.39768555 505.3614209 92.79537109 505.7228418 92.17480469 506.09521484 C76.4505903 515.4795879 58.70439444 521.10635859 41 525.4375 C40.04754395 525.67227051 39.09508789 525.90704102 38.11376953 526.14892578 C23.59172854 529.49407111 9.03715789 530.38657993 -5.8125 530.3125 C-6.59747864 530.31034485 -7.38245728 530.3081897 -8.19122314 530.30596924 C-20.34669397 530.2526003 -32.11309231 529.74544693 -44 527 C-44.83998535 526.81195801 -45.6799707 526.62391602 -46.54541016 526.43017578 C-77.10383216 519.38340703 -105.03994414 505.59883162 -130.57226562 487.62451172 C-132.81451935 486.12411386 -135.07340932 484.8327015 -137.453125 483.56640625 C-152.54846249 474.96338418 -156.24648728 457.67124861 -161 442 C-161.19916016 441.35677795 -161.39832031 440.71355591 -161.60351562 440.05084229 C-168.39135906 418.05685741 -163.55882833 399.99805142 -153.15380859 380.11816406 C-148.18172128 370.99039649 -141.737256 362.84507869 -135.32958984 354.69726562 C-133.96615988 352.95680197 -132.61682983 351.20609791 -131.26953125 349.453125 C-126.23140342 342.92696507 -121.02408006 336.70075069 -115.40625 330.65625 C-112.95493746 327.95025564 -110.65943309 325.16021796 -108.375 322.3125 C-105.08404619 318.23357134 -101.6286982 314.51492048 -97.87109375 310.8671875 C-96.12259176 309.12233583 -94.52919298 307.32485096 -92.9375 305.4375 C-89.38737681 301.29160901 -85.51105745 297.51349326 -81.625 293.6875 C-75.62386029 287.75542335 -70.14134835 281.70327696 -65 275 C-64.45085937 274.30648438 -63.90171875 273.61296875 -63.3359375 272.8984375 C-38.50307446 240.93408559 -37.53717963 197.32258997 -36.25390625 158.5546875 C-36.21053729 157.24941447 -36.21053729 157.24941447 -36.16629219 155.91777229 C-35.89783495 147.76473892 -35.64533112 139.61122392 -35.39819336 131.45751953 C-32.02195023 20.84810122 -32.02195023 20.84810122 -13.25 1.8125 C-8.68021435 -0.7360343 -5.10387921 -1.17294119 0 0 Z " fill="#FED5AD" transform="translate(516,321)"/>
<path d="M0 0 C0.08636719 0.81855469 0.17273438 1.63710938 0.26171875 2.48046875 C4.57594409 40.04193526 14.46747108 75.4183895 26.52905273 111.15087891 C26.97454216 112.48205246 26.97454216 112.48205246 27.42903137 113.84011841 C27.98636084 115.50305909 28.54993315 117.16392574 29.12089539 118.82223511 C30.40687836 122.66670499 31.35517305 125.88531508 31 130 C13.6370311 139.69245214 -5.56713036 146.22811037 -24.83203125 150.93359375 C-28.6188497 151.86804815 -32.25951985 153.07072198 -35.9375 154.375 C-71.04998483 166.2894901 -109.19764051 172.31021283 -146 176 C-147.08555176 176.11569336 -148.17110352 176.23138672 -149.28955078 176.35058594 C-185.20424937 180.06380987 -222.17346982 179.31059153 -258 175 C-258.69986023 174.9175 -259.39972046 174.835 -260.12078857 174.75 C-291.89067314 170.98821707 -323.24011744 164.62678459 -354.00390625 155.84570312 C-357.03745725 154.98942699 -360.07901485 154.17021857 -363.125 153.359375 C-384.95189896 147.50093877 -407.21948389 141.15185003 -427 130 C-425.53979235 122.43564562 -423.10960616 115.46473727 -420.4375 108.25 C-407.81479801 73.4496725 -398.76797129 38.68493841 -394 2 C-384.38735581 3.72616509 -376.60612307 10.94806838 -368.90087891 16.66943359 C-363.67989147 20.53697741 -358.35140287 24.22339223 -352.97729492 27.87402344 C-349.06986482 30.54048137 -345.24111397 33.28361768 -341.45898438 36.12475586 C-321.3001095 51.24122846 -298.48778674 63.85995629 -275 73 C-274.33323242 73.25974609 -273.66646484 73.51949219 -272.97949219 73.78710938 C-219.61724881 94.07027086 -155.41609245 89.95059316 -103.69213867 66.89208984 C-83.60632346 57.53380569 -65.36411505 45.33378561 -47.95166016 31.74267578 C-43.43201379 28.25065428 -38.73133458 25.09345113 -33.95092773 21.97192383 C-27.96006812 18.03704445 -22.17864525 13.83169651 -16.42895508 9.5534668 C-3.43250366 0 -3.43250366 0 0 0 Z " fill="#E4B380" transform="translate(709,786)"/>
<path d="M0 0 C10.64077805 6.82261652 16.88111956 18.39157321 19.53515625 30.42675781 C25.88708659 61.1980847 24.86591348 91.94224438 21 123 C20.91514343 123.68296143 20.83028687 124.36592285 20.74285889 125.06958008 C13.82889727 180.10516406 0.8894262 272.74482124 -45 310 C-63.94615479 323.86826935 -63.94615479 323.86826935 -73 325 C-73.36351562 323.741875 -73.72703125 322.48375 -74.1015625 321.1875 C-79.02866175 304.32204257 -84.70543379 288.51273834 -93 273 C-93.32226562 272.39414062 -93.64453125 271.78828125 -93.9765625 271.1640625 C-104.7059936 251.1881298 -118.98813608 233.27382295 -136.23828125 218.54296875 C-137.90872994 217.07993719 -139.52273299 215.65908448 -141 214 C-141 213.34 -141 212.68 -141 212 C-140.2793335 211.72325439 -139.55866699 211.44650879 -138.81616211 211.16137695 C-135.51922475 209.88863782 -132.22841526 208.60072613 -128.9375 207.3125 C-127.80376953 206.87744141 -126.67003906 206.44238281 -125.50195312 205.99414062 C-119.42282743 203.60148182 -113.89041928 201.39997608 -109 197 C-108.09534513 194.73086786 -108.09534513 194.73086786 -108.4375 192.4375 C-108.47746094 191.69371094 -108.51742187 190.94992187 -108.55859375 190.18359375 C-109.03762373 187.81387909 -109.74148747 186.0614345 -111 184 C-115.47616973 181.76191513 -121.30486092 182.59486492 -125.96484375 184.03125 C-127.29504321 184.50434251 -128.61923346 184.99460859 -129.9375 185.5 C-130.65333252 185.76264648 -131.36916504 186.02529297 -132.10668945 186.29589844 C-138.49690603 188.69214308 -144.73575178 191.43357788 -150.93530273 194.28320312 C-154.0555521 195.71635955 -157.07287279 197.02403524 -160.33984375 198.1015625 C-163.49895909 199.16851775 -165.51641736 200.80860356 -168 203 C-170.54623682 202.03418603 -171.9734119 201.02933859 -173.8125 199 C-177.10450061 190.68336688 -172.67064902 181.60313088 -169.4375 173.875 C-168.75977539 172.22467773 -168.75977539 172.22467773 -168.06835938 170.54101562 C-164.43659245 161.80735892 -160.54834312 153.2929027 -156 145 C-155.46004395 144.00492432 -155.46004395 144.00492432 -154.90917969 142.98974609 C-143.75808848 122.64835315 -129.20358676 104.47634025 -113.43261719 87.54589844 C-112.01007282 86.0108693 -110.60100263 84.46452795 -109.1953125 82.9140625 C-103.52219759 76.67412056 -97.70203032 70.5998828 -91.75 64.625 C-91.10071533 63.97112305 -90.45143066 63.31724609 -89.7824707 62.64355469 C-85.9383786 58.81166296 -81.97873193 55.17228066 -77.87060547 51.62548828 C-75.25262152 49.35055521 -72.72541746 46.98899025 -70.1875 44.625 C-65.57291116 40.36756619 -60.84977264 36.29601958 -55.94921875 32.3671875 C-53.8266006 30.66347015 -51.73007046 28.94302394 -49.64453125 27.1953125 C-11.77144722 -4.24863492 -11.77144722 -4.24863492 0 0 Z " fill="#E4734B" transform="translate(895,124)"/>
<path d="M0 0 C3.55676258 1.23914858 6.77186276 2.92845207 10.0625 4.75 C10.97499512 5.24153564 11.88749023 5.73307129 12.82763672 6.23950195 C20.88283874 10.69654478 28.12577394 15.94298549 35.30859375 21.67333984 C37.68556534 23.53772547 40.15295192 25.26453602 42.625 27 C48.17362995 31.01195848 53.31171279 35.4461748 58.46875 39.94140625 C60.69253428 41.87932743 62.93566526 43.78468483 65.21875 45.65234375 C72.31197782 51.47403019 78.85848096 57.68593657 85.26904297 64.25488281 C88.42871109 67.48332732 91.61915732 70.58673299 95.046875 73.53125 C98.93636205 76.88332707 102.46107019 80.47549146 105.9375 84.25 C106.54376221 84.90476318 107.15002441 85.55952637 107.7746582 86.23413086 C112.74794904 91.6455213 117.44622568 97.23080548 122 103 C122.85579609 104.05287637 123.71261605 105.10492112 124.5703125 106.15625 C144.18385354 130.37477078 166.44059175 163.26612085 170 195 C169.38992042 200.42440318 169.38992042 200.42440318 167.6875 202.9375 C166 204 166 204 164.1184082 203.69384766 C161.98270533 202.99433543 160.32481284 202.14243305 158.41796875 200.9609375 C157.40210693 200.34230835 157.40210693 200.34230835 156.36572266 199.71118164 C155.64690918 199.2702417 154.9280957 198.82930176 154.1875 198.375 C139.44496062 189.53993207 122.85975356 180.01554118 105 183 C102.13958757 185.70611632 102.00909716 186.90447979 101.625 190.9375 C101.77840549 194.68896153 102.61437125 197.01796406 105 200 C107.89423108 202.44789851 110.64120917 203.77973116 114.203125 205.04296875 C115.1828125 205.39423828 116.1625 205.74550781 117.171875 206.10742188 C118.18765625 206.46384766 119.2034375 206.82027344 120.25 207.1875 C121.28125 207.55552734 122.3125 207.92355469 123.375 208.30273438 C125.91453465 209.20803145 128.45616801 210.10686478 131 211 C131 215 131 215 129.53125 216.89453125 C128.8609375 217.52746094 128.190625 218.16039062 127.5 218.8125 C126.76910156 219.50859375 126.03820312 220.2046875 125.28515625 220.921875 C122.53284931 223.42482764 119.73516237 225.87016004 116.92578125 228.30859375 C90.2228063 251.76171374 74.77506689 289.42382301 66 323 C48.66232609 318.08765906 34.22679707 306.40044475 25 291 C24.35675781 289.93007813 23.71351563 288.86015625 23.05078125 287.7578125 C20.95847925 284.21236994 18.96963016 280.61466206 17 277 C16.43539062 275.9790625 15.87078125 274.958125 15.2890625 273.90625 C6.37751365 257.00359396 0.11874414 238.53592462 -5.32324219 220.25683594 C-6.00270991 217.99096307 -6.70566709 215.73354322 -7.4140625 213.4765625 C-25.43408287 155.56632881 -48.51037417 71.71685369 -21.625 14.05078125 C-16.62409787 4.95946733 -10.95075146 -1.72980297 0 0 Z " fill="#E4734B" transform="translate(136,124)"/>
<path d="M0 0 C6.81816204 6.22189692 11.89270449 15.2473307 12.79296875 24.515625 C13.25766338 42.0272752 6.92594947 56.89321797 -4.4453125 70.0625 C-5.02796875 70.74054688 -5.610625 71.41859375 -6.2109375 72.1171875 C-16.92611308 83.68777625 -32.01419078 89.9952133 -46.890625 94.265625 C-49.35494249 94.81730674 -49.35494249 94.81730674 -50.4453125 96.0625 C-50.6887082 100.38867411 -50.67388139 104.72070955 -50.68554688 109.05297852 C-50.69519635 111.22386818 -50.72617808 113.39378821 -50.7578125 115.56445312 C-50.7643482 116.95311939 -50.76959644 118.34179242 -50.7734375 119.73046875 C-50.78745605 121.62188599 -50.78745605 121.62188599 -50.80175781 123.55151367 C-50.41148059 127.39574431 -49.46738414 129.78953447 -47.4453125 133.0625 C-32.48957376 142.76807603 -11.04210721 142.9363491 5.9921875 139.875 C26.07212384 135.57789362 39.95298492 124.68001308 51.0703125 107.69091797 C54.07709322 102.97541163 56.7958185 98.13916675 59.30078125 93.13671875 C60.5546875 91.0625 60.5546875 91.0625 63.5546875 89.0625 C67.07317519 88.5211942 69.47095617 88.36428575 72.53125 90.3359375 C77.13208964 94.21730427 77.13208964 94.21730427 78.5546875 97.0625 C78.78364423 110.57094705 68.72529277 123.09492312 60.5546875 133.0625 C59.84570312 133.93648437 59.13671875 134.81046875 58.40625 135.7109375 C46.49556813 149.68556425 29.74888536 159.93092398 11.5546875 163.0625 C10.50023437 163.24425781 9.44578125 163.42601562 8.359375 163.61328125 C-13.6872215 166.21631882 -33.61115121 162.27610846 -54.2355957 154.77099609 C-58.35198819 153.45116724 -61.34088473 152.68639147 -65.4921875 154.13671875 C-66.24661133 154.39042236 -67.00103516 154.64412598 -67.77832031 154.90551758 C-68.97473145 155.32353638 -68.97473145 155.32353638 -70.1953125 155.75 C-76.64506085 157.89762365 -83.07117096 159.84026421 -89.6953125 161.375 C-90.37303711 161.53379639 -91.05076172 161.69259277 -91.74902344 161.85620117 C-118.49722832 167.91748553 -141.84749867 163.23930694 -165.4453125 150.0625 C-169.10928418 147.66347092 -172.29488153 145.09509989 -175.4453125 142.0625 C-176.12078125 141.46308594 -176.79625 140.86367188 -177.4921875 140.24609375 C-186.64567196 131.7489638 -197.10936156 118.15525138 -198.94921875 105.6328125 C-199.1746144 99.21994286 -198.84212173 94.85901916 -194.4453125 90.0625 C-193.4453125 89.0625 -193.4453125 89.0625 -189.8203125 88.5 C-187.2227236 88.56920752 -185.82591616 88.7995222 -183.67578125 90.28515625 C-179.07007679 95.19287412 -176.11644586 101.13010011 -172.91552734 106.98852539 C-163.14428352 124.63139124 -149.4026173 134.18403874 -130.3984375 139.65136719 C-123.90057111 141.30531594 -117.5005875 141.44724085 -110.8203125 141.4375 C-109.10086426 141.43508301 -109.10086426 141.43508301 -107.34667969 141.43261719 C-96.01316125 141.26929155 -85.76186972 140.06662623 -76.4453125 133.0625 C-69.9239111 122.26845631 -71.26332032 108.23575492 -71.4453125 96.0625 C-76.30436959 93.43860917 -81.08330421 91.45413271 -86.3203125 89.6875 C-103.7620559 83.55781382 -118.67628934 70.95712046 -127.3984375 54.5546875 C-128.89319197 51.42731287 -130.22617564 48.30619627 -131.4453125 45.0625 C-131.70957031 44.37027344 -131.97382813 43.67804687 -132.24609375 42.96484375 C-135.54473116 32.39574023 -134.2905659 19.41759529 -129.19140625 9.6640625 C-120.84982202 -3.65519733 -108.62064401 -11.72400451 -93.42333984 -15.43066406 C-61.04843437 -22.43023503 -26.80746589 -21.24042026 0 0 Z " fill="#211B12" transform="translate(572.4453125,637.9375)"/>
<path d="M0 0 C0.18006592 1.00861084 0.18006592 1.00861084 0.36376953 2.03759766 C4.20500811 23.32521427 9.2787021 43.73502471 16.46020508 64.14697266 C16.79044678 65.10007324 17.12068848 66.05317383 17.4609375 67.03515625 C17.75790527 67.8744165 18.05487305 68.71367676 18.36083984 69.57836914 C19.03945214 72.1494751 19.11629116 74.35275284 19 77 C10.74410283 80.64692723 2.22212913 83.02551138 -6.5 85.25 C-7.24665924 85.44153656 -7.99331848 85.63307312 -8.76260376 85.83041382 C-38.73323575 93.46560456 -69.22897357 98.91491143 -100 102 C-101.08555176 102.11569336 -102.17110352 102.23138672 -103.28955078 102.35058594 C-139.20424937 106.06380987 -176.17346982 105.31059153 -212 101 C-212.69986023 100.9175 -213.39972046 100.835 -214.12078857 100.75 C-246.92445391 96.86580999 -279.27391224 90.19588263 -311 81 C-312.42602539 80.60675537 -312.42602539 80.60675537 -313.88085938 80.20556641 C-314.79158203 79.9482373 -315.70230469 79.6909082 -316.640625 79.42578125 C-317.86313965 79.086073 -317.86313965 79.086073 -319.11035156 78.73950195 C-321 78 -321 78 -322 76 C-321.34 76 -320.68 76 -320 76 C-319.90058105 75.41951904 -319.80116211 74.83903809 -319.69873047 74.2409668 C-318.40555925 67.21842471 -316.37447932 60.58118484 -314.125 53.8125 C-308.67450064 37.05242791 -304.63941858 20.23781406 -301 3 C-296.46199653 4.71620624 -292.6878804 7.10648651 -288.6875 9.8125 C-259.36648155 29.17537529 -225.01590883 44.82673421 -190 50 C-188.5473877 50.217771 -188.5473877 50.217771 -187.06542969 50.43994141 C-151.59101816 55.53193603 -116.23989608 53.97467897 -82 43 C-81.23268555 42.75491699 -80.46537109 42.50983398 -79.67480469 42.25732422 C-51.86262207 33.21443318 -26.32577502 19.44306395 -3.1953125 1.6171875 C-1 0 -1 0 0 0 Z " fill="#FED5AD" transform="translate(663,860)"/>
<path d="M0 0 C1.051875 0.23332031 2.10375 0.46664063 3.1875 0.70703125 C20.2779171 5.20559056 33.37054912 16.5055988 42.2109375 31.59765625 C51.41748356 49.10617507 54.5554324 70.7313207 49.0859375 90 C43.54172718 105.31637959 33.72916861 119.24034171 19 127 C2.03004521 134.65346284 -19.28221121 138.03922483 -37.16015625 131.3203125 C-54.5525148 123.23418156 -71.10025577 110.44113458 -78 92 C-80.6380729 83.59795094 -81.46883472 75.77875978 -81.375 67 C-81.38660156 65.91460938 -81.39820313 64.82921875 -81.41015625 63.7109375 C-81.37215718 53.09652968 -79.27907242 43.37501675 -74.375 33.9375 C-74.02727539 33.26122559 -73.67955078 32.58495117 -73.32128906 31.88818359 C-65.35119855 16.91849084 -52.72357438 5.41730219 -37 -1 C-25.83576803 -4.27741416 -11.12474146 -2.5059639 0 0 Z " fill="#211B12" transform="translate(701,506)"/>
<path d="M0 0 C12.90528189 10.34607243 23.72245973 25.13561074 26.34960938 41.77929688 C27.80981015 61.8855135 27.46569492 81.03887635 14.31445312 97.29492188 C2.06134155 111.38491966 -11.63106853 122.21753238 -30.65039062 123.77929688 C-50.30083516 124.95598229 -66.29614325 121.87642435 -81.65795898 108.6640625 C-94.55524525 97.07318643 -104.2884584 81.93022976 -105.87182617 64.31591797 C-106.79724432 43.97250405 -102.27778202 27.10382456 -88.88085938 11.19335938 C-66.35917299 -13.18212606 -28.12918501 -20.80561022 0 0 Z " fill="#211B12" transform="translate(376.650390625,516.220703125)"/>
<path d="M0 0 C9.60665709 1.72508997 17.38088446 8.93882373 25.08154297 14.65625 C30.45427532 18.63585039 35.93150791 22.44527475 41.45776367 26.20800781 C45.68025375 29.08312727 49.85242997 32.01759784 54 35 C53.38288014 39.35532117 52.75490452 43.70901098 52.125 48.0625 C51.95097656 49.29162109 51.77695312 50.52074219 51.59765625 51.78710938 C50.73807122 57.69277693 49.68240546 63.26865193 48 69 C47.64730998 71.23079086 47.37861422 73.46355179 47.11499023 75.70654297 C44.15912504 100.56062172 35.89150134 124.35892444 28 148 C22.82985893 149.31867756 19.08435261 148.45538443 14.171875 146.75390625 C13.05746788 146.38452187 13.05746788 146.38452187 11.92054749 146.00767517 C9.52494882 145.20774633 7.1373182 144.38678401 4.75 143.5625 C3.94130463 143.28744629 3.13260925 143.01239258 2.29940796 142.72900391 C-6.95952483 139.57922277 -16.20861777 136.39052852 -25.1875 132.5 C-25.89745117 132.19908447 -26.60740234 131.89816895 -27.33886719 131.58813477 C-31.70898547 129.57961757 -31.70898547 129.57961757 -32.82495117 127.35693359 C-33.08893026 123.80260435 -31.80203683 120.84328866 -30.5703125 117.5703125 C-30.17180336 116.46907799 -30.17180336 116.46907799 -29.76524353 115.34559631 C-29.19215336 113.76236147 -28.61473733 112.1806872 -28.03347778 110.60043335 C-26.49527112 106.40910567 -24.99828386 102.20321313 -23.50390625 97.99609375 C-23.20240158 97.14785538 -22.90089691 96.299617 -22.59025574 95.42567444 C-18.23483478 83.09504308 -14.53309145 70.5897484 -11 58 C-10.5656665 56.48237061 -10.5656665 56.48237061 -10.12255859 54.93408203 C-5.01523057 36.89460266 -2.46217926 18.54731542 0 0 Z " fill="#E9923E" transform="translate(315,788)"/>
<path d="M0 0 C0.08636719 0.81855469 0.17273438 1.63710938 0.26171875 2.48046875 C4.57594409 40.04193526 14.46747108 75.4183895 26.52905273 111.15087891 C26.82604568 112.03832794 27.12303864 112.92577698 27.42903137 113.84011841 C27.98636084 115.50305909 28.54993315 117.16392574 29.12089539 118.82223511 C30.40687836 122.66670499 31.35517305 125.88531508 31 130 C15.04672905 138.90552279 -8.34314507 151 -27 151 C-27.27972656 150.02804687 -27.55945313 149.05609375 -27.84765625 148.0546875 C-30.01423885 140.58444329 -32.25519627 133.14851346 -34.65283203 125.7487793 C-39.72186379 110.08321281 -43.38449618 94.59112294 -46.0703125 78.34765625 C-46.63216836 74.98878736 -47.27599732 71.67630032 -48.046875 68.359375 C-49.57247269 61.69433671 -50.17182525 54.94602348 -50.77441406 48.14599609 C-50.97267138 46.25997677 -51.28606498 44.38681075 -51.6171875 42.51953125 C-52.03706353 39.20765197 -52.11268294 37.15723785 -51 34 C-47.40551788 30.40003849 -43.42228548 27.87373797 -39.07470703 25.26953125 C-35.59440078 23.13990163 -32.28102949 20.77355152 -28.9375 18.4375 C-27.59471672 17.51681765 -26.25097391 16.5975331 -24.90625 15.6796875 C-22.37588823 13.94818994 -19.85493361 12.2045058 -17.34375 10.4453125 C-2.42517365 0 -2.42517365 0 0 0 Z " fill="#E9933E" transform="translate(709,786)"/>
<path d="M0 0 C4.69649644 0.58593526 8.39467239 2.61984662 12.4375 4.9375 C13.49094604 5.53703491 13.49094604 5.53703491 14.56567383 6.14868164 C21.72727402 10.30149067 28.39394899 15.02331317 35 20 C35.5475293 20.40863281 36.09505859 20.81726563 36.65917969 21.23828125 C44.48141523 27.08754937 51.97924169 33.2695343 59.38818359 39.63085938 C60.95917266 40.96531964 62.54748284 42.27502103 64.14453125 43.578125 C71.26405322 49.42099749 77.83504254 55.66190525 84.26879883 62.25463867 C87.42855231 65.48316159 90.61906937 68.58665745 94.046875 71.53125 C97.93636205 74.88332707 101.46107019 78.47549146 104.9375 82.25 C105.54376221 82.90476318 106.15002441 83.55952637 106.7746582 84.23413086 C111.74794904 89.6455213 116.44622568 95.23080548 121 101 C121.85579609 102.05287637 122.71261605 103.10492112 123.5703125 104.15625 C143.18385354 128.37477078 165.44059175 161.26612085 169 193 C168.38992042 198.42440318 168.38992042 198.42440318 166.6875 200.9375 C165 202 165 202 163.1184082 201.69384766 C160.98270533 200.99433543 159.32481284 200.14243305 157.41796875 198.9609375 C156.74040527 198.5484375 156.0628418 198.1359375 155.36474609 197.7109375 C154.64625488 197.27007812 153.92776367 196.82921875 153.1875 196.375 C143.27896444 190.42346537 133.23254847 184.97248102 122 182 C121.773125 180.9275 121.54625 179.855 121.3125 178.75 C120.1434641 174.07385638 118.30566711 169.79011407 116.40234375 165.37109375 C115.18544349 162.44578754 114.0813977 159.50280957 113.01660156 156.51953125 C101.47497819 124.43990123 82.42249618 89.08847699 57.33251953 65.42749023 C56 64 56 64 56 62 C55.01 61.67 54.02 61.34 53 61 C51.61827175 59.43789612 50.30673394 57.81316311 49.03515625 56.16015625 C43.9376648 49.77357274 38.28896834 44.12725643 32.4375 38.4375 C30.45129164 36.50445127 28.47185482 34.56481211 26.49609375 32.62109375 C25.63169678 31.7798999 24.7672998 30.93870605 23.87670898 30.07202148 C22 28 22 28 22 26 C21.41992188 25.73574219 20.83984375 25.47148437 20.2421875 25.19921875 C10.08754866 19.76807916 3.63220813 10.61886728 0 0 Z " fill="#D46441" transform="translate(137,126)"/>
<path d="M0 0 C-0.66666667 1.33333333 -1.33333333 2.66666667 -2 4 C-2.43828125 4.94230469 -2.8765625 5.88460937 -3.328125 6.85546875 C-7.38647957 14.48858892 -14.19870225 20.26969638 -20.56542969 25.97924805 C-25.91087615 30.82551205 -31.040673 35.88920524 -36.15496826 40.97671509 C-37.16013421 41.97581617 -38.16711471 42.9730957 -39.17608643 43.96835327 C-45.91863022 50.62524755 -52.12975616 57.54967422 -58 65 C-58.97757153 66.21507958 -59.95539226 67.42995877 -60.93359375 68.64453125 C-63.65493405 72.07128689 -66.33516871 75.52918165 -69 79 C-69.76699219 79.99644531 -70.53398438 80.99289063 -71.32421875 82.01953125 C-89.23471179 106.1941356 -110.2945072 136.86949085 -115.0625 167 C-115.22878906 168.02867187 -115.39507813 169.05734375 -115.56640625 170.1171875 C-115.91748369 172.45137803 -116.22056708 174.7816853 -116.5 177.125 C-117 180 -117 180 -119 182 C-120.32467746 182.6837045 -121.65863633 183.34964186 -123 184 C-123.99 184.66 -124.98 185.32 -126 186 C-127.33937042 186.65071735 -128.6924711 187.27357447 -130.0546875 187.875 C-130.83457031 188.22046875 -131.61445312 188.5659375 -132.41796875 188.921875 C-133.22878906 189.27765625 -134.03960938 189.6334375 -134.875 190 C-135.67808594 190.35578125 -136.48117187 190.7115625 -137.30859375 191.078125 C-147.39796152 195.53273878 -147.39796152 195.53273878 -152 196.875 C-155.26586268 198.09969851 -157.39881033 199.70483265 -160 202 C-162.54623682 201.03418603 -163.9734119 200.02933859 -165.8125 198 C-169.10450061 189.68336688 -164.67064902 180.60313088 -161.4375 172.875 C-160.75977539 171.22467773 -160.75977539 171.22467773 -160.06835938 169.54101562 C-156.43659245 160.80735892 -152.54834312 152.2929027 -148 144 C-147.46004395 143.00492432 -147.46004395 143.00492432 -146.90917969 141.98974609 C-135.75808848 121.64835315 -121.20358676 103.47634025 -105.43261719 86.54589844 C-104.01007282 85.0108693 -102.60100263 83.46452795 -101.1953125 81.9140625 C-95.52219759 75.67412056 -89.70203032 69.5998828 -83.75 63.625 C-83.10071533 62.97112305 -82.45143066 62.31724609 -81.7824707 61.64355469 C-77.9383786 57.81166296 -73.97873193 54.17228066 -69.87060547 50.62548828 C-67.25262152 48.35055521 -64.72541746 45.98899025 -62.1875 43.625 C-57.57291116 39.36756619 -52.84977264 35.29601958 -47.94921875 31.3671875 C-45.8266006 29.66347015 -43.73007046 27.94302394 -41.64453125 26.1953125 C-10.08210174 0 -10.08210174 0 0 0 Z " fill="#D46441" transform="translate(887,125)"/>
<path d="M0 0 C9.53168014 1.39074337 17.51713975 9.03998775 25.08154297 14.65625 C30.45427532 18.63585039 35.93150791 22.44527475 41.45776367 26.20800781 C45.68025375 29.08312727 49.85242997 32.01759784 54 35 C49.84363246 64.34541547 49.84363246 64.34541547 47 76 C46.7525 75.360625 46.505 74.72125 46.25 74.0625 C45.23226269 71.86166089 45.23226269 71.86166089 43.30078125 71.49609375 C42.54152344 71.33238281 41.78226562 71.16867187 41 71 C38.68178802 69.73578254 36.43622572 68.44002969 34.1875 67.0625 C33.53096436 66.66498535 32.87442871 66.2674707 32.19799805 65.85791016 C26.84597209 62.58740472 21.63881916 59.12002678 16.44091797 55.61181641 C6.36572124 48.35471063 6.36572124 48.35471063 -5 44 C-5.92996001 39.02974074 -5.91013619 35.34533103 -4.75 30.4375 C-2.55418199 20.37923687 -1.30494153 10.20595746 0 0 Z " fill="#D28536" transform="translate(315,788)"/>
<path d="M0 0 C0.10957031 0.91136719 0.21914063 1.82273437 0.33203125 2.76171875 C0.49058594 4.05722656 0.64914062 5.35273437 0.8125 6.6875 C0.89798096 7.3899585 0.98346191 8.09241699 1.0715332 8.81616211 C1.59778758 13.05234924 2.18382893 17.27344432 2.8359375 21.4921875 C2.97668701 22.41684814 3.11743652 23.34150879 3.26245117 24.29418945 C3.54071905 26.10652689 3.82703499 27.9176513 4.12231445 29.72729492 C4.87459726 34.66877889 5.49211339 39.13228583 4 44 C1.47265625 46.01171875 1.47265625 46.01171875 -1.9375 47.6875 C-3.21833988 48.35005543 -4.495516 49.0197271 -5.76953125 49.6953125 C-6.45354004 50.05657227 -7.13754883 50.41783203 -7.84228516 50.79003906 C-11.75358234 52.98333945 -15.42269307 55.5375955 -19.125 58.0625 C-38.75972296 71.31448879 -38.75972296 71.31448879 -47 73 C-49.1232236 64.81042325 -50.02926893 56.55472717 -50.77441406 48.14599609 C-50.97267138 46.25997677 -51.28606498 44.38681075 -51.6171875 42.51953125 C-52.03706353 39.20765197 -52.11268294 37.15723785 -51 34 C-47.40551788 30.40003849 -43.42228548 27.87373797 -39.07470703 25.26953125 C-35.59440078 23.13990163 -32.28102949 20.77355152 -28.9375 18.4375 C-27.59471672 17.51681765 -26.25097391 16.5975331 -24.90625 15.6796875 C-22.37588823 13.94818994 -19.85493361 12.2045058 -17.34375 10.4453125 C-2.42517365 0 -2.42517365 0 0 0 Z " fill="#D18436" transform="translate(709,786)"/>
<path d="M0 0 C2.47090825 0.00848526 4.93947612 -0.02030767 7.41015625 -0.05200195 C20.41072006 -0.10933532 35.32980377 0.68534752 45.73828125 9.44604492 C46.28097656 9.88819336 46.82367187 10.3303418 47.3828125 10.78588867 C49.18000541 12.98706154 49.33739957 14.63706778 49.61328125 17.44604492 C49.71382812 18.31229492 49.814375 19.17854492 49.91796875 20.07104492 C49.73828125 22.44604492 49.73828125 22.44604492 48.43359375 24.19604492 C44.61491741 27.01165882 40.27508662 26.99133403 35.73828125 26.44604492 C32.67271855 25.56719475 29.69012828 24.53194199 26.68359375 23.46948242 C18.93243954 20.77611054 11.92876531 20.17047723 3.73828125 20.44604492 C6.37828125 20.77604492 9.01828125 21.10604492 11.73828125 21.44604492 C11.73828125 21.77604492 11.73828125 22.10604492 11.73828125 22.44604492 C11.01350586 22.46586426 10.28873047 22.48568359 9.54199219 22.50610352 C6.19045091 22.60260828 2.83942949 22.71176835 -0.51171875 22.82104492 C-1.65125 22.85198242 -2.79078125 22.88291992 -3.96484375 22.91479492 C-19.51828284 23.17221685 -19.51828284 23.17221685 -33.26171875 29.44604492 C-34.95995797 31.70365677 -36.46451673 33.99122577 -37.90234375 36.42260742 C-39.26171875 38.44604492 -39.26171875 38.44604492 -42.26171875 40.44604492 C-45.34927805 40.76766568 -47.40187436 40.93329007 -50.13671875 39.38354492 C-52.27267287 35.70495727 -51.68061298 32.25173292 -50.74609375 28.22338867 C-47.83099431 19.43522124 -40.56775176 9.31437528 -32.32421875 4.82104492 C-30.97786982 4.34023168 -29.62207669 3.88566191 -28.26171875 3.44604492 C-27.09225708 3.06234741 -27.09225708 3.06234741 -25.89916992 2.67089844 C-17.24268911 0.1770797 -8.93390642 -0.04660404 0 0 Z " fill="#443627" transform="translate(508.26171875,639.553955078125)"/>
<path d="M0 0 C0.64066406 0.34546875 1.28132813 0.6909375 1.94140625 1.046875 C5.46036902 3.11585552 7.54374302 5.19755122 9 9 C9.73407731 14.40770282 9.9559308 18.5226524 6.9375 23.1875 C3.17402365 25.50964498 1.38967529 25.483267 -3 25 C-5.9515515 23.64189349 -8.57228287 21.89343905 -11.25 20.0625 C-12.64940427 19.13424553 -14.0503845 18.20836141 -15.453125 17.28515625 C-16.06317383 16.87144775 -16.67322266 16.45773926 -17.30175781 16.03149414 C-22.92799464 12.61417807 -30.72191839 12.97131337 -36.93115234 14.46435547 C-45.39633619 17.03667226 -53.2972272 20.90740162 -60.86474609 25.45898438 C-65.06185317 27.88571408 -68.18095352 28.53086191 -73 28 C-75 26 -75 26 -75.6875 23 C-75.53866818 17.90782542 -71.92082487 14.81711665 -68.54296875 11.35546875 C-51.68552585 -4.25902905 -20.71521983 -12.3229 0 0 Z " fill="#7D582B" transform="translate(388,452)"/>
<path d="M0 0 C5.71323012 3.87528659 11.71452248 7.95654935 15.57421875 13.74609375 C15.94589059 16.50630371 15.75272511 18.93461851 15.57421875 21.74609375 C13.57421875 23.74609375 13.57421875 23.74609375 10.359375 24.1015625 C5.9443214 23.6869393 3.72983641 22.43344812 0.01171875 20.05859375 C-6.86179332 15.83758953 -13.74657545 13.18709641 -21.42578125 10.74609375 C-22.41578125 10.41609375 -23.40578125 10.08609375 -24.42578125 9.74609375 C-34.01127312 8.68402663 -39.67846986 10.21045223 -47.42578125 15.74609375 C-55.05605897 20.72400146 -55.05605897 20.72400146 -60.30078125 20.80859375 C-63.84615173 19.60316779 -64.57735653 18.91016195 -66.42578125 15.74609375 C-66.82421875 13.125 -66.82421875 13.125 -66.80078125 10.30859375 C-66.80851563 9.38175781 -66.81625 8.45492188 -66.82421875 7.5 C-66.17814402 3.03448348 -64.48348269 0.58652849 -60.97265625 -2.203125 C-60.0496875 -2.77675781 -59.12671875 -3.35039062 -58.17578125 -3.94140625 C-57.263125 -4.52277344 -56.35046875 -5.10414063 -55.41015625 -5.703125 C-38.54378862 -14.46745478 -15.64365115 -9.2232859 0 0 Z " fill="#7D582B" transform="translate(693.42578125,456.25390625)"/>
<path d="M0 0 C5.09163591 1.77689328 9.00155192 5.04075037 11.37109375 9.91796875 C12.9264317 15.06700682 12.98740141 20.26985786 11.15234375 25.34375 C8.76534496 29.68080543 5.87728592 32.43842415 1.3125 34.375 C-4.51404336 35.94974145 -9.91607702 36.00337032 -15.375 33.375 C-20.75861209 28.50411287 -24.46156643 24.07671131 -25.4375 16.6875 C-24.7193197 10.63426608 -21.77073445 6.60601497 -17.3125 2.5625 C-11.92991182 -1.07438391 -6.33730672 -0.64484875 0 0 Z " fill="#FCFCFC" transform="translate(674,531)"/>
<path d="M0 0 C4.80442159 2.41819002 7.81658997 6.49363924 9.76171875 11.38671875 C10.82395116 17.27452122 9.75823979 22.19274894 6.76171875 27.38671875 C2.0376153 32.1108222 -2.03062201 34.03031217 -8.61328125 34.76171875 C-14.62754364 34.13955368 -19.23524482 31.89497196 -23.17578125 27.26171875 C-27.06506033 21.84029943 -26.85590829 16.94042794 -26.23828125 10.38671875 C-21.0817726 -0.30826215 -11.06766392 -3.03250128 0 0 Z " fill="#FDFDFC" transform="translate(330.23828125,531.61328125)"/>
<path d="M0 0 C6.48207941 2.22242723 10.86702843 5.85455577 14 12 C14 17.8986671 11.53815185 22.79383736 9 28 C5.31245243 27.50168276 3.39509338 26.89932357 1 24 C1.28875 23.484375 1.5775 22.96875 1.875 22.4375 C4.50266359 16.74422889 5.5956086 12.15449031 4 6 C2.0554473 3.17134072 2.0554473 3.17134072 0 1 C0 0.67 0 0.34 0 0 Z " fill="#655342" transform="translate(369,799)"/>
<path d="M0 0 C9.95662322 -0.67886067 18.52181404 1.30569333 28 4 C28 4.99 28 5.98 28 7 C20.64971227 6.11796547 13.32650983 5.05987432 6 4 C6 3.67 6 3.34 6 3 C4.02 2.34 2.04 1.68 0 1 C0 0.67 0 0.34 0 0 Z " fill="#31271B" transform="translate(511,659)"/>
<path d="M0 0 C0.99773438 -0.01224609 1.99546875 -0.02449219 3.0234375 -0.03710938 C3.98507812 -0.03904297 4.94671875 -0.04097656 5.9375 -0.04296875 C6.81277344 -0.04707764 7.68804688 -0.05118652 8.58984375 -0.05541992 C11.15797237 0.20342205 12.7878246 0.89246635 15 2.1875 C9.89250751 3.68662494 4.71716465 3.37175895 -0.5625 3.375 C-2.14321289 3.39336914 -2.14321289 3.39336914 -3.75585938 3.41210938 C-4.76583984 3.41404297 -5.77582031 3.41597656 -6.81640625 3.41796875 C-7.73881104 3.42207764 -8.66121582 3.42618652 -9.61157227 3.43041992 C-12 3.1875 -12 3.1875 -15 1.1875 C-10.05384487 -0.250586 -5.11177146 0.00330218 0 0 Z " fill="#2D241B" transform="translate(512,618.8125)"/>
<path d="M0 0 C3.93673644 1.31224548 6.22719294 2.91910327 9 6 C8.34 6 7.68 6 7 6 C7 6.66 7 7.32 7 8 C4.69 8.33 2.38 8.66 0 9 C0 6.03 0 3.06 0 0 Z " fill="#EDC18F" transform="translate(368,824)"/>
<path d="M0 0 C4.90411748 1.60931234 8.69784237 4.41745942 12.8125 7.4375 C13.85180664 8.17323242 13.85180664 8.17323242 14.91210938 8.92382812 C15.56630859 9.40142578 16.22050781 9.87902344 16.89453125 10.37109375 C17.49112549 10.80349365 18.08771973 11.23589355 18.70239258 11.68139648 C21.22710659 14.24696193 20 19.517258 20 23 C19.67 23 19.34 23 19 23 C18.731875 21.948125 18.46375 20.89625 18.1875 19.8125 C15.98681863 12.74715455 12.76981099 9.74145812 6.8125 5.75 C4.52314831 4.18918092 2.25607906 2.60935627 0 1 C0 0.67 0 0.34 0 0 Z " fill="#1C1711" transform="translate(364,794)"/>
<path d="M0 0 C0 3 0 3 -2.16015625 5.41796875 C-3.12104851 6.34796739 -4.08893034 7.27078112 -5.0625 8.1875 C-6.07227449 9.16464322 -7.08008151 10.14382361 -8.0859375 11.125 C-8.5819043 11.60839844 -9.07787109 12.09179688 -9.58886719 12.58984375 C-12.56904712 15.56796128 -15.29260019 18.77514493 -18 22 C-18.66 21.67 -19.32 21.34 -20 21 C-13.59669232 13.71129669 -6.9151883 6.79885803 0 0 Z " fill="#FEDEB9" transform="translate(439,610)"/>
<path d="M0 0 C0 0.66 0 1.32 0 2 C-0.95712891 2.19916016 -0.95712891 2.19916016 -1.93359375 2.40234375 C-3.17302734 2.66724609 -3.17302734 2.66724609 -4.4375 2.9375 C-5.67306641 3.19853516 -5.67306641 3.19853516 -6.93359375 3.46484375 C-8.97661204 3.80752994 -8.97661204 3.80752994 -10 5 C-11.51469448 5.23192865 -13.03754562 5.41215238 -14.5625 5.5625 C-15.80193359 5.68818359 -15.80193359 5.68818359 -17.06640625 5.81640625 C-18.02353516 5.90728516 -18.02353516 5.90728516 -19 6 C-19 5.34 -19 4.68 -19 4 C-15.32586128 2.44477307 -11.67798336 1.29687775 -7.8125 0.3125 C-6.76707031 0.04050781 -5.72164062 -0.23148438 -4.64453125 -0.51171875 C-2 -1 -2 -1 0 0 Z " fill="#1A120C" transform="translate(697,934)"/>
<path d="M0 0 C0.33 0 0.66 0 1 0 C1.19401633 1.81181405 1.38004375 3.62448532 1.5625 5.4375 C1.66691406 6.44683594 1.77132812 7.45617187 1.87890625 8.49609375 C1.93884766 9.73552734 1.93884766 9.73552734 2 11 C1.67 11.33 1.34 11.66 1 12 C0.60333773 14.18019479 0.25684763 16.3696463 -0.0625 18.5625 C-0.32740234 20.35880859 -0.32740234 20.35880859 -0.59765625 22.19140625 C-0.73042969 23.11824219 -0.86320313 24.04507813 -1 25 C-1.33 25 -1.66 25 -2 25 C-2.31274919 16.48627215 -1.37292913 8.3969326 0 0 Z " fill="#15100D" transform="translate(956,222)"/>
<path d="M0 0 C0.66 0.99 1.32 1.98 2 3 C1.58105469 3.68449219 1.16210938 4.36898437 0.73046875 5.07421875 C-1.16389961 8.27711243 -2.93124279 11.53194408 -4.6875 14.8125 C-5.31011719 15.97394531 -5.93273437 17.13539063 -6.57421875 18.33203125 C-7.04472656 19.21246094 -7.51523437 20.09289062 -8 21 C-8.33 20.34 -8.66 19.68 -9 19 C-7.96897642 16.47709416 -6.88352094 14.06793639 -5.6875 11.625 C-5.36587891 10.95210937 -5.04425781 10.27921875 -4.71289062 9.5859375 C-3.17368697 6.37478572 -1.60557237 3.17854428 0 0 Z " fill="#100D0C" transform="translate(779,680)"/>
<path d="M0 0 C2.97 0 5.94 0 9 0 C9 0.66 9 1.32 9 2 C9.99 2.33 10.98 2.66 12 3 C8.04 3 4.08 3 0 3 C0 2.01 0 1.02 0 0 Z " fill="#2D2925" transform="translate(317,528)"/>
<path d="M0 0 C0 4.33174693 -2.65822583 6.22353653 -5.5 9.1875 C-6.28697266 10.02571289 -6.28697266 10.02571289 -7.08984375 10.88085938 C-8.38661613 12.26015364 -9.69246259 13.63090644 -11 15 C-11 10.66825307 -8.34177417 8.77646347 -5.5 5.8125 C-4.97535156 5.25369141 -4.45070313 4.69488281 -3.91015625 4.11914062 C-2.61338387 2.73984636 -1.30753741 1.36909356 0 0 Z " fill="#FEDFBC" transform="translate(410,641)"/>
<path d="M0 0 C3.99500618 1.3697164 6.80009492 3.25722422 10 6 C9.67 6.66 9.34 7.32 9 8 C7.68 8 6.36 8 5 8 C3.515625 6.50390625 3.515625 6.50390625 2.25 4.5625 C1.82203125 3.92441406 1.3940625 3.28632812 0.953125 2.62890625 C0 1 0 1 0 0 Z " fill="#4E4134" transform="translate(369,799)"/>
<path d="M0 0 C0 4.62 0 9.24 0 14 C-0.33 14 -0.66 14 -1 14 C-1.66 10.7 -2.32 7.4 -3 4 C-3.99 4 -4.98 4 -6 4 C-1.125 0 -1.125 0 0 0 Z " fill="#EFC58F" transform="translate(658,821)"/>
<path d="M0 0 C-0.33 0.99 -0.66 1.98 -1 3 C-5.455 3.495 -5.455 3.495 -10 4 C-9.67 3.01 -9.34 2.02 -9 1 C-5.846632 0.29925156 -3.27275026 0 0 0 Z " fill="#17130F" transform="translate(610,955)"/>
<path d="M0 0 C4.29 0 8.58 0 13 0 C13 0.66 13 1.32 13 2 C9.88450128 3.55774936 6.3955612 3.56480622 3 3 C2.01 2.01 1.02 1.02 0 0 Z " fill="#EAC69E" transform="translate(489,848)"/>
<path d="M0 0 C0 0.66 0 1.32 0 2 C2.97 2.33 5.94 2.66 9 3 C9 3.33 9 3.66 9 4 C3.21101581 4.20674944 -1.42932723 3.59162079 -7 2 C-7 1.67 -7 1.34 -7 1 C-2.25 0 -2.25 0 0 0 Z " fill="#F6EAC7" transform="translate(415,952)"/>
<path d="M0 0 C0.99 0.33 1.98 0.66 3 1 C0.03 3.64 -2.94 6.28 -6 9 C-6.66 8.67 -7.32 8.34 -8 8 C-5.36 5.36 -2.72 2.72 0 0 Z " fill="#19130E" transform="translate(748,727)"/>
<path d="M0 0 C2.89932357 2.39509338 3.50168276 4.31245243 4 8 C1.53199953 6.84826645 -0.04783565 5.95216435 -2 4 C-1.34 2.68 -0.68 1.36 0 0 Z " fill="#E78D30" transform="translate(362,784)"/>
<path d="M0 0 C0.33 0.66 0.66 1.32 1 2 C-2.625 7.875 -2.625 7.875 -6 9 C-4.47291037 5.56404834 -2.40072955 2.88087546 0 0 Z " fill="#1A140C" transform="translate(241,364)"/>
<path d="M0 0 C1.9453125 -0.29296875 1.9453125 -0.29296875 4.125 -0.1875 C5.40375 -0.125625 6.6825 -0.06375 8 0 C8 0.66 8 1.32 8 2 C4.78548731 3.60725635 1.56387464 3.05748185 -2 3 C-1.34 2.01 -0.68 1.02 0 0 Z " fill="#16120F" transform="translate(551,962)"/>
<path d="M0 0 C2.12038635 2.61514317 4.13091744 5.19637616 6 8 C3 8 3 8 1.3125 6.8125 C-0.40364695 4.44258278 -0.23187108 2.85974334 0 0 Z " fill="#E48441" transform="translate(720,320)"/>
<path d="M0 0 C1.98 0 3.96 0 6 0 C5.67 0.99 5.34 1.98 5 3 C3.02 3 1.04 3 -1 3 C-0.67 2.01 -0.34 1.02 0 0 Z " fill="#292218" transform="translate(570,779)"/>
<path d="M0 0 C1.32 0.33 2.64 0.66 4 1 C4 4.33333333 4 7.66666667 4 11 C3.67 11 3.34 11 3 11 C0.85714286 3.57142857 0.85714286 3.57142857 0 0 Z " fill="#120F08" transform="translate(380,806)"/>
<path d="M0 0 C0.33 0 0.66 0 1 0 C1.33 3.3 1.66 6.6 2 10 C1.01 10 0.02 10 -1 10 C-0.67 6.7 -0.34 3.4 0 0 Z " fill="#D9903C" transform="translate(70,109)"/>
<path d="M0 0 C0.66 0.33 1.32 0.66 2 1 C0.68 2.65 -0.64 4.3 -2 6 C-2.99 5.67 -3.98 5.34 -5 5 C-3.35 3.35 -1.7 1.7 0 0 Z " fill="#141009" transform="translate(647,801)"/>
<path d="M0 0 C0 2.31 0 4.62 0 7 C-0.99 7 -1.98 7 -3 7 C-3 5.02 -3 3.04 -3 1 C-1 0 -1 0 0 0 Z " fill="#DF8E3B" transform="translate(220,486)"/>
</svg>
