<?xml version="1.0" encoding="UTF-8"?>
<svg version="1.1" xmlns="http://www.w3.org/2000/svg" width="1024" height="1024">
<path d="M0 0 C11.65494398 8.61565971 22.14532438 18.5760788 32.37670898 28.80908203 C33.92202363 30.35220405 35.47519743 31.88711181 37.02880859 33.421875 C43.42269368 39.77886655 49.31015972 46.36129743 54.86279297 53.48046875 C55.48210693 54.27146973 56.1014209 55.0624707 56.73950195 55.87744141 C86.36994869 94.15430854 115.51365657 139.22959113 130.65185547 185.609375 C132.00772839 188.82410597 133.03679672 190.43089809 135.86279297 192.48046875 C142.77341327 194.79611682 148.68914191 191.87329899 155.30029297 189.54296875 C157.8109659 188.69865843 160.32243931 187.86032571 162.83935547 187.03515625 C163.81661339 186.71471596 163.81661339 186.71471596 164.81361389 186.38780212 C202.1728159 174.30595748 239.90812376 170.05622553 279.05029297 170.16796875 C280.42684929 170.17019178 281.80340569 170.17236827 283.17996216 170.17449951 C322.41226424 170.25856992 360.37821672 173.00193096 397.86279297 185.48046875 C401.17367315 186.57605978 404.48562374 187.66790069 407.80078125 188.75048828 C409.99681464 189.46957721 412.18944004 190.19918714 414.37792969 190.94091797 C421.96270346 193.5401708 421.96270346 193.5401708 429.86279297 193.48046875 C436.33914026 189.75797 437.87654018 184.33836914 440.30029297 177.54296875 C449.17227864 154.12756631 461.1660116 132.02330616 473.86279297 110.48046875 C474.70342285 109.04864258 474.70342285 109.04864258 475.56103516 107.58789062 C482.76306787 95.3773377 490.38209337 83.58594807 498.63232422 72.05859375 C501.08072886 68.62839956 503.38274359 65.13768206 505.62915039 61.57324219 C511.61605203 52.15295169 519.04174467 44.39687416 526.86279297 36.48046875 C527.63961426 35.68463379 528.41643555 34.88879883 529.21679688 34.06884766 C538.04367035 25.02707126 546.77881717 16.12722985 556.86279297 8.48046875 C557.86052734 7.68898437 558.85826172 6.8975 559.88623047 6.08203125 C582.92098111 -12.14059288 609.36250919 -27.8086646 639.86279297 -25.51953125 C654.72975053 -22.56973808 666.0068284 -14.77004227 674.98779297 -2.65234375 C685.14262972 12.93691736 690.55555977 30.53366374 694.86279297 48.48046875 C695.16958984 49.75019531 695.47638672 51.01992187 695.79248047 52.328125 C696.60226729 56.03060391 697.27075375 59.73854271 697.86279297 63.48046875 C698.06582031 64.71966064 698.06582031 64.71966064 698.27294922 65.98388672 C706.01157444 114.93417709 697.09092257 163.25696505 686.79327393 211.10858154 C685.91532755 215.19013535 685.0421995 219.27266519 684.17515945 223.35655022 C683.77764461 225.21993243 683.37338726 227.0818724 682.96884155 228.94374084 C680.19399952 241.99460958 678.57909416 254.76736742 678.55419922 268.11328125 C678.52903226 270.65755431 678.50363434 273.20182509 678.47802734 275.74609375 C678.44944633 279.6682878 678.42536526 283.59044243 678.40649414 287.51269531 C678.21716701 320.5929296 676.20748302 354.24286187 651.41748047 378.9140625 C638.99641366 390.48046875 638.99641366 390.48046875 631.86279297 390.48046875 C631.69058228 389.48756836 631.69058228 389.48756836 631.51489258 388.47460938 C622.96802718 339.94077284 602.72529527 291.9852197 564.00341797 259.4375 C561.39255158 257.05055828 559.08008614 254.43715374 556.73779297 251.79296875 C549.07235807 243.20920091 540.21821727 235.69725834 530.89404297 228.9609375 C529.30932658 227.80592306 527.75210694 226.61315363 526.20654297 225.40625 C515.50020909 217.10884124 500.75327938 205.83220459 486.86279297 204.91796875 C483.83742455 205.30896695 483.83742455 205.30896695 481.42529297 206.91796875 C479.48300584 210.10331964 479.34407052 212.39793386 479.23388672 216.06640625 C480.5768067 221.22121711 484.25538517 224.29555224 488.64794922 226.9375 C490.06872714 227.73167417 491.49475834 228.51650679 492.92529297 229.29296875 C505.76865862 236.57448428 516.84086997 245.73054533 527.86279297 255.48046875 C528.67683594 256.19759033 528.67683594 256.19759033 529.50732422 256.92919922 C570.8144494 293.52520155 602.92945252 339.88779348 609.86279297 395.48046875 C609.95850586 396.24077393 610.05421875 397.0010791 610.15283203 397.78442383 C612.15100421 415.40808755 611.29523464 433.39881984 609.36279297 450.98046875 C606.86436048 474.32758549 606.88175707 496.12509029 612.09667969 519.06591797 C613.22112606 524.0775518 614.2474573 529.10797333 615.26269531 534.14257812 C615.7679037 536.64450288 616.28178814 539.14470045 616.80664062 541.64257812 C619.98497151 557.13345854 621.21635114 572.19581246 621.1784668 587.98095703 C621.17531166 590.71427571 621.19886377 593.44650166 621.22412109 596.1796875 C621.28349112 612.5548957 619.59958304 628.82503815 615.30029297 644.66796875 C615.0519873 645.59883301 614.80368164 646.52969727 614.54785156 647.48876953 C608.08975296 670.66194686 598.15821245 692.84640042 585.86279297 713.48046875 C583.88279297 713.48046875 581.90279297 713.48046875 579.86279297 713.48046875 C579.72744141 714.08890625 579.59208984 714.69734375 579.45263672 715.32421875 C574.35655508 736.07473082 563.11767301 753.83325159 548.86279297 769.48046875 C547.94046875 770.50914062 547.94046875 770.50914062 546.99951172 771.55859375 C530.7716731 788.7546805 507.34676194 798.88360911 483.93310547 799.76953125 C453.17603283 800.40932711 427.78658908 797.4161702 404.86279297 775.48046875 C404.25951172 774.94035156 403.65623047 774.40023437 403.03466797 773.84375 C393.80567635 765.28321338 387.40225326 753.86067495 380.97363281 743.17041016 C358.71573797 706.38796313 330.20033807 682.58530073 292.86279297 662.48046875 C293.19279297 642.68046875 293.52279297 622.88046875 293.86279297 602.48046875 C301.28779297 600.00546875 301.28779297 600.00546875 308.86279297 597.48046875 C330.06446442 590.25812027 354.70200151 581.50207666 365.91748047 560.59375 C368.52652727 554.76112885 368.19485541 548.6380927 368.30029297 542.35546875 C368.34605469 541.26492188 368.39181641 540.174375 368.43896484 539.05078125 C368.60059902 527.30067908 363.08814198 520.1139378 355.26123047 511.79296875 C333.65051792 490.95658141 301.93632509 488.95852834 273.56201172 489.265625 C250.83540961 489.71551839 229.36918457 493.98950496 212.26123047 509.91015625 C202.66774178 520.19112621 199.5025843 528.87911534 199.48779297 542.60546875 C199.46330078 543.77851562 199.43880859 544.9515625 199.41357422 546.16015625 C199.37475445 557.8060874 201.93114615 566.64799994 210.14404297 575.07421875 C225.39214994 588.56966975 245.10331276 594.74253319 264.44189453 599.82958984 C267.59226901 600.67659452 270.72606129 601.5842597 273.86279297 602.48046875 C273.86279297 622.28046875 273.86279297 642.08046875 273.86279297 662.48046875 C265.94279297 666.77046875 258.02279297 671.06046875 249.86279297 675.48046875 C231.99268502 687.34504862 216.0219243 701.48601271 202.86279297 718.48046875 C202.4494873 719.0120459 202.03618164 719.54362305 201.61035156 720.09130859 C194.99976553 728.65598287 189.20925594 737.61003654 183.56787109 746.83666992 C172.85704896 764.33773099 161.68729995 779.84348859 143.30029297 789.79296875 C142.69942871 790.11861816 142.09856445 790.44426758 141.47949219 790.77978516 C118.95805112 802.47536473 85.83170213 803.59330294 61.86279297 796.48046875 C36.79870188 788.50935079 17.10034804 771.17789629 2.86279297 749.48046875 C2.23630859 748.53816406 1.60982422 747.59585938 0.96435547 746.625 C-5.20694758 736.72578313 -9.45499434 725.52710681 -13.13720703 714.48046875 C-14.0637207 714.41214844 -14.99023438 714.34382812 -15.94482422 714.2734375 C-19.13720703 713.48046875 -19.13720703 713.48046875 -20.85302734 711.46875 C-21.30258789 710.58574219 -21.75214844 709.70273437 -22.21533203 708.79296875 C-22.731521 707.79676514 -23.24770996 706.80056152 -23.77954102 705.77416992 C-24.3100708 704.68724854 -24.84060059 703.60032715 -25.38720703 702.48046875 C-26.23037476 700.80078003 -26.23037476 700.80078003 -27.09057617 699.0871582 C-43.21182643 666.38992645 -53.54765871 632.79783702 -53.39794922 596.22265625 C-53.38725121 593.1182898 -53.39788559 590.01450494 -53.41064453 586.91015625 C-53.41894931 575.58820246 -52.91126661 564.6690852 -51.13720703 553.48046875 C-50.99653809 552.51351074 -50.85586914 551.54655273 -50.7109375 550.55029297 C-50.3179453 547.8967518 -49.89097574 545.25138381 -49.44970703 542.60546875 C-49.28889648 541.6198999 -49.12808594 540.63433105 -48.96240234 539.61889648 C-47.92108548 533.45431949 -46.69556729 527.35466383 -45.32080078 521.2578125 C-40.04721314 497.74172072 -39.34718509 477.09677419 -41.84667969 453.02566528 C-44.14599765 430.68909709 -44.78842695 407.74646066 -40.54296875 385.61181641 C-40.1638225 383.62027203 -39.83790925 381.61879891 -39.51611328 379.6171875 C-33.64898651 345.68988921 -15.74104443 315.70740139 5.86279297 289.48046875 C6.35618164 288.87138672 6.84957031 288.26230469 7.35791016 287.63476562 C24.96765267 265.98521152 45.326841 246.22641756 69.11181641 231.56103516 C70.92289392 230.44337912 72.72524268 229.31252705 74.52685547 228.1796875 C83.39894463 222.63508486 83.39894463 222.63508486 86.86279297 221.48046875 C87.82444366 218.59551669 88.09007383 216.49453521 88.17529297 213.48046875 C88.21267578 212.61421875 88.25005859 211.74796875 88.28857422 210.85546875 C88.07021667 208.36073858 88.07021667 208.36073858 86.12841797 206.69921875 C82.09304288 204.52846526 78.31716218 204.81545025 73.86279297 205.48046875 C69.99026431 206.78619167 66.46739691 208.56678857 62.86279297 210.48046875 C61.96560547 210.92648437 61.06841797 211.3725 60.14404297 211.83203125 C50.49580071 216.79477655 42.08163327 223.37470798 34.04248047 230.61328125 C31.30184025 232.96099814 28.42938876 235.12018441 25.55029297 237.29296875 C17.28716981 243.56959163 9.54494156 250.26329158 2.86279297 258.23046875 C0.20291089 261.22283609 -2.65504111 263.9903491 -5.51220703 266.79296875 C-11.16191409 272.3736889 -16.2584962 278.20658702 -21.13720703 284.48046875 C-21.93642578 285.47433594 -22.73564453 286.46820313 -23.55908203 287.4921875 C-48.02462962 318.17075303 -58.37657074 352.30275795 -65.13720703 390.48046875 C-75.01477707 389.20135896 -83.95407597 379.81881113 -90.13720703 372.48046875 C-105.21008663 352.41446403 -110.19527141 328.2780835 -110.34814453 303.56640625 C-110.37624841 301.00390025 -110.40491303 298.44140035 -110.43408203 295.87890625 C-110.47605728 291.88869181 -110.51191922 287.89855501 -110.53857422 283.90820312 C-110.71943778 258.92408435 -113.76227622 236.06001356 -119.20758057 211.71298218 C-123.9585766 190.41206463 -128.48335719 169.15849575 -131.13720703 147.48046875 C-131.22476257 146.78639923 -131.31231812 146.09232971 -131.40252686 145.37722778 C-132.95088704 132.91704216 -133.54077953 120.59495202 -133.51220703 108.04296875 C-133.51166321 107.13315247 -133.51111938 106.22333618 -133.51055908 105.28594971 C-133.40411854 66.2886894 -126.68248122 16.7185894 -98.13720703 -12.51953125 C-67.41209952 -39.23505728 -28.41594637 -20.20343274 0 0 Z " fill="#FECF97" transform="translate(228.13720703125,84.51953125)"/>
<path d="M0 0 C2.64390933 1.84946389 5.26496702 3.7280834 7.875 5.625 C8.45523926 6.04539551 9.03547852 6.46579102 9.63330078 6.89892578 C27.18473943 19.72517294 42.79101253 35.1996489 55.90869141 52.50610352 C58.87462937 56.39508572 61.98199964 60.12000012 65.1875 63.8125 C71.3463636 70.95060638 76.76565454 78.59819684 82.20629883 86.2890625 C84.02751132 88.83849354 85.88501092 91.35947723 87.7421875 93.8828125 C92.13630903 99.91601527 96.24386635 106.11912294 100.3125 112.375 C100.68384064 112.94492676 101.05518127 113.51485352 101.43777466 114.10205078 C107.12021615 122.82854294 112.68788843 131.59466522 117.875 140.625 C118.24044922 141.25051758 118.60589844 141.87603516 118.98242188 142.52050781 C125.68541734 154.02185331 131.49812198 165.91581691 137.14135742 177.96337891 C137.43278625 178.57956589 137.72421509 179.19575287 138.0244751 179.83061218 C138.8236884 181.52083797 139.61604262 183.21430212 140.40795898 184.90795898 C141.71796922 187.33417032 142.68096146 188.97866354 144.875 190.625 C151.67599324 190.44069124 158.28264435 187.81238098 164.75 185.875 C182.71513379 180.63867265 200.75217482 177.12603599 219.25 174.375 C220.86938477 174.12991699 220.86938477 174.12991699 222.52148438 173.87988281 C238.57837596 171.6184167 254.80931826 171.41245672 271 171.4375 C271.85839478 171.43876892 272.71678955 171.44003784 273.60119629 171.44134521 C316.48274438 171.56068528 358.44182913 175.98289433 399.01953125 190.77734375 C402.92164858 192.05611409 402.92164858 192.05611409 406.875 191.625 C411.82295 185.23389792 414.90407496 177.51536605 418.34765625 170.23083496 C429.72611282 146.21520711 442.82446181 123.46327977 457.625 101.375 C458.21127167 100.49891586 458.21127167 100.49891586 458.80938721 99.60513306 C461.48795549 95.60497893 464.17812201 91.6128325 466.875 87.625 C467.46958008 86.74569824 468.06416016 85.86639648 468.67675781 84.96044922 C475.05196418 75.58684931 481.84425621 66.82690722 489.36181641 58.34423828 C491.44448935 55.9779616 493.4857756 53.57746157 495.52856445 51.17675781 C506.23530774 38.60063725 516.94344668 26.94712111 529.875 16.625 C530.92651034 15.76000011 531.9772748 14.89409285 533.02734375 14.02734375 C550.78814985 -0.47336772 571.1407345 -12.86094408 592.875 -20.375 C594.66744141 -20.99761719 594.66744141 -20.99761719 596.49609375 -21.6328125 C604.88808691 -24.13032555 612.87466357 -24.75168885 621.625 -24.8125 C622.65415527 -24.82265137 623.68331055 -24.83280273 624.74365234 -24.84326172 C645.57343435 -24.60674892 663.03514834 -15.18519842 677.56640625 -0.6875 C705.82190714 29.73141511 716.16249438 78.35614802 716.875 118.625 C716.89546387 119.4907666 716.91592773 120.3565332 716.93701172 121.24853516 C717.47617566 146.53576959 715.51170561 171.55619602 711.38525391 196.49755859 C710.91043363 199.40782066 710.47054059 202.32076262 710.04296875 205.23828125 C708.03588352 218.53931463 705.20060195 231.63252112 702.25 244.75 C702.05000397 245.6410141 701.85000793 246.5320282 701.64395142 247.45004272 C701.06667443 250.01202905 700.48390452 252.57268647 699.8984375 255.1328125 C699.72458023 255.90060532 699.55072296 256.66839813 699.37159729 257.4594574 C698.65378692 260.56574791 697.91159255 263.52452698 696.81884766 266.52490234 C695.49215554 270.88246482 695.12925209 275.19089275 694.75 279.71875 C694.66508301 280.71845825 694.58016602 281.7181665 694.49267578 282.74816895 C693.51773036 295.52986031 693.73158589 308.31675441 693.875 321.125 C694.27705069 357.45315183 694.27705069 357.45315183 689.25 373.5 C688.99202637 374.33587646 688.73405273 375.17175293 688.46826172 376.03295898 C684.29944964 389.0300607 678.66747892 401.09612488 669.875 411.625 C669.06417969 412.59824219 668.25335937 413.57148438 667.41796875 414.57421875 C657.79470971 425.74458519 646.47448232 434.17688881 633.54296875 441.1640625 C631.02674002 442.37972907 631.02674002 442.37972907 629.875 443.625 C629.63483362 445.15485075 629.45595319 446.69438682 629.30249023 448.23535156 C629.20250229 449.22378052 629.10251434 450.21220947 628.99949646 451.23059082 C628.89524857 452.3146521 628.79100067 453.39871338 628.68359375 454.515625 C628.57366592 455.6351355 628.4637381 456.754646 628.35047913 457.90808105 C627.99631413 461.56299699 627.65240766 465.21873137 627.3125 468.875 C627.14016846 470.72792664 627.14016846 470.72792664 626.96435547 472.61828613 C624.74277395 496.8368428 622.62548714 520.66673103 627.875 544.625 C628.88203338 549.39436193 629.87773667 554.166087 630.875 558.9375 C631.13772705 560.18241211 631.4004541 561.42732422 631.67114258 562.70996094 C633.87834508 573.29511406 635.57667867 583.89300444 636.875 594.625 C636.9692627 595.34187988 637.06352539 596.05875977 637.16064453 596.79736328 C641.54709643 632.06945861 635.04677798 670.81457713 621.875 703.625 C621.53597656 704.47610352 621.19695313 705.32720703 620.84765625 706.20410156 C613.40259073 724.68722667 604.0979649 741.83949241 593.75390625 758.83984375 C591.15165829 763.13170701 588.67907716 767.48343273 586.25 771.875 C579.65772102 783.7199425 572.82511668 795.38709675 563.875 805.625 C563.45025391 806.12064453 563.02550781 806.61628906 562.58789062 807.12695312 C545.44613137 827.02493319 523.22413622 841.54427983 497.70483398 848.04052734 C485.85356765 851.06732465 477.17113321 854.95319429 467.27099609 861.99609375 C451.1974372 872.92362431 433.55392086 881.64581146 415.875 889.625 C415.11864258 889.97578613 414.36228516 890.32657227 413.58300781 890.68798828 C381.82249301 905.38133765 346.33954568 914.35920188 311.875 919.625 C311.12798828 919.74214355 310.38097656 919.85928711 309.61132812 919.97998047 C235.16672696 931.15331155 154.69408234 905.54194051 91.625 867.3125 C90.69743896 866.75038818 89.76987793 866.18827637 88.81420898 865.60913086 C84.30655473 862.84285761 79.94842358 859.9800963 75.671875 856.8671875 C71.58656524 853.97509985 68.19625923 852.37598408 63.375 851.0625 C61.98270581 850.65881609 60.59079222 850.25381767 59.19921875 849.84765625 C58.48813965 849.64672363 57.77706055 849.44579102 57.04443359 849.23876953 C37.11284471 843.59978524 18.63250174 835.29390899 2.875 821.625 C2.3397168 821.17044434 1.80443359 820.71588867 1.25292969 820.24755859 C-11.37668846 809.46392154 -20.84322474 796.99012706 -29.125 782.625 C-29.68268066 781.65852539 -30.24036133 780.69205078 -30.81494141 779.69628906 C-36.19562074 770.36237255 -36.19562074 770.36237255 -38.58300781 766.17675781 C-42.08441317 760.05895813 -45.71519861 754.06371974 -49.52856445 748.13574219 C-72.56816155 711.90096369 -85.39709901 668.48580569 -87.125 625.625 C-87.15513184 624.88556152 -87.18526367 624.14612305 -87.21630859 623.38427734 C-88.02247874 600.07723079 -83.68187919 577.01821101 -79.09326172 554.26049805 C-78.62374399 551.93126907 -78.15734674 549.60143131 -77.69140625 547.27148438 C-77.38816704 545.76038732 -77.08478442 544.24931904 -76.78125 542.73828125 C-76.63548523 542.00989044 -76.48972046 541.28149963 -76.33953857 540.53103638 C-75.60511389 536.88944831 -74.81030055 533.2747231 -73.921875 529.66796875 C-72.8691275 524.99077806 -72.82415763 520.40330582 -72.875 515.625 C-72.88176758 514.67061035 -72.88853516 513.7162207 -72.89550781 512.73291016 C-73.02155781 503.70860974 -73.59271979 494.74932139 -74.48046875 485.76953125 C-74.93947086 481.11163433 -75.23881425 476.4741912 -75.44038391 471.80027771 C-75.4745945 455.27554499 -75.4745945 455.27554499 -80.796875 440.19335938 C-84.69553864 436.71295787 -89.13307575 435.00902046 -94.04833984 433.40429688 C-111.76499224 426.75586583 -125.35217505 404.23221019 -133.08349609 387.99609375 C-134.83928402 383.9988569 -136.22270964 379.92207048 -137.5 375.75 C-137.83946655 374.65776123 -137.83946655 374.65776123 -138.18579102 373.54345703 C-143.42599759 355.12107102 -143.59281713 336.50593618 -143.67797852 317.512146 C-143.77679514 295.98089041 -144.24799714 275.73031135 -149.25 254.6875 C-156.55883494 222.8342325 -161.66821071 190.21532391 -164.125 157.625 C-164.21563721 156.5719165 -164.30627441 155.51883301 -164.3996582 154.43383789 C-168.04346663 109.61989624 -163.90677142 65.57559411 -144.125 24.625 C-143.82770996 23.99223145 -143.53041992 23.35946289 -143.22412109 22.70751953 C-133.85971213 2.9576261 -118.20196986 -13.57181917 -97.7421875 -21.72265625 C-64.07304189 -33.26281795 -27.98987375 -19.18914081 0 0 Z M-90.125 2.625 C-91.13046875 3.02525391 -91.13046875 3.02525391 -92.15625 3.43359375 C-108.64497325 10.79463092 -118.50330182 26.49853369 -125.125 42.625 C-130.19579071 55.95480312 -134.50226847 69.59847349 -137.125 83.625 C-137.39570313 84.99664307 -137.39570313 84.99664307 -137.671875 86.39599609 C-147.19930373 136.19773293 -138.34329921 185.84947136 -127.7421875 234.63671875 C-127.54036362 235.56819733 -127.33853973 236.4996759 -127.13059998 237.4593811 C-126.14901523 241.98513981 -125.15813922 246.5083718 -124.14575195 251.02734375 C-119.34527102 272.66120789 -118.77768416 293.48306831 -118.74414062 315.61621094 C-118.6643022 347.04859971 -116.03710721 379.36946807 -92.94140625 402.921875 C-84.30384494 411.82088636 -84.30384494 411.82088636 -73.125 415.625 C-72.90734985 414.4503418 -72.90734985 414.4503418 -72.68530273 413.25195312 C-64.62729005 370.2340311 -51.4842385 334.80983625 -22.125 301.625 C-21.37734375 300.76648438 -20.6296875 299.90796875 -19.859375 299.0234375 C-15.24176228 293.79125043 -10.39371076 288.83859248 -5.42163086 283.94726562 C-2.70311119 281.25952492 -0.1548695 278.53214946 2.25 275.5625 C6.80868365 270.20130969 12.59845361 266.16865103 18.17089844 261.92822266 C20.57705061 260.08810227 22.94685234 258.20429469 25.3125 256.3125 C26.11042969 255.67570312 26.90835938 255.03890625 27.73046875 254.3828125 C29.58211702 252.86506802 31.35343075 251.29641897 33.125 249.6875 C41.22618031 242.6779681 51.11643388 236.97183893 60.875 232.625 C61.68710937 232.25890625 62.49921875 231.8928125 63.3359375 231.515625 C66.01603515 230.57552921 68.10610682 230.32562856 70.9375 230.3125 C72.19240234 230.28736328 72.19240234 230.28736328 73.47265625 230.26171875 C76.45794487 230.71315264 77.79154648 231.44165487 79.875 233.625 C80.30078125 236 80.30078125 236 80.1875 238.625 C80.16300781 239.49125 80.13851562 240.3575 80.11328125 241.25 C79.875 243.625 79.875 243.625 78.875 246.625 C77.10913086 247.64453125 77.10913086 247.64453125 74.875 248.625 C45.23309151 265.12003425 18.51667396 287.50750676 -2.125 314.625 C-2.99453422 315.7080329 -3.8671365 316.78860705 -4.7421875 317.8671875 C-28.72801804 347.57310263 -45.32328065 381.493181 -50.125 419.625 C-50.2192627 420.34816406 -50.31352539 421.07132812 -50.41064453 421.81640625 C-51.31509629 429.60860599 -51.36354085 437.4155754 -51.375 445.25 C-51.37850464 446.35515457 -51.37850464 446.35515457 -51.38208008 447.4826355 C-51.39504988 458.46938366 -50.77182708 469.26510031 -49.625 480.1875 C-46.97585775 506.40375857 -49.1887969 528.38289652 -54.86328125 554.0234375 C-56.38740954 560.91898541 -57.74881441 567.81367273 -58.85546875 574.7890625 C-58.97215408 575.51974945 -59.08883942 576.2504364 -59.20906067 577.00326538 C-60.63917314 586.41774406 -61.28375626 595.79445916 -61.328125 605.3125 C-61.33382507 606.29508789 -61.33952515 607.27767578 -61.34539795 608.29003906 C-61.35477574 610.35724842 -61.36135287 612.42447224 -61.36523438 614.49169922 C-61.37489028 617.58979664 -61.40596378 620.68721514 -61.4375 623.78515625 C-61.52922896 640.74205423 -59.70325766 656.68984327 -54.9375 673 C-54.63489258 674.05106934 -54.33228516 675.10213867 -54.02050781 676.18505859 C-48.80567687 693.87651935 -41.73219401 710.61515058 -33.41650391 727.06835938 C-32.5488917 728.78587071 -31.70763238 730.51692699 -30.89208984 732.25976562 C-29.76011067 734.54810646 -28.70700778 736.62022188 -27.125 738.625 C-25.13612201 739.01930374 -23.13511089 739.35935864 -21.125 739.625 C-19.81341748 742.08659329 -19.0295274 744.05705395 -18.25 746.6875 C-17.75442994 748.15733831 -17.25159279 749.62474287 -16.7421875 751.08984375 C-16.48147461 751.84378418 -16.22076172 752.59772461 -15.95214844 753.37451172 C-10.02146953 769.51057965 0.09014804 783.28320797 11.875 795.625 C12.42285156 796.23601563 12.97070312 796.84703125 13.53515625 797.4765625 C28.20610796 813.26495771 51.51009091 823.86916329 72.90625 824.74975586 C93.06747321 825.21575187 113.31023212 825.47974024 131.875 816.625 C132.82632812 816.17125 133.77765625 815.7175 134.7578125 815.25 C141.46227881 811.81372757 147.20747879 807.5681748 152.875 802.625 C153.46667969 802.12871094 154.05835938 801.63242187 154.66796875 801.12109375 C163.8117004 792.80268705 170.12131621 780.98517855 176.4375 770.5 C199.26441151 732.60619404 226.93781261 708.71597651 265.875 687.625 C265.875 667.825 265.875 648.025 265.875 627.625 C257.625 625.315 249.375 623.005 240.875 620.625 C203.35233085 606.88123165 203.35233085 606.88123165 194.8125 590.3125 C191.54083606 583.08223913 191.59214696 576.35762274 191.5 568.5 C191.46261719 567.3140625 191.42523438 566.128125 191.38671875 564.90625 C191.24952512 551.09542501 197.53054702 542.52705787 206.67578125 532.6875 C216.63083178 523.13747294 229.68344262 519.19365309 242.875 516.625 C244.50501953 516.28662109 244.50501953 516.28662109 246.16796875 515.94140625 C266.24518027 512.52851566 287.9904188 513.4479527 307.875 517.625 C308.53951172 517.75358398 309.20402344 517.88216797 309.88867188 518.01464844 C327.15934499 521.43225898 343.60949615 530.35125384 354.12890625 544.69921875 C359.24601895 552.60748383 360.10744194 557.26354413 360.1875 566.625 C360.21650391 567.72457031 360.24550781 568.82414063 360.27539062 569.95703125 C360.36265503 581.27455326 357.38572722 589.01743942 349.5390625 597.18359375 C331.59495657 613.62797235 308.43649917 620.10450028 285.875 627.625 C285.545 647.425 285.215 667.225 284.875 687.625 C292.795 691.915 300.715 696.205 308.875 700.625 C326.45722519 712.29844459 341.78823264 726.04397673 354.875 742.625 C355.63296875 743.55441406 356.3909375 744.48382812 357.171875 745.44140625 C365.75130523 756.1937314 372.83632725 767.93380732 380.10205078 779.59423828 C389.39706092 794.44823925 402.09706843 808.61933354 417.875 816.625 C418.74640625 817.07746094 419.6178125 817.52992188 420.515625 817.99609375 C444.05660901 828.60212531 479.54844462 828.36698757 503.64868164 819.67504883 C516.14520514 814.85912875 526.89024331 807.46190277 536.875 798.625 C537.55949219 798.02429688 538.24398437 797.42359375 538.94921875 796.8046875 C554.99277133 781.76995871 565.2540236 761.27563379 571.875 740.625 C571.875 739.965 571.875 739.305 571.875 738.625 C573.855 738.625 575.835 738.625 577.875 738.625 C589.5880141 718.26825462 599.21450462 697.18022647 605.875 674.625 C606.16431396 673.64539307 606.16431396 673.64539307 606.45947266 672.64599609 C611.77671584 654.16312897 613.42648016 635.41018379 613.25 616.25 C613.24435028 615.30679901 613.23870056 614.36359802 613.23287964 613.39181519 C613.1063184 595.30157611 611.29124885 578.4131176 607.70703125 560.6796875 C607.50965363 559.69823257 607.312276 558.71677765 607.10891724 557.70558167 C605.54123353 549.93721219 603.92935677 542.17835259 602.2837677 534.42611694 C600.40902822 525.55132027 599.64821922 517.27085881 599.625 508.1875 C599.62266357 507.53217285 599.62032715 506.8768457 599.61791992 506.20166016 C599.60451738 496.09126792 600.26562904 486.1822731 601.375 476.125 C607.79333267 416.85816092 594.14451078 367.02211572 557.42578125 320.5234375 C552.45273692 314.36137559 547.22250473 308.46254938 541.875 302.625 C540.9603765 301.60597199 540.04634015 300.58641677 539.1328125 299.56640625 C522.07926629 280.64924117 502.59696096 263.45196688 479.93359375 251.609375 C475.84810003 248.95876094 472.52251996 246.11051142 471.24609375 241.2109375 C471.35627755 237.54246511 471.49521287 235.24785089 473.4375 232.0625 C476.77487927 230.09430197 479.16812854 229.85829097 482.875 230.625 C498.49995337 235.87052006 512.9485577 245.19178857 525.19140625 256.15234375 C527.25332867 257.95592786 529.40458047 259.62502738 531.5625 261.3125 C540.95130231 268.80931639 549.4063659 276.94969608 557.40234375 285.8984375 C560.37118093 289.17213158 563.44299774 292.30386243 566.69140625 295.30078125 C600.50308499 326.99450249 616.10116037 371.31411413 623.875 415.625 C633.6531821 414.72418679 642.67507605 405.90183382 648.875 398.625 C657.15804542 388.43479739 662.29088692 376.77502411 665.6875 364.1875 C665.97971436 363.11737671 665.97971436 363.11737671 666.27783203 362.02563477 C670.92702238 343.4923645 670.24019883 324.42303272 670.33129883 305.46240234 C670.42013233 289.91556291 670.81662695 274.89110942 673.875 259.625 C674.08113922 258.59346802 674.28727844 257.56193604 674.49966431 256.49914551 C676.19812415 248.10872497 677.9979136 239.74094315 679.8125 231.375 C692.02316601 175.02899181 700.14551143 118.09532168 683.875 61.625 C683.65086426 60.84382813 683.42672852 60.06265625 683.19580078 59.2578125 C677.09612791 38.52667309 667.33018063 15.95396353 647.62890625 4.9453125 C630.93207347 -3.05969385 614.02689399 -1.35829166 596.890625 4.57397461 C557.9802776 18.83073344 517.39020328 54.47870363 495.86328125 89.515625 C493.92301427 92.54991285 491.87398041 95.46541149 489.77075195 98.38720703 C467.4708558 129.36863283 445.10702316 165.84654113 432.27734375 202.02734375 C432.01832275 202.75590576 431.75930176 203.48446777 431.49243164 204.23510742 C431.01721769 205.60480499 430.56014155 206.98101508 430.12670898 208.36450195 C428.38426817 213.49930541 426.37363825 215.79851745 421.875 218.625 C416.10496471 219.15874274 411.57264502 217.83688744 406.20703125 215.9921875 C404.50619338 215.42965774 402.80517707 214.86766731 401.10400391 214.30615234 C400.22013 214.01069519 399.3362561 213.71523804 398.42559814 213.41082764 C372.22365531 204.69475816 346.467884 198.86503545 318.875 196.625 C317.7929126 196.53001221 316.7108252 196.43502441 315.59594727 196.3371582 C302.56484419 195.34507652 289.50360886 195.43769649 276.44213867 195.43969727 C273.70151122 195.43977823 270.96105198 195.43286907 268.22045898 195.41918945 C246.88795781 195.31454986 225.68626539 195.6638338 204.6875 199.8125 C203.5749585 200.02680664 202.46241699 200.24111328 201.31616211 200.46191406 C185.73531921 203.54602015 170.22912337 207.14442386 155.1328125 212.109375 C154.49570847 212.31854553 153.85860443 212.52771606 153.20219421 212.7432251 C150.13181034 213.75753454 147.07276582 214.79694556 144.02172852 215.86816406 C133.38983751 219.48999129 133.38983751 219.48999129 127.875 217.625 C123.47068762 214.58834252 122.25845089 210.01854656 120.5 205.1875 C104.11536286 162.42555093 79.81057359 122.15099384 52.25 85.75 C51.78440674 85.13310303 51.31881348 84.51620605 50.83911133 83.88061523 C42.0308474 72.43031993 32.37640279 61.77128293 22.14819336 51.58251953 C20.43253516 49.87004437 18.73074889 48.14454615 17.02929688 46.41796875 C9.7728242 39.11980754 2.21047529 32.65797163 -6.125 26.625 C-6.82987549 26.11356445 -7.53475098 25.60212891 -8.26098633 25.07519531 C-22.42096066 15.04157602 -37.2918375 6.17611477 -54.125 1.625 C-54.97964844 1.38136719 -55.83429688 1.13773438 -56.71484375 0.88671875 C-67.49053403 -1.74893262 -79.84991412 -1.67490007 -90.125 2.625 Z " fill="#1D1A12" transform="translate(236.125,59.375)"/>
<path d="M0 0 C0.68497559 0.3309668 1.36995117 0.66193359 2.07568359 1.00292969 C18.33834405 8.95139642 32.8256593 18.55218544 46 31 C47.35008458 32.15064027 48.70411589 33.2966696 50.0625 34.4375 C59.65848542 42.81953545 67.55765044 53.19999819 75.29296875 63.27734375 C82.16970561 72.23293969 89.07057508 80.94471119 97 89 C97.72960937 89.7425 98.45921875 90.485 99.2109375 91.25 C102.3239625 94.20797011 104.49862816 95.8357575 108.625 97.1875 C112.80447631 96.95530687 114.64074076 95.38880657 118 93 C120.25 93 120.25 93 122 94 C122.2371875 94.61488281 122.474375 95.22976563 122.71875 95.86328125 C127.96888123 104.61883547 147.58269859 107.35246686 156.72219849 110.01123047 C176.57397865 115.79845201 196.08630456 122.1105151 211 137 C211.7734375 137.76183594 212.546875 138.52367187 213.34375 139.30859375 C235.17047968 162.06968686 239.80078183 194.1135957 239.17700195 224.27124023 C239.00458597 226.9293002 238.58710641 229.40485376 238 232 C239.32 232.33 240.64 232.66 242 233 C240.35 233 238.7 233 237 233 C236.86464844 233.6084375 236.72929688 234.216875 236.58984375 234.84375 C231.49376211 255.59426207 220.25488004 273.35278284 206 289 C205.07767578 290.02867187 205.07767578 290.02867187 204.13671875 291.078125 C187.90888013 308.27421175 164.48396897 318.40314036 141.0703125 319.2890625 C110.31323986 319.92885836 84.92379611 316.93570145 62 295 C61.39671875 294.45988281 60.7934375 293.91976563 60.171875 293.36328125 C50.94288338 284.80274463 44.53946029 273.3802062 38.11083984 262.68994141 C15.85294501 225.90749438 -12.6624549 202.10483198 -50 182 C-49.67 162.2 -49.34 142.4 -49 122 C-44.05 120.35 -39.1 118.7 -34 117 C-12.79832854 109.77765152 11.83920855 101.02160791 23.0546875 80.11328125 C25.6637343 74.2806601 25.33206245 68.15762395 25.4375 61.875 C25.48326172 60.78445313 25.52902344 59.69390625 25.57617188 58.5703125 C25.73780606 46.82021033 20.22534901 39.63346905 12.3984375 31.3125 C-9.21227504 10.47611266 -40.92646788 8.47805959 -69.30078125 8.78515625 C-92.02738336 9.23504964 -113.4936084 13.50903621 -130.6015625 29.4296875 C-140.19505119 39.71065746 -143.36020867 48.39864659 -143.375 62.125 C-143.39949219 63.29804687 -143.42398438 64.47109375 -143.44921875 65.6796875 C-143.48803852 77.32561865 -140.93164682 86.16753119 -132.71875 94.59375 C-117.47064302 108.089201 -97.75948021 114.26206444 -78.42089844 119.34912109 C-75.27052396 120.19612577 -72.13673167 121.10379095 -69 122 C-69 141.8 -69 161.6 -69 182 C-76.92 186.29 -84.84 190.58 -93 195 C-110.87010795 206.86457987 -126.84086867 221.00554396 -140 238 C-140.41330566 238.53157715 -140.82661133 239.0631543 -141.25244141 239.61083984 C-147.86302744 248.17551412 -153.65353703 257.12956779 -159.29492188 266.35620117 C-170.00574401 283.85726224 -181.17549302 299.36301984 -199.5625 309.3125 C-200.16336426 309.63814941 -200.76422852 309.96379883 -201.38330078 310.29931641 C-223.90474185 321.99489598 -257.03109084 323.11283419 -281 316 C-306.06409109 308.02888204 -325.76244493 290.69742754 -340 269 C-340.62648438 268.05769531 -341.25296875 267.11539062 -341.8984375 266.14453125 C-348.06974054 256.24531438 -352.31778731 245.04663806 -356 234 C-357.65 233.67 -359.3 233.34 -361 233 C-361 232.67 -361 232.34 -361 232 C-359.35 232 -357.7 232 -356 232 C-356.15984375 231.36320313 -356.3196875 230.72640625 -356.484375 230.0703125 C-360.84009129 204.13400187 -353.36518571 172.06140966 -338.61328125 150.359375 C-321.59287846 126.73172533 -295.16404443 118.45233922 -268.71142578 109.33398438 C-254.40927768 104.43819085 -254.40927768 104.43819085 -242 96 C-241.15308594 95.27876953 -241.15308594 95.27876953 -240.2890625 94.54296875 C-238.18140989 92.02017245 -238.94235758 89.17033317 -239 86 C-238.34 85.34 -237.68 84.68 -237 84 C-236.9175 85.216875 -236.835 86.43375 -236.75 87.6875 C-236.19806456 91.83069535 -235.33785093 94.26125052 -232 97 C-227.81637881 97.83672424 -225.59219195 98.02443358 -221.984375 95.703125 C-219.87766856 93.89500688 -217.94165722 91.98370097 -216 90 C-215.07960938 89.16662109 -215.07960938 89.16662109 -214.140625 88.31640625 C-207.62040295 82.26768786 -202.62574857 74.98441506 -197.375 67.85351562 C-190.70950555 58.86835336 -183.33707586 50.43676645 -176 42 C-174.76830078 40.57880859 -174.76830078 40.57880859 -173.51171875 39.12890625 C-131.23838835 -8.83927695 -58.74481767 -28.54754265 0 0 Z " fill="#FCD9B2" transform="translate(571,565)"/>
<path d="M0 0 C0.66902344 0.50144531 1.33804688 1.00289063 2.02734375 1.51953125 C2.64480469 1.96941406 3.26226563 2.41929688 3.8984375 2.8828125 C23.16306779 19.48729339 27.70758953 56.09073167 29.5625 79.59033203 C30.8456733 99.28904716 30.40681635 118.930911 28.02734375 138.51953125 C27.8984375 139.61313965 27.76953125 140.70674805 27.63671875 141.83349609 C25.09501044 162.98203893 20.90222654 183.57682602 15.93359375 204.2734375 C15.75487732 205.02118942 15.57616089 205.76894135 15.39202881 206.53935242 C14.52185679 210.17887559 13.64321094 213.81574276 12.74316406 217.44799805 C8.75059031 233.7761273 7.723332 249.64507365 7.52734375 266.39453125 C6.93318064 316.97152341 6.93318064 316.97152341 -9.59375 335.390625 C-13.21534603 338.63162637 -16.22046792 340.3753362 -21.10546875 340.77734375 C-24.42899941 339.31933711 -24.63853247 338.77623947 -26.02734375 335.57421875 C-26.65491086 333.85510606 -27.26039464 332.12782658 -27.84765625 330.39453125 C-28.53006197 328.55100508 -29.21893817 326.70986194 -29.9140625 324.87109375 C-30.25711426 323.95875977 -30.60016602 323.04642578 -30.95361328 322.10644531 C-35.7671667 309.88689283 -43.3116943 299.09570413 -50.97265625 288.51953125 C-51.4737793 287.82617676 -51.97490234 287.13282227 -52.49121094 286.41845703 C-58.0046188 278.83182555 -63.61391026 271.47970927 -70.03515625 264.6328125 C-71.97265625 262.51953125 -71.97265625 262.51953125 -74 259.94140625 C-75.74454616 257.7995872 -77.40087335 256.18566211 -79.53515625 254.45703125 C-83.03335201 251.48066579 -86.05148934 248.26850231 -89.09765625 244.83203125 C-96.76259817 236.24800225 -105.6173803 228.73621366 -114.94140625 222 C-116.52612264 220.84498556 -118.08334227 219.65221613 -119.62890625 218.4453125 C-129.91638401 210.47251724 -140.51883646 204.14541297 -152.7421875 199.52734375 C-154.97265625 198.51953125 -154.97265625 198.51953125 -155.97265625 196.51953125 C-157.43083116 177.0737882 -155.9979921 159.11093049 -149.97265625 140.51953125 C-149.58762939 139.25423584 -149.58762939 139.25423584 -149.19482422 137.96337891 C-142.80216768 116.97188971 -132.69804318 97.02063473 -120.97265625 78.51953125 C-120.56837402 77.87870605 -120.1640918 77.23788086 -119.74755859 76.57763672 C-110.88568409 62.6438055 -100.80156258 49.91923531 -89.38525391 37.99511719 C-88.07674476 36.62826111 -86.78002896 35.25014145 -85.484375 33.87109375 C-67.25062011 14.95096183 -27.49266758 -17.0595527 0 0 Z " fill="#FB998A" transform="translate(873.97265625,91.48046875)"/>
<path d="M0 0 C7.21251641 3.87562594 13.92179486 8.11097755 20.3125 13.25 C21.58867187 14.24193359 21.58867187 14.24193359 22.890625 15.25390625 C59.52821127 44.33900763 83.36107738 80.73220752 99.375 124.5 C99.80546631 125.66934082 100.23593262 126.83868164 100.67944336 128.04345703 C110.43255485 154.84096654 110.43255485 154.84096654 110.4453125 166.03125 C110.44660156 167.12050781 110.44789063 168.20976562 110.44921875 169.33203125 C110.44535156 170.45996094 110.44148437 171.58789062 110.4375 172.75 C110.44136719 173.87792969 110.44523438 175.00585938 110.44921875 176.16796875 C110.44728516 177.80185547 110.44728516 177.80185547 110.4453125 179.46875 C110.44418457 180.45810547 110.44305664 181.44746094 110.44189453 182.46679688 C110.31498887 185.1964658 110.0723077 187.62341838 109.3125 190.25 C106.9375 191.4375 106.9375 191.4375 104.3125 192.25 C103.3225 192.91 102.3325 193.57 101.3125 194.25 C99.23218519 195.23556351 97.14831979 196.21364122 95.0625 197.1875 C84.45916285 202.33122274 75.07674132 209.53596778 66.38671875 217.453125 C63.69046978 219.78885857 60.84627363 221.91546257 58 224.0625 C49.73675232 230.33888399 41.99460132 237.03287919 35.3125 245 C32.65261792 247.99236734 29.79466592 250.75988035 26.9375 253.5625 C21.28779294 259.14322015 16.19121083 264.97611827 11.3125 271.25 C10.51328125 272.24386719 9.7140625 273.23773438 8.890625 274.26171875 C-4.30265828 290.80543207 -14.37922801 308.99880229 -21.4609375 328.921875 C-22.40671055 331.48811271 -23.39084512 333.85058255 -24.6875 336.25 C-37.47967443 329.56556459 -44.2270436 320.99150344 -48.6875 307.25 C-51.52354162 295.91276574 -52.15507087 284.88066772 -52.25 273.25 C-52.51570114 248.40291731 -55.31747725 225.28019883 -61.0625 201.0625 C-62.2225593 196.09132364 -63.37415115 191.1182083 -64.5234375 186.14453125 C-64.8009082 184.94609589 -65.07837891 183.74766052 -65.36425781 182.51290894 C-69.05640192 166.45443113 -72.14021353 150.38402284 -73.9375 134 C-74.0215509 133.2462912 -74.10560181 132.4925824 -74.19219971 131.71603394 C-78.63222097 91.03846156 -79.28855107 37.13652644 -53.8515625 2.76953125 C-38.98577952 -15.23980663 -18.45104627 -9.59172986 0 0 Z " fill="#FB998A" transform="translate(195.6875,97.75)"/>
<path d="M0 0 C21.23898712 16.44201962 37.21595758 37.15715168 51.56640625 59.5703125 C58.16409068 69.84229203 65.16696332 79.47656373 73.6328125 88.31640625 C74.839375 89.58484375 74.839375 89.58484375 76.0703125 90.87890625 C76.9159375 91.68328125 77.7615625 92.48765625 78.6328125 93.31640625 C79.303125 93.96996094 79.9734375 94.62351562 80.6640625 95.296875 C94.93711148 108.75895529 112.4446936 117.48337573 131.32421875 122.52734375 C133.6328125 123.31640625 133.6328125 123.31640625 134.6328125 125.31640625 C106.93464872 141.2115674 78.49662646 153.03185288 47.6328125 161.31640625 C46.7665625 161.55343262 45.9003125 161.79045898 45.0078125 162.03466797 C29.44713443 166.24001326 13.62605942 168.44882965 -2.3671875 170.31640625 C-3.25696289 170.42243164 -4.14673828 170.52845703 -5.06347656 170.63769531 C-70.78270799 177.58565498 -135.93745691 158.50972735 -193.77124023 128.65405273 C-195.96218845 127.52509522 -198.15979645 126.41276229 -200.3671875 125.31640625 C-200.3671875 124.65640625 -200.3671875 123.99640625 -200.3671875 123.31640625 C-199.65175781 123.15785156 -198.93632812 122.99929688 -198.19921875 122.8359375 C-174.75685278 117.34684534 -154.77836968 105.79484653 -137.3671875 89.31640625 C-136.59375 88.59582031 -135.8203125 87.87523437 -135.0234375 87.1328125 C-125.81867429 78.29056565 -119.31946204 67.84599138 -112.9296875 56.87890625 C-104.5672551 42.78561206 -95.37909382 30.81495182 -84.01269531 19.02490234 C-82.56645214 17.52329853 -81.13368055 16.00874419 -79.703125 14.4921875 C-56.44907112 -9.63294658 -29.38807526 -20.90141986 0 0 Z " fill="#E9B984" transform="translate(543.3671875,783.68359375)"/>
<path d="M0 0 C21.21304988 16.42194048 37.24345732 37.1192548 51.53125 59.54296875 C54.73603857 64.5395528 58.16281253 69.35553065 61.73901367 74.0925293 C64.6328125 78.00173875 64.6328125 78.00173875 64.6328125 81.31640625 C63.6428125 81.31640625 62.6528125 81.31640625 61.6328125 81.31640625 C59.85727575 82.65505272 59.85727575 82.65505272 58.0703125 84.44140625 C53.61114661 88.47743961 48.91490197 91.46423727 43.6328125 94.31640625 C42.87097656 94.73664063 42.10914063 95.156875 41.32421875 95.58984375 C35.17628403 98.67856615 28.73420836 100.59071927 22.1328125 102.44140625 C20.8629248 102.80395508 20.8629248 102.80395508 19.56738281 103.17382812 C3.25934357 107.55545074 -12.79968037 108.80903519 -29.63696289 108.70751953 C-32.79812871 108.69143961 -35.95801322 108.70746499 -39.11914062 108.7265625 C-55.50739883 108.74434964 -71.89978931 107.62774925 -87.6171875 102.62890625 C-88.4330835 102.37616943 -89.24897949 102.12343262 -90.08959961 101.86303711 C-100.90874314 98.3591638 -119.09888895 91.92955445 -125.71875 82.36328125 C-126.52455304 79.819662 -126.22716742 78.82979995 -125.3671875 76.31640625 C-124.36864242 74.75559387 -123.30617413 73.23488862 -122.203125 71.74609375 C-118.43239792 66.49861072 -115.20365581 61.04243886 -111.9921875 55.44140625 C-104.03642838 41.83224507 -94.94353093 30.36315453 -84.01269531 19.02490234 C-82.56645214 17.52329853 -81.13368055 16.00874419 -79.703125 14.4921875 C-56.44907112 -9.63294658 -29.38807526 -20.90141986 0 0 Z " fill="#FECF97" transform="translate(543.3671875,783.68359375)"/>
<path d="M0 0 C11.76475571 9.92651263 21.87766125 24.26115453 23.70703125 40.03515625 C25.07248033 58.0400313 21.54986057 74.84279743 9.859375 89.03125 C-2.27228374 102.59578182 -18.74462034 110.98114297 -36.9765625 112.58984375 C-45.10763611 112.79684664 -52.40508872 111.77612048 -60.125 109.25 C-60.98738281 108.9715625 -61.84976563 108.693125 -62.73828125 108.40625 C-77.30995642 103.14866269 -89.12744686 91.93606607 -96.125 78.25 C-96.50269531 77.53328125 -96.88039063 76.8165625 -97.26953125 76.078125 C-104.24298529 61.76556765 -106.26020415 42.11514808 -102.48779297 26.63525391 C-96.9955004 10.90535467 -83.420518 -1.03972203 -69 -8.5625 C-46.34046564 -19.22792267 -19.787213 -15.140216 0 0 Z " fill="#1C1B13" transform="translate(749.125,495.75)"/>
<path d="M0 0 C10.53498119 9.12930938 21.38608575 21.84190658 22.453125 36.47265625 C22.7655033 58.31310588 18.29058758 78.26335688 3.25 94.6875 C-7.41673472 105.0475235 -21.85040729 111.77308456 -36.75 112.6875 C-37.60851562 112.75195312 -38.46703125 112.81640625 -39.3515625 112.8828125 C-59.01831999 113.67796442 -75.40386166 104.93677068 -89.640625 91.96484375 C-100.40522777 80.93355037 -105.69544486 64.70899386 -106.125 49.625 C-105.64450337 32.23102217 -97.93824076 16.99923459 -85.81640625 4.73046875 C-62.16054037 -17.11669913 -25.46702776 -20.12773367 0 0 Z " fill="#1C1B14" transform="translate(356.75,495.3125)"/>
<path d="M0 0 C0.98299072 0.341521 0.98299072 0.341521 1.98583984 0.68994141 C18.6343571 6.5872713 34.05853079 15.2127882 48 26 C48.928125 26.70511719 49.85625 27.41023437 50.8125 28.13671875 C63.73793956 38.30047282 73.95122895 49.86855116 83.4921875 63.1875 C90.39722501 72.77975759 98.15087857 81.73391951 105.89282227 90.65478516 C121.4278581 108.58379285 121.4278581 108.58379285 121 116 C119.02061533 119.74669241 117.52983947 121.64677369 114 124 C108.04989291 124.11666877 105.18778554 121.96418202 101.08203125 118.0546875 C100.39496094 117.37664062 99.70789063 116.69859375 99 116 C98.32324219 115.38382813 97.64648438 114.76765625 96.94921875 114.1328125 C91.26777818 108.79412794 86.67843015 102.80098997 82.01782227 96.5859375 C77.94683556 91.17454007 73.68860869 85.98922642 69.23461914 80.89013672 C66.25694948 77.48075664 63.41481267 74.00454831 60.625 70.4375 C34.59945502 38.56088825 -6.05094259 18.4561938 -46.57177734 14.19628906 C-60.64081702 13.0589969 -74.2912307 13.69049482 -88 17 C-89.32372085 17.28358414 -90.64795175 17.56479687 -91.97265625 17.84375 C-101.89767416 20.02094393 -110.88364554 23.54962134 -120 28 C-120.63824707 28.30953613 -121.27649414 28.61907227 -121.93408203 28.93798828 C-131.65383981 33.71726188 -140.38865731 39.45251309 -149 46 C-149.6079541 46.45842285 -150.2159082 46.9168457 -150.84228516 47.38916016 C-160.96149065 55.04944376 -169.55597775 63.01972267 -177.51953125 72.95703125 C-179.76153289 75.70745531 -182.06324818 78.38341326 -184.3996582 81.05273438 C-188.92468516 86.23076173 -193.15225901 91.46626453 -197.0625 97.125 C-201.81470214 103.98524991 -207.20415321 110.00918589 -213 116 C-214.07894531 117.12148438 -214.07894531 117.12148438 -215.1796875 118.265625 C-220.6452014 123.84453131 -220.6452014 123.84453131 -225.8125 124.4375 C-229.5201344 124.38347254 -229.95596336 124.03761463 -233 121.4375 C-235.39232806 117.32568615 -235.87203641 115.67728619 -235 111 C-231.28240157 103.36992903 -224.92614118 97.03741089 -219.41699219 90.65087891 C-215.55338181 86.14954649 -211.78652641 81.56610538 -208 77 C-207.27296875 76.13117188 -206.5459375 75.26234375 -205.796875 74.3671875 C-201.9406004 69.72023789 -198.23530132 64.99822019 -194.65478516 60.13745117 C-186.77121379 49.44442962 -178.43204682 39.3379527 -168 31 C-167.16597656 30.31679688 -166.33195312 29.63359375 -165.47265625 28.9296875 C-156.90458564 22.1833603 -147.63137593 17.05736164 -138 12 C-136.9783374 11.46028564 -136.9783374 11.46028564 -135.93603516 10.90966797 C-120.28727626 2.6972549 -104.39285571 -4.52142886 -87 -8 C-86.30084473 -8.14808105 -85.60168945 -8.29616211 -84.88134766 -8.44873047 C-56.2663115 -14.4184966 -27.35615742 -9.64734054 0 0 Z " fill="#1C1A13" transform="translate(569,539)"/>
<path d="M0 0 C0.99 0.495 0.99 0.495 2 1 C1.46632813 1.94875 0.93265625 2.8975 0.3828125 3.875 C-19.49455338 39.88380398 -36.21510904 86.38895964 -36.1875 127.875 C-36.18814453 128.92147705 -36.18878906 129.9679541 -36.18945312 131.04614258 C-36.11737645 142.46292414 -35.43830777 153.84520884 -34.71166992 165.23583984 C-34.14987741 174.17731982 -33.87157394 183.03603955 -34 192 C-34.62237549 191.51321777 -35.24475098 191.02643555 -35.88598633 190.52490234 C-37.82796535 188.91064257 -37.82796535 188.91064257 -39.82421875 188.6015625 C-43.26800947 187.64941928 -45.92917452 185.41518025 -48.8125 183.375 C-56.95070522 177.76762732 -65.5979253 173.1340249 -75 170 C-82.45167534 155.09664933 -74.71935917 126.56175933 -70 112 C-69.74331543 111.15646973 -69.48663086 110.31293945 -69.22216797 109.44384766 C-62.82951143 88.45235846 -52.72538693 68.50110348 -41 50 C-40.59571777 49.3591748 -40.19143555 48.71834961 -39.77490234 48.05810547 C-28.48680395 30.30943868 -15.05561724 14.6570862 0 0 Z " fill="#D97D71" transform="translate(794,120)"/>
<path d="M0 0 C9.71780745 4.00944503 17.72809491 15.98069846 24 24 C24.89869282 25.07769667 25.79848481 26.15447745 26.69921875 27.23046875 C42.53588345 46.6755214 53.51732505 71.89510734 62.0625 95.25 C62.49296631 96.41934082 62.92343262 97.58868164 63.36694336 98.79345703 C73.12005485 125.59096654 73.12005485 125.59096654 73.1328125 136.78125 C73.13410156 137.87050781 73.13539063 138.95976562 73.13671875 140.08203125 C73.13285156 141.20996094 73.12898438 142.33789062 73.125 143.5 C73.12886719 144.62792969 73.13273437 145.75585938 73.13671875 146.91796875 C73.13542969 148.00722656 73.13414062 149.09648437 73.1328125 150.21875 C73.13168457 151.20810547 73.13055664 152.19746094 73.12939453 153.21679688 C73.00248887 155.9464658 72.7598077 158.37341838 72 161 C69.625 162.1875 69.625 162.1875 67 163 C66.01 163.66 65.02 164.32 64 165 C61.83848561 166.05231622 59.67097633 167.09234533 57.5 168.125 C51.57854065 170.98855543 46.45555388 174.37070381 41.3046875 178.49609375 C39 180 39 180 35 180 C34.97229525 178.20842641 34.953296 176.41671816 34.9375 174.625 C34.92589844 173.62726563 34.91429687 172.62953125 34.90234375 171.6015625 C34.97704243 168.846675 35.17788387 166.2513558 35.4921875 163.5234375 C36.21236755 156.69359105 36.19940707 149.861118 36.1875 143 C36.18609512 141.95087433 36.18609512 141.95087433 36.18466187 140.8805542 C36.04844952 93.55246608 23.63697408 53.97708802 4.16552734 11.36914062 C3.35462646 9.58540039 3.35462646 9.58540039 2.52734375 7.765625 C2.03999756 6.70118164 1.55265137 5.63673828 1.05053711 4.54003906 C0 2 0 2 0 0 Z " fill="#D97D71" transform="translate(233,127)"/>
<path d="M0 0 C6.92142092 5.35817164 13.13256657 11.51617228 19.3828125 17.62890625 C20.30175293 18.51336426 21.22069336 19.39782227 22.16748047 20.30908203 C23.01713379 21.15325684 23.86678711 21.99743164 24.7421875 22.8671875 C25.90186035 24.00667847 25.90186035 24.00667847 27.08496094 25.16918945 C28.6328125 27.31640625 28.6328125 27.31640625 28.37597656 29.59448242 C28.13073242 30.16271729 27.88548828 30.73095215 27.6328125 31.31640625 C26.75882813 30.86910156 25.88484375 30.42179688 24.984375 29.9609375 C-4.97969898 15.05950465 -39.90992043 13.08401813 -71.81640625 23.18408203 C-74.69336366 24.16040799 -77.53100809 25.22794515 -80.3671875 26.31640625 C-82.51239454 27.08898081 -84.65817516 27.85996575 -86.8046875 28.62890625 C-88.32630906 29.18927052 -89.84748374 29.75086161 -91.3671875 30.31640625 C-90.85352881 26.14315631 -89.74985017 24.19473883 -86.7890625 21.2421875 C-86.0470459 20.49694824 -85.3050293 19.75170898 -84.54052734 18.98388672 C-83.7408252 18.20674316 -82.94112305 17.42959961 -82.1171875 16.62890625 C-81.29814941 15.82598145 -80.47911133 15.02305664 -79.63525391 14.19580078 C-55.37458088 -9.28609942 -29.82009974 -21.2086848 0 0 Z " fill="#E6BD8F" transform="translate(543.3671875,783.68359375)"/>
<path d="M0 0 C1.14528419 -0.0049926 1.14528419 -0.0049926 2.31370544 -0.01008606 C3.92828777 -0.01513623 5.54288048 -0.01749498 7.1574707 -0.01733398 C9.58888738 -0.01950253 12.01983642 -0.03762846 14.45117188 -0.05664062 C42.59448163 -0.16030022 42.59448163 -0.16030022 52.93359375 8.60546875 C53.63484375 9.45109375 54.33609375 10.29671875 55.05859375 11.16796875 C56.20328125 12.52921875 56.20328125 12.52921875 57.37109375 13.91796875 C59.05859375 16.16796875 59.05859375 16.16796875 59.05859375 17.16796875 C57.91918587 17.15131416 57.91918587 17.15131416 56.75675964 17.13432312 C49.50767564 17.03306429 42.25894668 16.95747825 35.00933361 16.90890789 C31.28447363 16.88309564 27.56021014 16.84823741 23.83569336 16.79077148 C-0.75191647 16.42173866 -20.42302258 18.03654193 -41.1171875 32.3671875 C-44.15365854 34.30330527 -46.38730005 34.82948245 -49.94140625 35.16796875 C-50.58258659 27.4738047 -49.21053551 22.4660997 -44.5390625 16.32421875 C-36.42401752 7.27663803 -24.37467935 3.95134984 -12.94140625 1.16796875 C-12.21566406 0.99072266 -11.48992187 0.81347656 -10.7421875 0.63085938 C-7.15657863 0.03825875 -3.62340123 0.00556931 0 0 Z " fill="#5B5347" transform="translate(499.94140625,593.83203125)"/>
<path d="M0 0 C1.25321045 -0.03951782 1.25321045 -0.03951782 2.53173828 -0.07983398 C11.47035519 -0.10186765 18.51604126 3.17113781 24.875 9.375 C26.96942247 12.10685539 26.87535636 13.35504399 26.8125 16.875 C25.875 20.375 25.875 20.375 23.75 22.8125 C20.1038272 24.79411565 17.98027787 24.87915693 13.875 24.375 C12.52921875 23.6325 12.52921875 23.6325 11.15625 22.875 C7.29154851 21.10827932 3.98106854 20.87834116 -0.1875 20.9375 C-0.93193359 20.94434814 -1.67636719 20.95119629 -2.44335938 20.95825195 C-15.17548043 21.32237752 -26.619732 25.92714843 -35.75 34.75 C-39.63124348 38.32643379 -39.63124348 38.32643379 -43.9375 38.75 C-48.06459156 36.96968599 -49.30389477 35.47248676 -51.125 31.375 C-51.23589978 25.38641171 -48.94442264 20.83983434 -45.125 16.375 C-31.98261293 4.80073866 -17.10435054 0.34897257 0 0 Z " fill="#5C4835" transform="translate(375.125,414.625)"/>
<path d="M0 0 C0.86625 0.17015625 1.7325 0.3403125 2.625 0.515625 C12.79277407 3.13233156 22.71905334 12.16956459 28 21 C29.42662219 23.85324437 29.31033868 25.83454549 29 29 C26.97250569 32.64948976 25.60500969 33.77169446 21.6875 35.25 C17.60951836 34.97352667 17.53783324 34.89422939 15.0625 32.0625 C7.20799383 23.19278555 -6.07496919 18.53407816 -17.59375 17.7578125 C-24.35793539 17.53145197 -29.46366782 17.54310215 -35.296875 21.09375 C-38.27563892 22.67878035 -40.74609543 22.5006007 -44 22 C-46.4375 20.6875 -46.4375 20.6875 -48 18 C-48.7442189 13.01296615 -48.79954298 8.63384869 -46.5625 4.0625 C-33.15624068 -6.72790384 -15.52108487 -3.31700604 0 0 Z " fill="#5C4734" transform="translate(671,418)"/>
<path d="M0 0 C4.39487362 2.81271912 8.08076618 6.06216541 10 11 C10.80017223 16.55468398 10.57381464 21.72009795 7.39453125 26.4609375 C3.76423763 30.46748004 -0.15735744 32.73676535 -5.5 33.5 C-11.26491762 32.67644034 -16.02087507 31.53741562 -19.9375 27 C-23.63198537 21.6262031 -23.76360221 16.34855322 -23 10 C-21.27950654 5.60229007 -18.31444636 2.89467379 -14.3125 0.5 C-9.46123187 -1.59216648 -5.00796283 -1.6481903 0 0 Z " fill="#FBFBFB" transform="translate(697,508)"/>
<path d="M0 0 C4.71211658 2.68255326 8.04883174 5.88779883 9.7109375 11.125 C10.57132253 16.79167381 9.99438027 21.30928394 6.7109375 26.125 C2.51461058 30.35572304 -1.13288316 32.26329891 -7.1015625 32.4375 C-11.95303668 32.38806722 -14.53810738 31.34010439 -18.2890625 28.125 C-19.0315625 27.50625 -19.7740625 26.8875 -20.5390625 26.25 C-23.71118281 22.39813963 -24.52036512 18.65371602 -24.3515625 13.75 C-23.58670659 8.23744095 -20.409876 4.68272097 -16.2890625 1.125 C-11.33436559 -1.93790355 -5.40306664 -2.06533605 0 0 Z " fill="#FCFBFB" transform="translate(307.2890625,508.875)"/>
<path d="M0 0 C3.27498169 2.67169559 4.84248982 4.5824084 5.3125 8.8125 C4.92835642 12.7307645 3.70743683 14.21293267 1 17 C-2.10048928 18.55024464 -4.57894218 18.28992015 -8 18 C-10.75329021 16.20437595 -12.52627461 14.94745078 -14 12 C-14.375 8.6875 -14.375 8.6875 -14 5 C-9.42918794 -0.53308828 -6.99574756 -1.56801238 0 0 Z " fill="#1D1B14" transform="translate(363,779)"/>
<path d="M0 0 C2.9838283 1.98921886 4.60276841 3.38502568 5.4765625 6.9375 C5.75890933 10.86063492 5.21925086 12.67112371 3 16 C-0.34888309 18.23258873 -2.13020876 18.7003485 -6.06640625 18.41015625 C-9.36385138 17.71069819 -10.86439595 16.58861097 -13 14 C-13.96866319 11.27064902 -14.30897143 8.8837333 -14 6 C-10.45903505 0.26119474 -6.62696028 -1.08971049 0 0 Z " fill="#1C1A13" transform="translate(669,778)"/>
<path d="M0 0 C2.77835049 1.26288659 4.49102772 2.3522171 6.375 4.75 C7.31697802 8.14112087 6.84752199 10.60991203 6 14 C4.5 16.4375 4.5 16.4375 2 18 C-2.76839269 18.94476566 -5.96441653 18.67629941 -10.0625 16 C-12.19738751 12.69436773 -12.80755538 10.81112119 -12.55078125 6.9375 C-10.87869379 1.05554696 -5.54340767 -0.94355875 0 0 Z " fill="#1A1912" transform="translate(702,736)"/>
<path d="M0 0 C3.24807785 0.69554798 4.80411173 1.89740194 6.93359375 4.4140625 C8.08247893 8.36335529 8.36488771 10.44365109 6.68359375 14.2265625 C3.99137953 17.59183027 2.36457014 18.36540387 -1.94140625 18.8515625 C-5.28288329 18.74675602 -6.12458951 18.37527366 -9.06640625 16.4140625 C-11.28565711 13.08518621 -11.82531558 11.27469742 -11.54296875 7.3515625 C-10.06571572 1.34568134 -5.60591179 -0.4026931 0 0 Z " fill="#1B1912" transform="translate(324.06640625,736.5859375)"/>
<path d="M0 0 C3.55247432 0.87379409 4.94828114 2.4927342 6.9375 5.4765625 C7.63597125 8.3162489 7.63597125 10.6368761 6.9375 13.4765625 C4.94828114 16.4603908 3.55247432 18.07933091 0 18.953125 C-3.92313492 19.23547183 -5.73362371 18.69581336 -9.0625 16.4765625 C-11.28175086 13.14768621 -11.82140933 11.33719742 -11.5390625 7.4140625 C-10.07519871 1.46261629 -5.59135555 -0.40240816 0 0 Z " fill="#1B1912" transform="translate(380.0625,733.5234375)"/>
<path d="M0 0 C3.55247432 0.87379409 4.94828114 2.4927342 6.9375 5.4765625 C7.63597125 8.3162489 7.63597125 10.6368761 6.9375 13.4765625 C4.94828114 16.4603908 3.55247432 18.07933091 0 18.953125 C-3.92313492 19.23547183 -5.73362371 18.69581336 -9.0625 16.4765625 C-11.28175086 13.14768621 -11.82140933 11.33719742 -11.5390625 7.4140625 C-10.07519871 1.46261629 -5.59135555 -0.40240816 0 0 Z " fill="#1A1912" transform="translate(648.0625,732.5234375)"/>
<path d="M0 0 C0.33 0 0.66 0 1 0 C1.10957031 0.75925781 1.21914063 1.51851562 1.33203125 2.30078125 C1.49058594 3.29464844 1.64914062 4.28851562 1.8125 5.3125 C1.96332031 6.29863281 2.11414063 7.28476562 2.26953125 8.30078125 C3.20059899 11.7412508 4.64470538 13.20544976 7.69824219 14.99560547 C8.30829102 15.28322754 8.91833984 15.57084961 9.546875 15.8671875 C10.2275 16.19589844 10.908125 16.52460937 11.609375 16.86328125 C13.02066815 17.53029754 14.43212283 18.19697216 15.84375 18.86328125 C20.61679262 21.1690556 24.75933086 23.81394753 29 27 C28.34 27.33 27.68 27.66 27 28 C24.81814063 26.90450575 22.77237764 25.75955521 20.6875 24.5 C19.42924377 23.75895729 18.17010634 23.01940907 16.91015625 22.28125 C16.26578613 21.90226563 15.62141602 21.52328125 14.95751953 21.1328125 C10.04521793 18.29007373 5.00699974 15.67039986 0 13 C0 8.71 0 4.42 0 0 Z " fill="#EBE2C9" transform="translate(521,734)"/>
<path d="M0 0 C0.78955078 -0.01224609 1.57910156 -0.02449219 2.39257812 -0.03710938 C4.45057435 -0.04237279 6.50812009 0.06543715 8.5625 0.1875 C9.2225 0.8475 9.8825 1.5075 10.5625 2.1875 C6.99164986 3.37778338 3.7164317 3.37148398 0 3.375 C-0.68513672 3.38724609 -1.37027344 3.39949219 -2.07617188 3.41210938 C-3.86484112 3.41737533 -5.65298848 3.30950021 -7.4375 3.1875 C-8.0975 2.5275 -8.7575 1.8675 -9.4375 1.1875 C-7.33618615 -0.91381385 -2.89603678 0.00235259 0 0 Z " fill="#282219" transform="translate(708.4375,604.8125)"/>
<path d="M0 0 C2.42204038 3.63306058 2.23302891 5.31819023 2.1953125 9.63671875 C2.18886719 10.93544922 2.18242187 12.23417969 2.17578125 13.57226562 C2.1590706 14.94401307 2.14214071 16.31575786 2.125 17.6875 C2.11496674 19.07095718 2.10584149 20.45442127 2.09765625 21.83789062 C2.07404967 25.22543452 2.04112037 28.61263072 2 32 C1.67 32 1.34 32 1 32 C0.67 27.71 0.34 23.42 0 19 C-0.33 19 -0.66 19 -1 19 C-1.02690104 16.20826945 -1.04679053 13.41679652 -1.0625 10.625 C-1.07087891 9.8309375 -1.07925781 9.036875 -1.08789062 8.21875 C-1.11328125 2.2265625 -1.11328125 2.2265625 0 0 Z " fill="#D4B794" transform="translate(500,693)"/>
<path d="M0 0 C2.48319402 2.48319402 2.26011201 3.96666047 2.2734375 7.36132812 C2.26570312 8.04646484 2.25796875 8.73160156 2.25 9.4375 C2.25773438 10.11876953 2.26546875 10.80003906 2.2734375 11.50195312 C2.25889434 15.21409442 2.10940418 16.83589372 0 20 C-1.17544359 16.28709089 -1.13308799 12.74914744 -1.125 8.875 C-1.12757813 7.63492188 -1.13015625 6.39484375 -1.1328125 5.1171875 C-1 2 -1 2 0 0 Z " fill="#282017" transform="translate(252,536)"/>
<path d="M0 0 C0.33 0.66 0.66 1.32 1 2 C-12.65559952 5.46808877 -12.65559952 5.46808877 -19 2 C-16.95928485 1.66089006 -14.91737379 1.32897296 -12.875 1 C-11.73804688 0.814375 -10.60109375 0.62875 -9.4296875 0.4375 C-6.23862398 0.03043951 -3.21182209 -0.07809902 0 0 Z " fill="#E9CA95" transform="translate(503,552)"/>
<path d="M0 0 C4.64474974 -0.32405231 7.29105728 0.11526677 11 3 C13.09543806 5.99348295 13.1999733 8.40048059 13 12 C12.01 12 11.02 12 10 12 C10 9.36 10 6.72 10 4 C6.7 3.67 3.4 3.34 0 3 C0 2.01 0 1.02 0 0 Z " fill="#231E17" transform="translate(696,736)"/>
<path d="M0 0 C1.14210938 -0.01417969 2.28421875 -0.02835938 3.4609375 -0.04296875 C6.46436816 0.17579966 8.10425934 0.61669363 10.625 2.1875 C6.84957523 3.0598255 3.31019302 3.35094601 -0.5625 3.375 C-1.60792969 3.38917969 -2.65335937 3.40335938 -3.73046875 3.41796875 C-6.375 3.1875 -6.375 3.1875 -8.375 1.1875 C-5.5555932 -0.2222034 -3.14232774 0.01765353 0 0 Z " fill="#2B251A" transform="translate(314.375,604.8125)"/>
<path d="M0 0 C0.66 0.33 1.32 0.66 2 1 C1.50072998 1.46897705 1.00145996 1.9379541 0.48706055 2.42114258 C-1.779924 4.55110144 -4.04621889 6.6817927 -6.3125 8.8125 C-7.49102539 9.91948242 -7.49102539 9.91948242 -8.69335938 11.04882812 C-9.45068359 11.76103516 -10.20800781 12.47324219 -10.98828125 13.20703125 C-11.68477783 13.8616333 -12.38127441 14.51623535 -13.09887695 15.19067383 C-14.75847489 16.77013708 -16.38891345 18.37128186 -18 20 C-18.66 19.67 -19.32 19.34 -20 19 C-17.60838068 16.57913227 -15.21096558 14.16408349 -12.8125 11.75 C-12.13896484 11.06808594 -11.46542969 10.38617188 -10.77148438 9.68359375 C-7.32936311 6.22468165 -3.90714016 2.94363181 0 0 Z " fill="#FDE9B0" transform="translate(276,331)"/>
<path d="M0 0 C1.60294922 0.01353516 1.60294922 0.01353516 3.23828125 0.02734375 C4.04652344 0.03894531 4.85476563 0.05054688 5.6875 0.0625 C5.6875 1.0525 5.6875 2.0425 5.6875 3.0625 C-0.09841511 3.16727512 -5.60559366 3.05500545 -11.3125 2.0625 C-11.3125 1.7325 -11.3125 1.4025 -11.3125 1.0625 C-7.47525828 0.15836327 -3.93747726 -0.04326898 0 0 Z " fill="#261F16" transform="translate(543.3125,252.9375)"/>
<path d="M0 0 C0.66 0.33 1.32 0.66 2 1 C-3.77341437 5.21175311 -9.39214514 9.21774532 -16 12 C-16.99 11.67 -17.98 11.34 -19 11 C-17.37750059 10.16180842 -15.75191503 9.3295884 -14.125 8.5 C-13.22007812 8.0359375 -12.31515625 7.571875 -11.3828125 7.09375 C-9 6 -9 6 -7 6 C-7 5.01 -7 4.02 -7 3 C-4.69631264 1.93347808 -2.35981813 0.93578995 0 0 Z " fill="#F9E8BA" transform="translate(382,865)"/>
<path d="M0 0 C2.29755922 3.44633882 2.23643976 4.71068391 2.1953125 8.76171875 C2.18886719 9.87998047 2.18242187 10.99824219 2.17578125 12.15039062 C2.15902344 13.31763672 2.14226562 14.48488281 2.125 15.6875 C2.11597656 16.86634766 2.10695312 18.04519531 2.09765625 19.25976562 C2.07406423 22.17338026 2.0411454 25.08658892 2 28 C1.67 28 1.34 28 1 28 C0.67 21.4 0.34 14.8 0 8 C-0.33 8 -0.66 8 -1 8 C-0.67 5.36 -0.34 2.72 0 0 Z " fill="#4E3B2A" transform="translate(173,661)"/>
<path d="M0 0 C7.15979413 3.21172384 11.72196164 9.64776122 16 16 C12.14280418 14.46239347 10.09958899 12.06804458 7.4375 8.9375 C4.31925656 5.10004484 4.31925656 5.10004484 0 3 C0 2.01 0 1.02 0 0 Z " fill="#19120D" transform="translate(777,329)"/>
<path d="M0 0 C0.66 0.66 1.32 1.32 2 2 C0.35588065 3.81718454 -1.12175539 5.07102398 -3.25 6.3125 C-6.83546375 8.51267094 -9.86522591 11.20851529 -13 14 C-13.66 13.67 -14.32 13.34 -15 13 C-13.2519799 11.3936298 -11.50168356 9.78986703 -9.75 8.1875 C-9.25886719 7.73568359 -8.76773438 7.28386719 -8.26171875 6.81835938 C-5.60492352 4.39181973 -2.92534924 2.09650029 0 0 Z " fill="#F6DFA9" transform="translate(791,88)"/>
<path d="M0 0 C1.27617188 0.02320313 2.55234375 0.04640625 3.8671875 0.0703125 C5.78917969 0.09738281 5.78917969 0.09738281 7.75 0.125 C9.23113281 0.15980469 9.23113281 0.15980469 10.7421875 0.1953125 C9.484375 1.6796875 9.484375 1.6796875 7.7421875 3.1953125 C3.18665372 3.48921791 -0.81303501 3.30650687 -5.2578125 2.1953125 C-3.2578125 0.1953125 -3.2578125 0.1953125 0 0 Z " fill="#E0B27E" transform="translate(522.2578125,951.8046875)"/>
<path d="M0 0 C0.99 0.66 1.98 1.32 3 2 C2.34 2 1.68 2 1 2 C1 2.66 1 3.32 1 4 C-1.97 5.32 -4.94 6.64 -8 8 C-8 7.01 -8 6.02 -8 5 C-6.25 3.61328125 -6.25 3.61328125 -4 2.3125 C-3.2575 1.87550781 -2.515 1.43851563 -1.75 0.98828125 C-1.1725 0.66214844 -0.595 0.33601562 0 0 Z " fill="#F5D59F" transform="translate(439,571)"/>
<path d="M0 0 C5.85272256 0.45020943 10.08220119 3.03839227 15 6 C14.01 6.495 14.01 6.495 13 7 C11 6 9 5 7 4 C3.7633037 3.29241674 3.7633037 3.29241674 1 3 C0.67 2.01 0.34 1.02 0 0 Z " fill="#100E0B" transform="translate(555,580)"/>
<path d="M0 0 C0.33 0 0.66 0 1 0 C1 4.62 1 9.24 1 14 C0.01 13.34 -0.98 12.68 -2 12 C-2.29296875 9.8359375 -2.29296875 9.8359375 -2.1875 7.375 C-2.16042969 6.55773437 -2.13335937 5.74046875 -2.10546875 4.8984375 C-2.07066406 4.27195312 -2.03585938 3.64546875 -2 3 C-1.34 3 -0.68 3 0 3 C0 2.01 0 1.02 0 0 Z " fill="#ECC18E" transform="translate(120,389)"/>
<path d="M0 0 C0 4.50303524 -2.72456307 6.67901175 -5.75 9.8125 C-6.1625 10.204375 -6.575 10.59625 -7 11 C-7.33 9.68 -7.66 8.36 -8 7 C-5.36 4.69 -2.72 2.38 0 0 Z " fill="#F5CE9C" transform="translate(392,854)"/>
<path d="M0 0 C3.63 0.33 7.26 0.66 11 1 C11 1.99 11 2.98 11 4 C9.54054712 3.91291331 8.08234132 3.80473093 6.625 3.6875 C5.81289063 3.62949219 5.00078125 3.57148437 4.1640625 3.51171875 C2 3 2 3 0 0 Z " fill="#EECE9C" transform="translate(531,572)"/>
<path d="M0 0 C1.48206495 0.254496 2.96068615 0.52911762 4.4375 0.8125 C5.67306641 1.03873047 5.67306641 1.03873047 6.93359375 1.26953125 C7.61550781 1.51058594 8.29742188 1.75164063 9 2 C9.33 2.99 9.66 3.98 10 5 C6.37 4.34 2.74 3.68 -1 3 C-0.67 2.01 -0.34 1.02 0 0 Z " fill="#F3CE97" transform="translate(547,557)"/>
<path d="M0 0 C0.33 0.99 0.66 1.98 1 3 C-3.455 6.96 -3.455 6.96 -8 11 C-8.66 10.67 -9.32 10.34 -10 10 C-6.7 6.7 -3.4 3.4 0 0 Z " fill="#FDE9AF" transform="translate(760,583)"/>
<path d="M0 0 C0.99 0 1.98 0 3 0 C2.67 2.97 2.34 5.94 2 9 C1.01 9 0.02 9 -1 9 C-0.67 6.03 -0.34 3.06 0 0 Z " fill="#EFCD98" transform="translate(187,585)"/>
<path d="M0 0 C-1 3 -1 3 -2.84765625 3.94921875 C-3.57855469 4.19285156 -4.30945313 4.43648437 -5.0625 4.6875 C-6.16271484 5.06455078 -6.16271484 5.06455078 -7.28515625 5.44921875 C-7.85105469 5.63097656 -8.41695313 5.81273437 -9 6 C-8.68359375 4.078125 -8.68359375 4.078125 -8 2 C-5.25822503 0.83328724 -2.99432393 0 0 0 Z " fill="#F2D29C" transform="translate(471,558)"/>
<path d="M0 0 C0.33 1.32 0.66 2.64 1 4 C-1.97 6.475 -1.97 6.475 -5 9 C-5 4.61031544 -2.87194899 3.23094261 0 0 Z " fill="#FAE0AA" transform="translate(127,76)"/>
<path d="M0 0 C0.33 0.66 0.66 1.32 1 2 C-5.0546875 2.9765625 -5.0546875 2.9765625 -7 3 C-7.66 2.34 -8.32 1.68 -9 1 C-6.04335481 -0.4783226 -3.25770263 -0.06032783 0 0 Z " fill="#F3D7A0" transform="translate(438,261)"/>
<path d="M0 0 C0.33 0 0.66 0 1 0 C1.66 4.29 2.32 8.58 3 13 C2.01 13 1.02 13 0 13 C0 8.71 0 4.42 0 0 Z " fill="#E4CFB1" transform="translate(521,734)"/>
<path d="M0 0 C0.99 0.33 1.98 0.66 3 1 C-0.465 3.97 -0.465 3.97 -4 7 C-4.66 6.67 -5.32 6.34 -6 6 C-4.02 4.02 -2.04 2.04 0 0 Z " fill="#2B1D17" transform="translate(241,331)"/>
<path d="M0 0 C0.33 0.66 0.66 1.32 1 2 C-0.25 5.0625 -0.25 5.0625 -2 8 C-2.99 8.33 -3.98 8.66 -5 9 C-3.7508258 5.54074837 -2.32472205 2.85306797 0 0 Z " fill="#FBE3AA" transform="translate(424,852)"/>
<path d="M0 0 C1.17539996 0.92652701 2.34010577 1.86663387 3.5 2.8125 C4.1496875 3.33457031 4.799375 3.85664062 5.46875 4.39453125 C7 6 7 6 7 9 C3.99234114 6.15063897 1.72154788 3.76488042 0 0 Z " fill="#E6CF99" transform="translate(659,584)"/>
<path d="M0 0 C2.31 0 4.62 0 7 0 C7.33 0.99 7.66 1.98 8 3 C5.36 3 2.72 3 0 3 C0 2.01 0 1.02 0 0 Z " fill="#271F17" transform="translate(712,289)"/>
<path d="M0 0 C0.66 0.33 1.32 0.66 2 1 C2 1.66 2 2.32 2 3 C-0.70879335 4.35439668 -3.00933268 4.06501451 -6 4 C-4.03617993 2.49440461 -2.21736634 1.10868317 0 0 Z " fill="#241F17" transform="translate(374,872)"/>
<path d="M0 0 C0.66 0.33 1.32 0.66 2 1 C2 2.65 2 4.3 2 6 C1.01 6.33 0.02 6.66 -1 7 C-0.67 4.69 -0.34 2.38 0 0 Z " fill="#231E17" transform="translate(330,742)"/>
<path d="M0 0 C0.99 0.33 1.98 0.66 3 1 C0.47211993 3.79872437 -1.20411134 5.45773019 -5 6 C-3.35 4.02 -1.7 2.04 0 0 Z " fill="#272017" transform="translate(664,498)"/>
<path d="M0 0 C0.66 0.33 1.32 0.66 2 1 C0.02 2.98 -1.96 4.96 -4 7 C-4.99 6.67 -5.98 6.34 -7 6 C-4.69 4.02 -2.38 2.04 0 0 Z " fill="#F6E0A9" transform="translate(276,331)"/>
</svg>
