<?xml version="1.0" encoding="UTF-8"?>
<svg version="1.1" xmlns="http://www.w3.org/2000/svg" width="1024" height="1024">
<path d="M156 66 C154.96359375 66.350625 153.9271875 66.70125 152.859375 67.0625 C140.30779886 71.7939842 127.58042425 79.57891752 118 89 C118 89.66 118 90.32 118 91 C117.01 91.33 116.02 91.66 115 92 C113.41983233 93.52069973 113.41983233 93.52069973 111.875 95.4375 C109.95639837 97.71184235 108.04162671 99.95585292 106 102.12109375 C92.32345966 116.62727716 81.98679881 133.85206187 72 151 C71.58347168 151.71285156 71.16694336 152.42570312 70.73779297 153.16015625 C61.69392618 168.81984688 50.2735004 190.41023001 53 209 C55.12834752 216.8039409 59.48809643 221.3878453 66.375 225.375 C73.5957428 227.09422448 78.85848088 226.18453313 85.3671875 222.64453125 C89.32671114 220.17129764 93.04980568 217.41769194 96.75 214.57421875 C99 213 99 213 101 213 C102.45954537 217.83396435 103.51968521 222.5765179 104.375 227.5625 C110.88426676 262.88514393 130.06262715 291.0756109 159.25 311.75 C160.81788142 312.86954931 162.3855956 313.98933287 163.953125 315.109375 C164.63536133 315.59374023 165.31759766 316.07810547 166.02050781 316.57714844 C167.40045787 317.56905136 168.74724399 318.60804109 170.06542969 319.68066406 C172.02281188 321.2817137 172.02281188 321.2817137 175 321 C175.34194072 328.37472155 174.3844076 334.85364217 172.625 342 C168.52668477 358.65536246 167.67886159 375.10087512 167.8125 392.1875 C167.81937154 394.00911326 167.82587824 395.83072792 167.83203125 397.65234375 C167.88155971 407.82548939 168.10750382 417.97133663 168.63720703 428.13183594 C169.74108775 449.74508725 168.46613236 469.97414314 164.40917969 491.2019043 C164.24192383 492.08273682 164.07466797 492.96356934 163.90234375 493.87109375 C163.75273193 494.64380615 163.60312012 495.41651855 163.44897461 496.21264648 C162.275501 503.49788203 161.82514693 510.68855189 161.76171875 518.0625 C161.75197021 519.00360626 161.74222168 519.94471252 161.73217773 520.91433716 C161.56978998 540.63612676 161.51805925 559.6920367 166 579 C166.35426747 580.66143684 166.70843557 582.32289488 167.0625 583.984375 C168.19300999 589.04496898 169.54801801 594.0229284 171 599 C171.4340918 600.49490967 171.4340918 600.49490967 171.87695312 602.02001953 C182.52006883 637.85584906 200.56239749 668.39671013 223.9453125 697.4140625 C226.29504832 700.37133457 228.59710343 703.36229808 230.875 706.375 C231.61492187 707.35210938 232.35484375 708.32921875 233.1171875 709.3359375 C237.9253047 716.13912408 237.79197392 722.08946366 236.48095703 730.21826172 C235.73984783 733.80939086 234.91836455 737.37197335 234.0625 740.9375 C233.74448156 742.29064134 233.42703258 743.64391663 233.11010742 744.99731445 C232.43558748 747.86297797 231.75143097 750.72612985 231.06054688 753.58789062 C230.35463026 756.51360563 229.66067313 759.44170177 228.97851562 762.37304688 C220.97480212 796.73323961 209.5193106 829.66118258 196.859375 862.56640625 C196.53235596 863.42741943 196.20533691 864.28843262 195.8684082 865.17553711 C195.27736397 866.73072903 194.67790246 868.28276846 194.06713867 869.83032227 C192.21203263 874.72470559 190.8512886 879.72107272 191 885 C193.06339213 888.53724365 194.11258565 889.70419522 198 891 C203.32456413 891.59880564 203.32456413 891.59880564 208 889.5 C208.33 889.005 208.66 888.51 209 888 C209.57105469 888.70125 210.14210937 889.4025 210.73046875 890.125 C215.05894813 894.42479396 220.82874426 896.52664488 226.3125 899 C227.55534799 899.5674435 228.79818632 900.13490816 230.04101562 900.70239258 C291.7064077 928.66611219 356.26816607 946.39050582 423.375 955.25 C424.31021484 955.37496857 425.24542969 955.49993713 426.20898438 955.62869263 C452.84138133 959.15658326 479.17720195 960.33201602 506.01098633 960.26074219 C510.30859728 960.24939375 514.60595927 960.25610905 518.90356159 960.26761055 C546.73240862 960.33096985 574.32825648 959.42029348 601.9375 955.625 C603.60819786 955.40189758 605.27893437 955.17908449 606.94970703 954.95654297 C663.15946804 947.3978783 717.85102539 933.50419731 770 911 C770.8038916 910.65549805 771.6077832 910.31099609 772.43603516 909.95605469 C780.08500643 906.66434566 787.63818506 903.17390024 795.18359375 899.65234375 C795.81581345 899.35759155 796.44803314 899.06283936 797.09941101 898.75915527 C800.27204572 897.27956252 803.4425385 895.79570595 806.60913086 894.30322266 C808.3456189 893.48990479 808.3456189 893.48990479 810.1171875 892.66015625 C811.15472168 892.17168213 812.19225586 891.68320801 813.26123047 891.17993164 C817.45356339 889.37376788 820.46606176 888.93177482 825 889.1875 C828.34762838 889.20722093 829.65350287 889.21127874 832.5625 887.4375 C834.45640022 884.22610397 834.73039942 881.71511535 835 878 C834.21646617 874.77026295 834.21646617 874.77026295 832.7890625 871.59765625 C832.29075928 870.39069092 831.79245605 869.18372559 831.27905273 867.94018555 C831.00954803 867.3086557 830.74004333 866.67712585 830.46237183 866.02645874 C829.60896888 864.02490086 828.77648956 862.01576266 827.94946289 860.00317383 C826.82820262 857.27458101 825.70185183 854.5481953 824.57177734 851.82324219 C816.35716703 831.92951567 809.5771254 811.48178647 803 791 C802.65163086 789.9171875 802.30326172 788.834375 801.94433594 787.71875 C785.08992446 734.61438892 785.08992446 734.61438892 788 710 C789.76555554 706.81877036 792.14704295 705.18327438 795 703 C826.30595397 667.68214857 848.8064754 621.68636078 858.25 575.625 C858.41346924 574.82868164 858.57693848 574.03236328 858.74536133 573.21191406 C861.32691806 559.90071912 861.27708219 546.51040641 861.3125 533 C861.31578308 531.97787415 861.31906616 530.95574829 861.32244873 529.90264893 C861.33945962 513.52180527 860.16066941 498.09120401 857 482 C854.59309937 469.12718674 853.83019414 456.45831171 853.875 443.375 C853.87113281 442.23804688 853.86726562 441.10109375 853.86328125 439.9296875 C853.86457031 438.805625 853.86585938 437.6815625 853.8671875 436.5234375 C853.86887939 435.037229 853.86887939 435.037229 853.87060547 433.52099609 C853.97824231 430.5920555 854.20408693 427.73459681 854.49121094 424.8203125 C855.04356249 418.99311784 855.21128639 413.20242526 855.2734375 407.3515625 C855.2857843 406.26789902 855.2981311 405.18423553 855.31085205 404.06773376 C855.34290906 400.5867939 855.36187421 397.10606116 855.375 393.625 C855.37989441 392.44235565 855.38478882 391.2597113 855.38983154 390.04122925 C855.42239302 371.04611869 855.14988901 351.81025128 848.8359375 333.65234375 C847.80116183 330.36910693 847.30730376 328.40985309 848 325 C850.27872274 322.67651806 852.94502284 321.04257144 855.6875 319.3125 C857.26097234 318.26122451 858.83125682 317.20516317 860.3984375 316.14453125 C861.18057617 315.61811035 861.96271484 315.09168945 862.76855469 314.54931641 C868.18931958 310.78562122 873.13048408 306.44302319 878 302 C878.76304443 301.30487305 878.76304443 301.30487305 879.54150391 300.59570312 C898.82092831 282.77674859 911.21813992 260.23791607 918 235 C918.23976563 234.13407227 918.47953125 233.26814453 918.7265625 232.37597656 C921.72727676 222.81487711 921.72727676 222.81487711 923 213 C923.67804687 213.43570313 924.35609375 213.87140625 925.0546875 214.3203125 C939.32132191 224.59419395 939.32132191 224.59419395 956 227 C962.62354263 224.60995144 966.49837451 221.01841881 970 215 C975.98711008 196.80540573 964.90231759 175.8175159 957 160 C952.17458114 150.69412157 946.75980006 141.75489609 941 133 C940.26637172 131.85191719 939.53333428 130.70345669 938.80078125 129.5546875 C932.90988464 120.4158893 926.35046673 111.99186958 919.3737793 103.65844727 C918.17041036 102.20572198 917.00205136 100.72414162 915.83984375 99.23828125 C914.14856493 97.18073823 912.47141855 95.52134302 910.4375 93.8125 C907.09078515 90.96779237 903.88555043 88.01073605 900.6875 85 C878.52115658 64.9288315 851.73556265 60.58005352 822.7578125 61.77246094 C804.62954007 62.87014479 787.20735484 66.30062991 770 72 C768.70422364 72.42273765 767.40831661 72.84507493 766.11230469 73.26708984 C723.10898775 87.32015953 688.10790269 102.43055235 661 140 C660.67 140.33 660.34 140.66 660 141 C652.69843238 140.81241032 645.38088525 139.54261096 638.1640625 138.5 C624.29735644 136.75196511 610.45500351 136.80351577 596.5 136.8125 C595.34761841 136.8117749 594.19523682 136.8110498 593.00793457 136.81030273 C578.55511061 136.8113022 564.1731825 137.07274538 549.75 138 C523.59579306 139.6633055 497.55183959 139.46522286 471.40109253 137.85961914 C456.80881228 136.98116831 442.24199273 136.7735609 427.625 136.75 C426.57138275 136.74500488 425.5177655 136.74000977 424.43222046 136.73486328 C406.05427501 136.66298107 387.35194714 137.0218846 369.26953125 140.6328125 C366.67496754 141.05258701 364.6168474 141.37925325 362 141 C360.1484375 139.015625 360.1484375 139.015625 358.375 136.25 C335.19710918 102.39465387 298.23954445 88.39306053 260.61206055 75.87475586 C258.63011695 75.21102056 256.65327811 74.53201835 254.67895508 73.84594727 C224.11233008 63.35773505 187.54869881 54.74318728 156 66 Z " fill="#080808" transform="translate(0,0)"/>
<path d="M0 0 C6.579643 0.01086148 13.06986725 0.4114669 19.62597656 0.95019531 C33.65176622 2.07811874 47.07238824 2.02588467 61.11523438 0.64501953 C66.75858147 0.09413025 72.33999713 0.02377776 78.00585938 0.13720703 C81.03413195 5.10201444 83.13504574 9.85225398 84.88085938 15.38720703 C85.13206543 16.17023193 85.38327148 16.95325684 85.64208984 17.76000977 C86.16885545 19.40365596 86.69307945 21.04811872 87.21484375 22.69335938 C87.97047661 25.02789177 88.76920082 27.34228798 89.58398438 29.65673828 C102.89108137 68.1509276 101.43826337 111.6973358 101.55883789 151.91687012 C101.663447 188.44988883 101.663447 188.44988883 102.90820312 224.95751953 C102.94677492 225.75215481 102.98534672 226.54679008 103.02508736 227.36550522 C103.45841528 236.071008 104.10116219 244.73906157 104.99243164 253.41015625 C105.07249167 254.19758776 105.15255171 254.98501926 105.2350378 255.79631233 C105.88362222 261.79991752 107.06560558 267.40924038 109.00585938 273.13720703 C109.34359375 274.20841797 109.68132812 275.27962891 110.02929688 276.38330078 C121.19855745 310.00352472 146.85185104 331.89727717 175.33764648 351.25976562 C215.19266398 378.35030573 252.28660466 412.83334265 267.00585938 460.13720703 C267.84478438 465.54813067 268.10299486 470.69393688 267.84179688 476.16845703 C267.80975159 476.91390274 267.7777063 477.65934845 267.74468994 478.42738342 C267.63486088 480.8313832 267.51032882 483.23418839 267.38085938 485.63720703 C267.33773621 486.45857147 267.29461304 487.27993591 267.25018311 488.12619019 C266.48237529 502.13586884 264.69022872 515.56522338 261.00585938 529.13720703 C260.69777344 530.31154297 260.3896875 531.48587891 260.07226562 532.69580078 C256.56743387 544.42530439 250.28547059 555.33866363 243.88085938 565.69970703 C243.48560059 566.34198242 243.0903418 566.98425781 242.68310547 567.64599609 C232.2590044 584.09606082 214.73934661 595.1936479 196.00585938 600.13720703 C195.06226563 600.44078125 195.06226563 600.44078125 194.09960938 600.75048828 C174.62676797 606.25531076 151.08354262 601.46974568 133.87817383 591.87524414 C132.48731567 591.07679077 132.48731567 591.07679077 131.06835938 590.26220703 C130.07473389 589.69703369 129.0811084 589.13186035 128.05737305 588.54956055 C120.53493019 584.19465114 113.43318659 579.39512585 106.38208008 574.32177734 C100.49474119 570.10683704 94.47115513 566.22616194 88.25585938 562.51220703 C87.44608643 562.02743896 86.63631348 561.5426709 85.80200195 561.04321289 C77.61682504 556.21330179 69.5859767 552.47314483 60.56835938 549.44970703 C58.77713574 548.84416934 56.98672198 548.2362288 55.19726562 547.62548828 C54.41552979 547.36292236 53.63379395 547.10035645 52.82836914 546.82983398 C51.00585938 546.13720703 51.00585938 546.13720703 50.00585938 545.13720703 C49.84642115 543.44481105 49.7542872 541.74601605 49.68945312 540.04736328 C49.64723633 538.96471191 49.60501953 537.88206055 49.56152344 536.76660156 C49.50303223 535.00098877 49.50303223 535.00098877 49.44335938 533.19970703 C49.40307617 531.99942871 49.36279297 530.79915039 49.32128906 529.5625 C49.05422722 520.96378208 48.8448101 512.36466228 48.75585938 503.76220703 C48.73450928 502.67045166 48.71315918 501.57869629 48.69116211 500.45385742 C48.67341456 496.36966211 48.75177255 492.92517278 50.00976562 489.02392578 C52.98354413 486.21309404 56.29284078 485.92287354 60.19335938 485.32470703 C74.59232282 482.6170727 86.35205104 476.41159442 96.31835938 465.63720703 C98.21365546 463.12225489 98.21365546 463.12225489 98.94335938 459.63720703 C100.07257889 456.74865104 100.91501525 456.18153691 103.76757812 454.78955078 C106.05311684 453.96399615 108.34654275 453.16002392 110.64648438 452.37548828 C123.04346306 447.80590428 130.40391037 438.52228247 136.19335938 427.07470703 C136.71510742 426.0540918 137.23685547 425.03347656 137.77441406 423.98193359 C144.9575646 409.60196767 148.60596445 395.98731 144.00585938 380.13720703 C138.19006921 363.61158442 128.94468104 350.06894537 112.92822266 342.10400391 C103.62831932 337.74015742 94.33865595 334.0922739 84.14697266 332.4921875 C81.62864229 332.07466728 79.13116808 331.57374817 76.62695312 331.07861328 C63.49125495 328.62715121 50.64585729 327.75444022 37.31835938 327.76220703 C36.56617126 327.76048492 35.81398315 327.75876282 35.03900146 327.75698853 C5.74623447 327.76459537 -28.4734069 332.98388197 -50.99414062 353.13720703 C-62.35740887 365.4744697 -66.60184257 380.22095394 -66.32617188 396.53955078 C-65.59327599 414.27080551 -56.80072789 432.33707507 -44.45507812 444.91064453 C-40.03023852 448.91407084 -35.56053875 452.01913814 -30.08007812 454.40673828 C-22.45255634 457.75705481 -18.90057247 461.39386829 -14.20117188 468.22705078 C-6.17345151 478.81227498 7.28939473 482.15408236 19.56835938 485.32470703 C21.52877094 485.83606358 23.48845293 486.35022833 25.44726562 486.86767578 C26.30006104 487.08834717 27.15285645 487.30901855 28.03149414 487.53637695 C30.00585938 488.13720703 30.00585938 488.13720703 31.00585938 489.13720703 C31.10736776 491.65423197 31.14538514 494.1431524 31.13867188 496.66064453 C31.13999115 497.43020981 31.14131042 498.19977509 31.14266968 498.99266052 C31.14459071 501.49921664 31.13825024 504.00566225 31.13085938 506.51220703 C31.12953003 507.77658096 31.12953003 507.77658096 31.12817383 509.0664978 C31.11317813 521.11452914 30.92653344 533.11912241 30.00585938 545.13720703 C29.19246094 545.41693359 28.3790625 545.69666016 27.54101562 545.98486328 C24.37174461 547.09357339 21.21768462 548.23561529 18.06640625 549.39404297 C16.13479372 550.09070512 14.18785934 550.7444643 12.24023438 551.39501953 C-0.87001129 556.03622577 -11.88112848 564.07804175 -23.24468994 571.89797974 C-27.81696778 575.03815598 -32.46081287 578.03884776 -37.18164062 580.94970703 C-37.77340088 581.31491455 -38.36516113 581.68012207 -38.97485352 582.05639648 C-40.64697046 583.08492624 -42.32054945 584.11107786 -43.99414062 585.13720703 C-44.60918457 585.53447998 -45.22422852 585.93175293 -45.85791016 586.34106445 C-50.89649211 589.57908146 -56.07862568 592.27341709 -61.49414062 594.82470703 C-62.29722656 595.21464844 -63.1003125 595.60458984 -63.92773438 596.00634766 C-65.12076172 596.57192383 -65.12076172 596.57192383 -66.33789062 597.14892578 C-67.39266602 597.65105591 -67.39266602 597.65105591 -68.46875 598.16333008 C-74.81349706 600.61008143 -80.67924783 601.45253977 -87.41210938 601.47314453 C-88.1912117 601.47980133 -88.97031403 601.48645813 -89.77302551 601.49331665 C-91.41254339 601.50337749 -93.05210168 601.50813572 -94.69165039 601.5078125 C-97.15842797 601.51216606 -99.62338387 601.54849919 -102.08984375 601.58642578 C-122.55226221 601.7328407 -139.80879096 594.00508971 -154.68164062 579.88720703 C-159.29251414 575.09028073 -162.63879003 569.85484482 -165.99414062 564.13720703 C-166.6309375 563.15751953 -167.26773437 562.17783203 -167.92382812 561.16845703 C-177.00089236 546.6168988 -182.32527645 529.00442861 -184.99414062 512.13720703 C-185.1265918 511.34121094 -185.25904297 510.54521484 -185.39550781 509.72509766 C-189.50892825 484.48995651 -190.02370649 463.63961916 -178.99414062 440.13720703 C-178.43364014 438.93064453 -178.43364014 438.93064453 -177.86181641 437.69970703 C-170.7392237 422.68989507 -161.42277289 408.80667121 -149.76904297 396.94726562 C-148.4490097 395.60108589 -147.13827823 394.24577231 -145.83251953 392.88574219 C-134.92548662 381.53142476 -123.87496488 371.19876646 -110.99414062 362.13720703 C-110.19476074 361.57340332 -109.39538086 361.00959961 -108.57177734 360.42871094 C-105.18049363 358.04317719 -101.78320349 355.66651798 -98.37841797 353.30029297 C-85.34128176 344.23515274 -72.83748465 334.72326289 -60.99414062 324.13720703 C-59.96740234 323.22068359 -59.96740234 323.22068359 -58.91992188 322.28564453 C-45.20354202 309.30464169 -35.43580517 292.07454571 -29.99414062 274.13720703 C-29.62546875 272.96931641 -29.25679687 271.80142578 -28.87695312 270.59814453 C-22.22458472 247.92182304 -22.8670383 223.16493841 -22.82547569 199.73670959 C-22.81810582 196.42968027 -22.80229251 193.12278288 -22.78413391 189.8157959 C-22.73264956 180.4258832 -22.68400389 171.03604635 -22.66821289 161.64599609 C-22.6088313 130.92852991 -21.46751779 100.66717478 -17.99414062 70.13720703 C-17.90658382 69.35789825 -17.81902702 68.57858948 -17.72881699 67.77566528 C-16.5306889 57.14352425 -15.0545565 46.63752497 -12.99414062 36.13720703 C-12.8147998 35.21504395 -12.63545898 34.29288086 -12.45068359 33.34277344 C-5.95292398 0.40959149 -5.95292398 0.40959149 0 0 Z " fill="#FEDCB4" transform="translate(471.994140625,159.86279296875)"/>
<path d="M0 0 C0.81855469 0.66644531 1.63710938 1.33289063 2.48046875 2.01953125 C3.47433594 2.79941406 4.46820312 3.57929687 5.4921875 4.3828125 C33.18454877 26.6438923 52.13904379 55.64581603 67.04296875 87.58203125 C67.47295166 88.48590576 67.90293457 89.38978027 68.34594727 90.32104492 C70.92610543 95.99277702 72.12010057 100.79211624 72.48046875 107.01953125 C63.01901717 99.96982223 53.68069699 92.76520367 44.41796875 85.45703125 C38.73976225 80.98515234 33.01979307 76.57798597 27.20166016 72.28857422 C25.97058028 71.38089292 24.741287 70.47078649 23.51318359 69.55908203 C12.16797028 61.15298886 0.55159265 53.34562282 -11.51953125 46.01953125 C-12.16937988 45.62362793 -12.81922852 45.22772461 -13.48876953 44.81982422 C-26.46305881 36.97626102 -40.08532658 31.50079164 -54.51953125 27.01953125 C-55.5971875 26.64957031 -56.67484375 26.27960938 -57.78515625 25.8984375 C-81.58596155 20.29678353 -106.49998627 27.35932349 -126.70703125 39.83203125 C-138.63199116 47.44008055 -149.29598223 56.26659004 -159.51953125 66.01953125 C-160.11378906 66.52355469 -160.70804688 67.02757812 -161.3203125 67.546875 C-163.49762015 70.22063717 -163.10617336 73.02756629 -162.9765625 76.33984375 C-161.28078182 86.28262617 -151.95267045 92.19505651 -144.51953125 98.01953125 C-127.48433655 111.63806261 -110.78322534 126.63301929 -97.51953125 144.01953125 C-97.1013916 144.56125977 -96.68325195 145.10298828 -96.25244141 145.66113281 C-79.5205203 167.4291119 -65.9363607 191.8319792 -56.42089844 217.58544922 C-55.51893739 220.02113494 -54.58625585 222.44360266 -53.65234375 224.8671875 C-46.66599661 243.43318723 -42.37908528 263.02455506 -42.3515625 282.8984375 C-42.347509 283.8199913 -42.34345551 284.7415451 -42.33927917 285.69102478 C-42.32988483 288.6547296 -42.32987634 291.61831363 -42.33203125 294.58203125 C-42.3309436 296.09893555 -42.3309436 296.09893555 -42.32983398 297.64648438 C-42.3307973 309.7842429 -42.36068114 321.85525118 -43.80786133 333.92407227 C-45.77399564 350.96798818 -44.29805307 367.59348501 -41.64453125 384.45703125 C-41.37097297 386.26606145 -41.09883525 388.07530704 -40.828125 389.88476562 C-39.41445137 399.32849007 -39.41445137 399.32849007 -37.89111328 408.75488281 C-36.32315642 418.4781876 -36.12099395 428.06901724 -36.14453125 437.89453125 C-36.14534698 439.17961578 -36.14534698 439.17961578 -36.1461792 440.49066162 C-36.18741126 454.66162482 -37.18318362 468.19974164 -40.51953125 482.01953125 C-40.71788574 482.87466309 -40.91624023 483.72979492 -41.12060547 484.61083984 C-46.22048457 506.02059481 -55.20621275 526.632263 -65.51953125 546.01953125 C-66.07898438 547.128125 -66.6384375 548.23671875 -67.21484375 549.37890625 C-73.73597852 562.05720548 -82.30505646 573.18669143 -91.51953125 584.01953125 C-92.00292969 584.58784668 -92.48632812 585.15616211 -92.984375 585.74169922 C-100.62166419 594.69551613 -108.44443915 603.45854536 -116.51953125 612.01953125 C-117.29554688 612.8496875 -118.0715625 613.67984375 -118.87109375 614.53515625 C-119.55945313 615.251875 -120.2478125 615.96859375 -120.95703125 616.70703125 C-121.53324219 617.30902344 -122.10945312 617.91101563 -122.703125 618.53125 C-124.8370116 620.27966031 -126.92706967 621.1168388 -129.51953125 622.01953125 C-129.1328125 620.97796875 -128.74609375 619.93640625 -128.34765625 618.86328125 C-124.75260316 609.02778047 -121.82862484 599.23110535 -119.51953125 589.01953125 C-119.31585937 588.16488281 -119.1121875 587.31023438 -118.90234375 586.4296875 C-115.7691117 572.33014328 -110.82567204 549.00291867 -118.51953125 536.01953125 C-122.09356306 531.84982747 -124.86796151 529.25927524 -130.39453125 528.45703125 C-133.60927628 528.72883854 -133.60927628 528.72883854 -135.51953125 531.01953125 C-135.8028833 530.1056665 -136.08623535 529.19180176 -136.37817383 528.25024414 C-139.32783114 518.95378629 -142.91167603 510.2256584 -147.20703125 501.45703125 C-147.51388855 500.82578339 -147.82074585 500.19453552 -148.13690186 499.54415894 C-152.79437067 490.00320817 -157.69326238 481.20676738 -164.51953125 473.01953125 C-164.98568848 472.44783203 -165.4518457 471.87613281 -165.93212891 471.28710938 C-184.21958676 448.89627135 -206.46686311 430.88034758 -230.22460938 414.59326172 C-261.8511092 392.90555769 -289.83414513 366.89891657 -298.20703125 327.89453125 C-300.29760292 316.46731462 -300.79654785 304.73628295 -301.40606689 293.15472412 C-301.48328531 291.70161402 -301.564113 290.24869221 -301.64813232 288.79595947 C-302.47543768 274.20499442 -302.63220618 259.62186362 -302.73046875 245.01171875 C-302.74118093 243.50552097 -302.74118093 243.50552097 -302.75210953 241.96889496 C-302.81928572 232.5071506 -302.88292752 223.04540768 -302.92089844 213.58349609 C-302.60363628 151.61033183 -302.60363628 151.61033183 -315.67236328 91.45849609 C-316.61111907 88.75585334 -317.50369286 86.04038974 -318.390625 83.3203125 C-320.18727371 77.8248288 -320.18727371 77.8248288 -322.00390625 72.3359375 C-322.24850586 71.59802979 -322.49310547 70.86012207 -322.74511719 70.09985352 C-323.53260271 67.98441715 -324.4737663 66.01827349 -325.51953125 64.01953125 C-311.54121672 62.77418518 -297.54422013 62.73733689 -283.51953125 62.70703125 C-281.65834152 62.70210663 -281.65834152 62.70210663 -279.759552 62.69708252 C-237.93132572 62.6612756 -237.93132572 62.6612756 -219.61328125 68.11328125 C-216.54674898 69.01155838 -213.76198533 69.4089791 -210.58203125 69.64453125 C-209.14537109 69.75667969 -209.14537109 69.75667969 -207.6796875 69.87109375 C-206.61041016 69.94457031 -206.61041016 69.94457031 -205.51953125 70.01953125 C-205.27589844 69.4471875 -205.03226563 68.87484375 -204.78125 68.28515625 C-203.29435827 65.61519587 -201.53869217 63.88124118 -199.33203125 61.76953125 C-195.89314082 58.40706061 -192.6677051 54.97308061 -189.5390625 51.32421875 C-186.39255841 47.73343072 -183.12914832 44.25108537 -179.86987305 40.76269531 C-177.45990754 38.17143693 -175.13359304 35.56404674 -172.921875 32.80078125 C-148.7773955 4.84814808 -88.34769032 -6.04193803 -53.51953125 -9.98046875 C-52.75858154 -10.06965576 -51.99763184 -10.15884277 -51.21362305 -10.25073242 C-33.82259906 -12.24963809 -14.65122956 -10.69143778 0 0 Z " fill="#E79345" transform="translate(875.51953125,95.98046875)"/>
<path d="M0 0 C2.1527972 0.00312104 4.30416316 -0.02020139 6.45678711 -0.0456543 C21.1741438 -0.11580979 34.70263406 2.87123598 48.81420898 7.00317383 C50.61257202 7.52536499 50.61257202 7.52536499 52.44726562 8.05810547 C82.74772878 16.97991966 117.60387307 27.33259034 140.25170898 50.31567383 C141.91571099 51.65233118 143.58210422 52.98602143 145.25170898 54.31567383 C146.30895544 55.4065247 147.33141875 56.53229174 148.31420898 57.69067383 C148.89428711 58.37129883 149.47436523 59.05192383 150.07202148 59.75317383 C151.1509668 61.02161133 151.1509668 61.02161133 152.25170898 62.31567383 C153.28961307 63.50418645 154.32877551 64.69160083 155.36889648 65.87817383 C156.47586775 67.14883258 157.58263754 68.41966687 158.68920898 69.69067383 C159.23391846 70.30990723 159.77862793 70.92914063 160.33984375 71.56713867 C164.25170898 76.08892843 164.25170898 76.08892843 164.25170898 78.31567383 C171.22588009 80.64039753 177.74012771 79.29159735 184.68920898 77.44067383 C215.92538028 69.5178476 252.32797253 72.24414516 284.25170898 74.31567383 C283.92630127 75.10329102 283.60089355 75.8909082 283.265625 76.70239258 C280.14777231 84.48407403 277.87079972 92.11036426 276.18920898 100.31567383 C275.9373584 101.52932617 275.68550781 102.74297852 275.42602539 103.9934082 C266.43389145 148.60358577 264.64807908 193.93620785 264.57177734 239.30871582 C264.55156915 248.6726045 264.49443035 258.03637314 264.44301414 267.40013123 C264.42803313 270.60575545 264.42055817 273.81131528 264.41487122 277.01696777 C264.27915635 324.35428868 259.34231733 364.28991141 225.25170898 399.56567383 C212.84588753 411.54885207 198.30019459 421.63180192 184.00878906 431.21630859 C160.60436964 446.93039608 136.09428922 466.95480567 121.25170898 491.31567383 C120.48900779 492.49771139 119.7246237 493.67866443 118.95874023 494.85864258 C109.73816362 509.34400121 100.68442286 527.20985416 98.25170898 544.31567383 C97.73608398 543.80004883 97.22045898 543.28442383 96.68920898 542.75317383 C94.22969325 541.01601888 94.22969325 541.01601888 90.81420898 541.37817383 C86.9960037 542.38296469 85.20029744 543.77661155 82.25170898 546.31567383 C81.26170898 546.31567383 80.27170898 546.31567383 79.25170898 546.31567383 C73.72118965 566.01814897 78.8488543 588.05427725 84.25170898 607.31567383 C84.48631836 608.18836914 84.72092773 609.06106445 84.96264648 609.96020508 C86.06026474 613.85352161 87.35882251 617.63373976 88.80639648 621.40942383 C89.08435059 622.13516602 89.36230469 622.8609082 89.64868164 623.60864258 C90.21053894 625.06233175 90.78034471 626.51297759 91.35864258 627.96020508 C92.04593223 629.72446263 92.6554825 631.51859683 93.25170898 633.31567383 C92.92170898 633.97567383 92.59170898 634.63567383 92.25170898 635.31567383 C91.62264648 634.74719727 90.99358398 634.1787207 90.34545898 633.59301758 C89.48952148 632.82086914 88.63358398 632.0487207 87.75170898 631.25317383 C86.83131836 630.42043945 85.91092773 629.58770508 84.96264648 628.72973633 C83.40712164 627.34455715 81.83700376 625.97462281 80.22827148 624.65161133 C69.51897365 615.84016374 61.1300245 604.12311786 52.70532227 593.19018555 C51.17096616 591.21155165 49.6166091 589.24973453 48.06030273 587.28833008 C31.89934789 566.77275601 19.39720578 543.98533761 10.92553711 519.24047852 C10.23315812 517.26268288 9.48861397 515.31036172 8.73608398 513.35473633 C-6.91155726 471.36328599 -2.56743294 426.60082212 5.16577148 383.56176758 C7.93502946 367.91563376 7.36387152 353.17869697 5.76342773 337.46020508 C2.66808641 306.90710011 4.18951761 277.23062732 11.25170898 247.31567383 C11.46311523 246.3540332 11.67452148 245.39239258 11.89233398 244.40161133 C20.67085813 208.04951775 42.76592511 173.01148425 67.25170898 145.31567383 C68.05608398 144.40043945 68.86045898 143.48520508 69.68920898 142.54223633 C78.04011465 133.14746746 86.6432134 124.16699389 97.25170898 117.31567383 C100.92068477 114.71469694 104.44223593 112.12514689 107.62670898 108.94067383 C110.05468181 106.512701 112.50662486 104.61436493 115.25170898 102.56567383 C120.13965193 98.74127733 122.6429089 94.86089074 125.25170898 89.31567383 C125.58170898 88.98567383 125.91170898 88.65567383 126.25170898 88.31567383 C126.75692606 83.97080701 126.68012576 81.93627756 124.16186523 78.28833008 C123.23179105 77.29990745 122.28134191 76.33036666 121.31420898 75.37817383 C120.80913818 74.85876221 120.30406738 74.33935059 119.78369141 73.80419922 C118.29234759 72.28697627 116.77712162 70.79854094 115.25170898 69.31567383 C114.53499023 68.6015332 113.81827148 67.88739258 113.07983398 67.15161133 C97.54694517 52.52179744 78.52935848 43.31713063 58.25170898 37.31567383 C57.22561523 36.99598633 56.19952148 36.67629883 55.14233398 36.34692383 C29.02197257 28.88396342 1.22712735 41.57145674 -21.49047852 53.78808594 C-24.63006265 55.5474036 -27.70185793 57.40015165 -30.74829102 59.31567383 C-31.34544922 59.68982422 -31.94260742 60.06397461 -32.55786133 60.44946289 C-47.39347367 69.84985357 -61.30487667 80.6619896 -75.24829102 91.31567383 C-82.22227608 96.64239351 -89.20879335 101.95070587 -96.24829102 107.19067383 C-97.03139648 107.77977539 -97.81450195 108.36887695 -98.62133789 108.97583008 C-102.20540967 111.62999757 -105.43807209 113.9644544 -109.74829102 115.31567383 C-110.16991901 110.11326393 -108.78116584 106.52762524 -106.45141602 101.99536133 C-106.10653137 101.30287292 -105.76164673 100.61038452 -105.40631104 99.89691162 C-104.2836279 97.65449039 -103.14233984 95.42226124 -101.99829102 93.19067383 C-101.21638669 91.64819503 -100.43448566 90.10571455 -99.65258789 88.56323242 C-89.41136397 68.47939032 -78.33819793 49.76051112 -62.74829102 33.31567383 C-61.86657227 32.36950195 -60.98485352 31.42333008 -60.07641602 30.44848633 C-43.46659914 12.98205177 -24.7420403 -0.07468251 0 0 Z " fill="#E79345" transform="translate(185.748291015625,85.684326171875)"/>
<path d="M0 0 C0.10546143 0.56283691 0.21092285 1.12567383 0.31958008 1.70556641 C4.1890441 22.3105148 8.74518617 42.30871826 15.0625 62.3125 C15.30199371 63.07167725 15.54148743 63.83085449 15.78823853 64.61303711 C17.51434404 70.07893089 19.25281245 75.54081039 21 81 C21.22788208 81.71218689 21.45576416 82.42437378 21.69055176 83.15814209 C26.53698969 98.27643165 31.55272112 113.21597802 38.00146484 127.73632812 C39.86021626 131.95010396 41.64532197 136.19509749 43.4375 140.4375 C43.77990723 141.23760498 44.12231445 142.03770996 44.47509766 142.86206055 C44.79140137 143.6075415 45.10770508 144.35302246 45.43359375 145.12109375 C45.71259521 145.7752124 45.99159668 146.42933105 46.27905273 147.10327148 C47 149 47 149 47.41040039 151.17993164 C47.60496826 151.7805542 47.79953613 152.38117676 48 153 C48.99 153.33 49.98 153.66 51 154 C47.87814705 157.52534136 44.50937843 159.48085106 40.296875 161.43359375 C39.63536438 161.74770706 38.97385376 162.06182037 38.29229736 162.38545227 C36.11636767 163.41348992 33.93397528 164.42667681 31.75 165.4375 C30.99525391 165.78937378 30.24050781 166.14124756 29.46289062 166.50378418 C-5.12411453 182.60644948 -40.98847499 196.59047335 -78 206 C-79.89202148 206.48678223 -79.89202148 206.48678223 -81.82226562 206.98339844 C-115.36125968 215.58096234 -149.2365935 221.17832883 -183.6875 224.6875 C-184.85522949 224.80689941 -186.02295898 224.92629883 -187.22607422 225.04931641 C-202.73887364 226.55632391 -218.22889624 227.16525708 -233.80859375 227.203125 C-234.61997362 227.20595238 -235.43135349 227.20877975 -236.26732063 227.21169281 C-240.57413152 227.22653412 -244.88091031 227.23585423 -249.18774414 227.24023438 C-252.65725425 227.24458314 -256.12651065 227.25835649 -259.59594727 227.28125 C-290.39376418 227.47999331 -320.68375577 225.7241078 -351.1875 221.3125 C-352.06535156 221.18783356 -352.94320312 221.06316711 -353.84765625 220.9347229 C-413.8893481 212.35323954 -472.69101991 196.61076989 -527.93408203 171.3984375 C-531.220292 169.89951962 -534.51410562 168.41812681 -537.80859375 166.9375 C-540.01865857 165.93844937 -542.2283076 164.93847833 -544.4375 163.9375 C-545.46939453 163.47206787 -546.50128906 163.00663574 -547.56445312 162.52709961 C-548.51126953 162.09405518 -549.45808594 161.66101074 -550.43359375 161.21484375 C-551.26947021 160.83448975 -552.10534668 160.45413574 -552.96655273 160.06225586 C-555 159 -555 159 -557 157 C-556.64754043 152.06419462 -554.85825749 147.71272241 -553.01171875 143.17578125 C-552.37233994 141.56795302 -551.73491433 139.95934712 -551.09912109 138.35009766 C-550.75862732 137.48837952 -550.41813354 136.62666138 -550.06732178 135.73883057 C-546.9262619 127.678627 -543.98377703 119.54097482 -541.0012207 111.42114258 C-539.80726501 108.1732594 -538.6078258 104.92743427 -537.40820312 101.68164062 C-532.77740145 89.11241615 -528.23507772 76.61001654 -525.125 63.5625 C-523.51365947 56.92473903 -521.74889226 50.33581984 -519.9375 43.75 C-516.89269063 32.63526928 -514.00087285 21.60774889 -512.0012207 10.25244141 C-511.10086603 5.20173205 -511.10086603 5.20173205 -510 3 C-505.84796226 4.39889444 -503.15462557 6.37176144 -499.875 9.25 C-489.22759612 18.12046731 -476.09576996 25.10793737 -462 25.25 C-454.01800278 25.56179677 -449.00973432 29.28805493 -442.77636719 33.76708984 C-435.49447925 38.82117644 -427.4700748 43.3713561 -419 46 C-417.80375 46.37125 -416.6075 46.7425 -415.375 47.125 C-411.55483213 48.06488257 -407.79766755 48.19370024 -403.875 48.375 C-397.52050404 48.78103808 -394.03496039 49.76326939 -389.58984375 54.50390625 C-376.87938566 67.96387538 -357.82803021 76.06732558 -341 83 C-340.00484375 83.44214844 -339.0096875 83.88429688 -337.984375 84.33984375 C-330.19147514 87.76746949 -322.2918128 90.10799658 -314 92 C-313.24106445 92.17418457 -312.48212891 92.34836914 -311.70019531 92.52783203 C-282.74442967 98.99567519 -252.37844339 99.88196308 -223 96 C-221.98647461 95.87109375 -220.97294922 95.7421875 -219.92871094 95.609375 C-187.16566572 91.35520141 -144.03106766 80.09146827 -121.1875 54 C-119.05716701 51.25235039 -119.05716701 51.25235039 -118 49 C-115.83874813 48.81483657 -113.66873734 48.73078362 -111.5 48.6875 C-92.26640965 47.7978303 -76.0204519 39.12860162 -60.90234375 27.78515625 C-56.951237 25.35493312 -53.76797125 24.89729628 -49.17578125 25.1640625 C-44.69148962 24.93240168 -41.2255474 23.24681419 -37.1875 21.375 C-36.38868408 21.01180664 -35.58986816 20.64861328 -34.7668457 20.27441406 C-27.96759484 17.11804039 -21.93258727 13.53268901 -16.25 8.625 C-14 7 -14 7 -11.625 7.1171875 C-8.20581152 6.96454516 -7.18205724 5.83923063 -4.75 3.5 C-1.05555556 0 -1.05555556 0 0 0 Z " fill="#E9BA8B" transform="translate(767,733)"/>
<path d="M0 0 C0.06184479 0.9093782 0.06184479 0.9093782 0.12493896 1.83712769 C0.56652125 8.29766194 1.02383238 14.75696108 1.48925781 21.21582031 C1.65974976 23.60845445 1.82656956 26.00135383 1.98925781 28.39453125 C2.87227117 41.34539377 3.9947749 54.19933136 5.9375 67.0390625 C6.09216736 68.07392792 6.24683472 69.10879333 6.40618896 70.17501831 C7.78738254 78.80717117 10.10014887 87.04923979 12.828125 95.34375 C14 99 14 99 14 101 C-26.64419563 114.04231165 -68.0967567 122.87104957 -110.4375 128.1875 C-111.6349585 128.34226807 -112.83241699 128.49703613 -114.06616211 128.65649414 C-140.02990869 131.77133072 -166.05126931 132.35434546 -192.16845703 132.31567383 C-195.54912638 132.311046 -198.92943552 132.3179786 -202.31005859 132.33618164 C-232.85238676 132.49871307 -262.93827196 130.68729836 -293.1875 126.3125 C-294.06535156 126.18783356 -294.94320312 126.06316711 -295.84765625 125.9347229 C-322.21589151 122.16603209 -348.26060902 116.91760737 -374.0625 110.3125 C-375.12162598 110.04208389 -375.12162598 110.04208389 -376.20214844 109.76620483 C-385.95633563 107.25594453 -395.48387576 104.29499538 -405 101 C-404.86424561 100.08637695 -404.72849121 99.17275391 -404.58862305 98.23144531 C-400.73719588 72.17278363 -397.43300101 46.17368683 -395.64575195 19.87695312 C-395.26053271 14.2183653 -394.77366515 8.61925213 -394 3 C-387.72195999 4.3419889 -382.28299304 6.78827796 -376.6875 9.875 C-302.14076838 50.62914705 -214.85067436 70.52208537 -131 51 C-130.21850586 50.82243164 -129.43701172 50.64486328 -128.63183594 50.46191406 C-122.71768578 49.10603411 -116.85422024 47.59379681 -111 46 C-110.10297363 45.75894531 -109.20594727 45.51789062 -108.28173828 45.26953125 C-73.5751865 35.76187862 -37.25434636 21.96222986 -6.765625 2.6796875 C-2.35348837 0 -2.35348837 0 0 0 Z " fill="#FEDBB3" transform="translate(709,828)"/>
<path d="M0 0 C0.68835938 0.31694824 1.37671875 0.63389648 2.0859375 0.96044922 C15.51564752 7.20703145 27.37269993 15.5683951 39.38671875 24.15673828 C42.95201773 26.6714998 46.59299382 29.05917736 50.25 31.4375 C57.26922599 36.03825653 64.05220054 41.05220054 70 47 C69.94728858 49.61076556 69.75894818 52.04285706 69.4375 54.625 C69.34235107 55.41116699 69.24720215 56.19733398 69.14916992 57.00732422 C65.98149613 81.31869146 59.64586187 100.70981795 46 121 C45.29488281 122.05703125 44.58976563 123.1140625 43.86328125 124.203125 C39.80520883 130.03909555 35.57466905 134.61990289 30 139 C28.86398141 139.92113315 27.72862019 140.84307735 26.59375 141.765625 C25.35519214 142.76169314 24.11560221 143.75647926 22.875 144.75 C22.28895996 145.22244141 21.70291992 145.69488281 21.09912109 146.18164062 C16.7593862 149.60253117 12.57946295 152.7367895 6.9375 153.3125 C1.19486465 150.74664165 -0.19563584 143.97830105 -2.4453125 138.4453125 C-14.22083778 109.92806215 -35.55131957 81.01739544 -57 59 C-57.78375 58.17757812 -58.5675 57.35515625 -59.375 56.5078125 C-66.30364538 49.38429897 -73.84880348 43.24121828 -81.66796875 37.1328125 C-82.29348633 36.64353271 -82.91900391 36.15425293 -83.56347656 35.65014648 C-84.78289076 34.69841245 -86.00477537 33.74983237 -87.22949219 32.80493164 C-90.35988056 30.37192922 -93.27030311 27.87724807 -96 25 C-90.19175962 19.57766864 -84.03315834 15.15993663 -77.3125 10.9375 C-75.85493286 10.01843872 -75.85493286 10.01843872 -74.36791992 9.08081055 C-52.16513572 -4.73141886 -24.82776491 -11.9510842 0 0 Z " fill="#C46245" transform="translate(832,147)"/>
<path d="M0 0 C0.67949707 0.26280762 1.35899414 0.52561523 2.05908203 0.79638672 C14.22478399 5.64372586 24.58736682 12.88766158 35.09326172 20.61474609 C36.7008642 21.7826765 38.34665782 22.89777188 40 24 C39.74880238 27.23601643 38.94316731 28.04953308 36.4453125 30.2265625 C35.34481171 31.03465076 34.23758347 31.83362989 33.125 32.625 C26.68581524 37.38037751 20.87086507 42.55309065 15 48 C13.63063672 49.21471752 12.25612208 50.42366896 10.875 51.625 C10.24207031 52.17929688 9.60914063 52.73359375 8.95703125 53.3046875 C7.59001141 54.48889231 6.21138636 55.65977371 4.82421875 56.8203125 C-1.23250183 61.98787721 -6.09547726 67.74929205 -11 74 C-11.59143799 74.72928711 -12.18287598 75.45857422 -12.79223633 76.20996094 C-30.83343726 98.49061428 -45.71484201 123.12120565 -58 149 C-58.33 149.66 -58.66 150.32 -59 151 C-70.88939 149.57748805 -79.77352229 141.08352154 -88 133 C-89.24716797 131.80697266 -89.24716797 131.80697266 -90.51953125 130.58984375 C-93.1998202 127.79136883 -95.51341764 124.84089182 -97.75 121.6875 C-98.17684082 121.08647461 -98.60368164 120.48544922 -99.04345703 119.86621094 C-113.64103798 98.89867859 -119.98493257 77.34742716 -122 52 C-122.1546875 50.80761719 -122.309375 49.61523438 -122.46875 48.38671875 C-121.87804398 44.11886776 -120.57571859 43.08771193 -117.27734375 40.52490234 C-116.60832031 40.04230957 -115.93929687 39.5597168 -115.25 39.0625 C-114.56550781 38.54381348 -113.88101563 38.02512695 -113.17578125 37.49072266 C-107.28447278 33.07361265 -101.18631137 28.98989431 -95 25 C-93.88480351 24.25154375 -92.77159741 23.50011531 -91.66015625 22.74609375 C-84.28288474 17.74619173 -76.80229538 12.91884027 -69.25 8.1875 C-67.97394897 7.37889526 -67.97394897 7.37889526 -66.67211914 6.55395508 C-45.71704979 -6.47096748 -23.11781416 -9.1247275 0 0 Z " fill="#E17755" transform="translate(245,148)"/>
<path d="M0 0 C0.10546143 0.56283691 0.21092285 1.12567383 0.31958008 1.70556641 C4.1890441 22.3105148 8.74518617 42.30871826 15.0625 62.3125 C15.42174057 63.45126587 15.42174057 63.45126587 15.78823853 64.61303711 C17.51434404 70.07893089 19.25281245 75.54081039 21 81 C21.22788208 81.71218689 21.45576416 82.42437378 21.69055176 83.15814209 C26.53698969 98.27643165 31.55272112 113.21597802 38.00146484 127.73632812 C39.86021626 131.95010396 41.64532197 136.19509749 43.4375 140.4375 C43.77990723 141.23760498 44.12231445 142.03770996 44.47509766 142.86206055 C44.79140137 143.6075415 45.10770508 144.35302246 45.43359375 145.12109375 C45.71259521 145.7752124 45.99159668 146.42933105 46.27905273 147.10327148 C47 149 47 149 47.41040039 151.17993164 C47.60496826 151.7805542 47.79953613 152.38117676 48 153 C48.99 153.33 49.98 153.66 51 154 C47.87815917 157.52532767 44.50938831 159.48089982 40.296875 161.43359375 C39.63482056 161.74788834 38.97276611 162.06218292 38.29064941 162.38600159 C36.1151762 163.41363938 33.93328749 164.42658036 31.75 165.4375 C30.99924194 165.78804443 30.24848389 166.13858887 29.47497559 166.49975586 C13.5513843 173.92632951 -2.61925612 180.65378848 -19 187 C-20.14210938 187.4444043 -21.28421875 187.88880859 -22.4609375 188.34667969 C-25.5510222 189.54032583 -28.64759023 190.71381533 -31.75 191.875 C-32.64299805 192.2153125 -33.53599609 192.555625 -34.45605469 192.90625 C-35.26977539 193.20273437 -36.08349609 193.49921875 -36.921875 193.8046875 C-37.61893555 194.06233887 -38.31599609 194.31999023 -39.03417969 194.58544922 C-41.42714171 195.09007534 -42.75428994 194.97141539 -45 194 C-46.25391025 191.1442194 -47.16404797 188.54605261 -48 185.5625 C-48.25491211 184.67651123 -48.50982422 183.79052246 -48.77246094 182.87768555 C-50.7192106 175.76149312 -52.10458702 168.59730433 -53.25 161.3125 C-53.40082031 160.36125244 -53.55164063 159.41000488 -53.70703125 158.42993164 C-54.20788223 154.95979015 -54.62518674 151.48554366 -55 148 C-55.0875354 147.18873657 -55.1750708 146.37747314 -55.26525879 145.54162598 C-57.09970006 127.77655279 -57.31401777 110.08756192 -57.26074219 92.25048828 C-57.24928771 88.38153443 -57.25614907 84.51285418 -57.26764679 80.64390945 C-57.34029859 51.63846719 -57.34029859 51.63846719 -55.42871094 37.52490234 C-54.88232433 33.03245936 -54.56102931 29.31691206 -56 25 C-54.72125 25.165 -53.4425 25.33 -52.125 25.5 C-39.54239422 25.53589902 -25.47595709 16.59287203 -16.25 8.625 C-14 7 -14 7 -11.625 7.1171875 C-8.20581152 6.96454516 -7.18205724 5.83923063 -4.75 3.5 C-1.05555556 0 -1.05555556 0 0 0 Z " fill="#E79345" transform="translate(767,733)"/>
<path d="M0 0 C4.15203774 1.39889444 6.84537443 3.37176144 10.125 6.25 C23.5714887 17.45241515 37.75636173 22.12950266 55 23 C58.16544265 70.14660497 58.08311775 115.15126893 52.5 162.0625 C52.39853668 162.92904205 52.29707336 163.79558411 52.1925354 164.68838501 C51.05408165 174.31432888 49.70904584 183.66147213 47 193 C38.0573437 190.79170665 29.47919592 187.75335267 20.875 184.5 C20.17713379 184.23744415 19.47926758 183.97488831 18.76025391 183.70437622 C6.33808728 179.02010771 -5.85468861 173.91134121 -17.93408203 168.3984375 C-21.220292 166.89951962 -24.51410562 165.41812681 -27.80859375 163.9375 C-30.01865857 162.93844937 -32.2283076 161.93847833 -34.4375 160.9375 C-35.46939453 160.47206787 -36.50128906 160.00663574 -37.56445312 159.52709961 C-38.51126953 159.09405518 -39.45808594 158.66101074 -40.43359375 158.21484375 C-41.26947021 157.83448975 -42.10534668 157.45413574 -42.96655273 157.06225586 C-45 156 -45 156 -47 154 C-46.64754043 149.06419462 -44.85825749 144.71272241 -43.01171875 140.17578125 C-42.37233994 138.56795302 -41.73491433 136.95934712 -41.09912109 135.35009766 C-40.75862732 134.48837952 -40.41813354 133.62666138 -40.06732178 132.73883057 C-36.9262619 124.678627 -33.98377703 116.54097482 -31.0012207 108.42114258 C-29.80726501 105.1732594 -28.6078258 101.92743427 -27.40820312 98.68164062 C-22.77740145 86.11241615 -18.23507772 73.61001654 -15.125 60.5625 C-13.51365947 53.92473903 -11.74889226 47.33581984 -9.9375 40.75 C-6.89269063 29.63526928 -4.00087285 18.60774889 -2.0012207 7.25244141 C-1.10086603 2.20173205 -1.10086603 2.20173205 0 0 Z " fill="#E79345" transform="translate(257,736)"/>
<path d="M0 0 C1.0209375 -0.01611328 2.041875 -0.03222656 3.09375 -0.04882812 C19.22890834 -0.05906617 34.11974966 6.20923751 45.7109375 17.44140625 C60.28385129 33.92000877 63.46911621 50.8719562 62.25 72.3125 C60.76506206 86.96058781 50.40901348 101.45204414 39.828125 111.234375 C25.61221674 122.69325863 9.10921153 126.12486772 -8.75 124.3125 C-25.06042709 121.81457677 -38.91836416 111.50083058 -49.57421875 99.29296875 C-60.85189588 83.84437333 -63.57029885 67.48717318 -61.3203125 48.73046875 C-58.62570933 36.30535414 -51.6632952 26.13197104 -42.75 17.3125 C-42.15960938 16.68859375 -41.56921875 16.0646875 -40.9609375 15.421875 C-30.02780041 4.72955591 -14.91062242 -0.04636388 0 0 Z " fill="#1F1C13" transform="translate(325.75,362.6875)"/>
<path d="M0 0 C15.21936902 10.01005479 25.69192803 23.77522026 30.5 41.375 C33.97529443 58.70960111 31.9827057 75.00430396 22.2109375 89.984375 C21.68757812 90.73203125 21.16421875 91.4796875 20.625 92.25 C20.10164062 93.01828125 19.57828125 93.7865625 19.0390625 94.578125 C12.17826525 104.04795783 3.51751823 110.16530566 -7.375 114.25 C-8.179375 114.5696875 -8.98375 114.889375 -9.8125 115.21875 C-24.76545929 120.26537376 -42.36869749 118.09341495 -56.4375 111.625 C-72.47775946 103.11213028 -83.26763101 89.73783324 -89.015625 72.61328125 C-90.67532501 66.87489396 -90.87134046 61.38228412 -90.8125 55.4375 C-90.80637695 54.38304687 -90.80025391 53.32859375 -90.79394531 52.2421875 C-90.63399576 44.25947451 -89.63580743 37.60656208 -86.375 30.25 C-86.07464844 29.51265625 -85.77429688 28.7753125 -85.46484375 28.015625 C-78.61180894 12.70754724 -64.75229924 1.36700105 -49.4375 -4.625 C-32.77024434 -10.7410525 -15.42809502 -8.60320563 0 0 Z " fill="#1F1C13" transform="translate(727.375,370.75)"/>
<path d="M0 0 C5.72938232 3.64577055 11.28467983 7.53144216 16.8203125 11.46289062 C21.90763919 15.05045882 27.10227981 18.47993894 32.31054688 21.88867188 C33.90794867 22.93944831 35.49344234 24.0082631 37.078125 25.078125 C44.72379068 30.05760983 52.66024666 33.61147961 61.10595703 37.03149414 C62.42249268 37.56891235 62.42249268 37.56891235 63.765625 38.1171875 C64.95333496 38.59067627 64.95333496 38.59067627 66.16503906 39.07373047 C68 40 68 40 69 42 C24.53676096 70.47556275 -36.34104222 77.98117975 -87.42260742 66.94091797 C-108.0936678 62.05591838 -132.87429492 55.10270095 -150 42 C-150 41.34 -150 40.68 -150 40 C-148.97003906 39.68289063 -147.94007813 39.36578125 -146.87890625 39.0390625 C-135.60873078 35.40972926 -125.93822143 30.38971583 -116 24 C-115.37947754 23.60296875 -114.75895508 23.2059375 -114.11962891 22.796875 C-108.03227595 18.87482209 -102.07643817 14.77672775 -96.1796875 10.57421875 C-82.11841513 0.56289562 -68.91463403 -8.68187763 -52 -13 C-50.707279 -13.41338398 -49.41539325 -13.82940619 -48.125 -14.25 C-31.35175553 -18.27557867 -13.79835498 -8.3540711 0 0 Z " fill="#E9BB8C" transform="translate(552,741)"/>
<path d="M0 0 C0.81855469 0.66644531 1.63710938 1.33289063 2.48046875 2.01953125 C3.47433594 2.79941406 4.46820312 3.57929687 5.4921875 4.3828125 C33.18454877 26.6438923 52.13904379 55.64581603 67.04296875 87.58203125 C67.47295166 88.48590576 67.90293457 89.38978027 68.34594727 90.32104492 C70.92610543 95.99277702 72.12010057 100.79211624 72.48046875 107.01953125 C63.01901717 99.96982223 53.68069699 92.76520367 44.41796875 85.45703125 C38.73976225 80.98515234 33.01979307 76.57798597 27.20166016 72.28857422 C25.97058028 71.38089292 24.741287 70.47078649 23.51318359 69.55908203 C12.16797028 61.15298886 0.55159265 53.34562282 -11.51953125 46.01953125 C-12.16937988 45.62362793 -12.81922852 45.22772461 -13.48876953 44.81982422 C-26.46305881 36.97626102 -40.08532658 31.50079164 -54.51953125 27.01953125 C-56.13601563 26.46458984 -56.13601563 26.46458984 -57.78515625 25.8984375 C-81.58596155 20.29678353 -106.49998627 27.35932349 -126.70703125 39.83203125 C-138.63199116 47.44008055 -149.29598223 56.26659004 -159.51953125 66.01953125 C-160.41478516 66.76976562 -160.41478516 66.76976562 -161.328125 67.53515625 C-163.48873351 70.22706194 -162.97298194 73.19118878 -162.890625 76.5 C-162.34150058 80.2282658 -160.92361588 82.16468075 -158.51953125 85.01953125 C-158.84953125 85.67953125 -159.17953125 86.33953125 -159.51953125 87.01953125 C-160.38191406 86.47425781 -161.24429688 85.92898437 -162.1328125 85.3671875 C-169.38915438 80.85354305 -176.77732124 76.70948784 -184.45703125 72.95703125 C-185.23667236 72.56330322 -186.01631348 72.1695752 -186.81958008 71.76391602 C-193.06024875 68.78763806 -198.74180729 67.76028993 -205.51953125 70.01953125 C-204.03539395 66.53298649 -202.05739073 64.37762053 -199.33203125 61.76953125 C-195.89314082 58.40706061 -192.6677051 54.97308061 -189.5390625 51.32421875 C-186.39255841 47.73343072 -183.12914832 44.25108537 -179.86987305 40.76269531 C-177.45990754 38.17143693 -175.13359304 35.56404674 -172.921875 32.80078125 C-148.7773955 4.84814808 -88.34769032 -6.04193803 -53.51953125 -9.98046875 C-52.75858154 -10.06965576 -51.99763184 -10.15884277 -51.21362305 -10.25073242 C-33.82259906 -12.24963809 -14.65122956 -10.69143778 0 0 Z " fill="#BD713A" transform="translate(875.51953125,95.98046875)"/>
<path d="M0 0 C2.1527972 0.00312104 4.30416316 -0.02020139 6.45678711 -0.0456543 C21.1741438 -0.11580979 34.70263406 2.87123598 48.81420898 7.00317383 C50.61257202 7.52536499 50.61257202 7.52536499 52.44726562 8.05810547 C82.74772878 16.97991966 117.60387307 27.33259034 140.25170898 50.31567383 C141.91594954 51.65203416 143.58237579 52.9856805 145.25170898 54.31567383 C146.32980536 55.42729952 147.37326013 56.5737274 148.37670898 57.75317383 C148.95807617 58.43250977 149.53944336 59.1118457 150.13842773 59.81176758 C150.83581055 60.63805664 151.53319336 61.4643457 152.25170898 62.31567383 C153.21635225 63.45256271 154.18121143 64.58926842 155.14624023 65.72583008 C157.85363001 68.91776875 160.55402571 72.11552876 163.25170898 75.31567383 C162.92170898 75.97567383 162.59170898 76.63567383 162.25170898 77.31567383 C161.07608398 77.54254883 159.90045898 77.76942383 158.68920898 78.00317383 C144.61418006 80.94755389 133.32079473 88.52083989 122.25170898 97.31567383 C122.25170898 94.31567383 122.25170898 94.31567383 124.25170898 91.56567383 C126.66694982 87.64090746 126.78889252 85.85995615 126.25170898 81.31567383 C124.65268917 78.99933671 123.28098777 77.31457016 121.31420898 75.37817383 C120.80913818 74.85876221 120.30406738 74.33935059 119.78369141 73.80419922 C118.29234759 72.28697627 116.77712162 70.79854094 115.25170898 69.31567383 C114.53499023 68.6015332 113.81827148 67.88739258 113.07983398 67.15161133 C97.54694517 52.52179744 78.52935848 43.31713063 58.25170898 37.31567383 C57.22561523 36.99598633 56.19952148 36.67629883 55.14233398 36.34692383 C29.02197257 28.88396342 1.22712735 41.57145674 -21.49047852 53.78808594 C-24.63006265 55.5474036 -27.70185793 57.40015165 -30.74829102 59.31567383 C-31.34544922 59.68982422 -31.94260742 60.06397461 -32.55786133 60.44946289 C-47.39347367 69.84985357 -61.30487667 80.6619896 -75.24829102 91.31567383 C-82.22227608 96.64239351 -89.20879335 101.95070587 -96.24829102 107.19067383 C-97.03139648 107.77977539 -97.81450195 108.36887695 -98.62133789 108.97583008 C-102.20540967 111.62999757 -105.43807209 113.9644544 -109.74829102 115.31567383 C-110.16991901 110.11326393 -108.78116584 106.52762524 -106.45141602 101.99536133 C-106.10653137 101.30287292 -105.76164673 100.61038452 -105.40631104 99.89691162 C-104.2836279 97.65449039 -103.14233984 95.42226124 -101.99829102 93.19067383 C-101.21638669 91.64819503 -100.43448566 90.10571455 -99.65258789 88.56323242 C-89.41136397 68.47939032 -78.33819793 49.76051112 -62.74829102 33.31567383 C-61.86657227 32.36950195 -60.98485352 31.42333008 -60.07641602 30.44848633 C-43.46659914 12.98205177 -24.7420403 -0.07468251 0 0 Z " fill="#BE713A" transform="translate(185.748291015625,85.684326171875)"/>
<path d="M0 0 C3.40430774 0.64433246 6.79342579 0.73530084 10.24609375 0.87109375 C24.45802742 1.54269427 39.54782285 5.86737862 51.62109375 13.49609375 C51.95109375 12.83609375 52.28109375 12.17609375 52.62109375 11.49609375 C53.33724135 33.06645959 43.31110621 52.11408569 31.62109375 69.49609375 C30.91597656 70.553125 30.21085938 71.61015625 29.484375 72.69921875 C25.42630258 78.5351893 21.1957628 83.11599664 15.62109375 87.49609375 C14.48507516 88.4172269 13.34971394 89.3391711 12.21484375 90.26171875 C10.97628589 91.25778689 9.73669596 92.25257301 8.49609375 93.24609375 C7.91005371 93.71853516 7.32401367 94.19097656 6.72021484 94.67773438 C2.38047995 98.09862492 -1.7994433 101.23288325 -7.44140625 101.80859375 C-13.1840416 99.2427354 -14.57454209 92.4743948 -16.82421875 86.94140625 C-26.59654892 63.27537187 -42.99532512 42.76205258 -58.37890625 22.49609375 C-58.08242188 21.90570313 -57.7859375 21.3153125 -57.48046875 20.70703125 C-56.5564861 18.85251288 -55.6527511 16.98792536 -54.75390625 15.12109375 C-50.23994954 7.45557453 -43.15455746 4.6642137 -34.87890625 2.375 C-33.14640625 1.93994141 -33.14640625 1.93994141 -31.37890625 1.49609375 C-29.61546875 1.04556641 -29.61546875 1.04556641 -27.81640625 0.5859375 C-18.14980065 -1.69292237 -9.64286992 -2.49236388 0 0 Z " fill="#E17754" transform="translate(846.37890625,198.50390625)"/>
<path d="M0 0 C0.67949707 0.26280762 1.35899414 0.52561523 2.05908203 0.79638672 C14.22478399 5.64372586 24.58736682 12.88766158 35.09326172 20.61474609 C36.7008642 21.7826765 38.34665782 22.89777188 40 24 C39.74880238 27.23601643 38.94316731 28.04953308 36.4453125 30.2265625 C35.34481171 31.03465076 34.23758347 31.83362989 33.125 32.625 C26.68581524 37.38037751 20.87086507 42.55309065 15 48 C13.63063672 49.21471752 12.25612208 50.42366896 10.875 51.625 C9.93140625 52.44871094 9.93140625 52.44871094 8.96875 53.2890625 C7.55563849 54.5171237 6.13848956 55.74054493 4.71875 56.9609375 C0.03858183 61.03268381 -4.08689486 65.18387059 -8 70 C-9.12956998 69.23587913 -10.25348978 68.46340197 -11.375 67.6875 C-12.00148438 67.25824219 -12.62796875 66.82898438 -13.2734375 66.38671875 C-15 65 -15 65 -17 62 C-17 60.68 -17 59.36 -17 58 C-22.73900481 56.25449623 -28.49014268 54.55037251 -34.25 52.875 C-35.38953125 52.54242188 -36.5290625 52.20984375 -37.703125 51.8671875 C-45.05550099 49.9332687 -52.066709 49.81678961 -59.625 49.8125 C-60.73746094 49.80025391 -61.84992188 49.78800781 -62.99609375 49.77539062 C-73.38179686 49.75725494 -83.24838204 51.18571954 -93.1875 54.1875 C-94.23828735 54.49917114 -94.23828735 54.49917114 -95.31030273 54.81713867 C-103.43040733 57.31153809 -111.21615191 60.6195303 -119 64 C-122.36079266 58.95881102 -123.15828413 53.04240651 -122.59179688 47.05517578 C-120.65923942 40.34384383 -112.53567803 36.48950026 -107 33 C-105.96230469 32.28585938 -104.92460937 31.57171875 -103.85546875 30.8359375 C-100.93833676 28.83265397 -97.97377758 26.91795361 -95 25 C-93.88480351 24.25154375 -92.77159741 23.50011531 -91.66015625 22.74609375 C-84.28288474 17.74619173 -76.80229538 12.91884027 -69.25 8.1875 C-67.97394897 7.37889526 -67.97394897 7.37889526 -66.67211914 6.55395508 C-45.71704979 -6.47096748 -23.11781416 -9.1247275 0 0 Z " fill="#C56245" transform="translate(245,148)"/>
<path d="M0 0 C2.51116172 1.78387036 5.04110517 3.53895324 7.57421875 5.29150391 C9.39724674 6.5556663 11.22016475 7.81998731 13.04296875 9.08447266 C13.90962158 9.68412842 14.77627441 10.28378418 15.66918945 10.90161133 C16.88481567 11.75009644 16.88481567 11.75009644 18.125 12.61572266 C18.84534424 13.11652344 19.56568848 13.61732422 20.30786133 14.13330078 C22.13638782 15.51346097 23.73272411 16.85058253 25.23046875 18.58447266 C25.23046875 19.24447266 25.23046875 19.90447266 25.23046875 20.58447266 C26.22046875 20.91447266 27.21046875 21.24447266 28.23046875 21.58447266 C-18.46239759 38.32026704 -73.08417979 41.00597549 -119.76953125 22.58447266 C-120.42953125 21.92447266 -121.08953125 21.26447266 -121.76953125 20.58447266 C-120.77953125 20.58447266 -119.78953125 20.58447266 -118.76953125 20.58447266 C-118.47369141 19.75302734 -118.47369141 19.75302734 -118.171875 18.90478516 C-116.18824614 15.62268058 -113.38021999 13.68611216 -110.33203125 11.45947266 C-109.64898926 10.95520752 -108.96594727 10.45094238 -108.26220703 9.93139648 C-101.90496867 5.30102721 -95.42001658 0.85239727 -88.89962769 -3.54412842 C-87.74951358 -4.31993699 -86.60095278 -5.09805442 -85.45413208 -5.87872314 C-52.66470968 -28.1427223 -30.90638168 -22.0980629 0 0 Z " fill="#FEDBB3" transform="translate(558.76953125,777.41552734375)"/>
<path d="M0 0 C4.15203774 1.39889444 6.84537443 3.37176144 10.125 6.25 C23.5714887 17.45241515 37.75636173 22.12950266 55 23 C58.29327421 72.05054849 58.29327421 72.05054849 58.3125 90.875 C58.32023437 92.67735107 58.32023437 92.67735107 58.328125 94.51611328 C58.26193934 102.47612133 58.26193934 102.47612133 56 107 C56 102.38 56 97.76 56 93 C54.35 92.34 52.7 91.68 51 91 C42.5767829 86.77385195 34.24623832 82.04697743 27 76 C26.03126953 75.24589844 26.03126953 75.24589844 25.04296875 74.4765625 C21.35470622 71.51693839 19.66800821 69.49079135 18 65 C17.40960938 64.89171875 16.81921875 64.7834375 16.2109375 64.671875 C12.97454721 63.6883783 11.85631015 61.71684725 9.8125 59.0625 C2.57708497 49.78551365 2.57708497 49.78551365 -5.734375 41.49609375 C-7.94855649 38.87871254 -7.39257993 36.14263772 -7.29296875 32.85546875 C-6.88713016 28.89989525 -5.9150351 25.20318465 -4.86328125 21.375 C-3.66989594 16.70945744 -2.83547841 11.99655642 -2.00268555 7.25537109 C-1.09859237 2.19718474 -1.09859237 2.19718474 0 0 Z " fill="#C87C3D" transform="translate(257,736)"/>
<path d="M0 0 C0.10546143 0.56283691 0.21092285 1.12567383 0.31958008 1.70556641 C2.22078612 11.82951435 4.13190939 21.94002062 6.38671875 31.9921875 C8.57434619 42.72131573 8.57434619 42.72131573 7 46 C5.0234375 47.6484375 5.0234375 47.6484375 2.375 49.375 C-2.61095493 52.84770791 -7.02705049 56.63643309 -11.4375 60.8125 C-12.07977539 61.41868164 -12.72205078 62.02486328 -13.38378906 62.64941406 C-15.78795768 64.92723931 -18.18504607 67.2119825 -20.56591797 69.51416016 C-26.63411992 75.37556071 -32.87938677 80.55633719 -39.75 85.4375 C-40.44722168 85.9339502 -41.14444336 86.43040039 -41.86279297 86.94189453 C-53.47230126 95 -53.47230126 95 -57 95 C-57.05030976 89.36646758 -57.08613841 83.73307245 -57.10986328 78.09936523 C-57.11977772 76.19211544 -57.13331329 74.28488022 -57.15087891 72.37768555 C-57.25481245 60.78298148 -56.86153062 49.47441874 -55.43310547 37.9621582 C-54.92536722 33.31724051 -54.51471926 29.45584223 -56 25 C-54.72125 25.165 -53.4425 25.33 -52.125 25.5 C-39.54239422 25.53589902 -25.47595709 16.59287203 -16.25 8.625 C-14 7 -14 7 -11.625 7.1171875 C-8.20581152 6.96454516 -7.18205724 5.83923063 -4.75 3.5 C-1.05555556 0 -1.05555556 0 0 0 Z " fill="#C77C3D" transform="translate(767,733)"/>
<path d="M0 0 C4.43894337 3.12909123 8.18537116 6.65589857 10.64453125 11.57421875 C10.99965962 16.98992635 11.01153074 20.0848861 7.64453125 24.57421875 C3.05688534 23.91757311 -0.87123029 22.11531079 -5.04296875 20.19921875 C-18.21444891 13.96379953 -18.21444891 13.96379953 -32.35546875 14.57421875 C-41.46552075 18.45938799 -49.1659625 24.50439529 -56.25 31.34375 C-56.73662109 31.80749023 -57.22324219 32.27123047 -57.72460938 32.74902344 C-59.10170355 34.07300911 -60.45770262 35.41883233 -61.8125 36.765625 C-64.35546875 38.57421875 -64.35546875 38.57421875 -66.87890625 38.515625 C-71.2327632 36.86060998 -74.93343073 34.75901464 -78.35546875 31.57421875 C-79.41796875 28.26171875 -79.41796875 28.26171875 -78.35546875 24.57421875 C-70.20319816 11.90092495 -53.05520784 0.4685152 -39.08203125 -4.6171875 C-26.30994261 -7.38848975 -11.32390035 -6.85443388 0 0 Z " fill="#754C26" transform="translate(396.35546875,284.42578125)"/>
<path d="M0 0 C0.76183594 0.23332031 1.52367187 0.46664063 2.30859375 0.70703125 C15.1737861 5.21499465 25.38206292 14.67574039 35 24 C35.76828125 24.69480469 36.5365625 25.38960938 37.328125 26.10546875 C39 28 39 28 39.1875 31.5 C37.89389799 35.3127217 36.68082283 36.44304918 33.1796875 38.37109375 C29.94544711 39.30427064 27.3531466 39.32554821 24 39 C21.04296875 37.27734375 21.04296875 37.27734375 18.1875 34.9375 C17.14011936 34.10706741 16.09193073 33.27765296 15.04296875 32.44921875 C14.03878906 31.64097656 13.03460937 30.83273437 12 30 C3.30449505 23.31013504 -6.5099827 16.82919768 -17.91796875 17.296875 C-24.77875174 18.86207264 -30.90063607 22.5938617 -37 26 C-39.90295805 27.45147903 -41.77261779 27.37239025 -45 27 C-48.375 24.9375 -48.375 24.9375 -51 22 C-51.90836738 17.09481614 -50.84525994 13.94937301 -48.31982422 9.703125 C-46.01988579 6.73524293 -43.07635487 5.30420142 -39.75 3.6875 C-39.11964844 3.35427734 -38.48929688 3.02105469 -37.83984375 2.67773438 C-26.23714334 -3.2417696 -12.40083066 -4.00998823 0 0 Z " fill="#744C26" transform="translate(665,281)"/>
<path d="M0 0 C4.99877131 2.81748928 8.60533165 6.44099496 10.4375 11.9375 C11.21264301 18.49444743 10.31462917 22.59334898 6.4375 27.9375 C1.29634871 32.70246949 -2.94773573 33.34828485 -9.765625 33.28515625 C-15.12109633 32.61946219 -18.04340154 29.70978154 -21.4375 25.75 C-23.39657163 20.85232093 -24.3928343 15.81173413 -22.90234375 10.65234375 C-20.91535397 6.34853997 -18.58737564 3.55366916 -14.5625 0.9375 C-13.634375 0.31875 -13.634375 0.31875 -12.6875 -0.3125 C-8.24599298 -1.88009071 -4.43794385 -1.32359729 0 0 Z " fill="#FCFBFB" transform="translate(687.5625,390.0625)"/>
<path d="M0 0 C4.44387139 2.49803421 6.99147627 5.75862485 8.8125 10.5 C9.92055887 16.118741 8.86528142 20.81518231 6.08984375 25.7734375 C3.41421781 29.39003281 -0.01444074 31.10898025 -4.1875 32.5 C-8.79810212 33.03570806 -12.24081196 32.97334402 -16.4375 30.875 C-20.28284416 27.55402095 -23.54664184 24.42257447 -25.1875 19.5 C-25.55573488 13.88441811 -25.42641406 10.30613054 -22.1875 5.5 C-15.74399674 -1.00443473 -8.86001497 -3.80913522 0 0 Z " fill="#FCFCFC" transform="translate(322.1875,389.5)"/>
<path d="M0 0 C0.33 0 0.66 0 1 0 C1.268125 1.11375 1.53625 2.2275 1.8125 3.375 C4.00170849 12.04124604 6.7900015 20.34579624 10.10644531 28.64257812 C10.79377003 30.40753897 11.40356315 32.20228892 12 34 C11.67 34.66 11.34 35.32 11 36 C9.39490066 34.56354149 7.79095576 33.12579294 6.1875 31.6875 C5.29417969 30.88699219 4.40085937 30.08648438 3.48046875 29.26171875 C2.66191406 28.51535156 1.84335937 27.76898437 1 27 C0.40445312 26.50886719 -0.19109375 26.01773438 -0.8046875 25.51171875 C-3.45556364 22.1591401 -2.29954885 17.0316329 -2 13 C-1.44904743 8.64417843 -0.76962108 4.32224696 0 0 Z " fill="#C37B3D" transform="translate(267,685)"/>
<path d="M0 0 C5.26353807 2.66796232 9.07754185 6.73417745 13.1875 10.875 C13.94345459 11.63514404 14.69940918 12.39528809 15.47827148 13.1784668 C24.98723597 22.87889378 32.65131149 33.6074801 40 45 C39.01 45 38.02 45 37 45 C35.2062536 42.63964789 33.59648562 40.30152015 32 37.8125 C23.7739662 25.44187407 13.82814145 12.12664557 1.68359375 3.3203125 C1.12800781 2.88460937 0.57242188 2.44890625 0 2 C0 1.34 0 0.68 0 0 Z " fill="#C7773B" transform="translate(884,104)"/>
<path d="M0 0 C0.33 0 0.66 0 1 0 C1.57754495 8.91069345 2.10260481 17.81902581 2.1875 26.75 C2.20167969 28.00296875 2.21585938 29.2559375 2.23046875 30.546875 C1.99819416 34.02705695 1.25695995 36.76071981 0 40 C-0.33 40 -0.66 40 -1 40 C-1.11527017 26.62334 -1.00295086 13.34282847 0 0 Z " fill="#2E251B" transform="translate(739,628)"/>
<path d="M0 0 C5.00860026 0.01351849 9.78592529 0.06878959 14.70703125 1.1328125 C11.28244206 3.22378763 8.67026105 3.26772057 4.70703125 3.2578125 C0.50904229 3.44144609 0.50904229 3.44144609 -2.859375 5.62109375 C-3.95713251 7.76925452 -4.64850537 9.80746801 -5.29296875 12.1328125 C-5.58558594 13.04160156 -5.87820313 13.95039063 -6.1796875 14.88671875 C-6.93555804 17.29113952 -7.63494304 19.7001114 -8.29296875 22.1328125 C-8.62296875 22.1328125 -8.95296875 22.1328125 -9.29296875 22.1328125 C-8.99761604 16.22575836 -7.41294782 0.42937006 0 0 Z " fill="#F0E0C6" transform="translate(472.29296875,159.8671875)"/>
<path d="M0 0 C0.33 0 0.66 0 1 0 C1.02684312 2.81256281 1.04676188 5.62487241 1.0625 8.4375 C1.07087891 9.23994141 1.07925781 10.04238281 1.08789062 10.86914062 C1.0965143 12.91295221 1.0522815 14.95683902 1 17 C0.67 17.33 0.34 17.66 0 18 C-0.22623521 19.48437809 -0.39412965 20.97777425 -0.53515625 22.47265625 C-0.62216797 23.37177734 -0.70917969 24.27089844 -0.79882812 25.19726562 C-0.88583984 26.14279297 -0.97285156 27.08832031 -1.0625 28.0625 C-1.15337891 29.01189453 -1.24425781 29.96128906 -1.33789062 30.93945312 C-1.56256498 33.29262135 -1.78308182 35.64610619 -2 38 C-2.33 38 -2.66 38 -3 38 C-3.24715053 29.70672672 -2.89564079 21.62234324 -2.0625 13.375 C-1.97564941 12.51036133 -1.88879883 11.64572266 -1.79931641 10.75488281 C-1.40805088 7.07944588 -0.96264222 3.57552826 0 0 Z " fill="#FEECCF" transform="translate(455,226)"/>
<path d="M0 0 C-1 2 -1 2 -2.6796875 2.5625 C-3.40414062 2.706875 -4.12859375 2.85125 -4.875 3 C-5.67550781 3.16242187 -6.47601562 3.32484375 -7.30078125 3.4921875 C-11.86338824 4.35056508 -16.42735685 5.19658232 -21 6 C-21 5.34 -21 4.68 -21 4 C-17.87808127 3.13428401 -14.75206694 2.28441396 -11.625 1.4375 C-10.73554687 1.19064453 -9.84609375 0.94378906 -8.9296875 0.68945312 C-8.07890625 0.46064453 -7.228125 0.23183594 -6.3515625 -0.00390625 C-5.56604004 -0.21861572 -4.78051758 -0.4333252 -3.97119141 -0.65454102 C-2 -1 -2 -1 0 0 Z " fill="#18130E" transform="translate(706,935)"/>
<path d="M0 0 C-0.99 1.485 -0.99 1.485 -2 3 C-4.2421875 3.36328125 -4.2421875 3.36328125 -6.875 3.3125 C-7.73867188 3.30863281 -8.60234375 3.30476562 -9.4921875 3.30078125 C-12.0852226 2.9897786 -13.75999753 2.30753633 -16 1 C-10.63904667 -0.12862175 -5.44693314 -0.09688221 0 0 Z " fill="#191310" transform="translate(561,959)"/>
<path d="M0 0 C0.66 0 1.32 0 2 0 C1.81824219 0.53367188 1.63648438 1.06734375 1.44921875 1.6171875 C-0.4936055 7.37591783 -2.28384432 13.16993922 -4 19 C-4.33 19 -4.66 19 -5 19 C-4.5464821 11.97047248 -2.87940913 6.4150557 0 0 Z " fill="#FDE9CB" transform="translate(468,163)"/>
<path d="M0 0 C-3.60993172 1.13480527 -6.9842327 1.10015767 -10.75 1.0625 C-11.92046875 1.05347656 -13.0909375 1.04445313 -14.296875 1.03515625 C-15.18890625 1.02355469 -16.0809375 1.01195312 -17 1 C-14.08524957 -4.82950086 -4.77206095 -1.86226769 0 0 Z " fill="#D7B183" transform="translate(520,728)"/>
<path d="M0 0 C0.66 0.33 1.32 0.66 2 1 C-2.66666667 5.66666667 -7.33333333 10.33333333 -12 15 C-11.58685438 10.55073948 -8.49538473 8.15899896 -5.4375 5.25 C-4.91736328 4.74339844 -4.39722656 4.23679688 -3.86132812 3.71484375 C-2.58089916 2.46965595 -1.29132446 1.23388498 0 0 Z " fill="#48321D" transform="translate(700,130)"/>
<path d="M0 0 C-0.33 0.66 -0.66 1.32 -1 2 C-2.74965358 2.05429959 -4.49979787 2.09292823 -6.25 2.125 C-7.22453125 2.14820313 -8.1990625 2.17140625 -9.203125 2.1953125 C-12.0196498 1.99862781 -13.60949036 1.44568916 -16 0 C-13.89651926 -0.19504458 -11.79217415 -0.38078496 -9.6875 -0.5625 C-8.51574219 -0.66691406 -7.34398437 -0.77132812 -6.13671875 -0.87890625 C-3 -1 -3 -1 0 0 Z " fill="#120E0B" transform="translate(585,958)"/>
<path d="M0 0 C2.55029595 1.18197432 4.07141391 2.07357797 6.0625 4.125 C7.90993327 6.34771071 7.90993327 6.34771071 11 6 C11.33 7.65 11.66 9.3 12 11 C6.98797445 8.01665146 3.61251516 4.56048012 0 0 Z " fill="#D38542" transform="translate(267,710)"/>
<path d="M0 0 C4.10958767 1.45044271 7.43258745 3.51110752 11 6 C10.34 6.66 9.68 7.32 9 8 C7.49460339 7.05016642 5.99579653 6.08988109 4.5 5.125 C3.6646875 4.59132813 2.829375 4.05765625 1.96875 3.5078125 C1.3190625 3.01023437 0.669375 2.51265625 0 2 C0 1.34 0 0.68 0 0 Z " fill="#453A29" transform="translate(315,760)"/>
<path d="M0 0 C1.32 1.65 2.64 3.3 4 5 C2.35 6.32 0.7 7.64 -1 9 C-1.66 8.67 -2.32 8.34 -3 8 C-2.01 5.36 -1.02 2.72 0 0 Z " fill="#D78C44" transform="translate(749,709)"/>
<path d="M0 0 C0 0.33 0 0.66 0 1 C-4.95 2.485 -4.95 2.485 -10 4 C-10.66 3.34 -11.32 2.68 -12 2 C-8.63758153 -1.36241847 -4.39594827 -1.5216744 0 0 Z " fill="#E6CFA9" transform="translate(534,647)"/>
<path d="M0 0 C0.66 0.33 1.32 0.66 2 1 C-1.11016455 4.28788824 -4.01618925 6.83735988 -8 9 C-8 8.01 -8 7.02 -8 6 C-6.25 4.39453125 -6.25 4.39453125 -4 2.8125 C-3.2575 2.28269531 -2.515 1.75289062 -1.75 1.20703125 C-1.1725 0.80871094 -0.595 0.41039062 0 0 Z " fill="#141210" transform="translate(137,156)"/>
<path d="M0 0 C0 0.66 0 1.32 0 2 C-1.62171239 2.38897161 -3.24754925 2.76078298 -4.875 3.125 C-5.77992188 3.33382812 -6.68484375 3.54265625 -7.6171875 3.7578125 C-8.40351563 3.83773437 -9.18984375 3.91765625 -10 4 C-10.66 3.34 -11.32 2.68 -12 2 C-10.7625 1.67 -9.525 1.34 -8.25 1 C-7.55390625 0.814375 -6.8578125 0.62875 -6.140625 0.4375 C-4 0 -4 0 0 0 Z " fill="#BA5F41" transform="translate(206,144)"/>
<path d="M0 0 C1 2 1 2 0.25 5.0625 C-0.1625 6.031875 -0.575 7.00125 -1 8 C-1.99 8.33 -2.98 8.66 -4 9 C-4.33 9.99 -4.66 10.98 -5 12 C-5.33 11.34 -5.66 10.68 -6 10 C-4.78515625 7.6171875 -4.78515625 7.6171875 -3.0625 4.875 C-2.21365234 3.50988281 -2.21365234 3.50988281 -1.34765625 2.1171875 C-0.90292969 1.41851563 -0.45820312 0.71984375 0 0 Z " fill="#140F09" transform="translate(719,719)"/>
<path d="M0 0 C4.29 0 8.58 0 13 0 C10.24433749 2.75566251 7.78460367 2.45934233 4 3 C3.34 3.66 2.68 4.32 2 5 C1.34 3.35 0.68 1.7 0 0 Z " fill="#D78A45" transform="translate(711,758)"/>
<path d="M0 0 C0 1.98 0 3.96 0 6 C-0.86625 5.319375 -0.86625 5.319375 -1.75 4.625 C-3.7800333 3.15886484 -5.73539843 2.05142216 -8 1 C-5.07175348 0.02391783 -3.04386724 -0.08226668 0 0 Z " fill="#A56D36" transform="translate(284,624)"/>
<path d="M0 0 C0.66 0.33 1.32 0.66 2 1 C1.09515208 2.15518918 0.1755794 3.29885406 -0.75 4.4375 C-1.26046875 5.07558594 -1.7709375 5.71367187 -2.296875 6.37109375 C-4.19667629 8.18810554 -5.43586908 8.60423197 -8 9 C-7.04270084 7.87411986 -6.08412105 6.7493285 -5.125 5.625 C-4.59132813 4.99851562 -4.05765625 4.37203125 -3.5078125 3.7265625 C-2.38567993 2.44163349 -1.20628025 1.20628025 0 0 Z " fill="#0E0D0E" transform="translate(285,378)"/>
<path d="M0 0 C-0.33 0.99 -0.66 1.98 -1 3 C-4.3 3 -7.6 3 -11 3 C-6.577168 -0.317124 -5.28089024 -0.30466674 0 0 Z " fill="#E1B486" transform="translate(531,831)"/>
<path d="M0 0 C0.8971875 0.309375 0.8971875 0.309375 1.8125 0.625 C0.69176138 1.46405565 -0.43424547 2.29607831 -1.5625 3.125 C-2.18898438 3.5890625 -2.81546875 4.053125 -3.4609375 4.53125 C-5.1875 5.625 -5.1875 5.625 -7.1875 5.625 C-5.69046729 2.17030914 -4.27938051 -0.73360809 0 0 Z " fill="#B5783B" transform="translate(273.1875,626.375)"/>
<path d="M0 0 C1.29608947 0.93137592 2.58671632 1.8703566 3.875 2.8125 C4.59429688 3.33457031 5.31359375 3.85664063 6.0546875 4.39453125 C8 6 8 6 10 9 C6.71245489 8.42110619 5.06327505 7.45171589 2.75 5.0625 C2.22921875 4.53785156 1.7084375 4.01320313 1.171875 3.47265625 C0 2 0 2 0 0 Z " fill="#ED9C48" transform="translate(651,467)"/>
<path d="M0 0 C0.33 1.32 0.66 2.64 1 4 C-0.9375 6.75 -0.9375 6.75 -3 9 C-3.66 8.67 -4.32 8.34 -5 8 C-3.35 5.36 -1.7 2.72 0 0 Z " fill="#A46D36" transform="translate(380,454)"/>
<path d="M0 0 C0.99 0.33 1.98 0.66 3 1 C-0.465 3.97 -0.465 3.97 -4 7 C-4.66 6.67 -5.32 6.34 -6 6 C-4.02 4.02 -2.04 2.04 0 0 Z " fill="#17140E" transform="translate(866,281)"/>
<path d="M0 0 C-0.99 1.485 -0.99 1.485 -2 3 C-5.625 3.1875 -5.625 3.1875 -9 3 C-9.33 2.34 -9.66 1.68 -10 1 C-6.78548731 -0.60725635 -3.56387464 -0.05748185 0 0 Z " fill="#2A2117" transform="translate(409,157)"/>
<path d="M0 0 C2.01822917 0.06510417 4.03645833 0.13020833 6.0546875 0.1953125 C6.0546875 0.5253125 6.0546875 0.8553125 6.0546875 1.1953125 C3.7446875 1.1953125 1.4346875 1.1953125 -0.9453125 1.1953125 C-1.6053125 2.8453125 -2.2653125 4.4953125 -2.9453125 6.1953125 C-3.5703125 4.3203125 -3.5703125 4.3203125 -3.9453125 2.1953125 C-1.9453125 0.1953125 -1.9453125 0.1953125 0 0 Z " fill="#745F46" transform="translate(649.9453125,780.8046875)"/>
<path d="M0 0 C0.33 0.66 0.66 1.32 1 2 C-1.31 3.65 -3.62 5.3 -6 7 C-6.66 6.34 -7.32 5.68 -8 5 C-4.04 2.525 -4.04 2.525 0 0 Z " fill="#342B1E" transform="translate(447,732)"/>
<path d="M0 0 C7.42857143 -0.28571429 7.42857143 -0.28571429 11 2 C11 2.66 11 3.32 11 4 C7.37 3.01 3.74 2.02 0 1 C0 0.67 0 0.34 0 0 Z " fill="#D3B893" transform="translate(534,709)"/>
<path d="M0 0 C0.66 0.33 1.32 0.66 2 1 C0.68 2.65 -0.64 4.3 -2 6 C-3.32 5.67 -4.64 5.34 -6 5 C-4.02 3.35 -2.04 1.7 0 0 Z " fill="#48331D" transform="translate(106,179)"/>
<path d="M0 0 C0.99 0.33 1.98 0.66 3 1 C1.02 1.99 1.02 1.99 -1 3 C-1 3.66 -1 4.32 -1 5 C-1.99 4.67 -2.98 4.34 -4 4 C-2.68 2.68 -1.36 1.36 0 0 Z " fill="#A16735" transform="translate(753,740)"/>
</svg>
