<?xml version="1.0" standalone="no"?>
<!DOCTYPE svg PUBLIC "-//W3C//DTD SVG 20010904//EN"
 "http://www.w3.org/TR/2001/REC-SVG-20010904/DTD/svg10.dtd">
<svg version="1.0" xmlns="http://www.w3.org/2000/svg"
 viewBox="0 0 2600.000000 2600.000000"
 preserveAspectRatio="xMidYMid meet">
<metadata>
Created by potrace 1.15, written by Peter Selinger 2001-2017
</metadata>
<g transform="translate(0.000000,2600.000000) scale(0.100000,-0.100000)"
fill="#000000" stroke="none">
<path d="M12835 23254 c-179 -19 -378 -90 -524 -189 -101 -68 -9243 -7965
-9399 -8118 -214 -212 -325 -474 -326 -772 -1 -299 100 -555 303 -768 100
-104 185 -168 306 -227 254 -125 525 -151 790 -76 116 33 292 121 375 188 36
29 1975 1703 4309 3721 2334 2018 4249 3670 4255 3671 7 0 1933 -1659 4280
-3689 2347 -2029 4296 -3710 4329 -3734 203 -144 494 -220 738 -193 778 85
1225 898 878 1596 -56 113 -120 199 -224 298 -49 48 -2160 1876 -4690 4064
-3156 2728 -4631 3997 -4700 4043 -116 78 -249 134 -379 161 -94 19 -251 31
-321 24z"/>
<path d="M9119 16324 c-2109 -1824 -3833 -3319 -3832 -3324 1 -4 45 -317 98
-696 52 -379 98 -701 101 -716 4 -20 12 -28 32 -30 l26 -3 362 -2615 c199
-1438 404 -2918 455 -3287 l93 -673 1513 0 1513 0 0 2288 c0 1452 4 2347 10
2452 70 1125 607 2118 1492 2763 692 504 1563 716 2410 587 570 -87 1105 -324
1573 -695 146 -116 448 -421 559 -565 491 -633 756 -1360 793 -2172 6 -147 6
-148 30 -148 l23 0 0 -2255 0 -2255 1540 0 c1372 0 1540 2 1540 15 0 9 252
1825 561 4037 540 3874 560 4022 542 4038 -10 9 -1714 1483 -3788 3275 -2073
1792 -3779 3266 -3791 3276 -20 19 -58 -14 -3855 -3297z m2582 571 c179 -46
355 -190 437 -356 49 -100 72 -193 72 -302 0 -75 1 -77 23 -73 38 9 196 26
331 36 297 23 870 4 1054 -36 21 -4 22 -2 22 68 1 263 150 501 385 613 50 24
115 49 145 56 78 19 250 16 330 -5 220 -60 407 -238 480 -456 31 -93 38 -253
16 -354 -36 -159 -144 -324 -270 -411 -31 -21 -56 -39 -56 -41 0 -1 22 -16 50
-34 107 -68 207 -203 256 -345 25 -71 28 -94 29 -210 0 -117 -3 -139 -29 -219
-56 -170 -181 -316 -339 -395 -110 -55 -190 -74 -312 -74 -191 0 -346 64 -481
198 -66 66 -89 98 -128 175 -52 107 -76 201 -76 308 l0 73 -32 -5 c-362 -60
-1001 -60 -1364 -1 l-31 5 -6 -107 c-9 -186 -68 -316 -201 -448 -118 -117
-235 -174 -398 -195 -149 -18 -304 14 -435 91 -32 19 -92 68 -134 109 -162
161 -232 397 -184 625 31 147 137 312 258 402 34 25 61 47 60 50 -1 2 -32 27
-68 54 -82 63 -145 141 -196 245 -95 195 -93 402 7 604 38 77 62 110 129 176
67 68 98 90 176 127 52 25 119 50 149 56 30 6 64 13 75 15 38 9 191 -3 256
-19z"/>
</g>
</svg>
