<?xml version="1.0" encoding="UTF-8"?>
<svg version="1.1" xmlns="http://www.w3.org/2000/svg" width="1024" height="1024">
<path d="M486 48 C485.14664062 48.41121094 484.29328125 48.82242188 483.4140625 49.24609375 C472.55404683 55.16814113 463.50099168 64.61791096 454.40625 72.87109375 C451.04064721 75.84877804 447.54576904 78.65590667 444.0546875 81.484375 C436.08642637 88.0464724 428.32012645 94.8639297 420.6875 101.8125 C417.56482271 104.64661306 414.37653217 107.32990729 411.0625 109.9375 C407.42275396 112.80380001 403.97126868 115.79988337 400.5625 118.9375 C396.17518131 122.97506042 391.65524865 126.77249215 387.01953125 130.51953125 C379.05638552 137.06105459 371.30744123 143.87547803 363.6875 150.8125 C359.86294915 154.27967479 355.90032171 157.50134906 351.84375 160.69140625 C347.61032817 164.12815392 343.52300332 167.73042467 339.44067383 171.34472656 C336.40769066 174.00775467 333.37283649 176.48406536 330.04296875 178.76953125 C329.03878906 179.50558594 328.03460938 180.24164063 327 181 C327 181.66 327 182.32 327 183 C326.47019531 183.22042969 325.94039063 183.44085938 325.39453125 183.66796875 C322.14049299 185.47812707 319.47315935 187.86954724 316.6875 190.3125 C316.07575928 190.84302979 315.46401855 191.37355957 314.83374023 191.92016602 C313.53900246 193.04365525 312.24582209 194.16894146 310.95410156 195.29589844 C309.06434149 196.94389011 307.1699032 198.58629481 305.2734375 200.2265625 C302.14329672 202.93423535 299.01664842 205.64589966 295.89111328 208.35888672 C292.14070702 211.61349953 288.38774777 214.86517042 284.6340332 218.1159668 C281.45508641 220.86955863 278.27940244 223.62676724 275.109375 226.390625 C269.57049019 231.21438738 264.03123293 236.01391261 258.3125 240.625 C254.38125608 243.80382483 250.63735442 247.12214029 246.9375 250.5625 C242.68623068 254.51484138 238.30908317 258.21094675 233.7421875 261.79296875 C228.35026486 266.13262159 223.17756074 270.73426944 217.96435547 275.28564453 C209.63901599 282.55143298 201.28801554 289.78476744 192.84106445 296.90893555 C187.12122199 301.73442488 181.4436181 306.60872318 175.76611328 311.48388672 C172.84557725 313.99100985 169.92267689 316.49537328 167 319 C165.83332184 319.99998659 164.66665518 320.9999866 163.5 322 C156.5 328 156.5 328 154.75024414 329.49975586 C153.58271772 330.50051606 152.4152373 331.50132992 151.24780273 332.50219727 C148.34466371 334.99100676 145.44075051 337.47890091 142.53515625 339.96484375 C136.48449087 345.1434639 130.45016869 350.33979445 124.4375 355.5625 C115.28471597 363.50531103 106.09429195 371.37984664 96.59375 378.90625 C92.95500087 381.84355351 89.40040969 384.87656402 85.8449707 387.91381836 C81.57158438 391.5527893 77.18959692 395.0314847 72.73046875 398.44140625 C71.87388672 399.21291016 71.87388672 399.21291016 71 400 C71 400.66 71 401.32 71 402 C70.39929688 402.27070313 69.79859375 402.54140625 69.1796875 402.8203125 C60.45762067 407.54085763 56.01945821 419.25952327 53.125 428.1875 C49.5786202 442.92515021 51.90592088 457.86124399 59.0625 471.125 C67.60705566 484.70215412 78.47127576 494.6665557 94.1875 499 C108.80545018 501.68529255 122.77538109 501.23805972 136 494 C139.96 491.03 143.92 488.06 148 485 C148.33 603.8 148.66 722.6 149 845 C139.43 845 129.86 845 120 845 C103.41886907 848.01475108 89.75166979 853.55898646 78 866 C78 866.66 78 867.32 78 868 C77.34 868 76.68 868 76 868 C64.03918773 882.41634327 60.9955198 898.81544474 62 917 C64.17294335 934.4832231 74.64225578 948.7794407 88.125 959.5 C102.85700472 969.6036747 118.6339212 972.15539845 136.10003471 972.13422108 C137.41911583 972.13657331 138.73819695 972.13892554 140.09725022 972.14134905 C143.75955512 972.14772917 147.42183801 972.14791227 151.0841474 972.14707164 C155.06831909 972.14724153 159.05248299 972.15315208 163.03665078 972.1583125 C170.93927164 972.16762948 178.84188691 972.17155902 186.74451258 972.17383147 C196.2103176 972.17679588 205.67611521 972.18549468 215.14191634 972.19424575 C238.02063913 972.21508114 260.89936321 972.22555843 283.77809328 972.23437535 C294.60288249 972.23858306 305.42767114 972.24380488 316.25245989 972.24905988 C353.31210351 972.26694909 390.37174729 972.28194489 427.43139458 972.28938007 C429.75761688 972.28985483 432.08383918 972.29033072 434.41006149 972.29080774 C435.56364842 972.29104411 436.71723535 972.29128049 437.90577946 972.29152403 C443.75033735 972.29272521 449.59489524 972.29394067 455.43945312 972.29516602 C456.59931883 972.29540617 457.75918453 972.29564632 458.95419768 972.29589374 C496.55784191 972.30378626 534.16145459 972.32721764 571.76508505 972.35972196 C611.52842373 972.39403032 651.29174397 972.41373213 691.0550977 972.41702431 C695.42137663 972.41744185 699.78765556 972.41792141 704.15393448 972.41844749 C705.76656739 972.41863228 705.76656739 972.41863228 707.41177874 972.4188208 C724.702697 972.42115152 741.99357858 972.43680424 759.28448377 972.45728934 C776.66945002 972.47755888 794.05437227 972.48301928 811.43934815 972.47351871 C821.76251671 972.46830824 832.08553864 972.47415982 842.40868606 972.49605338 C849.31250739 972.50958633 856.21622807 972.50846247 863.12005046 972.49565142 C867.04837678 972.48877142 870.9764233 972.4880276 874.90472434 972.50521151 C900.11439231 972.60842564 923.66063858 971.90105959 942.79296875 953.33984375 C956.20623874 939.11940353 962.57177956 924.01729742 962.27685547 904.44726562 C961.76453869 887.60888197 955.03865689 873.59395728 943.07421875 861.77734375 C923.90545695 843.93098007 901.61170127 845 876 845 C876.495 666.8 876.495 666.8 877 485 C880.3 487.64 883.6 490.28 887 493 C890.69774597 495.07904778 890.69774597 495.07904778 894.25 496.4375 C895.95929688 497.14712891 895.95929688 497.14712891 897.703125 497.87109375 C909.16291848 501.79512256 925.9118954 502.17314739 937 497 C937.8971875 496.58621094 938.794375 496.17242187 939.71875 495.74609375 C946.2361184 492.46055226 952.05921489 488.41656442 957 483 C957 482.34 957 481.68 957 481 C957.66 481 958.32 481 959 481 C969.80604563 466.49838033 973.81477934 450.3183014 971.5390625 432.36328125 C968.29419141 415.01276467 958.36430669 403.55161714 944.2734375 393.4453125 C940.47683734 390.67632855 936.96613005 387.59885244 933.4375 384.5 C929.17792333 380.76194946 924.90843307 377.06342881 920.5 373.5 C915.39350948 369.36762391 910.44803775 365.06626528 905.50073242 360.74633789 C901.11448461 356.9295862 896.6464911 353.24745165 892.05078125 349.68359375 C890 348 890 348 888.046875 346.04296875 C885.79884465 343.79922854 883.41955128 341.85625448 880.9375 339.875 C877.01020048 336.6935223 873.21746829 333.4241243 869.5 330 C865.12829537 325.98025464 860.62213114 322.20011805 856.00390625 318.46875 C851.19953258 314.52029206 846.52866988 310.42025185 841.83984375 306.3359375 C838.74938632 303.64498013 835.63900528 300.97859375 832.52001953 298.32080078 C827.71245017 294.22408857 822.96377088 290.08771069 818.3125 285.8125 C813.90378433 281.76579031 809.33934325 277.97246285 804.68359375 274.21484375 C801.20371639 271.34280523 797.88752705 268.30954943 794.5546875 265.26953125 C790.95159075 262.06861502 787.20761768 259.05390977 783.4453125 256.04296875 C781 254 781 254 778.8046875 251.73828125 C777.17753832 249.76875615 777.17753832 249.76875615 775 250 C775 249.34 775 248.68 775 248 C773.51261765 246.64617851 771.95569449 245.36860114 770.375 244.125 C765.830736 240.48724941 761.35397021 236.79200411 756.9375 233 C756.04333374 232.23296753 756.04333374 232.23296753 755.13110352 231.45043945 C751.6479318 228.45086902 748.21329833 225.40560705 744.8125 222.3125 C741.52057795 219.3208184 738.15408693 216.47475577 734.6875 213.6875 C730.46601345 210.27577674 726.45926658 206.70682034 722.5 203 C717.80068826 198.60406938 712.97951142 194.45439481 707.9609375 190.421875 C703.07504127 186.4254955 698.33627221 182.26014317 693.578125 178.11328125 C692.99095703 177.60361816 692.40378906 177.09395508 691.79882812 176.56884766 C690.54652058 175.47664784 689.30089709 174.37675645 688.06054688 173.27099609 C687.1256543 172.44656006 687.1256543 172.44656006 686.171875 171.60546875 C685.33027832 170.85559692 685.33027832 170.85559692 684.47167969 170.09057617 C683.03747281 168.80153876 683.03747281 168.80153876 681 169 C681 168.34 681 167.68 681 167 C679.26144745 165.40085835 679.26144745 165.40085835 676.9375 163.6875 C672.42319327 160.1664681 668.0636645 156.51388373 663.75 152.75 C663.11126953 152.19344727 662.47253906 151.63689453 661.81445312 151.06347656 C660.51368376 149.93002338 659.21306525 148.79639706 657.91259766 147.66259766 C654.36671681 144.58020698 650.79701572 141.52565416 647.22436523 138.47436523 C644.17575716 135.86975867 641.13865795 133.25325863 638.1171875 130.6171875 C637.48047119 130.06426025 636.84375488 129.51133301 636.18774414 128.94165039 C634.96500577 127.87937554 633.74528472 126.81361455 632.52905273 125.74389648 C630.0269623 123.57624933 628.17430464 122.05810155 625 121 C625 120.34 625 119.68 625 119 C623.26144745 117.40085835 623.26144745 117.40085835 620.9375 115.6875 C616.36690256 112.12036234 611.93938741 108.42732388 607.5625 104.625 C606.91893555 104.06619141 606.27537109 103.50738281 605.61230469 102.93164062 C601.75525348 99.56768389 597.95524425 96.1510496 594.1875 92.6875 C590.18176171 89.01704377 586.05023514 85.60319125 581.78125 82.24609375 C578.36881626 79.49026594 575.05851698 76.62909668 571.75 73.75 C571.1103833 73.19570312 570.4707666 72.64140625 569.81176758 72.0703125 C566.65667779 69.33150006 563.52095146 66.57508694 560.41796875 63.77734375 C543.97124705 49.07322969 527.06281337 41.71867178 504.78125 42.55078125 C497.96783853 43.03416517 492.15632852 45.01728269 486 48 Z " fill="#090909" transform="translate(0,0)"/>
<path d="M0 0 C0 0.66 0 1.32 0 2 C0.52851562 2.21914062 1.05703125 2.43828125 1.6015625 2.6640625 C4.88098893 4.4907137 7.56782619 6.91092521 10.375 9.375 C11.63271772 10.46625508 12.89053292 11.55739782 14.1484375 12.6484375 C14.7887793 13.2062793 15.42912109 13.76412109 16.08886719 14.33886719 C19.04546008 16.90870087 22.02308668 19.45376755 25 22 C26.16678172 22.99986575 27.33344806 23.99986617 28.5 25 C29.0775 25.495 29.655 25.99 30.25 26.5 C35.5 31 35.5 31 37.25024414 32.50024414 C38.41605104 33.49948396 39.58190386 34.49867023 40.74780273 35.49780273 C43.67800398 38.00899461 46.60738291 40.52113393 49.53515625 43.03515625 C58.37822377 50.62628113 67.26299435 58.16666918 76.17578125 65.67578125 C82.60775195 71.09974185 88.99191386 76.57509093 95.34326172 82.09326172 C100.11871306 86.24129939 104.91582941 90.3631652 109.72363281 94.47363281 C113.41739983 97.63466499 117.09237387 100.81636643 120.7590332 104.00878906 C126.57883 109.0748636 132.45887619 114.03539757 138.45703125 118.890625 C141.89147379 121.73947135 145.17135796 124.74478194 148.46875 127.75 C151.0884481 130.07862053 153.7751531 132.29562947 156.5 134.5 C160.0947765 137.4081338 163.58260628 140.38541332 167 143.5 C170.31989486 146.52282421 173.69764112 149.42512161 177.1875 152.25 C182.96563651 156.92947675 188.56898956 161.7941582 194.17578125 166.67578125 C197.76767945 169.80292032 201.38024351 172.90518766 205 176 C210.4812092 180.68900621 215.93738553 185.40608983 221.38354492 190.13574219 C225.67605753 193.86079278 229.9898678 197.55997691 234.3125 201.25 C238.32347501 204.67440949 242.28655105 208.13726728 246.1875 211.6875 C250.42573421 215.53728722 254.82623509 219.14639265 259.27734375 222.74609375 C261.94137353 224.95146704 264.50788442 227.2317631 267.0625 229.5625 C271.00078471 233.14837933 275.07014094 236.48698621 279.25 239.78515625 C284.32682047 243.87401592 289.23398228 248.16323417 294.16796875 252.42236328 C295.99292933 253.99391116 297.82349755 255.55864285 299.65625 257.12109375 C305.76777635 262.33347768 311.82357922 267.59077138 317.7734375 272.98828125 C319.83104391 274.84734669 321.90846763 276.67928358 324 278.5 C324.59371324 279.03552162 325.18742648 279.57104324 325.79913104 280.12279278 C327.99554171 282.05890795 327.99554171 282.05890795 330.53584802 283.76132005 C334.64758698 286.8479008 337.52630776 289.27774665 338.91855741 294.339697 C339.26185555 298.4660278 339.28723688 302.48763679 339.20254517 306.62245178 C339.20691025 308.21003528 339.21567409 309.7976117 339.22843683 311.3851499 C339.25073547 315.73254911 339.21089394 320.07747191 339.16065621 324.42455566 C339.11738936 329.11768998 339.13209098 333.81068957 339.13967896 338.50396729 C339.14491745 346.63018332 339.1135974 354.7555952 339.05730057 362.88160896 C338.97595932 374.63025206 338.94997908 386.37850712 338.93742065 398.12740128 C338.91554526 417.18989084 338.84902593 436.25195198 338.75439453 455.31420898 C338.66257582 473.82916117 338.59180567 492.34399691 338.54931641 510.85913086 C338.54537555 512.57161305 338.54537555 512.57161305 338.54135509 514.31869084 C338.52830452 520.04615369 338.51566749 525.77361736 338.50323606 531.50108159 C338.39960264 579.00110159 338.21527082 626.50032901 338 674 C289.82 674 241.64 674 192 674 C191.96261719 662.40488281 191.92523437 650.80976562 191.88671875 638.86328125 C191.85641645 631.48501443 191.82537295 624.10676284 191.79101562 616.72851562 C191.73670738 605.03655432 191.6852875 593.34463522 191.65356445 581.65258789 C191.63043792 573.13407892 191.59687959 564.61568248 191.55129844 556.09726304 C191.52756172 551.59564649 191.50870602 547.09414002 191.50238609 542.59246254 C191.47373794 524.5302483 191.42449796 506.80900857 188 489 C187.76186104 487.635141 187.52635051 486.26982021 187.29374695 484.90400696 C179.5290442 440.50560435 154.93827026 397.51758769 119 370 C117.98292969 369.17886719 116.96585938 368.35773438 115.91796875 367.51171875 C108.40410975 361.48183831 100.52298942 356.49517137 92 352 C91.37754395 351.66758301 90.75508789 351.33516602 90.11376953 350.99267578 C44.93362965 327.01977453 -7.35734631 320.79813784 -56.5625 335.75 C-85.92111215 345.15207539 -111.18081357 360.15318157 -133.38671875 381.45410156 C-134.46502432 382.48736895 -135.54840926 383.51536073 -136.63671875 384.53808594 C-159.98862523 406.51716656 -176.15616152 435.27892162 -185 466 C-185.19287598 466.66273926 -185.38575195 467.32547852 -185.58447266 468.00830078 C-192.27203577 491.46433077 -192.47385232 514.58503447 -192.50611091 538.75968266 C-192.51559624 543.52691008 -192.54180636 548.29404754 -192.56611633 553.06121826 C-192.60950906 562.05618972 -192.63822218 571.05114345 -192.66143972 580.04618716 C-192.6937411 592.22403866 -192.74916865 604.40178461 -192.80318546 616.57955551 C-192.88748512 635.71967194 -192.94127515 654.85974841 -193 674 C-241.51 674 -290.02 674 -340 674 C-340.30870158 625.28485578 -340.56717243 576.57063475 -340.71491461 527.85479216 C-340.73242428 522.10208628 -340.75054481 516.34938247 -340.76904297 510.59667969 C-340.77455149 508.87880717 -340.77455149 508.87880717 -340.78017129 507.12623015 C-340.84107223 488.58801596 -340.95144568 470.05041023 -341.08013915 451.51255688 C-341.21111125 432.48764813 -341.28883331 413.4630578 -341.31723893 394.43771672 C-341.33643902 382.69984415 -341.39705054 370.96369138 -341.51083054 359.22634831 C-341.58489829 351.17498053 -341.60718797 343.12450034 -341.58901928 335.0728167 C-341.58006009 330.42823993 -341.59367694 325.78666511 -341.66887665 321.1426239 C-342.12021989 291.82744196 -342.12021989 291.82744196 -337.02249527 285.29746246 C-334.25442525 282.58501029 -331.31364678 280.72282189 -327.85091615 279.01849985 C-324.50882967 277.17945675 -321.81408091 274.54743692 -319 272 C-317.84121282 271.00080008 -316.68006532 270.00432489 -315.515625 269.01171875 C-314.93876953 268.51720215 -314.36191406 268.02268555 -313.76757812 267.51318359 C-311.96667711 265.97147303 -310.16330549 264.43269551 -308.359375 262.89453125 C-303.12223205 258.42459061 -297.90567526 253.9470481 -292.8125 249.3125 C-289.47772886 246.28287132 -286.06712361 243.39391908 -282.5625 240.5625 C-278.75912497 237.48663412 -275.09917348 234.31246834 -271.5 231 C-267.0301488 226.88621091 -262.40955107 223.02912703 -257.68359375 219.21484375 C-255.05291443 217.04367173 -252.52057576 214.79758643 -250 212.5 C-245.77448858 208.65319007 -241.40738556 205.03063408 -236.96875 201.43359375 C-228.02390161 194.10117198 -219.34620248 186.44021756 -210.61083984 178.86083984 C-201.42368119 170.89260454 -192.18294478 162.9885717 -182.8918457 155.1418457 C-177.16682181 150.30332181 -171.47925515 145.42144844 -165.79248047 140.53808594 C-163.95800818 138.96396779 -162.12183325 137.39185745 -160.28515625 135.8203125 C-153.1156683 129.6912728 -153.1156683 129.6912728 -146 123.5 C-138.19150097 116.64457258 -130.32502321 109.85269611 -122.25 103.3125 C-117.87348373 99.76137934 -113.6916854 96.04202602 -109.52734375 92.24609375 C-106.93037607 89.93812402 -104.26595987 87.74444137 -101.5625 85.5625 C-97.75912497 82.48663412 -94.09917348 79.31246834 -90.5 76 C-86.0301488 71.88621091 -81.40955107 68.02912703 -76.68359375 64.21484375 C-74.05291443 62.04367173 -71.52057576 59.79758643 -69 57.5 C-64.70008209 53.58108748 -60.24080453 49.90829131 -55.71875 46.25 C-52.21949476 43.35406463 -48.87937384 40.30170044 -45.5234375 37.2421875 C-42.94917642 34.95484096 -40.30710511 32.78451729 -37.625 30.625 C-33.61175091 27.38048594 -29.7757082 24.01266903 -26 20.5 C-21.31208169 16.13993999 -16.47734387 12.02731675 -11.484375 8.015625 C-9.25267632 6.20500154 -7.08991395 4.34087432 -4.9375 2.4375 C-2 0 -2 0 0 0 Z " fill="#FEA607" transform="translate(513,170)"/>
<path d="M0 0 C0.60602051 0.4527832 1.21204102 0.90556641 1.83642578 1.37207031 C7.83027505 5.87595347 7.83027505 5.87595347 10 8 C10 8.66 10 9.32 10 10 C10.99 10.33 11.98 10.66 13 11 C14.5078125 12.49609375 14.5078125 12.49609375 16.125 14.4375 C18.07539363 16.75180355 20.02557989 19.02705109 22.10546875 21.2265625 C28.71863596 28.22598549 33.9154984 35.86226364 39 44 C39.6909375 45.10085938 40.381875 46.20171875 41.09375 47.3359375 C83.08475729 117.48758062 64 213.73540656 64 287 C-46.88 287 -157.76 287 -272 287 C-272 102.31910696 -272 102.31910696 -265.375 82.625 C-265.03017578 81.55612549 -264.68535156 80.48725098 -264.33007812 79.38598633 C-249.9302186 36.17024991 -218.73574831 1.72170314 -178.44677734 -18.90625 C-119.68113332 -48.19632012 -51.74823887 -39.04300452 0 0 Z " fill="#38424B" transform="translate(616,557)"/>
<path d="M0 0 C5.62566433 3.97069392 10.80764659 8.48804106 16 13 C17.28866414 14.10723464 18.57771719 15.21401682 19.8671875 16.3203125 C22.36932297 18.47461457 24.86195031 20.63926598 27.34765625 22.8125 C30.90021617 25.91827426 34.47706342 28.99478162 38.0625 32.0625 C38.63629395 32.55371338 39.21008789 33.04492676 39.80126953 33.55102539 C40.95610776 34.53951618 42.11105548 35.52787907 43.26611328 36.51611328 C46.76352798 39.50925416 50.25766391 42.5062223 53.75244141 45.50244141 C56.65552183 47.99114291 59.5593367 50.47897552 62.46484375 52.96484375 C71.64242962 60.81934811 80.77348565 68.72659625 89.89550781 76.64550781 C106.01250134 90.72381278 106.01250134 90.72381278 122.4375 104.4375 C127.48933717 108.53979949 132.4030598 112.78701978 137.31005859 117.06005859 C141.36838476 120.59221028 145.44932592 124.09439369 149.5625 127.5625 C167.57917715 142.76537083 167.57917715 142.76537083 175.1875 149.6875 C178.5008308 152.69814479 181.88941929 155.56565178 185.375 158.375 C189.38826284 161.61952517 193.22415384 164.98747183 197 168.5 C201.5325887 172.71271806 206.2092451 176.68029102 211.02734375 180.5625 C214.53318341 183.43719639 217.95673049 186.39719558 221.375 189.375 C226.05491461 193.45141623 230.75231189 197.50267963 235.5 201.5 C240.82246811 205.98436149 246.09007134 210.52907838 251.34375 215.09375 C255.54839753 218.74583605 259.7678698 222.37980891 264 226 C283.38802056 242.59709149 283.38802056 242.59709149 291.25 249.75 C295.46953333 253.57831832 299.85269142 257.16734587 304.28125 260.75 C306.92147729 262.93501569 309.4672972 265.19171391 312 267.5 C315.31989486 270.52282421 318.69764112 273.42512161 322.1875 276.25 C331.10543262 283.47529385 339.7590395 291.02849061 348.25 298.75 C352.37070619 302.48502433 356.63979156 305.99657415 360.9609375 309.49609375 C366.4350981 314.00629548 371.75426306 318.6965829 377.10351562 323.35351562 C380.07855589 325.93637757 383.06985266 328.50008258 386.0625 331.0625 C386.63081543 331.55049072 387.19913086 332.03848145 387.78466797 332.54125977 C390.75622687 335.09053564 393.73978369 337.62382038 396.7421875 340.13671875 C415.64455893 356.01332415 415.64455893 356.01332415 417.33325195 365.96362305 C418.29270891 377.30278464 416.38721109 385.94531881 409.359375 395.1484375 C402.83489153 402.3741505 394.65836779 404.52846935 385.25 405.3125 C373.99558244 404.99397875 366.71155059 397.77495385 358.82763672 390.64208984 C355.8662249 387.98132897 352.83920196 385.39843224 349.8125 382.8125 C349.23048828 382.31258545 348.64847656 381.8126709 348.04882812 381.29760742 C344.49170508 378.24828675 340.89079325 375.26200339 337.25 372.3125 C332.87492253 368.76254679 328.69450808 365.04436179 324.53125 361.25 C321.9115519 358.92137947 319.2248469 356.70437053 316.5 354.5 C312.03723787 350.88967558 307.77280467 347.11572071 303.53125 343.25 C300.9115519 340.92137947 298.2248469 338.70437053 295.5 336.5 C291.03723787 332.88967558 286.77280467 329.11572071 282.53125 325.25 C279.9115519 322.92137947 277.2248469 320.70437053 274.5 318.5 C270.9052235 315.5918662 267.41739372 312.61458668 264 309.5 C260.68010514 306.47717579 257.30235888 303.57487839 253.8125 300.75 C247.37288007 295.53481485 241.14544597 290.08668248 234.89648438 284.64648438 C231.92144726 282.06362517 228.93047177 279.49953438 225.9375 276.9375 C225.08176392 276.20442627 225.08176392 276.20442627 224.20874023 275.45654297 C221.2629724 272.93397698 218.3143238 270.41483037 215.36328125 267.8984375 C210.12510827 263.42689516 204.90702385 258.94827526 199.8125 254.3125 C195.56153758 250.45178987 191.15281101 246.82388063 186.6875 243.21484375 C183.29330773 240.41759518 180.0276355 237.49354121 176.77734375 234.53125 C175.06737572 232.93160961 175.06737572 232.93160961 173 232 C173 231.34 173 230.68 173 230 C172.40558105 229.72397949 171.81116211 229.44795898 171.19873047 229.16357422 C169.11725276 228.06205048 167.57789176 226.93496751 165.8203125 225.3828125 C165.22863281 224.86460937 164.63695312 224.34640625 164.02734375 223.8125 C163.39957031 223.255625 162.77179687 222.69875 162.125 222.125 C160.77377718 220.93971682 159.42220697 219.75482956 158.0703125 218.5703125 C157.3887207 217.9712207 156.70712891 217.37212891 156.00488281 216.75488281 C153.0239241 214.14563644 150.01296218 211.57214588 147 209 C139.00119044 202.15693772 131.05358198 195.25517035 123.10449219 188.35449219 C111.42637772 178.21820201 99.71635495 168.12160686 87.8984375 158.1484375 C83.87096844 154.74659471 79.87082583 151.31391441 75.875 147.875 C71.7131582 144.29373398 67.51730831 140.7684187 63.25 137.3125 C58.86848205 133.75732096 54.68289319 130.03230463 50.51171875 126.234375 C47.99848768 123.99865467 45.42688521 121.86622318 42.8125 119.75 C37.67305572 115.58915231 32.67673848 111.28265511 27.69091797 106.94067383 C23.10956654 102.9535878 18.49289557 99.01214495 13.84863281 95.09863281 C10.43884635 92.22338727 7.04769533 89.32771745 3.66772461 86.41748047 C0.78509071 83.93722976 -2.1064405 81.46748795 -5 79 C-5.80244141 78.31333252 -5.80244141 78.31333252 -6.62109375 77.61279297 C-8.11590831 76.33837968 -9.62023159 75.07514477 -11.125 73.8125 C-11.97320313 73.09707031 -12.82140625 72.38164062 -13.6953125 71.64453125 C-15.98216114 70.01272908 -17.25122358 69.35401406 -20 69 C-22.36379018 70.66927451 -24.3796296 72.30855767 -26.5 74.25 C-27.11294922 74.79342041 -27.72589844 75.33684082 -28.35742188 75.89672852 C-30.25172087 77.58356365 -32.12801632 79.28845796 -34 81 C-34.56976563 81.51868652 -35.13953125 82.03737305 -35.7265625 82.57177734 C-38.25678469 84.87790699 -40.77575386 87.19427642 -43.28125 89.52734375 C-51.49763033 97 -51.49763033 97 -54 97 C-54 97.66 -54 98.32 -54 99 C-55.57286684 100.41438406 -57.21139996 101.75604401 -58.875 103.0625 C-62.68835562 106.11025865 -66.39808809 109.20500341 -70 112.5 C-73.39598682 115.59555196 -76.86171531 118.55151207 -80.4375 121.4375 C-84.26455727 124.53148714 -87.94280873 127.7283055 -91.5625 131.0625 C-95.74872355 134.91572849 -100.06661066 138.49475096 -104.5390625 142.0078125 C-107.96065784 144.7776754 -111.18244423 147.748615 -114.43359375 150.71484375 C-117.06404749 153.05702858 -119.76155847 155.28536726 -122.5 157.5 C-126.0947765 160.4081338 -129.58260628 163.38541332 -133 166.5 C-137.29991791 170.41891252 -141.75919547 174.09170869 -146.28125 177.75 C-148.92147729 179.93501569 -151.4672972 182.19171391 -154 184.5 C-158.29991791 188.41891252 -162.75919547 192.09170869 -167.28125 195.75 C-170.78050524 198.64593537 -174.12062616 201.69829956 -177.4765625 204.7578125 C-180.05082358 207.04515904 -182.69289489 209.21548271 -185.375 211.375 C-189.92780507 215.05571847 -194.23417411 218.92648648 -198.5168457 222.91137695 C-202.63107393 226.71705469 -206.92941822 230.24903566 -211.296875 233.76171875 C-214.05815825 236.04815705 -216.68538222 238.43608218 -219.3125 240.875 C-223.35431458 244.60059865 -227.52182265 248.02971293 -231.875 251.375 C-237.29347447 255.54442498 -242.34118892 259.97558969 -247.31811523 264.65966797 C-251.43588316 268.52230854 -255.71751738 272.11599066 -260.1171875 275.65625 C-267.65369652 281.78349311 -275.00247729 288.15255078 -282.1875 294.6875 C-286.42708043 298.53851005 -290.82932112 302.14843955 -295.28125 305.75 C-297.92147729 307.93501569 -300.4672972 310.19171391 -303 312.5 C-306.31989486 315.52282421 -309.69764112 318.42512161 -313.1875 321.25 C-318.96563651 325.92947675 -324.56898956 330.7941582 -330.17578125 335.67578125 C-333.7676799 338.80292071 -337.38027999 341.90514452 -341 345 C-347.7283499 350.75713052 -354.42153887 356.55422052 -361.10888672 362.35888672 C-363.61494475 364.53365074 -366.12244408 366.7067486 -368.63012695 368.87963867 C-369.86971902 369.95382232 -371.10914157 371.02820161 -372.34838867 372.1027832 C-375.61981443 374.93928201 -378.89395573 377.77256903 -382.171875 380.6015625 C-382.85443359 381.19130859 -383.53699219 381.78105469 -384.24023438 382.38867188 C-385.54801343 383.51852181 -386.85656696 384.64747613 -388.16601562 385.77539062 C-388.75576172 386.28521484 -389.34550781 386.79503906 -389.953125 387.3203125 C-390.47036133 387.76648926 -390.98759766 388.21266602 -391.52050781 388.67236328 C-393.05694837 390.01304567 -393.05694837 390.01304567 -394.56542969 391.66748047 C-396 393 -396 393 -398 393 C-398.33 393.99 -398.66 394.98 -399 396 C-406.02923698 402.14858086 -414.28809381 405.48112513 -423.625 404.875 C-433.8153737 403.47435958 -439.97003207 399.65807503 -447 392 C-453.30963921 383.09735837 -454.07206686 373.66759602 -453 363 C-450.22305146 353.63740275 -444.4789892 347.92448999 -437 342 C-435.27025724 340.5840368 -433.54110439 339.1673527 -431.8125 337.75 C-430.43964844 336.63818359 -430.43964844 336.63818359 -429.0390625 335.50390625 C-425.53893276 332.62012327 -422.10879321 329.66398565 -418.6875 326.6875 C-418.05400635 326.13642578 -417.4205127 325.58535156 -416.76782227 325.01757812 C-415.48168345 323.89837515 -414.19563212 322.77907163 -412.90966797 321.65966797 C-405.76608759 315.45127377 -398.60354128 309.27176028 -391.25 303.3125 C-386.87492253 299.76254679 -382.69450808 296.04436179 -378.53125 292.25 C-375.02200514 289.13067124 -371.36837877 286.20250867 -367.71875 283.25 C-365.07852271 281.06498431 -362.5327028 278.80828609 -360 276.5 C-356.68010514 273.47717579 -353.30235888 270.57487839 -349.8125 267.75 C-345.36147808 264.14529915 -341.00801395 260.44629733 -336.6875 256.6875 C-335.73725952 255.86088867 -335.73725952 255.86088867 -334.76782227 255.01757812 C-333.48168345 253.89837515 -332.19563212 252.77907163 -330.90966797 251.65966797 C-327.86478085 249.01339558 -324.81024361 246.37849223 -321.75 243.75 C-321.17032471 243.25209961 -320.59064941 242.75419922 -319.9934082 242.24121094 C-316.49771157 239.25014503 -312.95630242 236.32614364 -309.375 233.4375 C-304.9159004 229.82183713 -300.68518194 225.99789396 -296.484375 222.09008789 C-292.35074192 218.26634343 -288.03469848 214.71131883 -283.6484375 211.1796875 C-281.02724881 209.02242601 -278.50845719 206.78689 -276 204.5 C-272.60401318 201.40444804 -269.13828469 198.44848793 -265.5625 195.5625 C-261.75912497 192.48663412 -258.09917348 189.31246834 -254.5 186 C-250.0301488 181.88621091 -245.40955107 178.02912703 -240.68359375 174.21484375 C-238.05291443 172.04367173 -235.52057576 169.79758643 -233 167.5 C-229.68010514 164.47717579 -226.30235888 161.57487839 -222.8125 158.75 C-216.37288007 153.53481485 -210.14544597 148.08668248 -203.89648438 142.64648438 C-200.92144782 140.06362566 -197.93052964 137.49946602 -194.9375 134.9375 C-194.36338379 134.44588379 -193.78926758 133.95426758 -193.19775391 133.44775391 C-190.88914615 131.47145067 -188.57981083 129.49599854 -186.27050781 127.52050781 C-184.53417982 126.03488482 -182.79823716 124.54881324 -181.0625 123.0625 C-180.20325928 122.32700928 -180.20325928 122.32700928 -179.32666016 121.57666016 C-176.26521182 118.95292798 -173.21287131 116.31929444 -170.171875 113.671875 C-164.58797764 108.81091496 -159.00955048 103.96602016 -153.25 99.3125 C-148.5587796 95.51782394 -144.12580494 91.49150795 -139.6875 87.40625 C-136.38822793 84.45225058 -132.94218794 81.72667129 -129.4609375 78.9921875 C-126.03934216 76.2223246 -122.81755577 73.251385 -119.56640625 70.28515625 C-116.93595251 67.94297142 -114.23844153 65.71463274 -111.5 63.5 C-107.9052235 60.5918662 -104.41739372 57.61458668 -101 54.5 C-96.70008209 50.58108748 -92.24080453 46.90829131 -87.71875 43.25 C-85.07852271 41.06498431 -82.5327028 38.80828609 -80 36.5 C-75.70008209 32.58108748 -71.24080453 28.90829131 -66.71875 25.25 C-64.07852271 23.06498431 -61.5327028 20.80828609 -59 18.5 C-53.826809 13.79485962 -48.46361669 9.36267738 -43 5 C-42.27683594 4.40832031 -41.55367188 3.81664063 -40.80859375 3.20703125 C-29.43529336 -5.80703266 -12.80250446 -7.54309722 0 0 Z " fill="#DF4223" transform="translate(530,71)"/>
<path d="M0 0 C1.34251402 -0.00282959 2.6850258 -0.00697373 4.02753222 -0.01230523 C7.71326291 -0.02314027 11.39875288 -0.01534211 15.08447474 -0.00447119 C19.09559872 0.00404843 23.10669051 -0.00485742 27.11781275 -0.01153535 C34.14678291 -0.02083031 41.17568156 -0.01897269 48.20465088 -0.00980282 C58.65703334 0.00379572 69.10936086 0.00023198 79.5617473 -0.00676142 C98.22971239 -0.01869228 116.89764373 -0.0135996 135.56560696 -0.00148315 C151.90339988 0.00904881 168.2411813 0.01359289 184.57897758 0.01222134 C185.66227208 0.01213731 186.74556658 0.01205328 187.86168819 0.0119667 C192.25904246 0.01161446 196.65639673 0.01123045 201.053751 0.01080112 C242.31520056 0.00683495 283.57662979 0.01955894 324.83807354 0.04032768 C361.50063888 0.05869488 398.16318472 0.06451069 434.82575417 0.05905628 C437.17952547 0.05870985 439.53329677 0.05836375 441.88706808 0.05801799 C443.6325524 0.0577615 443.6325524 0.0577615 445.41329903 0.05749982 C451.27092961 0.05664629 457.1285602 0.0558225 462.9861908 0.05503082 C464.14179785 0.05487374 465.29740491 0.05471666 466.48803036 0.05455482 C497.11640474 0.05056499 527.74477723 0.05604011 558.37315047 0.06454211 C561.66876928 0.06544916 564.9643881 0.06635481 568.26000692 0.06725735 C570.44626343 0.06785846 572.63251993 0.06846708 574.81877644 0.06908325 C590.06338418 0.07330544 605.30798823 0.07388254 620.55259637 0.07197776 C640.19938762 0.0695352 659.8461591 0.07360315 679.49294494 0.08918776 C689.88419846 0.09724043 700.27541905 0.09983775 710.66667454 0.09454541 C717.60691849 0.09156955 724.54713332 0.09586666 731.48737031 0.10609398 C735.44215604 0.11172266 739.39687463 0.11422242 743.35166089 0.1079274 C746.95294735 0.10226419 750.55410365 0.10587426 754.15537712 0.11672618 C756.05339072 0.12010376 757.95141414 0.1137452 759.84941852 0.10693184 C774.80657275 0.17569914 785.30807289 2.53790285 796.35895729 12.87473011 C804.58112732 21.67437696 807.19192509 30.93126724 807.01520729 42.79660511 C806.32337888 50.5248347 803.40684834 57.23491186 798.69489479 63.37473011 C797.99364479 64.36473011 797.29239479 65.35473011 796.56989479 66.37473011 C790.25641687 73.73080071 780.14780546 77.7837712 770.65720362 78.6529225 C767.17489715 78.75961269 763.70379975 78.77410608 760.21988964 78.75504684 C758.87109329 78.75848513 757.52229976 78.76323514 756.17351207 78.76916781 C752.4750082 78.78164493 748.77673581 78.77554224 745.07823103 78.76633413 C741.05151088 78.7596146 737.02483008 78.77029533 732.99811834 78.77872998 C725.94332812 78.79109808 718.8886044 78.79230869 711.83380699 78.78617954 C701.34303501 78.77708959 690.85232455 78.7851196 680.36155729 78.79647078 C661.62485295 78.81614361 642.88817625 78.81848395 624.15146405 78.81327558 C607.75410184 78.8087197 591.35675059 78.80931597 574.95938873 78.81511593 C572.76049673 78.81587279 570.56160473 78.81662877 568.36271272 78.81738387 C565.04925244 78.81852906 561.73579217 78.81967893 558.4223319 78.82084312 C527.6143845 78.83154913 496.80644076 78.83627228 465.99849224 78.82837296 C464.25625634 78.8279272 464.25625634 78.8279272 462.47882375 78.82747243 C453.04648449 78.82502345 443.61414527 78.82241189 434.18180606 78.8197883 C397.38480073 78.80968469 360.58784102 78.81804302 323.79084206 78.84128284 C282.45491094 78.86734704 241.11900729 78.8802057 199.78306764 78.8730951 C195.37678397 78.87237902 190.9705003 78.87170464 186.56421661 78.87105465 C185.47926699 78.87088484 184.39431737 78.87071503 183.27649049 78.87054008 C166.88973931 78.86823587 150.50301362 78.87621986 134.11626816 78.88934612 C115.48376577 78.90424463 96.85132316 78.90511755 78.21882207 78.88727521 C67.78975386 78.87769987 57.36082503 78.87917226 46.93176607 78.8965099 C39.96635056 78.90698189 33.00104145 78.90292367 26.03563645 78.88702986 C22.06643331 78.87837991 18.09750369 78.87601759 14.12831438 78.89129918 C10.51389368 78.90508361 6.89998053 78.90030007 3.28558933 78.88101399 C1.38062163 78.87554504 -0.52437204 78.88959047 -2.42928889 78.90454534 C-14.70075832 78.80031427 -25.31239234 75.04896299 -34.27776146 66.49191761 C-42.36268898 57.73753749 -45.72977248 48.20334378 -45.49260521 36.30051136 C-44.85602561 26.36721723 -40.67736731 17.1224824 -33.30510521 10.37473011 C-22.47485506 2.2520425 -13.40067725 -0.07967219 0 0 Z " fill="#AB9900" transform="translate(131.3051052093506,868.6252698898315)"/>
<path d="M0 0 C0 0.66 0 1.32 0 2 C0.52851562 2.21914062 1.05703125 2.43828125 1.6015625 2.6640625 C4.88098893 4.4907137 7.56782619 6.91092521 10.375 9.375 C11.63271772 10.46625508 12.89053292 11.55739782 14.1484375 12.6484375 C14.7887793 13.2062793 15.42912109 13.76412109 16.08886719 14.33886719 C19.04546008 16.90870087 22.02308668 19.45376755 25 22 C26.16678172 22.99986575 27.33344806 23.99986617 28.5 25 C29.0775 25.495 29.655 25.99 30.25 26.5 C35.5 31 35.5 31 37.25024414 32.50024414 C38.41605104 33.49948396 39.58190386 34.49867023 40.74780273 35.49780273 C43.67800398 38.00899461 46.60738291 40.52113393 49.53515625 43.03515625 C58.37822377 50.62628113 67.26299435 58.16666918 76.17578125 65.67578125 C82.60775195 71.09974185 88.99191386 76.57509093 95.34326172 82.09326172 C100.11871306 86.24129939 104.91582941 90.3631652 109.72363281 94.47363281 C113.41739983 97.63466499 117.09237387 100.81636643 120.7590332 104.00878906 C126.57883 109.0748636 132.45887619 114.03539757 138.45703125 118.890625 C141.89147379 121.73947135 145.17135796 124.74478194 148.46875 127.75 C151.0884481 130.07862053 153.7751531 132.29562947 156.5 134.5 C160.0947765 137.4081338 163.58260628 140.38541332 167 143.5 C170.31989486 146.52282421 173.69764112 149.42512161 177.1875 152.25 C182.96563651 156.92947675 188.56898956 161.7941582 194.17578125 166.67578125 C197.76767945 169.80292032 201.38024351 172.90518766 205 176 C210.4812092 180.68900621 215.93738553 185.40608983 221.38354492 190.13574219 C225.67605753 193.86079278 229.9898678 197.55997691 234.3125 201.25 C238.32347501 204.67440949 242.28655105 208.13726728 246.1875 211.6875 C250.42573421 215.53728722 254.82623509 219.14639265 259.27734375 222.74609375 C261.94137353 224.95146704 264.50788442 227.2317631 267.0625 229.5625 C271.00078471 233.14837933 275.07014094 236.48698621 279.25 239.78515625 C284.32682047 243.87401592 289.23398228 248.16323417 294.16796875 252.42236328 C295.99292933 253.99391116 297.82349755 255.55864285 299.65625 257.12109375 C305.7600149 262.32685811 311.80982573 267.57569705 317.75 272.96875 C319.93670882 274.94286213 322.1498795 276.88188074 324.375 278.8125 C327.01962643 281.12323572 329.59837602 283.43274678 332 286 C333.27497235 287.07513194 333.27497235 287.07513194 334.57570171 288.17198372 C338.84311335 293.38915544 337.66659055 300.80258695 337.60127258 307.1857605 C337.60345337 308.76249217 337.60783202 310.33922207 337.61421841 311.91594231 C337.62540017 316.2466181 337.60539706 320.57667578 337.58032811 324.90727282 C337.55874417 329.5779674 337.56604207 334.24862688 337.56983948 338.9193573 C337.57246177 347.01099792 337.55676876 355.10243702 337.52865028 363.19402695 C337.48802221 374.89308573 337.47499377 386.59204702 337.46871033 398.2911687 C337.45776606 417.2719672 337.42448825 436.25265827 337.37719727 455.23339844 C337.33130511 473.67186953 337.2959115 492.11031145 337.2746582 510.54882812 C337.27334459 511.6852971 337.27203097 512.82176607 337.27067754 513.9926735 C337.26415238 519.69398066 337.25783383 525.39528802 337.25161803 531.09659553 C337.1997809 578.39780854 337.11033633 625.69889031 337 673 C323.8 673 310.6 673 297 673 C297 654.52 297 636.04 297 617 C282.78962168 617.11851343 282.78962168 617.11851343 268.57958984 617.27026367 C266.79004453 617.27903053 265.00049321 617.286674 263.2109375 617.29296875 C262.29159424 617.30831665 261.37225098 617.32366455 260.42504883 617.33947754 C253.91326873 617.34212245 249.61982568 616.34405456 244.625 611.875 C242.35741454 607.86311803 242.06570635 604.50519567 243 600 C244.94327055 596.43239262 247.07886819 594.30704394 251 593 C252.51907624 592.91330471 254.04169001 592.882306 255.56323242 592.88647461 C256.49679565 592.88659546 257.43035889 592.88671631 258.39221191 592.88684082 C259.85902405 592.89451477 259.85902405 592.89451477 261.35546875 592.90234375 C262.25672485 592.90335083 263.15798096 592.90435791 264.08654785 592.90539551 C267.45354484 592.91062794 270.8205237 592.9245892 274.1875 592.9375 C281.715625 592.958125 289.24375 592.97875 297 593 C297 563.96 297 534.92 297 505 C280.15672358 505.15809564 280.15672358 505.15809564 263.31396484 505.36035156 C261.19629727 505.3720383 259.07862069 505.38223016 256.9609375 505.390625 C255.86885986 505.41108887 254.77678223 505.43155273 253.65161133 505.45263672 C247.45254584 505.45547707 243.68840834 505.21270881 239 501 C237.16086849 498.28941954 236.63867732 495.9406389 236.5 492.6875 C236.4484375 491.96949219 236.396875 491.25148438 236.34375 490.51171875 C237.4306768 486.35163583 239.52365888 483.53760851 243 481 C247.14044835 480.03037366 251.16547853 480.18287774 255.3984375 480.31640625 C256.45393799 480.32345581 257.50943848 480.33050537 258.59692383 480.33776855 C262.52349412 480.37427447 266.4493029 480.47200555 270.375 480.5625 C279.16125 480.706875 287.9475 480.85125 297 481 C297 451.96 297 422.92 297 393 C272.67745474 393.19765833 272.67745474 393.19765833 248.35546875 393.45043945 C243.63085937 393.47302246 243.63085937 393.47302246 241.4128418 393.47721863 C239.87728615 393.48485218 238.34175883 393.5023455 236.80639648 393.52787781 C221.22094795 393.77390027 221.22094795 393.77390027 215.34106445 389.46720886 C212.13478744 385.95934014 211.61891808 382.69310657 211.7421875 377.96484375 C212.12050245 375.08162525 213.20819145 373.25635151 215 371 C218.66044667 368.55970222 221.3638455 368.73117751 225.5925293 368.77294922 C226.74898453 368.77251114 226.74898453 368.77251114 227.92880249 368.77206421 C230.47738902 368.77345767 233.02568328 368.78901951 235.57421875 368.8046875 C237.34112895 368.80841758 239.10804122 368.81126457 240.87495422 368.81326294 C245.52582508 368.82089983 250.17657106 368.8405488 254.82739258 368.8626709 C259.57306224 368.88312812 264.31875208 368.89226439 269.06445312 368.90234375 C278.37635696 368.92379463 287.68816809 368.95793127 297 369 C296.98512535 359.04654401 296.94353304 349.0935916 296.86790943 339.14040089 C296.83363105 334.51858352 296.80852816 329.89709699 296.80444336 325.27514648 C296.80016218 320.81390479 296.77171502 316.35340951 296.72656822 311.89240074 C296.71358734 310.19122351 296.70928765 308.48995699 296.71384621 306.78873634 C296.71874834 304.40366847 296.69268137 302.02078545 296.65942383 299.63598633 C296.66804947 298.93395584 296.67667511 298.23192535 296.68556213 297.50862122 C296.60637767 294.11714747 295.99766422 291.9959893 294.28778076 289.05999756 C289.03040751 285.76592875 283.81513968 286.33299182 277.73608398 286.40405273 C276.372391 286.40214795 275.00869958 286.39799061 273.64501953 286.39175415 C270.71359207 286.3829733 267.78275712 286.38969826 264.85137749 286.40841484 C260.21644258 286.4375253 255.58201735 286.42970978 250.94703674 286.41651917 C241.94702594 286.39586514 232.94726237 286.41145339 223.94726562 286.43199158 C212.48766058 286.45714307 201.02819256 286.4700121 189.56858307 286.44203526 C184.96067827 286.43207609 180.35338429 286.442222 175.74554622 286.46794307 C172.88055719 286.48010674 170.01575933 286.4759152 167.15076447 286.46736526 C165.18822172 286.46657438 163.22570297 286.48580591 161.26325989 286.50559998 C159.51149948 286.49556946 159.51149948 286.49556946 157.72434998 286.4853363 C156.70949744 286.48814322 155.69464491 286.49095015 154.64903927 286.49384212 C151.28548403 285.86679771 150.10372255 284.641776 148 282 C146.8788027 277.46574622 147.62637034 273.74725932 149.6875 269.625 C152.5276353 266.40106263 154.75780654 264.29297665 159.16160011 263.71755409 C161.908169 263.58989626 164.64032436 263.56361101 167.38989258 263.56762695 C168.43425476 263.5574353 169.47861694 263.54724365 170.55462646 263.53674316 C174.00131578 263.50658604 177.44772727 263.49734282 180.89453125 263.48828125 C183.28636094 263.47143663 185.67818176 263.45328669 188.06999207 263.43388367 C194.36145254 263.38635427 200.65287707 263.35656372 206.94445801 263.33044434 C213.366039 263.30065381 219.78749613 263.25411825 226.20898438 263.20898438 C238.80592226 263.1229177 251.40289021 263.05501852 264 263 C261.93665687 261.08010691 259.8712783 259.16248574 257.8046875 257.24609375 C257.22549561 256.70674194 256.64630371 256.16739014 256.04956055 255.61169434 C252.07980717 251.93469977 247.97970127 248.51139143 243.71484375 245.1796875 C240.29561474 242.43446478 236.99242953 239.56856 233.6875 236.6875 C224.26585338 228.47883406 214.75283951 220.39578257 205.06640625 212.5 C195.25165865 204.49816756 185.47533864 196.46127119 175.88745117 188.18823242 C171.60108596 184.49556373 167.23638289 180.90953434 162.84375 177.34375 C158.90843967 174.10036237 155.05180698 170.76853203 151.18920898 167.43920898 C147.68764698 164.42754991 144.15213443 161.4694105 140.5625 158.5625 C136.12759712 154.96363183 131.8044912 151.25249527 127.5 147.5 C121.42828103 142.21062925 115.2554546 137.07132808 109 132 C99.94392573 124.61932297 90.97290597 117.16300186 82.17504883 109.47583008 C78.06306452 105.8923643 73.86244573 102.45451021 69.578125 99.078125 C64.54065852 95.01762172 59.67718627 90.74876795 54.77587891 86.52587891 C44.17822498 77.42011357 33.46690218 68.43800821 22.625 59.625 C17.5651047 55.50184916 12.61133571 51.26266805 7.68212891 46.98486328 C5.1887199 44.82968816 2.7462138 42.8308092 0 41 C-4.52296762 41.50900675 -7.30105208 44.5831713 -10.5625 47.5 C-11.82332667 48.6051852 -13.08505415 49.70934354 -14.34765625 50.8125 C-14.96914551 51.35777344 -15.59063477 51.90304688 -16.23095703 52.46484375 C-18.61119216 54.53038591 -21.04919729 56.51896482 -23.5 58.5 C-29.49851722 63.37434415 -35.35129226 68.41102709 -41.20605469 73.45605469 C-42.96035431 74.96587924 -44.71775511 76.47199266 -46.4765625 77.9765625 C-51.27275748 82.0796579 -56.0675524 86.18368313 -60.828125 90.328125 C-66.41202236 95.18908504 -71.99044952 100.03397984 -77.75 104.6875 C-81.44817537 107.67995847 -84.99806971 110.78000478 -88.5 114 C-92.87036819 118.01851651 -97.37474475 121.79787076 -101.9921875 125.52734375 C-105.50701506 128.41680589 -108.9440512 131.38688094 -112.375 134.375 C-121.01962001 141.89962935 -129.71309532 149.35471307 -138.625 156.5625 C-143.38807218 160.43812933 -147.93364249 164.51234289 -152.453125 168.66796875 C-154.58941749 170.62405252 -156.74780657 172.54187697 -158.9375 174.4375 C-161.76505218 176.88996872 -164.52756068 179.4036213 -167.27246094 181.94824219 C-172.50596497 186.79678334 -177.85884655 191.40919973 -183.41796875 195.88671875 C-185.83793079 197.86735334 -188.17652672 199.90763597 -190.5 202 C-193.73735169 204.91419359 -197.05149157 207.69735012 -200.4375 210.4375 C-204.07497649 213.38598373 -207.60328121 216.4069117 -211.0625 219.5625 C-215.10534239 223.2454073 -219.27748353 226.70111123 -223.578125 230.078125 C-225.45807114 231.56995322 -227.30998656 233.08174057 -229.15136719 234.62011719 C-230.09141602 235.40547852 -231.03146484 236.19083984 -232 237 C-231.0965535 237.00586624 -230.19310699 237.01173248 -229.26228333 237.01777649 C-220.74301887 237.07570972 -212.22401641 237.14779014 -203.7050066 237.23571491 C-199.32541053 237.280419 -194.94590749 237.31967498 -190.56616211 237.34643555 C-186.33847241 237.37246825 -182.1111407 237.41287022 -177.88367271 237.46318626 C-176.27181136 237.47985524 -174.65988809 237.49136934 -173.04795265 237.49761391 C-170.78785407 237.50725491 -168.52867138 237.5353125 -166.26879883 237.56762695 C-164.98306473 237.57873001 -163.69733063 237.58983307 -162.37263489 237.60127258 C-158.73890836 238.03086738 -156.88598431 238.79146471 -154 241 C-150.64181682 245.7196088 -149.01061455 249.06368728 -150 255 C-152.02032522 257.84899994 -153.62018021 259.71065042 -157.13648415 260.44802284 C-159.83903562 260.61700132 -162.49883246 260.61812276 -165.20629883 260.56762695 C-166.23115387 260.56835709 -167.25600891 260.56908722 -168.31192017 260.56983948 C-171.69416513 260.56636037 -175.07502732 260.52748186 -178.45703125 260.48828125 C-180.80400337 260.47895433 -183.15098524 260.47183765 -185.49797058 260.46684265 C-191.67136573 260.44776364 -197.8441715 260.39865391 -204.01733398 260.34332275 C-210.31811551 260.29215044 -216.61899239 260.26933285 -222.91992188 260.24414062 C-235.28020669 260.19053698 -247.64005431 260.10521235 -260 260 C-260.33 260.99 -260.66 261.98 -261 263 C-262.57054206 264.41696507 -264.20746664 265.76106816 -265.875 267.0625 C-269.88329587 270.25774361 -273.73150392 273.51929973 -277.5 277 C-281.86769492 281.01605847 -286.36849236 284.79385454 -290.984375 288.51953125 C-294.5466985 291.44968076 -298.02478847 294.46754063 -301.5 297.5 C-305.88207363 301.32322284 -310.29059873 305.09154523 -314.8125 308.75 C-319.25102215 312.3418294 -323.50525489 316.09596143 -327.7109375 319.95703125 C-334.48183556 326 -334.48183556 326 -337 326 C-337 326.66 -337 327.32 -337 328 C-337.66 328 -338.32 328 -339 328 C-339.49399153 322.81116826 -339.88808012 317.6270076 -340.19628906 312.42382812 C-340.31412479 310.66079962 -340.45777956 308.89928086 -340.62890625 307.140625 C-341.98023878 292.98380806 -341.98023878 292.98380806 -338.71496582 288.0637207 C-335.51024574 284.56445004 -331.8183424 281.88984373 -327.8704834 279.29020691 C-324.70548662 277.10708103 -321.87726562 274.5427702 -319 272 C-317.84000741 271.00219972 -316.67871794 270.00590336 -315.515625 269.01171875 C-314.93876953 268.51720215 -314.36191406 268.02268555 -313.76757812 267.51318359 C-311.96667711 265.97147303 -310.16330549 264.43269551 -308.359375 262.89453125 C-303.12223205 258.42459061 -297.90567526 253.9470481 -292.8125 249.3125 C-289.47772886 246.28287132 -286.06712361 243.39391908 -282.5625 240.5625 C-278.75912497 237.48663412 -275.09917348 234.31246834 -271.5 231 C-267.0301488 226.88621091 -262.40955107 223.02912703 -257.68359375 219.21484375 C-255.05291443 217.04367173 -252.52057576 214.79758643 -250 212.5 C-245.77448858 208.65319007 -241.40738556 205.03063408 -236.96875 201.43359375 C-228.02390161 194.10117198 -219.34620248 186.44021756 -210.61083984 178.86083984 C-201.42368119 170.89260454 -192.18294478 162.9885717 -182.8918457 155.1418457 C-177.16682181 150.30332181 -171.47925515 145.42144844 -165.79248047 140.53808594 C-163.95800818 138.96396779 -162.12183325 137.39185745 -160.28515625 135.8203125 C-153.1156683 129.6912728 -153.1156683 129.6912728 -146 123.5 C-138.19150097 116.64457258 -130.32502321 109.85269611 -122.25 103.3125 C-117.87348373 99.76137934 -113.6916854 96.04202602 -109.52734375 92.24609375 C-106.93037607 89.93812402 -104.26595987 87.74444137 -101.5625 85.5625 C-97.75912497 82.48663412 -94.09917348 79.31246834 -90.5 76 C-86.0301488 71.88621091 -81.40955107 68.02912703 -76.68359375 64.21484375 C-74.05291443 62.04367173 -71.52057576 59.79758643 -69 57.5 C-64.70008209 53.58108748 -60.24080453 49.90829131 -55.71875 46.25 C-52.21949476 43.35406463 -48.87937384 40.30170044 -45.5234375 37.2421875 C-42.94917642 34.95484096 -40.30710511 32.78451729 -37.625 30.625 C-33.61175091 27.38048594 -29.7757082 24.01266903 -26 20.5 C-21.31208169 16.13993999 -16.47734387 12.02731675 -11.484375 8.015625 C-9.25267632 6.20500154 -7.08991395 4.34087432 -4.9375 2.4375 C-2 0 -2 0 0 0 Z " fill="#EF8000" transform="translate(513,170)"/>
<path d="M0 0 C9.16658189 4.05410471 13.83315771 12.84770993 17.74609375 21.5703125 C18.67970195 23.58913763 19.61466933 25.6073346 20.55078125 27.625 C21.29473145 29.24100098 21.29473145 29.24100098 22.05371094 30.88964844 C23.83209176 34.70107337 25.65978852 38.48570889 27.50390625 42.265625 C27.82554245 42.92579117 28.14717865 43.58595734 28.4785614 44.26612854 C29.75993369 46.89506033 31.04204575 49.52361498 32.3286438 52.1499939 C33.22529532 53.98235556 34.11667401 55.8172946 35.0078125 57.65234375 C35.52432373 58.71042236 36.04083496 59.76850098 36.57299805 60.85864258 C37.68359375 63.3828125 37.68359375 63.3828125 37.68359375 65.3828125 C41.64323357 65.77422697 45.60309951 66.16327349 49.56317139 66.55029297 C50.97536698 66.68850042 52.38751729 66.82717137 53.79962158 66.96630859 C61.11857127 67.6865562 68.43430533 68.38576648 75.76953125 68.921875 C77.37248047 69.04103271 77.37248047 69.04103271 79.0078125 69.16259766 C80.98107786 69.30503406 82.95504734 69.43815479 84.9296875 69.56005859 C94.20774466 70.2358883 102.36513232 72.14530214 108.68359375 79.3828125 C112.53369298 84.82444211 113.95089163 90.75176904 113.68359375 97.3828125 C112.21907252 104.83746562 108.82481716 110.66078176 103.04296875 115.58984375 C98.79242081 119.26407065 94.69731892 123.0796867 90.62109375 126.9453125 C89.13959391 128.3453389 87.65781705 129.74507222 86.17578125 131.14453125 C85.43295898 131.84626465 84.69013672 132.54799805 83.92480469 133.27099609 C79.74263707 137.21170959 75.53620916 141.12642085 71.32983398 145.04125977 C69.08734004 147.13010307 66.85082927 149.21557698 64.68359375 151.3828125 C64.52480468 158.09518595 66.28571728 164.95252842 67.71484375 171.4765625 C67.91082153 172.38990356 68.10679932 173.30324463 68.30871582 174.2442627 C68.71964949 176.15396299 69.13321097 178.0630996 69.54931641 179.97167969 C70.18769894 182.90165402 70.81712872 185.83344889 71.4453125 188.765625 C71.84713764 190.62771615 72.24946318 192.48969941 72.65234375 194.3515625 C72.93519226 195.66707092 72.93519226 195.66707092 73.22375488 197.00915527 C73.40063843 197.81759888 73.57752197 198.62604248 73.75976562 199.45898438 C73.91441284 200.17050659 74.06906006 200.88202881 74.22839355 201.6151123 C74.64047514 203.47160663 74.64047514 203.47160663 75.68359375 205.3828125 C76.31486913 213.26858031 76.85610735 220.96027478 71.68359375 227.3828125 C67.24576381 231.95705115 63.00913146 236.07091676 56.4765625 236.68359375 C54.69185547 236.68939453 54.69185547 236.68939453 52.87109375 236.6953125 C51.68902344 236.71207031 50.50695312 236.72882813 49.2890625 236.74609375 C42.45629414 236.05763497 37.08282555 232.57459031 31.43359375 228.9453125 C30.41410645 228.29985474 30.41410645 228.29985474 29.37402344 227.64135742 C27.14084735 226.22655805 24.91212388 224.80491689 22.68359375 223.3828125 C17.07801611 219.81770164 11.46592166 216.26337464 5.83691406 212.73535156 C4.47428315 211.87945868 3.11394786 211.01989061 1.75683594 210.15527344 C0.11640598 209.11268101 -1.537007 208.09059312 -3.19140625 207.0703125 C-4.07570313 206.51730469 -4.96 205.96429688 -5.87109375 205.39453125 C-8.9350575 204.12685296 -10.19682103 204.31899081 -13.31640625 205.3828125 C-15.29225923 206.37216457 -17.2256997 207.44754034 -19.12890625 208.5703125 C-19.71220703 208.91126953 -20.29550781 209.25222656 -20.89648438 209.60351562 C-22.24864618 210.39465964 -23.59892921 211.18901971 -24.94775391 211.98583984 C-27.65287256 213.58125202 -30.36502148 215.16429903 -33.078125 216.74609375 C-34.09696777 217.34059326 -35.11581055 217.93509277 -36.16552734 218.54760742 C-38.26972096 219.77317874 -40.3755243 220.9959904 -42.48291016 222.21606445 C-46.87463526 224.76298859 -51.25143467 227.30613077 -55.515625 230.0625 C-63.09779603 234.89590343 -69.26774775 236.98821965 -78.31640625 235.3828125 C-84.96352991 233.56593203 -89.60075643 229.06903123 -93.31640625 223.3828125 C-98.1400016 213.23834392 -95.44467109 203.12820403 -93.03125 192.625 C-92.57865581 190.59768309 -92.12618554 188.57033851 -91.67382812 186.54296875 C-90.96329849 183.39145377 -90.24999286 180.2405957 -89.53393555 177.09033203 C-88.83833043 174.02012435 -88.15308168 170.94773697 -87.46875 167.875 C-87.25314926 166.94146698 -87.03754852 166.00793396 -86.81541443 165.04611206 C-85.62967581 159.70027047 -84.92092015 154.86214103 -85.31640625 149.3828125 C-87.14526138 146.55427859 -87.14526138 146.55427859 -89.81640625 144.3203125 C-90.739375 143.46824219 -91.66234375 142.61617187 -92.61328125 141.73828125 C-95.39248615 139.31651744 -98.17162975 136.89584277 -100.9765625 134.50390625 C-104.90425401 130.94341128 -108.59621013 127.14229992 -112.30566406 123.35644531 C-114.78705988 120.83886538 -117.20888803 118.46825953 -119.98046875 116.265625 C-122.53917975 114.20325259 -124.45809085 112.01346374 -126.50390625 109.4453125 C-127.17808594 108.61128906 -127.85226562 107.77726562 -128.546875 106.91796875 C-133.01650764 100.51445532 -133.33244463 93.99868281 -132.31640625 86.3828125 C-130.00835137 80.59337718 -126.65740238 75.72093508 -121.31640625 72.3828125 C-120.54119629 71.88273682 -119.76598633 71.38266113 -118.96728516 70.86743164 C-113.5596758 68.66844324 -108.18951449 68.48776738 -102.40234375 68.06640625 C-101.15514557 67.96441422 -99.90794739 67.86242218 -98.62295532 67.75733948 C-95.32070375 67.48819583 -92.01802472 67.22883087 -88.71453857 66.97558594 C-84.05500924 66.61797159 -79.39630482 66.25119748 -74.73843384 65.87257385 C-72.26170062 65.67162583 -69.78429566 65.47876002 -67.3062439 65.29478455 C-66.18472931 65.20451492 -65.06321472 65.1142453 -63.90771484 65.02124023 C-62.92209564 64.94590561 -61.93647644 64.87057098 -60.92098999 64.79295349 C-58.29925495 64.3801117 -56.55447027 63.79059274 -54.31640625 62.3828125 C-52.83406642 60.22783084 -52.83406642 60.22783084 -51.65234375 57.60546875 C-51.17490723 56.62602295 -50.6974707 55.64657715 -50.20556641 54.63745117 C-49.70589355 53.58404541 -49.2062207 52.53063965 -48.69140625 51.4453125 C-47.62536121 49.25439823 -46.55763019 47.06430359 -45.48828125 44.875 C-44.95654297 43.78026367 -44.42480469 42.68552734 -43.87695312 41.55761719 C-40.52589448 34.74016309 -36.93593689 28.04884547 -33.35351562 21.35107422 C-32.42316991 19.58543223 -31.53125396 17.79966664 -30.64453125 16.01171875 C-24.28673027 3.41575284 -14.50152754 -3.86381341 0 0 Z " fill="#241B0E" transform="translate(521.31640625,251.6171875)"/>
<path d="M0 0 C6.3557412 8.01143849 7.01141251 17.01924798 6 27 C4.46082101 33.33036693 1.97770059 38.81693559 -2 44 C-2.70125 44.99 -3.4025 45.98 -4.125 47 C-10.43847792 54.3560706 -20.54708933 58.40904109 -30.03769117 59.27819239 C-33.51999764 59.38488258 -36.99109504 59.39937597 -40.47500515 59.38031673 C-41.8238015 59.38375502 -43.17259503 59.38850503 -44.52138272 59.3944377 C-48.21988659 59.40691482 -51.91815898 59.40081213 -55.61666376 59.39160402 C-59.64338392 59.38488449 -63.67006471 59.39556522 -67.69677645 59.40399987 C-74.75156668 59.41636797 -81.80629039 59.41757858 -88.8610878 59.41144943 C-99.35185978 59.40235948 -109.84257024 59.41038949 -120.3333375 59.42174067 C-139.07004185 59.4414135 -157.80671854 59.44375384 -176.54343074 59.43854547 C-192.94079295 59.43398959 -209.3381442 59.43458586 -225.73550606 59.44038582 C-227.93439806 59.44114268 -230.13329006 59.44189866 -232.33218207 59.44265376 C-235.64564235 59.44379895 -238.95910262 59.44494882 -242.27256289 59.44611301 C-273.08051029 59.45681902 -303.88845404 59.46154217 -334.69640255 59.45364285 C-336.43863845 59.45319709 -336.43863845 59.45319709 -338.21607104 59.45274232 C-347.6484103 59.45029334 -357.08074952 59.44768178 -366.51308873 59.44505819 C-403.31009406 59.43495458 -440.10705377 59.44331291 -476.90405273 59.46655273 C-518.23998385 59.49261693 -559.5758875 59.50547559 -600.91182715 59.49836498 C-605.31811082 59.49764891 -609.72439449 59.49697453 -614.13067818 59.49632454 C-615.2156278 59.49615473 -616.30057742 59.49598492 -617.4184043 59.49580997 C-633.80515548 59.49350576 -650.19188117 59.50148975 -666.57862663 59.51461601 C-685.21112902 59.52951452 -703.84357163 59.53038744 -722.47607272 59.5125451 C-732.90514093 59.50296976 -743.33406977 59.50444215 -753.76312872 59.52177979 C-760.72854423 59.53225178 -767.69385334 59.52819356 -774.65925834 59.51229975 C-778.62846148 59.5036498 -782.5973911 59.50128748 -786.56658041 59.51656907 C-790.18100111 59.5303535 -793.79491426 59.52556996 -797.40930546 59.50628388 C-799.31427316 59.50081493 -801.21926683 59.51486036 -803.12418368 59.52981523 C-815.40392408 59.42551391 -826.14094819 55.67544431 -835.04296875 47.01171875 C-838.15531405 43.60418193 -840.72655755 40.52779539 -842 36 C-834.8446585 33.77551315 -828.11690833 33.72082763 -820.6601181 33.74946022 C-819.30152477 33.74748458 -817.94293247 33.74463087 -816.5843426 33.74098241 C-812.84931346 33.73348328 -809.1143882 33.73840752 -805.37936177 33.74533385 C-801.31641567 33.75064918 -797.25348513 33.7443209 -793.19054079 33.73944318 C-786.06888795 33.732478 -778.94726504 33.73286592 -771.82561111 33.73804665 C-761.23511419 33.74569112 -750.64464351 33.74182958 -740.05414686 33.73542418 C-722.23530923 33.72489244 -704.41648107 33.72306785 -686.59764099 33.72560501 C-661.135581 33.72902124 -635.67354476 33.71566299 -610.21149115 33.69883054 C-599.99369869 33.69214952 -589.77590589 33.68601074 -579.5581131 33.67987633 C-578.42288332 33.67919233 -577.28765355 33.67850834 -576.11802287 33.67780361 C-549.09268086 33.66162336 -522.06733739 33.6507896 -495.04199219 33.64160156 C-493.85944232 33.64119553 -492.67689246 33.64078949 -491.45850775 33.64037116 C-463.87252592 33.63094479 -436.2865449 33.62407772 -408.70056152 33.62164307 C-407.51439344 33.6215365 -406.32822536 33.62142994 -405.1061128 33.62132015 C-399.12500842 33.62078699 -393.14390404 33.62027224 -387.16279966 33.61975877 C-385.38969649 33.61960546 -385.38969649 33.61960546 -383.58077306 33.61944905 C-381.19488214 33.61924349 -378.80899121 33.61904093 -376.42310029 33.61884138 C-336.99720149 33.6154601 -297.57132648 33.59854383 -258.14544006 33.56673984 C-252.57664054 33.56226653 -247.0078409 33.55797667 -241.43904114 33.55381393 C-239.79508507 33.55258325 -239.79508507 33.55258325 -238.11791777 33.5513277 C-220.48443276 33.53858226 -202.85097863 33.54057306 -185.21749201 33.54844838 C-167.49200821 33.55613434 -149.7665758 33.54972067 -132.04110223 33.52880932 C-121.51311811 33.51684974 -110.98527065 33.51606529 -100.45729004 33.53130184 C-93.41948359 33.54039585 -86.38178394 33.53495471 -79.34399266 33.51785937 C-75.33751225 33.50854475 -71.33130204 33.50542397 -67.32483166 33.52012999 C-45.32700238 33.7954953 -45.32700238 33.7954953 -24 29 C-22.87853309 28.62682353 -21.75706618 28.25364705 -20.60161543 27.8691622 C-19.74308234 27.58233868 -18.88454925 27.29551515 -18 27 C-18 26.34 -18 25.68 -18 25 C-16.6403039 24.06983753 -15.23508116 23.20580596 -13.8125 22.375 C-5.5042564 16.97073496 -3.0043936 9.13067105 0 0 Z " fill="#857600" transform="translate(932,888)"/>
<path d="M0 0 C0.60602051 0.4527832 1.21204102 0.90556641 1.83642578 1.37207031 C7.83027505 5.87595347 7.83027505 5.87595347 10 8 C10 8.66 10 9.32 10 10 C10.99 10.33 11.98 10.66 13 11 C14.5078125 12.49609375 14.5078125 12.49609375 16.125 14.4375 C18.07539363 16.75180355 20.02557989 19.02705109 22.10546875 21.2265625 C28.71863596 28.22598549 33.9154984 35.86226364 39 44 C39.6909375 45.10085938 40.381875 46.20171875 41.09375 47.3359375 C61.89096974 82.08049906 64.49760379 118.24606901 64.30418181 157.75175476 C64.28514254 162.31202799 64.28364351 166.87231034 64.28010559 171.43261719 C64.27086373 180.02732944 64.2463591 188.62192415 64.21605712 197.21658516 C64.18226495 207.0186314 64.16596539 216.82068392 64.15097082 226.62277412 C64.11980033 246.74859581 64.06488955 266.87425684 64 287 C46.84 287 29.68 287 12 287 C11.99589111 282.03122803 11.99178223 277.06245605 11.98754883 271.94311523 C11.97028691 255.45474064 11.9259262 238.96651912 11.86790943 222.47824001 C11.83341451 212.48961946 11.80792441 202.50113468 11.80444336 192.51245117 C11.80138173 183.79537927 11.78059933 175.07855016 11.73947543 166.36157185 C11.71834111 161.75585177 11.7054423 157.15047509 11.71384621 152.54470634 C11.743307 133.15352354 11.57914692 114.76357141 6 96 C5.76586206 95.18609739 5.53172413 94.37219479 5.2904911 93.53362846 C-1.60751363 69.70843608 -13.63317256 47.63345642 -30 29 C-30.71671875 28.17371094 -31.4334375 27.34742188 -32.171875 26.49609375 C-34.41038171 23.95991328 -36.69190302 21.47296105 -39 19 C-39.79664063 18.13761719 -40.59328125 17.27523437 -41.4140625 16.38671875 C-62.31763842 -5.43257273 -97.32744957 -29.15347712 -128.1875 -30.6875 C-130.00314453 -30.72423828 -130.00314453 -30.72423828 -131.85546875 -30.76171875 C-134.91191106 -30.99332494 -136.37625157 -31.56683025 -139 -33 C-87.90481673 -41.05750968 -41.58525972 -31.37524133 0 0 Z " fill="#2A323B" transform="translate(616,557)"/>
<path d="M0 0 C2.96021819 2.55212113 4.33565985 5.39339748 6.00390625 8.8984375 C6.28347168 9.48150162 6.56303711 10.06456573 6.85107422 10.66529846 C7.44988738 11.91652468 8.04575594 13.16916361 8.63894653 14.42306519 C9.56892706 16.38858362 10.50698252 18.35006557 11.44702148 20.31079102 C14.32226228 26.3175124 17.16446766 32.33869067 19.96875 38.37890625 C20.4114624 39.32652832 20.8541748 40.27415039 21.31030273 41.25048828 C22.12024192 42.98848607 22.92238539 44.73014738 23.71508789 46.47607422 C26.88625643 53.28238187 30.37347383 59.0416407 37.51367188 62.11743164 C48.59661296 66.05152748 61.8602487 65.95380213 73.5 67.0625 C76.2145723 67.32232886 78.92901935 67.58326608 81.64318848 67.84727478 C83.31799361 68.01008983 84.99303394 68.17050944 86.66833496 68.32814026 C90.50185904 68.69988256 94.23666693 69.14439737 98 70 C97.521954 74.44891193 96.27719754 76.10233538 92.875 78.9375 C91.97265625 79.71222656 91.0703125 80.48695313 90.140625 81.28515625 C89.38942383 81.92735107 89.38942383 81.92735107 88.62304688 82.58251953 C85.54997708 85.2663708 82.59655306 88.07989237 79.625 90.875 C73.98481835 96.16017527 68.30562238 101.39867097 62.5859375 106.59765625 C54.01133594 114.14637033 54.01133594 114.14637033 49.63256836 124.35083008 C49.46852662 134.59734595 52.0120624 144.22771861 54.375 154.125 C54.99902446 156.79406113 55.6193543 159.46396056 56.23916626 162.13400269 C56.6231832 163.7821826 57.01028542 165.42964829 57.4012146 167.07620239 C61.33170421 183.69762007 61.33170421 183.69762007 61 190 C57.71547733 189.35902664 55.36420338 188.15676971 52.54296875 186.375 C51.25628296 185.56905396 51.25628296 185.56905396 49.94360352 184.74682617 C48.57933228 183.88214722 48.57933228 183.88214722 47.1875 183 C45.284324 181.80784337 43.38067562 180.61644054 41.4765625 179.42578125 C40.54231445 178.84006348 39.60806641 178.2543457 38.64550781 177.65087891 C20.07405421 164.4496404 20.07405421 164.4496404 -0.5625 157.6875 C-1.34753906 157.65011719 -2.13257813 157.61273438 -2.94140625 157.57421875 C-11.84874663 158.81419334 -19.66486004 163.89996652 -27.25 168.4375 C-28.27762451 169.04279541 -29.30524902 169.64809082 -30.36401367 170.27172852 C-35.71333701 173.42735915 -41.03685364 176.62378209 -46.34765625 179.84375 C-47.35086914 180.44775635 -48.35408203 181.0517627 -49.38769531 181.67407227 C-51.30806183 182.83190259 -53.22299905 183.9987957 -55.13183594 185.17553711 C-55.99196289 185.6938208 -56.85208984 186.21210449 -57.73828125 186.74609375 C-58.86810425 187.43723267 -58.86810425 187.43723267 -60.02075195 188.14233398 C-62 189 -62 189 -65 188 C-63.51468001 177.97775451 -61.29608233 168.17135533 -59 158.3125 C-58.64028236 156.75724067 -58.28090551 155.20190247 -57.921875 153.64648438 C-57.24207596 150.70263084 -56.56191997 147.75886041 -55.88134766 144.81518555 C-55.59050293 143.55617432 -55.2996582 142.29716309 -55 141 C-54.77489746 140.02780518 -54.54979492 139.05561035 -54.31787109 138.05395508 C-52.27717798 129.0959529 -52.00201318 121.95531089 -57 114 C-62.37885462 107.6270276 -68.64261715 102.01916673 -74.9453125 96.58203125 C-79.21122066 92.87669395 -83.16955506 88.90665776 -87.125 84.875 C-91.58241664 80.33268018 -96.02893522 75.97994906 -101 72 C-100.67 70.68 -100.34 69.36 -100 68 C-94.27511328 67.44643785 -88.5500097 66.89519075 -82.82470703 66.34594727 C-80.88324182 66.15938535 -78.94183383 65.97222683 -77.00048828 65.78442383 C-74.18537495 65.51220426 -71.37009282 65.24183853 -68.5546875 64.97265625 C-67.63895462 64.88488419 -66.72322174 64.79711212 -65.77973938 64.7066803 C-59.46584374 64.11155868 -53.1576598 63.64065868 -46.82446289 63.29882812 C-38.94420131 62.46509659 -33.84767054 59.4853356 -28.82250977 53.5222168 C-25.66388668 49.15091939 -23.37691569 44.36882682 -21.05874634 39.51245117 C-19.87065419 37.02382072 -18.65508896 34.54894109 -17.44126892 32.07278442 C-16.83119265 30.82743812 -16.22251042 29.5814079 -15.61524963 28.33468628 C-12.93774927 22.84160643 -10.15788555 17.40768839 -7.3125 12 C-6.71634888 10.85470825 -6.71634888 10.85470825 -6.1081543 9.6862793 C-4.29209438 6.24221886 -2.48141504 3.0249631 0 0 Z " fill="#FDA300" transform="translate(513,275)"/>
<path d="M0 0 C-0.33 0.66 -0.66 1.32 -1 2 C-2.66666667 2.33333333 -4.33333333 2.66666667 -6 3 C-7.5159375 3.7734375 -7.5159375 3.7734375 -9.0625 4.5625 C-12 6 -12 6 -16 6 C-16 6.66 -16 7.32 -16 8 C-17.67211914 9.26831055 -17.67211914 9.26831055 -19.97265625 10.69921875 C-24.74056675 13.77556077 -29.08851684 17.17559867 -33.4375 20.8125 C-34.17758301 21.42633545 -34.91766602 22.0401709 -35.68017578 22.67260742 C-40.45267026 26.65038282 -45.10867879 30.7337628 -49.6875 34.93359375 C-52.18690043 37.16701069 -54.76461324 39.27260043 -57.375 41.375 C-62.52399028 45.5408026 -67.38626862 49.95547483 -72.2421875 54.453125 C-75.7674845 57.70878172 -79.3690301 60.8633302 -83 64 C-84.83226939 65.58735945 -86.66405458 67.17527677 -88.49584961 68.76318359 C-89.8309337 69.92018058 -91.1663825 71.07675685 -92.50219727 72.23291016 C-95.76469253 75.05733041 -99.01736417 77.89138815 -102.25 80.75 C-105.20882679 83.35095573 -108.24939718 85.83530714 -111.3125 88.3125 C-116.18545662 92.27430822 -120.84023686 96.42842781 -125.46484375 100.67578125 C-128.92354401 103.8467006 -132.45353978 106.92798262 -136 110 C-137.11204623 110.96606864 -138.22401847 111.93222246 -139.3359375 112.8984375 C-146.22401116 118.87944718 -153.13622779 124.8306186 -160.07397461 130.75390625 C-163.49276357 133.68165492 -166.85827541 136.65759056 -170.1875 139.6875 C-174.42708043 143.53851005 -178.82932112 147.14843955 -183.28125 150.75 C-186.78050524 153.64593537 -190.12062616 156.69829956 -193.4765625 159.7578125 C-196.05082358 162.04515904 -198.69289489 164.21548271 -201.375 166.375 C-205.92780507 170.05571847 -210.23417411 173.92648648 -214.5168457 177.91137695 C-218.62760957 181.71385014 -222.92266523 185.24263299 -227.28515625 188.75390625 C-230.10673495 191.0883059 -232.80590712 193.51990598 -235.5 196 C-239.94593464 200.09228075 -244.5440372 203.92243114 -249.24609375 207.71484375 C-252.10082133 210.08366025 -254.8343921 212.54926417 -257.5625 215.0625 C-261.64597644 218.81768566 -265.84496324 222.31395197 -270.203125 225.7421875 C-278.11514411 232.12926438 -285.72796978 238.91070182 -293.25 245.75 C-297.46953333 249.57831832 -301.85269142 253.16734587 -306.28125 256.75 C-309.77908151 259.64475711 -313.11785404 262.69589539 -316.47265625 265.75390625 C-319.06962393 268.06187598 -321.73404013 270.25555863 -324.4375 272.4375 C-329.211403 276.29825137 -333.73388428 280.37437075 -338.25 284.53125 C-341.81184229 287.72881296 -345.52565833 290.71388343 -349.25 293.71875 C-352.08099578 296.06718968 -354.79383598 298.50909902 -357.5 301 C-361.89213824 305.03803374 -366.41763541 308.84183321 -371.0546875 312.59375 C-378.96858765 319.05921749 -386.69617453 325.73703795 -394.1875 332.6875 C-398.65088998 336.82779493 -403.26308588 340.72416569 -408.00390625 344.54296875 C-413.50737791 349.05624603 -418.85413841 353.75602745 -424.20361328 358.45019531 C-425.42577275 359.50459437 -426.66462052 360.53988782 -427.91748047 361.55761719 C-431.38523053 364.39659441 -433.81965494 366.67171569 -435.625 370.875 C-437.10424144 374.11478126 -438.62583113 377.13464198 -440.5625 380.125 C-443.02873265 383.94922152 -445.02422847 387.90210349 -447 392 C-453.23135574 386.27388932 -455.54434783 380.9429609 -456.30859375 372.65234375 C-456.66702327 362.32305665 -454.9832361 354.40067996 -447.76171875 346.57421875 C-445.25572026 344.26006703 -442.67350551 342.1178205 -440 340 C-438.27025724 338.5840368 -436.54110439 337.1673527 -434.8125 335.75 C-433.43964844 334.63818359 -433.43964844 334.63818359 -432.0390625 333.50390625 C-428.53893276 330.62012327 -425.10879321 327.66398565 -421.6875 324.6875 C-421.05400635 324.13642578 -420.4205127 323.58535156 -419.76782227 323.01757812 C-418.48168345 321.89837515 -417.19563212 320.77907163 -415.90966797 319.65966797 C-408.76608759 313.45127377 -401.60354128 307.27176028 -394.25 301.3125 C-389.87492253 297.76254679 -385.69450808 294.04436179 -381.53125 290.25 C-378.02200514 287.13067124 -374.36837877 284.20250867 -370.71875 281.25 C-368.07852271 279.06498431 -365.5327028 276.80828609 -363 274.5 C-359.68010514 271.47717579 -356.30235888 268.57487839 -352.8125 265.75 C-348.36147808 262.14529915 -344.00801395 258.44629733 -339.6875 254.6875 C-338.73725952 253.86088867 -338.73725952 253.86088867 -337.76782227 253.01757812 C-336.48168345 251.89837515 -335.19563212 250.77907163 -333.90966797 249.65966797 C-330.86478085 247.01339558 -327.81024361 244.37849223 -324.75 241.75 C-324.17032471 241.25209961 -323.59064941 240.75419922 -322.9934082 240.24121094 C-319.49771157 237.25014503 -315.95630242 234.32614364 -312.375 231.4375 C-307.9159004 227.82183713 -303.68518194 223.99789396 -299.484375 220.09008789 C-295.35074192 216.26634343 -291.03469848 212.71131883 -286.6484375 209.1796875 C-284.02724881 207.02242601 -281.50845719 204.78689 -279 202.5 C-275.60401318 199.40444804 -272.13828469 196.44848793 -268.5625 193.5625 C-264.75912497 190.48663412 -261.09917348 187.31246834 -257.5 184 C-253.0301488 179.88621091 -248.40955107 176.02912703 -243.68359375 172.21484375 C-241.05291443 170.04367173 -238.52057576 167.79758643 -236 165.5 C-232.68010514 162.47717579 -229.30235888 159.57487839 -225.8125 156.75 C-219.37288007 151.53481485 -213.14544597 146.08668248 -206.89648438 140.64648438 C-203.92144782 138.06362566 -200.93052964 135.49946602 -197.9375 132.9375 C-197.36338379 132.44588379 -196.78926758 131.95426758 -196.19775391 131.44775391 C-193.88914615 129.47145067 -191.57981083 127.49599854 -189.27050781 125.52050781 C-187.53417982 124.03488482 -185.79823716 122.54881324 -184.0625 121.0625 C-183.20325928 120.32700928 -183.20325928 120.32700928 -182.32666016 119.57666016 C-179.26521182 116.95292798 -176.21287131 114.31929444 -173.171875 111.671875 C-167.58797764 106.81091496 -162.00955048 101.96602016 -156.25 97.3125 C-151.5587796 93.51782394 -147.12580494 89.49150795 -142.6875 85.40625 C-139.38822793 82.45225058 -135.94218794 79.72667129 -132.4609375 76.9921875 C-129.03934216 74.2223246 -125.81755577 71.251385 -122.56640625 68.28515625 C-119.93595251 65.94297142 -117.23844153 63.71463274 -114.5 61.5 C-110.9052235 58.5918662 -107.41739372 55.61458668 -104 52.5 C-99.70008209 48.58108748 -95.24080453 44.90829131 -90.71875 41.25 C-88.07852271 39.06498431 -85.5327028 36.80828609 -83 34.5 C-78.70008209 30.58108748 -74.24080453 26.90829131 -69.71875 23.25 C-67.07852271 21.06498431 -64.5327028 18.80828609 -62 16.5 C-56.826809 11.79485962 -51.46361669 7.36267738 -46 3 C-45.27683594 2.40832031 -44.55367188 1.81664063 -43.80859375 1.20703125 C-31.04691993 -8.90740691 -13.56139195 -9.04092796 0 0 Z " fill="#E45738" transform="translate(533,73)"/>
<path d="M0 0 C4.44205634 2.34674674 6.95930123 4.41624519 9 9 C9.44903566 12.6753233 9.41994233 16.33013521 9.40405273 20.02905273 C9.41091599 21.14180573 9.41777924 22.25455872 9.42485046 23.40103149 C9.44314904 27.07868211 9.43927643 30.75590738 9.43359375 34.43359375 C9.43815405 36.99040364 9.44345916 39.5472123 9.44947815 42.10401917 C9.45841529 47.46303868 9.456213 52.82190325 9.44604492 58.1809082 C9.43456559 64.36755022 9.448638 70.55375863 9.4754414 76.74034351 C9.50029817 82.70175528 9.50277161 88.66303267 9.49632454 94.62449837 C9.49617112 97.15664453 9.50223245 99.68879896 9.51461601 102.22091484 C9.52949141 105.76145566 9.51887295 109.30104181 9.50170898 112.84155273 C9.51137695 113.88746078 9.52104492 114.93336884 9.53100586 116.01097107 C9.45389576 123.60621744 7.88464739 126.67828482 2.9375 132.375 C-1.60521193 134.88798958 -5.92698906 134.60447642 -11 134 C-14.78669534 132.71091222 -16.22143833 130.95661828 -18.09655762 127.56739807 C-20.59238024 122.4017212 -20.56300167 117.57381127 -20.51757812 111.92163086 C-20.5245874 110.83930679 -20.53159668 109.75698273 -20.53881836 108.64186096 C-20.55634969 105.08259029 -20.54479297 101.52412178 -20.53125 97.96484375 C-20.53394609 95.48197782 -20.53782949 92.99911293 -20.54284668 90.51625061 C-20.54873501 85.32054562 -20.54019905 80.12511624 -20.52148438 74.92944336 C-20.4986836 68.27579038 -20.51182946 61.62305123 -20.53577423 54.96938229 C-20.55023972 49.84521132 -20.54562285 44.72119289 -20.53526306 39.59701729 C-20.5325985 37.14385463 -20.53585598 34.69067804 -20.54518127 32.23753166 C-20.55536 28.80764024 -20.53982609 25.37878874 -20.51757812 21.94897461 C-20.52567505 20.93942719 -20.53377197 19.92987976 -20.54211426 18.88973999 C-20.46807326 12.71634042 -19.62256075 9.04638133 -16 4 C-10.86079899 -0.76316192 -6.79361442 -1.65980352 0 0 Z " fill="#FEBE40" transform="translate(232,527)"/>
<path d="M0 0 C1.25886772 -0.00021904 1.25886772 -0.00021904 2.54316711 -0.0004425 C5.31892475 0.00025452 8.0946154 0.0080371 10.87036133 0.01586914 C12.79421451 0.01773407 14.71806817 0.01915762 16.641922 0.02015686 C21.7070344 0.02397615 26.77211816 0.03380145 31.83721924 0.04486084 C37.0051637 0.05508758 42.17311279 0.05965719 47.34106445 0.06469727 C57.48235511 0.07542422 67.62361698 0.09301629 77.76489258 0.11352539 C77.76489258 8.03352539 77.76489258 15.95352539 77.76489258 24.11352539 C66.9162846 24.18134223 56.06781775 24.23636527 45.21904564 24.26896191 C40.18135061 24.28460781 35.14380831 24.30582657 30.10620117 24.33984375 C25.24326707 24.37247537 20.38047976 24.3903865 15.51744461 24.39815712 C13.66351639 24.40369379 11.80959606 24.41450558 9.95573044 24.43071556 C7.35597212 24.4525404 4.75681784 24.45549021 2.15698242 24.45410156 C1.39309204 24.46488739 0.62920166 24.47567322 -0.15783691 24.48678589 C-6.17628877 24.45207432 -10.14012413 22.98798413 -14.61010742 18.98852539 C-16.87769288 14.97664342 -17.16940108 11.61872106 -16.23510742 7.11352539 C-12.4137533 0.09798596 -7.29948128 -0.03307838 0 0 Z " fill="#EE7E00" transform="translate(772.235107421875,762.886474609375)"/>
<path d="M0 0 C9.82280079 -0.09040134 19.64532489 -0.16377363 29.46844769 -0.20724869 C34.02982233 -0.2281155 38.59089738 -0.25641641 43.15209961 -0.30175781 C47.55469008 -0.34524818 51.95699255 -0.36914393 56.35978127 -0.37950897 C58.03872015 -0.38689464 59.71764344 -0.4013173 61.39645958 -0.42292023 C63.74992189 -0.45199756 66.10219725 -0.45595434 68.45581055 -0.45410156 C69.49483017 -0.47567322 69.49483017 -0.47567322 70.55484009 -0.49768066 C74.04949439 -0.46795074 75.92886178 -0.0450177 78.90901184 1.84088135 C82.33861806 5.38223414 82.39008957 9.00002397 82.359375 13.70703125 C81.74961638 17.59755636 79.81165184 19.32223635 77 22 C74.06291999 23.46854 71.10656295 23.13019549 67.88818359 23.11352539 C66.79046883 23.11374443 66.79046883 23.11374443 65.670578 23.1139679 C63.24650124 23.11327003 60.82250088 23.10548354 58.3984375 23.09765625 C56.71977785 23.09579162 55.04111766 23.09436793 53.36245728 23.09336853 C48.94012962 23.08954688 44.51783472 23.07971959 40.09552002 23.06866455 C35.58451785 23.05844286 31.07351041 23.05386928 26.5625 23.04882812 C17.70831662 23.03809702 8.85416615 23.02050306 0 23 C0 15.41 0 7.82 0 0 Z " fill="#EF7E00" transform="translate(173,692)"/>
<path d="M0 0 C3.43647405 -0.43647524 4.69962699 -0.22169287 7.53515625 1.87109375 C16.26631321 10.73719904 19.68477555 16.99163056 19.61206055 29.54663086 C19.21031071 38.41542955 15.60552323 45.44592754 9.6875 52 C2.92186962 58.13696561 -5.79572356 60.50931914 -14.8203125 60.25390625 C-25.58869194 58.99952513 -33.58749149 51.33003276 -41 44 C-41.495 42.515 -41.495 42.515 -42 41 C-41.16976318 40.81207886 -41.16976318 40.81207886 -40.32275391 40.62036133 C-19.41185941 36.10292856 -19.41185941 36.10292856 -4 22 C-1.72887106 17.5890659 -1.37245715 13.05197849 -0.875 8.1875 C-0.78863281 7.39923828 -0.70226562 6.61097656 -0.61328125 5.79882812 C-0.40248936 3.86656916 -0.20037104 1.93336737 0 0 Z " fill="#BA3019" transform="translate(928,416)"/>
<path d="M0 0 C2.76324656 1.43085707 5.37282792 3.08507759 8 4.75 C8.77529053 5.23299561 9.55058105 5.71599121 10.34936523 6.21362305 C12.02098211 7.25529277 13.69076017 8.29991793 15.35888672 9.34716797 C18.07646201 11.0478506 20.80412472 12.73117679 23.53515625 14.41015625 C25.37767189 15.5441608 27.22012116 16.6782732 29.0625 17.8125 C29.91779297 18.33875977 30.77308594 18.86501953 31.65429688 19.40722656 C36.52465121 22.41940596 41.29791049 25.52307942 45.98999023 28.80737305 C51.8471176 32.28266361 59.45731794 31.6659777 66 31 C69.10708551 29.76951812 71.45864875 28.14546236 74 26 C74.825 25.401875 75.65 24.80375 76.5 24.1875 C76.995 23.795625 77.49 23.40375 78 23 C78.33 23.66 78.66 24.32 79 25 C77.05087209 30.63081396 74.40058794 35.82719545 69.21484375 39.140625 C66.38991687 40.23671656 64.02990563 40.37437697 61 40.4375 C59.453125 40.49744141 59.453125 40.49744141 57.875 40.55859375 C47.73867318 39.09740954 38.23367811 33.26255531 29.1875 28.6875 C27.48835449 27.8363562 27.48835449 27.8363562 25.75488281 26.96801758 C20.86095734 24.5060106 15.98637364 22.02536967 11.19140625 19.375 C10.50989502 18.99899658 9.82838379 18.62299316 9.1262207 18.2355957 C7.39430603 17.26811233 5.67317754 16.28138757 3.953125 15.29296875 C0.05658693 13.58694481 -2.74716127 13.21696806 -6.82275391 14.63354492 C-8.9003006 15.52129002 -10.91608717 16.49103239 -12.9375 17.5 C-13.68185303 17.8609375 -14.42620605 18.221875 -15.19311523 18.59375 C-20.65342442 21.26563114 -26.0315036 24.0861486 -31.37548828 26.98266602 C-38.49196141 30.83750151 -45.74581987 34.41316124 -53 38 C-53.99 38.495 -53.99 38.495 -55 39 C-63.43880254 39.62155486 -71.114491 39.77127011 -78.00390625 34.453125 C-81.15124373 31.5791926 -82.79956878 29.73491446 -83.9375 25.5625 C-83.958125 24.716875 -83.97875 23.87125 -84 23 C-83.38511719 23.42152344 -82.77023437 23.84304688 -82.13671875 24.27734375 C-80.92435547 25.09912109 -80.92435547 25.09912109 -79.6875 25.9375 C-78.48673828 26.75541016 -78.48673828 26.75541016 -77.26171875 27.58984375 C-71.65404353 31.0861663 -65.36991078 30.90998725 -59 30 C-54.73712076 28.20103403 -50.95654357 25.81017933 -47.08447266 23.30957031 C-43.03872801 20.76783053 -38.84801829 18.47212276 -34.6875 16.125 C-27.1388332 11.82368936 -19.62867325 7.46073239 -12.15307617 3.03369141 C-4.66978 -1.39585815 -4.66978 -1.39585815 0 0 Z " fill="#E68C00" transform="translate(515,456)"/>
<path d="M0 0 C1.06460449 -0.00945648 2.12920898 -0.01891296 3.22607422 -0.02865601 C4.93561279 -0.01954697 4.93561279 -0.01954697 6.6796875 -0.01025391 C7.85934082 -0.01312408 9.03899414 -0.01599426 10.25439453 -0.01895142 C12.74577312 -0.02099076 15.23716776 -0.01547003 17.72851562 -0.00292969 C21.54072899 0.01312481 25.35188209 -0.00278383 29.1640625 -0.02197266 C31.58593984 -0.0199902 34.00781652 -0.01614649 36.4296875 -0.01025391 C37.56937988 -0.0163266 38.70907227 -0.02239929 39.88330078 -0.02865601 C40.94790527 -0.01919952 42.01250977 -0.00974304 43.109375 0 C44.04249512 0.00238678 44.97561523 0.00477356 45.93701172 0.00723267 C49.11779764 0.47013313 50.97693191 1.48861169 53.5546875 3.38818359 C56.49815281 8.56462258 57.30348244 12.58502281 56.5546875 18.38818359 C54.02015093 21.60773004 52.44171445 23.09250794 48.5546875 24.38818359 C46.91451684 24.48537273 45.27071781 24.52634042 43.62768555 24.53344727 C42.62621994 24.53982712 41.62475433 24.54620697 40.59294128 24.55278015 C38.97105644 24.55444939 38.97105644 24.55444939 37.31640625 24.55615234 C35.64612114 24.56114494 35.64612114 24.56114494 33.9420929 24.5662384 C31.5842022 24.57130448 29.22630433 24.57364683 26.8684082 24.57348633 C23.26696892 24.57566858 19.66583802 24.59381626 16.06445312 24.61279297 C13.77343855 24.61572782 11.48242251 24.617712 9.19140625 24.61865234 C7.57863045 24.62943062 7.57863045 24.62943062 5.93327332 24.64042664 C-0.68884465 24.62027295 -5.80364109 24.3841131 -11.2578125 20.26318359 C-13.9955683 16.66499026 -14.89624603 13.89751885 -14.4453125 9.38818359 C-11.30266209 2.98201161 -7.12549148 0.01822593 0 0 Z " fill="#EE7E00" transform="translate(238.4453125,760.61181640625)"/>
<path d="M0 0 C0.33 0 0.66 0 1 0 C0.80335498 8.11607617 -1.06434099 15.55138814 -3.3671875 23.2734375 C-4.50896972 27.14177851 -5.50406746 31.02813226 -6.43267822 34.95310974 C-7.12448275 37.8524659 -7.85365541 40.74189241 -8.5859375 43.6312561 C-8.94269296 45.07481908 -9.28378934 46.52235051 -9.60839844 47.97348022 C-12.21162166 59.53576405 -12.21162166 59.53576405 -16.30200195 62.88476562 C-19.16390572 64.22300064 -21.96407965 65.13015495 -25 66 C-27.0971951 66.79752257 -29.1895695 67.60781875 -31.27734375 68.4296875 C-33.49563207 69.24957956 -35.71574809 70.06454055 -37.9375 70.875 C-39.69888306 71.52190796 -39.69888306 71.52190796 -41.49584961 72.18188477 C-48.67010181 74.80813431 -55.85608769 77.40078709 -63.0625 79.9375 C-64.20996704 80.34234619 -64.20996704 80.34234619 -65.38061523 80.75537109 C-70.87318732 82.66788215 -76.41879039 84.36557044 -82 86 C-83.08667969 84.89591797 -83.08667969 84.89591797 -84.1953125 83.76953125 C-91.30935914 76.56983689 -91.30935914 76.56983689 -99 70 C-98.67 68.68 -98.34 67.36 -98 66 C-92.27511328 65.44643785 -86.5500097 64.89519075 -80.82470703 64.34594727 C-78.88324182 64.15938535 -76.94183383 63.97222683 -75.00048828 63.78442383 C-72.18537495 63.51220426 -69.37009282 63.24183853 -66.5546875 62.97265625 C-65.63895462 62.88488419 -64.72322174 62.79711212 -63.77973938 62.7066803 C-57.46584374 62.11155868 -51.1576598 61.64065868 -44.82446289 61.29882812 C-36.94420131 60.46509659 -31.84767054 57.4853356 -26.82250977 51.5222168 C-23.27401226 46.61136245 -20.78885879 41.13821786 -18.1875 35.6875 C-17.27732312 33.81649036 -16.36262205 31.94773879 -15.44758606 30.07910156 C-14.83845741 28.83465455 -14.23069114 27.58953973 -13.62431335 26.34375 C-10.91977096 20.79606543 -8.08348432 15.32465243 -5.1875 9.875 C-4.77330811 9.09471436 -4.35911621 8.31442871 -3.93237305 7.51049805 C-2.9556793 5.67325905 -1.97794368 3.83657398 -1 2 C-0.67 1.34 -0.34 0.68 0 0 Z " fill="#FCBF2C" transform="translate(511,277)"/>
<path d="M0 0 C7.45856827 -0.11317745 14.91666363 -0.204816 22.37590981 -0.25906086 C25.83996225 -0.28510226 29.30339438 -0.32039692 32.76708984 -0.37719727 C36.75350394 -0.44215686 40.73967106 -0.46622587 44.7265625 -0.48828125 C45.96427399 -0.51408768 47.20198547 -0.5398941 48.47720337 -0.56648254 C58.08149649 -0.56960734 58.08149649 -0.56960734 61.78417969 2.34692383 C65.11606696 6.3363045 64.71457318 9.17942509 64.46875 14.17578125 C63.87440155 17.75673069 62.75912815 19.64662599 60 22 C57.36284904 23.31857548 55.4016736 23.11991704 52.44873047 23.11352539 C51.28767792 23.11344986 50.12662537 23.11337433 48.9303894 23.11329651 C47.67203278 23.10813522 46.41367615 23.10297394 45.1171875 23.09765625 C43.83264679 23.0962413 42.54810608 23.09482635 41.22463989 23.09336853 C37.80843158 23.08954911 34.39226574 23.07972373 30.97607422 23.06866455 C27.49056574 23.05843807 24.0050504 23.05386826 20.51953125 23.04882812 C13.67966829 23.03810095 6.83984055 23.02050879 0 23 C0 15.41 0 7.82 0 0 Z " fill="#EE7D00" transform="translate(242,576)"/>
<path d="M0 0 C1.0686731 -0.0038269 2.13734619 -0.00765381 3.23840332 -0.01159668 C5.49439437 -0.01431464 7.75041699 -0.00696165 10.00634766 0.00976562 C13.45677034 0.03117567 16.90511073 0.00995872 20.35546875 -0.015625 C22.54948376 -0.0129817 24.74349747 -0.00785669 26.9375 0 C27.96782349 -0.00809692 28.99814697 -0.01619385 30.05969238 -0.02453613 C37.21383276 0.0689879 37.21383276 0.0689879 41.07226562 2.43164062 C45.26483846 7.07326348 45.14348309 11.03658825 44.84375 17.03125 C43.55773431 20.70558054 41.31881055 22.72165233 37.96875 24.53125 C34.33875248 25.24743692 30.78424025 25.20907814 27.09375 25.16015625 C26.05105957 25.16256821 25.00836914 25.16498016 23.93408203 25.16746521 C21.73531277 25.16648817 19.53651848 25.15312896 17.33789062 25.12817383 C13.97961542 25.09386102 10.62397245 25.10752508 7.265625 25.12695312 C5.12498884 25.12005437 2.98435945 25.11038173 0.84375 25.09765625 C-0.15640137 25.10261612 -1.15655273 25.10757599 -2.18701172 25.11268616 C-8.10439888 25.01311961 -11.50509685 24.43974122 -16.03125 20.53125 C-18.6199056 17.11893125 -18.32346504 13.69531432 -18.03125 9.53125 C-15.60072755 0.03011677 -8.38117588 -0.0658645 0 0 Z " fill="#EE7E00" transform="translate(263.03125,474.46875)"/>
<path d="M0 0 C13.2 0 26.4 0 40 0 C40 7.92 40 15.84 40 24 C26.8 24 13.6 24 0 24 C0 16.08 0 8.16 0 0 Z " fill="#D95900" transform="translate(810,763)"/>
<path d="M0 0 C13.2 0 26.4 0 40 0 C40 7.92 40 15.84 40 24 C26.8 24 13.6 24 0 24 C0 16.08 0 8.16 0 0 Z " fill="#DA5A00" transform="translate(810,651)"/>
<path d="M0 0 C12.87 0 25.74 0 39 0 C39 7.59 39 15.18 39 23 C26.13 23 13.26 23 0 23 C0 15.41 0 7.82 0 0 Z " fill="#EF7E00" transform="translate(173,576)"/>
<path d="M0 0 C12.87 0 25.74 0 39 0 C39 7.59 39 15.18 39 23 C26.13 23 13.26 23 0 23 C0 15.41 0 7.82 0 0 Z " fill="#DA5A00" transform="translate(811,539)"/>
<path d="M0 0 C13.6019451 1.00815481 27.1823514 2.1660446 40.75 3.5625 C42.61338013 3.75259644 42.61338013 3.75259644 44.5144043 3.9465332 C46.26297729 4.12962036 46.26297729 4.12962036 48.046875 4.31640625 C49.07651367 4.42412354 50.10615234 4.53184082 51.16699219 4.64282227 C53.81460988 4.97662653 56.39195094 5.43955072 59 6 C59 6.66 59 7.32 59 8 C52.01521221 10.05838199 45.02599775 12.1009293 38.03076172 14.12353516 C36.19322937 14.65493045 34.3561752 15.18798822 32.52001953 15.72412109 C30.51654939 16.30638383 28.50845866 16.87268472 26.5 17.4375 C24.87578125 17.89962891 24.87578125 17.89962891 23.21875 18.37109375 C19.02492081 19.19051911 16.2854834 19.64197222 12 19 C9.56101597 16.71364183 8.08687514 14.04425143 6.5 11.125 C5.83871094 10.00544922 5.83871094 10.00544922 5.1640625 8.86328125 C2 3.40969526 2 3.40969526 2 1 C1.34 0.67 0.68 0.34 0 0 Z " fill="#FDBF2B" transform="translate(552,339)"/>
<path d="M0 0 C0.66 0 1.32 0 2 0 C2.28795662 5.79819029 2.57266767 11.59652795 2.85449219 17.39501953 C2.95062528 19.36381231 3.04761454 21.33256349 3.14550781 23.30126953 C3.28680969 26.14605121 3.42493756 28.99097283 3.5625 31.8359375 C3.60624756 32.70302338 3.64999512 33.57010925 3.69506836 34.46347046 C3.97387833 40.31322055 4.04921439 46.14397584 4 52 C1.73595458 53.36680153 -0.53501021 54.71844445 -2.8125 56.0625 C-3.45509766 56.45244141 -4.09769531 56.84238281 -4.75976562 57.24414062 C-6.4628915 58.24130759 -8.22945858 59.12812687 -10 60 C-10.99 59.67 -11.98 59.34 -13 59 C-11.63463204 49.8247273 -9.69009719 40.82968976 -7.59594727 31.80029297 C-7.06352396 29.50441544 -6.53619033 27.20741586 -6.00976562 24.91015625 C-4.09583997 16.58365544 -2.1148107 8.27823188 0 0 Z " fill="#FAC12D" transform="translate(461,404)"/>
<path d="M0 0 C0.76953125 1.609375 0.76953125 1.609375 1 4 C-0.35801425 6.27415835 -1.67868506 8.19606122 -3.3125 10.25 C-3.72951172 10.80429687 -4.14652344 11.35859375 -4.57617188 11.9296875 C-5.65974346 13.33297319 -6.82484187 14.6724679 -8 16 C-8.66 16 -9.32 16 -10 16 C-10.495 17.485 -10.495 17.485 -11 19 C-11.66 19 -12.32 19 -13 19 C-13.23074219 19.54011719 -13.46148438 20.08023437 -13.69921875 20.63671875 C-15.37650163 23.68403449 -17.54644449 26.19653005 -19.8125 28.8125 C-20.28953369 29.36784424 -20.76656738 29.92318848 -21.25805664 30.49536133 C-22.28859923 31.69392537 -23.32080804 32.89105835 -24.35449219 34.08691406 C-26.07446942 36.08657899 -27.77639358 38.10066403 -29.4765625 40.1171875 C-30.62987395 41.47424258 -31.78351328 42.8310191 -32.9375 44.1875 C-33.48059814 44.83501221 -34.02369629 45.48252441 -34.58325195 46.1496582 C-35.10105225 46.75382568 -35.61885254 47.35799316 -36.15234375 47.98046875 C-36.60601318 48.51567139 -37.05968262 49.05087402 -37.52709961 49.60229492 C-39.2767401 51.26261182 -41.47783181 53 -44 53 C-45.27546739 49.48468744 -45.67028804 46.69863978 -45 43 C-41.53456263 38.39300679 -37.36933314 34.73288816 -33 31 C-32.22914063 30.31679688 -31.45828125 29.63359375 -30.6640625 28.9296875 C-29.38301293 27.80054105 -28.09309981 26.68134066 -26.79296875 25.57421875 C-24.33555909 23.41662377 -22.07549345 21.0859808 -19.78515625 18.75390625 C-17.26984789 16.28262955 -14.60068287 14.00667831 -11.92578125 11.7109375 C-10.07187039 10.06385239 -8.34624299 8.34656208 -6.625 6.5625 C-4 4 -4 4 -2 4 C-1.34 2.68 -0.68 1.36 0 0 Z " fill="#E68C00" transform="translate(630,360)"/>
<path d="M0 0 C3.60182982 2.77855443 6.81301613 5.76995524 10 9 C13.2675012 12.29498728 16.53966727 15.58530942 19.8125 18.875 C20.67681641 19.74769531 21.54113281 20.62039063 22.43164062 21.51953125 C28.37434841 27.48466435 34.46541302 33.12814808 41 38.4375 C43.43522381 41.55763051 43.48955964 43.2209562 43.2421875 47.0625 C42.94869813 49.41041499 42.57408401 51.70366395 42 54 C41.46375 53.31808594 40.9275 52.63617188 40.375 51.93359375 C37.65656657 48.57579193 34.83895201 45.31833438 32 42.0625 C30.83695807 40.72420293 29.67420421 39.38565547 28.51171875 38.046875 C27.92567871 37.37205078 27.33963867 36.69722656 26.73583984 36.00195312 C22.13061005 30.69071764 17.55613639 25.3533824 13 20 C12.52336914 19.44086914 12.04673828 18.88173828 11.55566406 18.30566406 C10.17855623 16.68659356 8.80706442 15.06295338 7.4375 13.4375 C6.65246094 12.50808594 5.86742187 11.57867187 5.05859375 10.62109375 C0 4.18026565 0 4.18026565 0 0 Z " fill="#E58C00" transform="translate(394,360)"/>
<path d="M0 0 C0.33 0 0.66 0 1 0 C1.36205464 1.95689037 1.71441421 3.91557668 2.0625 5.875 C2.25972656 6.96554687 2.45695313 8.05609375 2.66015625 9.1796875 C3 12 3 12 2 14 C0.68 13.67 -0.64 13.34 -2 13 C-3.47081114 7.99924211 -2.28141244 4.56282488 0 0 Z " fill="#F19600" transform="translate(571,449)"/>
<path d="M0 0 C0.8125 1.625 0.8125 1.625 1 4 C-0.46818136 6.24609835 -2.15852858 8.02378677 -4 10 C-4.99 9.67 -5.98 9.34 -7 9 C-5.625 6.5 -5.625 6.5 -4 4 C-3.34 4 -2.68 4 -2 4 C-1.34 2.68 -0.68 1.36 0 0 Z " fill="#DD8500" transform="translate(630,360)"/>
<path d="M0 0 C0.99 0.33 1.98 0.66 3 1 C3.25 8.625 3.25 8.625 1 12 C-0.26237731 9.47524538 -0.09856404 7.68799534 -0.0625 4.875 C-0.05347656 3.96492188 -0.04445313 3.05484375 -0.03515625 2.1171875 C-0.02355469 1.41851562 -0.01195312 0.71984375 0 0 Z " fill="#2F200C" transform="translate(458,398)"/>
<path d="M0 0 C0.66 0.33 1.32 0.66 2 1 C-0.64 3.64 -3.28 6.28 -6 9 C-6.66 8.34 -7.32 7.68 -8 7 C-5.36 4.69 -2.72 2.38 0 0 Z " fill="#F15E3B" transform="translate(172,346)"/>
<path d="M0 0 C0.66 0.33 1.32 0.66 2 1 C0.02 2.98 -1.96 4.96 -4 7 C-4.99 6.67 -5.98 6.34 -7 6 C-4.69 4.02 -2.38 2.04 0 0 Z " fill="#EE5E3C" transform="translate(491,73)"/>
<path d="M0 0 C2.5 2.3125 2.5 2.3125 5 5 C5 5.99 5 6.98 5 8 C4.34 8 3.68 8 3 8 C0.95830515 5.09451118 0 3.59857954 0 0 Z " fill="#CE7D00" transform="translate(394,360)"/>
<path d="M0 0 C1.0625 1.8125 1.0625 1.8125 2 4 C1.67 4.99 1.34 5.98 1 7 C1.99 7.33 2.98 7.66 4 8 C2.68 8.33 1.36 8.66 0 9 C-1.10844919 5.67465243 -0.84454356 3.37817425 0 0 Z " fill="#E0BB27" transform="translate(449,455)"/>
</svg>
