<?xml version="1.0" encoding="UTF-8" standalone="no"?>
<!-- Created with Inkscape (http://www.inkscape.org/) -->

<svg
   width="9.848031mm"
   height="13.701648mm"
   viewBox="0 0 9.848031 13.701648"
   version="1.1"
   id="svg1"
   xml:space="preserve"
   inkscape:version="1.3.1 (9b9bdc1480, 2023-11-25, custom)"
   sodipodi:docname="marker-enemy-d.svg"
   xmlns:inkscape="http://www.inkscape.org/namespaces/inkscape"
   xmlns:sodipodi="http://sodipodi.sourceforge.net/DTD/sodipodi-0.dtd"
   xmlns="http://www.w3.org/2000/svg"
   xmlns:svg="http://www.w3.org/2000/svg"><sodipodi:namedview
     id="namedview1"
     pagecolor="#ffffff"
     bordercolor="#000000"
     borderopacity="0.25"
     inkscape:showpageshadow="2"
     inkscape:pageopacity="0.0"
     inkscape:pagecheckerboard="0"
     inkscape:deskcolor="#d1d1d1"
     inkscape:document-units="mm"
     inkscape:zoom="10.423737"
     inkscape:cx="16.932507"
     inkscape:cy="15.253646"
     inkscape:window-width="1848"
     inkscape:window-height="1016"
     inkscape:window-x="72"
     inkscape:window-y="27"
     inkscape:window-maximized="1"
     inkscape:current-layer="layer1" /><defs
     id="defs1"><linearGradient
       id="MyGradient"
       gradientTransform="scale(0.81240384,1.2309149)"
       x1="0"
       y1="0"
       x2="40.620192"
       y2="0"
       gradientUnits="userSpaceOnUse">
          <stop
   offset="10%"
   stop-color="#ffbf59"
   id="stop1" />
          <stop
   offset="90%"
   stop-color="#cf8002"
   id="stop2" />
        </linearGradient></defs><g
     inkscape:label="Layer 1"
     inkscape:groupmode="layer"
     id="layer1"
     transform="translate(-100.02324,-141.41294)"><g
       id="g2"
       transform="matrix(0.26458333,0,0,0.26458333,100.63989,141.88542)">
	<path
   class="st0"
   d="M 33,17.8 C 33,8 25.6,0 16.5,0 7.4,0 0,8 0,17.8 c 0,1.9 0.3,3.8 0.8,5.5 0,0 1.4,6.7 15.6,26.7 C 24.5,38.5 28.5,31.4 30.3,27.5 32,24.7 33,21.3 33,17.8 Z M 16.3,29.2 c -5.8,0 -10.5,-5 -10.5,-11.3 0,-6.2 4.7,-11.3 10.5,-11.3 5.8,0 10.4,5 10.4,11.3 0.1,6.3 -4.6,11.3 -10.4,11.3 z m 0,0"
   id="path2"
   style="fill:url(#MyGradient)" />
</g><g
       transform="matrix(0.10258314,0,0,0.10258314,83.598785,122.34673)"
       id="g24"><path
         d="m 200.965,220.328 c 0,0 -5.275,-18.85 -13.436,-26.338 -8.161,-7.488 -26.618,-12.936 -27.416,-1.764 -0.26,3.643 11.512,21.857 13.116,31.224 1.604,9.367 18.317,10.587 18.317,10.587 z"
         fill="#3f3941"
         id="path1" /><path
         d="m 197.851,224.86 c -2.537,-12.172 -8.165,-25.746 -13.46,-33.315 -8.987,-6.063 -23.57,-9.224 -24.278,0.681 -0.26,3.643 11.512,21.857 13.116,31.224 a 8.107,8.107 0 0 0 0.794,2.361 c 4.827,2.493 14.084,4.063 19.846,4.845 z"
         fill="#f37777"
         id="path2-3" /><path
         d="m 208.109,208.232 a 11.032,11.032 0 0 0 -4.576,-0.83 c -5.034,0.381 -12.828,2.607 -15.74,6.527 -4.231,5.7 -9.526,30.143 -8.462,38.688 1.064,8.545 18.806,13.213 28.778,13.213 z"
         fill="#3f3941"
         id="path3" /><path
         d="m 208.109,236.048 c 0,0 -6.072,0.473 -9.988,4.814 -3.916,4.341 -11.208,11.528 -10.435,16.548 0.773,5.02 2.458,10.631 11.441,7.475 a 36.909,36.909 0 0 0 8.982,0.945 z"
         fill="#e8dced"
         id="path4" /><path
         d="m 193.777,241.563 a 6.306,6.306 0 0 1 -0.788,-0.05 c -4.317,-0.542 -7.023,-5.989 -6.177,-6.958 0.977,-1.12 2.9,-5.224 6.955,-5.266 4.566,-0.047 6.36,3.785 7.374,5.754 0.147,0.285 1.265,1.467 0.864,2.126 -0.381,0.624 -1.074,0.187 -1.976,0.973 -1.177,0.991 -3.594,3.421 -6.252,3.421 z"
         fill="#615764"
         id="path5" /><path
         d="m 200.376,235.727 c -1.22,-0.736 -2.3,-5.526 -6.609,-5.526 -3.795,0 -6.081,4.345 -6.081,5.169 a 6.611,6.611 0 0 0 5.412,5.168 c 3.851,0.477 5.945,-2.86 6.765,-3.319 1.189,-0.665 1.869,-0.673 0.513,-1.492 z"
         fill="#ffffff"
         id="path6" /><ellipse
         cx="5.0840001"
         cy="5.243"
         rx="5.0840001"
         ry="5.243"
         transform="translate(188.683,230.162)"
         fill="#4c383d"
         id="ellipse6" /><ellipse
         cx="3.0699999"
         cy="3.165"
         rx="3.0699999"
         ry="3.165"
         transform="translate(190.698,232.239)"
         fill="#3d2a2e"
         id="ellipse7" /><ellipse
         cx="0.94700003"
         cy="0.977"
         rx="0.94700003"
         ry="0.977"
         transform="translate(190.397,232.602)"
         fill="#fbfcfc"
         id="ellipse8" /><path
         d="m 208.109,252.973 a 9.06,9.06 0 0 0 -4.726,2.255 c -3.456,3.2 -8.018,5.1 -10.8,3.56 -2.782,-1.54 -3.285,-1.5 -0.974,0.615 2.311,2.115 7.766,1.564 10.439,0 a 9.154,9.154 0 0 1 6.062,-0.733 z"
         fill="#3d2a2e"
         id="path8" /><path
         d="m 208.109,256.367 c 0,0 -3.39,-0.688 -4.726,1.578 -1.336,2.266 0.433,6.421 4.726,6.421 z"
         fill="#f37777"
         id="path9" /><path
         d="m 203.533,207.4 c -0.484,0.036 -1,0.1 -1.527,0.166 a 43.247,43.247 0 0 0 -1.588,12.41 c 0.466,7.474 3.115,22.907 3.115,22.907 l 4.576,2.968 v -37.619 a 11.032,11.032 0 0 0 -4.576,-0.832 z"
         fill="#e8dced"
         id="path10" /><path
         d="m 203.533,242.885 c -0.063,1.488 4.576,2.968 4.576,2.968 V 238 c 0,0 -4.425,1.324 -4.576,4.885 z"
         fill="#3d2a2e"
         id="path11" /><path
         d="m 208.109,238 a 11.667,11.667 0 0 0 -3.1,0.67 c -1.056,0.5 -2.007,3.414 -1.479,4.217 0.528,0.803 1.786,0.3 2.213,0 0.427,-0.3 -0.744,-2.611 0,-2.51 0.744,0.101 1.378,3.413 0.638,3.614 -0.74,0.201 1.725,1.864 1.725,1.864 z"
         fill="#4c383d"
         id="path12" /><path
         d="m 215.253,220.328 c 0,0 5.275,-18.85 13.436,-26.338 8.161,-7.488 26.618,-12.936 27.416,-1.764 0.26,3.643 -11.511,21.857 -13.116,31.224 -1.605,9.367 -18.317,10.587 -18.317,10.587 z"
         fill="#3f3941"
         id="path13" /><path
         d="m 218.367,224.86 c 2.537,-12.172 8.166,-25.746 13.46,-33.315 8.987,-6.063 23.57,-9.224 24.278,0.681 0.26,3.643 -11.511,21.857 -13.116,31.224 a 8.105,8.105 0 0 1 -0.793,2.361 c -4.828,2.493 -14.084,4.063 -19.846,4.845 z"
         fill="#f37777"
         id="path14" /><path
         d="m 208.109,208.232 a 11.039,11.039 0 0 1 4.577,-0.83 c 5.034,0.381 12.827,2.607 15.739,6.527 4.231,5.7 9.527,30.143 8.463,38.688 -1.064,8.545 -18.807,13.213 -28.779,13.213 z"
         fill="#3f3941"
         id="path15" /><path
         d="m 208.109,236.048 c 0,0 6.072,0.473 9.989,4.814 3.917,4.341 11.202,11.528 10.435,16.548 -0.767,5.02 -2.459,10.631 -11.442,7.475 a 36.9,36.9 0 0 1 -8.982,0.945 z"
         fill="#e8dced"
         id="path16" /><path
         d="m 222.441,241.563 a 6.306,6.306 0 0 0 0.788,-0.05 c 4.318,-0.542 7.023,-5.989 6.178,-6.958 -0.978,-1.12 -2.9,-5.224 -6.956,-5.266 -4.565,-0.047 -6.36,3.785 -7.374,5.754 -0.147,0.285 -1.265,1.467 -0.864,2.126 0.381,0.624 1.074,0.187 1.977,0.973 1.176,0.991 3.593,3.421 6.251,3.421 z"
         fill="#615764"
         id="path17" /><path
         d="m 215.842,235.727 c 1.221,-0.736 2.295,-5.526 6.609,-5.526 3.795,0 6.082,4.345 6.082,5.169 a 6.611,6.611 0 0 1 -5.412,5.168 c -3.851,0.477 -5.946,-2.86 -6.766,-3.319 -1.189,-0.665 -1.869,-0.673 -0.513,-1.492 z"
         fill="#ffffff"
         id="path18" /><ellipse
         cx="5.0840001"
         cy="5.243"
         rx="5.0840001"
         ry="5.243"
         transform="translate(217.367,230.162)"
         fill="#4c383d"
         id="ellipse18" /><ellipse
         cx="3.0699999"
         cy="3.165"
         rx="3.0699999"
         ry="3.165"
         transform="translate(219.381,232.239)"
         fill="#3d2a2e"
         id="ellipse19" /><ellipse
         cx="0.94700003"
         cy="0.977"
         rx="0.94700003"
         ry="0.977"
         transform="translate(223.927,232.602)"
         fill="#fbfcfc"
         id="ellipse20" /><path
         d="m 208.109,252.973 a 9.06,9.06 0 0 1 4.726,2.255 c 3.456,3.2 8.018,5.1 10.8,3.56 2.782,-1.54 3.284,-1.5 0.974,0.615 -2.31,2.115 -7.767,1.564 -10.439,0 a 9.156,9.156 0 0 0 -6.063,-0.733 z"
         fill="#3d2a2e"
         id="path20" /><path
         d="m 208.109,256.367 c 0,0 3.39,-0.688 4.726,1.578 1.336,2.266 -0.433,6.421 -4.726,6.421 z"
         fill="#f37777"
         id="path21" /><path
         d="m 212.686,207.4 c 0.483,0.036 1,0.1 1.526,0.166 a 43.212,43.212 0 0 1 1.588,12.41 c -0.466,7.474 -3.115,22.907 -3.115,22.907 l -4.576,2.968 v -37.619 a 11.039,11.039 0 0 1 4.577,-0.832 z"
         fill="#e8dced"
         id="path22" /><path
         d="m 212.685,242.885 c 0.063,1.488 -4.576,2.968 -4.576,2.968 V 238 c 0,0 4.426,1.324 4.576,4.885 z"
         fill="#3d2a2e"
         id="path23" /><path
         d="m 208.109,238 a 11.672,11.672 0 0 1 3.1,0.67 c 1.056,0.5 2.006,3.414 1.478,4.217 -0.528,0.803 -1.786,0.3 -2.213,0 -0.427,-0.3 0.744,-2.611 0,-2.51 -0.744,0.101 -1.377,3.413 -0.638,3.614 0.739,0.201 -1.725,1.864 -1.725,1.864 z"
         fill="#4c383d"
         id="path24" /></g></g><style
     type="text/css"
     id="style1">
	.st0{fill:url(#MyGradient)}
</style></svg>
