<?xml version="1.0" encoding="utf-8"?>
<!-- Generator: Adobe Illustrator 21.1.0, SVG Export Plug-In . SVG Version: 6.00 Build 0)  -->
<svg version="1.1" id="Laag_1" xmlns="http://www.w3.org/2000/svg" xmlns:xlink="http://www.w3.org/1999/xlink" x="0px" y="0px"
	 viewBox="0 0 33 50" style="enable-background:new 0 0 33 50;" xml:space="preserve">
<style type="text/css">
	.st0{fill:url(#MyGradient)}
</style>
      <defs>
        <linearGradient id="MyGradient">
          <stop offset="1%" stop-color="#f09c16" />
          <stop offset="90%" stop-color="#cf8002" />
        </linearGradient>
      </defs>
<g>
	<path class="st0" d="M33,17.8C33,8,25.6,0,16.5,0C7.4,0,0,8,0,17.8c0,1.9,0.3,3.8,0.8,5.5c0,0,1.4,6.7,15.6,26.7
		c8.1-11.5,12.1-18.6,13.9-22.5C32,24.7,33,21.3,33,17.8L33,17.8z M16.3,29.2c-5.8,0-10.5-5-10.5-11.3c0-6.2,4.7-11.3,10.5-11.3
		c5.8,0,10.4,5,10.4,11.3C26.8,24.2,22.1,29.2,16.3,29.2L16.3,29.2z M16.3,29.2"/>
</g>
</svg>